<?xml version="1.0" encoding="UTF-8"?>
<!DOCTYPE svg PUBLIC "-//W3C//DTD SVG 1.1//EN" "http://www.w3.org/Graphics/SVG/1.1/DTD/svg11.dtd">
<!-- Creator: CorelDRAW 2020 (64 Bit) -->
<svg xmlns="http://www.w3.org/2000/svg" xml:space="preserve" width="42.573cm" height="28.184cm" version="1.1" style="shape-rendering:geometricPrecision; text-rendering:geometricPrecision; image-rendering:optimizeQuality; fill-rule:evenodd; clip-rule:evenodd"
viewBox="0 0 42573 28184"
 xmlns:xlink="http://www.w3.org/1999/xlink"
 xmlns:xodm="http://www.corel.com/coreldraw/odm/2003">
 <defs>
  <style type="text/css">
   <![CDATA[
    .str0 {stroke:black;stroke-width:41.89;stroke-miterlimit:22.9256}
    .fil3 {fill:none;fill-rule:nonzero}
    .fil4 {fill:black;fill-rule:nonzero}
    .fil0 {fill:black;fill-rule:nonzero}
    .fil5 {fill:#C40008;fill-rule:nonzero}
    .fil1 {fill:white;fill-rule:nonzero;fill-opacity:0.000000}
    .fil2 {fill:black;fill-rule:nonzero}
   ]]>
  </style>
    <clipPath id="id0" style="clip-rule:nonzero">
     <path d="M22282.49 12893.41l1269.28 0 0 678.12 -1269.28 0 0 -678.12z"/>
    </clipPath>
    <clipPath id="id1" style="clip-rule:nonzero">
     <path d="M22282.49 12893.41l1269.28 0 0 678.12 -1269.28 0 0 -678.12z"/>
    </clipPath>
 </defs>
 <g id="Camada_x0020_1">
  <metadata id="CorelCorpID_0Corel-Layer"/>
  <path class="fil0" d="M24254.47 15324.04c-158.43,60.07 -238.29,238 -178.08,396.4 60.14,158.42 238.08,238.25 396.47,178.07 158.39,-60.17 238.29,-238.11 178.04,-396.54 -60.21,-158.28 -238.08,-238.21 -396.43,-177.93zm-288.98 438.43c83.44,219.69 329.89,330.3 549.47,246.87 219.59,-83.4 330.27,-329.92 246.84,-549.5 83.43,219.58 -27.25,466.1 -246.84,549.5 -219.58,83.43 -466.03,-27.18 -549.47,-246.87zm591.68 357.73c-280.71,106.62 -595.84,-34.75 -702.54,-315.49 -106.69,-280.6 34.82,-595.84 315.49,-702.46 280.71,-106.77 595.84,34.85 702.5,315.45 106.69,280.74 -34.78,595.84 -315.45,702.5zm-2778.72 145.04c-158.39,60.18 -238.25,238.12 -178.01,396.4 60.18,158.43 238.05,238.26 396.4,178.08 158.46,-60.18 238.36,-238.11 178.11,-396.54 -60.17,-158.29 -238.14,-238.22 -396.5,-177.94zm-288.9 438.71c83.47,219.41 329.92,329.99 549.5,246.73 219.55,-83.53 330.2,-330.05 246.73,-549.64 83.47,219.59 -27.18,466.11 -246.73,549.64 -219.58,83.26 -466.03,-27.32 -549.5,-246.73zm591.64 357.45c-280.64,106.73 -595.78,-34.74 -702.5,-315.48 -106.69,-280.6 34.85,-595.84 315.45,-702.47 280.71,-106.65 595.84,34.85 702.53,315.6 106.7,280.6 -34.81,595.7 -315.48,702.35zm-1758.81 -4721.62l2862.01 -1087.9c149.01,-56.71 311.04,-46.34 450.28,27.81 -139.17,-74.15 -301.2,-84.52 -450.28,-27.81l-2862.01 1087.9zm3744.38 1002.86c6.65,230.72 -134.65,444.49 -352.3,527.26 217.72,-82.91 358.95,-296.54 352.3,-527.26zm-3123.7 1580.69l2771.4 -1053.43 -2771.4 1053.43zm2813.5 -942.71l-2771.36 1053.67c-61.13,23.09 -129.74,-7.67 -152.97,-68.82 -23.25,-61.06 7.57,-129.78 68.69,-152.86l2771.33 -1053.54c178.46,-67.85 291.25,-247.99 274.44,-438.19l-141.3 -1595.61c-11.98,-134.82 -84.63,-253.31 -199.27,-325.08 -114.78,-71.95 -253.07,-85.64 -379.62,-37.45l-2862.05 1088.01c-61.09,23.22 -129.74,-7.67 -153,-68.73 -23.22,-61.15 7.64,-129.84 68.72,-152.96l2862.05 -1088.14c196.54,-74.61 411.53,-53.49 589.75,58.21 178.25,111.6 291.14,295.7 309.67,505.26l141.34 1595.51c26.2,295.46 -149.22,575.46 -426.42,680.72zm-5987.53 -1320.8l597.45 -227.11 -597.45 227.11zm1180.37 -178.42c76.5,44.34 144.97,103.92 200.28,177.3l2319.03 3077.08 40 -15.2c-24.28,8.4 -51.21,0.24 -66.69,-20.29l-2292.27 -3041.59c-55.34,-73.38 -123.82,-133.07 -200.35,-177.3zm5425.07 2149.66l21.05 55.49 -21.02 -55.49 -0.03 0zm42.07 110.97l-2905.7 1104.57c-48.93,18.53 -105.29,2.49 -136.74,-39.4l-2319.06 -3077.08c-149.11,-197.83 -414.97,-274.57 -646.46,-186.45l-597.38 226.98c-61.09,23.22 -129.78,-7.53 -153,-68.69 -23.22,-61.05 7.64,-129.74 68.72,-153l597.39 -227.11c329.46,-125.29 707.89,-16.04 920.12,265.43l2265.43 3005.9 2822.4 -1072.8c61.12,-23.36 129.81,7.53 153,68.55 23.22,61.19 -7.6,129.88 -68.72,153.1z"/>
  <g id="_2068062681408">
   <g style="clip-path:url(#id0)">
    <polygon class="fil1" points="22282.49,12893.41 23551.77,12893.41 23551.77,13571.53 22282.49,13571.53 "/>
   </g>
   <g style="clip-path:url(#id1)">
    <g>
     <path id="1" class="fil2" d="M23548.96 13238.78c-0.08,-0.44 -0.28,-1.14 -0.61,-1.32 -6.58,-2.54 -9.83,-11.4 -18.94,-9.63 -3.43,0.61 -7.28,-0.97 -10.87,-0.71 -3.07,0.18 -6.58,-2.63 -9.47,0.79 -0.17,0.35 -1.13,0 -1.83,0 -3.77,-0.43 -7.64,-1.14 -11.4,-1.05 -7.46,0.09 -14.92,0.87 -22.35,1.05 -12.81,0.27 -25.51,0.43 -38.3,0.35 -10.87,-0.18 -21.66,-0.88 -32.53,-1.22 -5.7,-0.18 -11.49,0.44 -17.18,0 -6.06,-0.45 -12.09,-1.67 -18.15,-2.46 -3.06,-0.35 -6.13,-0.62 -9.03,-0.88 -1.66,0.35 -2.97,0.79 -4.21,0.88 -1.67,0 -3.32,-0.26 -5.07,-0.35 -2.3,-0.18 -4.65,-0.09 -7.02,-0.43 -2.19,-0.27 -4.3,-1.14 -6.48,-1.32 -5.72,-0.45 -11.58,0.08 -17.1,-1.06 -5.01,-0.96 -9.74,-0.25 -14.55,-0.25 -5.53,-0.1 -11.05,0.25 -16.57,0.08 -8.58,-0.35 -17,0.61 -25.68,-1.4 -7.55,-1.67 -15.78,-0.7 -23.76,-0.18 -3.16,0.26 -5.87,-1.14 -8.32,-1.92 -4.14,-1.41 -6.84,-5.62 -9.81,-9.12 -2.21,-2.63 -0.45,-9.47 -6.51,-7.72 -4.21,-5.09 -8.06,-9.81 -12,-14.54 -0.09,-0.1 -0.26,-0.18 -0.43,-0.18 -4.83,-0.7 -6.59,-4.3 -7.64,-7.45 -2.44,-1.58 -4.65,-2.55 -6.13,-4.12 -5.34,-5.62 -10.52,-11.4 -15.59,-17.35 -5.01,-5.8 -11.32,-10.18 -15.88,-16.49 -2.63,-3.77 -6.14,-7.02 -9.02,-10.78 -3.69,-5.08 -8.41,-9.56 -12.89,-14.02 -7.45,-7.54 -12.54,-17.27 -21.48,-23.4 -0.88,-0.63 -1.14,-2.12 -1.75,-3.26 -1.14,-2.19 -1.85,-4.64 -3.33,-6.48 -6.93,-8.07 -14.01,-16.04 -21.22,-23.94 -2.19,-2.44 -5.69,-4.28 -6.92,-7.09 -3.5,-8.33 -10.88,-13.41 -15.87,-20.52 -3.23,-4.64 -6.56,-9.2 -9.82,-13.85 -0.51,-0.87 -0.26,-2.19 -0.43,-3.5 -1.05,0 -2.29,-0.08 -3.6,-0.18 -0.33,-1.31 -0.33,-2.8 -1.04,-3.76 -5.17,-7.11 -10.44,-14.12 -15.88,-21.04 -2.71,-3.51 -5.96,-6.58 -8.49,-10.17 -4.56,-6.23 -8.94,-12.62 -13.14,-19.03 -3.86,-5.87 -7.3,-12.08 -11.24,-17.88 -2.62,-3.85 -5.52,-7.88 -9.01,-10.87 -2.73,-2.27 -6.59,-3.23 -10.09,-4.47 -1.93,-0.69 -4.03,-0.78 -6.06,-1.14 -5.24,-0.52 -10.25,-2.1 -15.41,-2.79 -5.79,-0.81 -11.75,-0.53 -17.63,-1.06 -6.57,-0.61 -13.05,-1.58 -19.56,-2.28 -3.14,-0.26 -6.3,-0.18 -9.45,-0.44 -6.49,-0.61 -12.97,-0.88 -19.55,-1.92 -11.57,-1.85 -23.66,-0.63 -35.41,-1.14 -3.94,-0.18 -7.36,-1.75 -11.83,-0.71 -4.92,1.22 -10.53,-0.96 -15.8,-1.66 -0.6,-0.09 -1.21,-0.27 -1.83,-0.34 -7.89,-0.71 -15.6,-1.42 -23.5,-2.03 -1.67,-0.17 -3.41,0 -5.16,0.18 -3.69,0.26 -8.41,2.19 -10.79,0.61 -3.58,-2.28 -6.48,-0.43 -9.54,-0.79 -6.42,-0.61 -12.9,-0.45 -19.29,-0.88 -4.39,-0.43 -8.94,-2.63 -12.97,-1.83 -4.65,0.96 -8.86,-0.96 -13.23,-0.45 -6.67,0.79 -13.08,-0.87 -19.83,-0.51 -9.38,0.6 -19.02,-1.67 -28.56,-2.2 -11.22,-0.71 -22.54,-0.71 -33.76,-1.06 -3.06,-0.08 -6.04,-0.43 -9.11,-0.43 -4.04,-0.09 -8.16,0.09 -12.29,-0.09 -3.5,-0.09 -7.52,-1.67 -10.59,-0.44 -6.67,2.63 -12.54,0.88 -17.71,-2.46 -3.86,-2.53 -7.46,-4.03 -12.1,-4.9 -9.46,-1.84 -15.5,2.8 -21.73,8.42 -2.73,2.53 -5.01,6.91 -7.29,7.97 -5.25,2.37 -7.62,7.19 -11.29,10.52 -7.38,6.66 -13.41,14.81 -19.99,22.35 -1.75,2.11 -3.16,4.56 -5.09,6.49 -3.06,2.99 -6.39,5.61 -9.72,8.33 -1.85,1.57 -4.21,2.71 -5.71,4.64 -2.89,3.6 -4.81,8.06 -7.98,11.3 -6.31,6.41 -13.22,12.11 -19.81,18.24 -3.15,2.98 -6.04,6.14 -9.03,9.29 -3.15,3.34 -6.04,6.93 -9.36,10 -2.2,2.1 -5.28,3.24 -7.46,5.35 -1.5,1.57 -2.1,4.12 -3.32,5.95 -0.81,1.24 -2.12,2.11 -3.08,3.25 -2.37,2.9 -4.2,6.66 -7.28,8.5 -5.77,3.42 -10.42,7.9 -14.72,12.89 -1.67,1.92 -2.63,4.46 -4.38,6.23 -3.06,3.15 -6.48,5.86 -9.74,8.76 -2.01,1.83 -3.94,3.76 -5.78,5.78 -3.14,3.68 -6.05,7.63 -9.37,11.22 -1.86,2.02 -4.39,3.42 -6.67,5.17 1.66,2.46 1.58,3.85 -1.06,5.7 -1.84,1.31 -4.3,1.84 -5.69,3.42 -4.47,4.73 -8.69,9.64 -12.8,14.73 -1.05,1.22 -1.05,4.21 -2.01,4.46 -6.31,1.85 -8.06,8.16 -12.45,11.84 -4.3,3.68 -7.9,8.07 -11.75,12.18 -2.9,3.08 -5.8,6.15 -8.58,9.21 -0.36,0.44 -1.07,1.14 -0.98,1.31 2.29,3.6 -1.22,4.3 -2.8,5.96 -3.84,3.86 -7.72,7.63 -11.3,11.75 -3.42,4.13 -6.32,8.76 -11.92,10.61 -0.79,0.26 -1.85,1.4 -1.93,2.28 -0.28,3.68 -2.38,5.34 -5.71,5.43 0.36,1.06 0.97,2.02 0.7,2.37 -3.25,4.11 -7.45,7.09 -9.45,12.62 -2.02,5.62 -8.61,9.3 -7.45,16.56 0,0.18 0,0.36 -0.09,0.53 -2.73,4.39 -2.65,8.51 0.16,13.07 2.55,4.38 4.29,9.2 5.88,12.61 2.72,0.18 4.64,-0.17 5.43,0.62 5.44,5.52 11.31,9.73 19.65,9.39 1.04,0 2.18,0.34 3.23,0.43 4.3,0.53 8.68,0.87 12.98,1.49 4.12,0.52 8.59,0.44 12.1,2.28 3.14,1.66 5.07,1.48 7.62,-0.45 0.87,-0.6 2.37,-0.87 3.42,-0.69 2.37,0.34 4.64,1.32 7.02,1.66 5.07,0.8 10.08,-2.19 15.24,0.09 4.12,1.85 9.48,-1.49 13.41,2.54 0.27,0.27 1.93,-0.61 2.82,-1.04 0.69,-0.36 1.23,-1.32 1.92,-1.32 4.38,-0.1 8.76,0 13.15,0 1.92,0 3.86,-0.45 5.78,-0.27 3.85,0.27 7.81,1.23 11.66,1.06 9.55,-0.61 19.02,-0.61 28.22,3.85 -0.08,-1.4 -0.16,-2.36 -0.27,-3.95 3.96,0.71 7.46,1.76 10.97,1.85 4.65,0 9.38,-1.14 14.02,-1.05 6.93,0.18 13.95,1.05 20.86,1.57 1.24,0.09 2.46,0.53 3.68,0.44 5.01,-0.17 10.08,-0.96 15,-0.53 5.96,0.44 12.18,-0.43 17.87,2.55 0.54,0.35 1.5,-0.1 2.29,-0.27 3.08,-0.52 6.05,-1.32 9.03,-1.48 5.6,-0.36 11.22,-0.18 16.82,-0.36 2.38,0 4.84,-0.08 7.19,-0.52 3.6,-0.79 7.19,-2.02 9.73,-2.71 3.52,4.64 5.52,8.67 8.69,11.3 7.88,6.83 13.85,14.99 19.2,23.83 2,3.26 2.98,7.47 5.69,9.74 6.49,5.52 10.61,12.45 14.81,19.89 0.87,-0.43 1.84,-0.96 2.8,-1.39 2.28,7.54 7.38,13.06 12.46,18.49 3.16,3.42 5.26,7.72 8.32,11.22 6.22,6.93 14.56,12.36 15.87,22.79 0,0.53 1.93,1.14 2.98,1.14 0.87,-0.08 1.67,-1.04 2.45,-1.49 1.84,4.21 3.61,7.98 5.28,11.75 1.3,0.26 3.31,0 3.93,0.88 2.63,3.42 5.87,7 6.83,10.95 0.96,3.85 3.34,5.79 5.8,8.07 2.54,2.36 5.86,4.29 7.53,7.28 2.1,3.76 5.61,6.3 7.36,10.78 1.67,4.11 7.19,6.82 10.08,11.38 2.81,4.48 7.73,7.64 11.49,11.67 1.92,2.11 3.32,4.82 5.18,7.19 1.58,2.11 3.24,4.12 5.07,6.04 0.88,0.88 2.63,0.96 3.34,1.94 2.81,3.85 4.64,8.94 8.23,11.83 3.95,3.15 7.63,6.31 10.51,10.52 1.77,2.62 4.21,4.73 6.59,6.91 3.85,3.42 5.42,8.78 9.91,11.75 5.52,3.6 8.85,9.47 14.53,13.24 7.38,4.91 13.34,11.93 20,17.97 2.9,2.54 6.04,4.83 9.1,7.28 2.38,1.93 4.58,4.03 7.11,5.61 2.46,1.49 5.28,2.45 7.89,3.67 4.22,2.02 8.15,4.4 12.46,5.97 3.06,1.05 6.56,0.97 9.9,1.58 7.97,1.41 16.03,3.06 24.1,4.38 2.89,0.43 5.97,-0.18 8.85,0.18 3.6,0.43 7.02,1.92 10.62,2.02 4.37,0.17 8.75,-0.89 13.14,-0.97 2.71,-0.09 5.35,0.7 7.98,1.14 0.96,0.08 2.19,0.52 2.71,0.08 3.16,-2.71 6.22,-0.17 9.21,0.18 1.5,0.18 2.89,0.61 4.28,0.61 8.26,-0.08 16.5,-0.35 24.73,-0.35 1.31,0 2.55,0.96 4.12,1.67 2.71,-2.01 31.3,-1.32 34.19,0.88 1.14,-0.79 2.29,-2.2 3.17,-2.11 3.4,0.62 6.74,1.93 10.51,0.79 2.54,-0.79 5.43,-0.7 8.06,-0.53 3.59,0.26 7.11,1.06 10.69,1.58 2.64,0.35 5.27,-0.79 7.54,-0.96 7.19,-0.44 14.56,0.78 21.91,1.4 2.81,0.26 5.52,0.7 8.33,1.14 0.08,0.26 0.17,0.52 0.27,0.79 1.31,-0.61 2.72,-1.93 4.02,-1.93 10.44,0.26 20.87,0.62 31.2,1.05 2.55,0.18 5.1,0.71 7.65,0.79 2.88,0 5.87,-0.44 8.75,-0.52 2.54,-0.09 5.08,0.08 7.53,0.08 3.17,0 6.23,-0.17 9.4,0 4.46,0.18 8.94,1.32 13.31,0.89 7.98,-0.89 16.04,-4.48 23.68,-3.52 5.78,0.71 10.61,-1.49 15.86,-1.31 2.97,0.09 6.74,-0.87 8.68,-2.8 4.12,-4.04 8.67,-2.02 12.98,-2.28 0.69,0 1.57,0.79 2.18,0.52 4.38,-1.93 8.77,-3.94 13.07,-6.04 2.81,-1.32 5.69,-2.38 8.06,-4.22 3.16,-2.36 5.79,-5.43 8.85,-8.06 5.71,-4.91 12.45,-8.68 16.22,-15.6 0.7,-1.31 2.36,-2.02 3.5,-3.07 1.76,-1.49 3.42,-3.16 5,-4.73 0.72,-1.32 2.28,-1.67 3.69,-2.36 5.69,-2.73 6.57,-10.88 13.66,-11.93 2.03,-5.61 8.25,-6.58 11.67,-10.87 4.2,-5.08 9.72,-8.94 15.16,-12.89 7.02,-5.17 13.14,-11.65 19.81,-17.44 1.31,-1.22 2.89,-2.64 4.65,-3.15 2.71,-0.98 7.18,0.44 5.16,-5.18 -0.16,-0.52 1.15,-1.75 1.86,-2.36 4.28,-3.42 8.49,-6.92 12.87,-10.18 1.59,-1.22 3.77,-1.83 5.27,-3.15 7.62,-7.19 15.25,-14.63 22.79,-21.91 3.49,-3.42 6.91,-6.84 10.51,-10.08 3.42,-3.16 7.02,-6.22 10.61,-9.29 1.22,-0.79 1.58,-3.59 2.46,-3.87 6.03,-1.39 7.53,-8.23 12.54,-10.16 5.95,-2.38 6.3,-11.14 13.65,-11.22 0.28,0 0.45,-0.79 0.8,-1.14 1.32,-1.75 2.29,-3.95 3.96,-5.17 3.14,-2.55 6.99,-4.12 9.88,-6.76 4.84,-4.46 8.94,-9.55 14.13,-13.85 7.63,-6.21 14.54,-13.4 21.56,-20.32 5.09,-5.09 9.89,-10.53 14.81,-15.78 4.48,-4.83 8.94,-9.65 13.5,-14.46 1.67,-1.77 3.17,-4.22 5.16,-5.01 3.08,-1.04 4.13,-2.97 4.84,-5.78 0.36,-1.23 1.32,-2.63 2.37,-3.42 7.62,-5.44 12,-13.15 14.63,-21.65 2.02,-6.92 0.1,-14.11 -0.96,-21.04zm-58.64 30.94c-2.02,2.54 -5.7,3.34 -6.58,7.1 -0.28,0.96 -2.82,1.41 -3.59,2.98 -2.1,1.67 -4.39,3.17 -6.41,4.91 -4.38,3.86 -8.59,7.81 -12.87,11.75 -2.38,2.19 -4.75,4.47 -7.11,6.57 -2.8,2.55 -5.52,5.09 -8.41,7.63 -5.27,4.65 -10.52,9.38 -16.04,13.85 -3.41,2.89 -8.69,3.67 -10,8.85 -6.05,0.36 -8.06,6.14 -12.09,9.2 -1.59,1.24 -2.8,2.9 -4.3,4.21 -3.94,3.6 -8.76,6.49 -11.66,10.79 -3.94,5.96 -9.11,9.82 -14.81,13.5 -0.88,0.61 -1.59,1.84 -2.2,2.8 -1.65,2.9 -2.45,6.49 -7.19,6.22 -0.97,-0.08 -2.36,2.63 -3.15,4.22 -2.98,5.78 -7.87,9.37 -13.06,12.88 -2.79,1.84 -5.25,4.37 -8.15,6.83 2.63,3.16 -1.39,4.3 -3.42,6.15 -0.97,0.87 -2.37,1.48 -3.68,2.01 -4.21,1.49 -4.38,6.3 -7.37,8.85 -5.6,4.74 -10.86,9.73 -16.64,14.29 -2.91,2.28 -4.41,6.66 -9.13,6.31 -1.66,5.78 -7.62,7.45 -11.21,11.4 -4.74,5.17 -10.71,9.11 -15.87,13.93 -4.56,4.21 -8.6,8.94 -13.05,13.24 -3.34,3.15 -6.94,5.88 -10.36,8.94 -2.01,1.75 -4.02,3.68 -6.03,5.52 -1.24,0.97 -2.56,1.76 -3.96,2.72 0.44,0.17 1.22,0.53 2.1,0.96 -3.86,-0.53 -5.18,5.52 -9.54,3.42 -0.2,0 -0.98,0.61 -0.98,0.96 -0.18,4.66 -4.64,5.88 -6.84,8.86 -0.51,0.71 -1.22,2.01 -1.83,2.01 -4.56,-0.34 -4.65,3.26 -6.31,5.52 -1.49,1.59 -3.06,3.26 -4.56,4.92 -0.52,0.52 -1.05,1.05 -1.59,1.58 -4.02,3.15 -8.84,5.17 -10.68,11.04 -0.43,1.76 -5.96,2.62 -9.13,2.62 -4.45,0 -8.93,-1.65 -13.4,-1.75 -5.09,-0.08 -10.18,1.14 -15.26,1.14 -4.12,0 -8.14,-1.39 -12.26,-1.49 -2.89,-0.08 -6.59,2.55 -8.51,1.41 -5.78,-3.24 -11.66,0.08 -17.53,-1.31 -4.92,-1.24 -11.22,-2.2 -15.43,-0.1 -5.09,2.55 -8.23,-1.3 -12.18,-0.96 -7.37,0.7 -14.64,-1.3 -22,0 -5,0.78 -10.17,1.41 -14.82,-1.83 -0.7,-0.45 -2.37,0.53 -3.5,0.6 -1.14,0.18 -2.28,-0.07 -3.32,-0.25 -0.28,0 -0.71,-0.53 -0.71,-0.53 -3.6,3.85 -8.07,1.14 -11.67,0.71 -5.6,-0.63 -12.18,2.18 -16.56,-3.08 -0.87,0.88 -1.58,2.19 -2.18,2.19 -5.96,-0.43 -11.94,-1.23 -17.9,-1.75 -1.23,-0.09 -2.54,0.87 -3.76,0.87 -3.24,-0.08 -6.31,-0.78 -9.82,-0.43 -4.92,0.53 -10.16,-2.28 -15.34,-2.9 -2.88,-0.35 -5.97,1.32 -8.94,1.23 -4.9,-0.26 -9.74,-1.49 -14.64,-2.01 -2.37,-0.18 -4.73,0.25 -7.08,0 -1.95,-0.1 -3.88,-0.8 -6.51,-1.32 -0.26,0.18 -2.11,1.66 -2.54,1.22 -3.85,-2.71 -8.15,-0.7 -12,-1.39 -6.85,-1.14 -13.95,-3.78 -20.51,-2.89 -4.92,0.61 -8.77,-0.89 -13.15,-1.14 -3.87,-0.27 -7.65,0.08 -11.41,-0.36 -1.67,-0.17 -3.15,-1.41 -4.82,-2.19 -0.6,-0.36 -1.22,-0.96 -1.75,-0.87 -7.89,0.61 -13.85,-3.69 -20.07,-7.54 -6.83,-4.21 -12.36,-9.56 -16.12,-16.74 -0.19,-0.28 -0.36,-0.71 -0.62,-0.71 -8.86,-1.4 -11.13,-10.51 -17.54,-14.9 -4.11,-2.81 -6.74,-7.89 -10.26,-11.75 -2.19,-2.27 -5.25,-3.85 -7.18,-6.31 -2.46,-2.89 -3.86,-6.48 -6.12,-9.55 -1.16,-1.49 -3.44,-2.1 -4.66,-3.51 -2.45,-2.89 -4.46,-5.96 -6.74,-8.94 -0.89,-1.05 -1.94,-2.01 -2.81,-3.07 -1.32,-1.75 -2.55,-3.6 -4.3,-6.13 -0.09,0 -1.31,0.35 -2.81,0.79 -5.78,-7.55 -11.66,-15.17 -17.53,-22.8 -2.71,-0.88 -4.73,-2.45 -3.78,-6.31 -7.62,-1.75 -10.59,-8.85 -15.41,-13.49 -1.5,-1.76 -3.08,-3.43 -4.39,-5.27 -1.13,-1.67 -1.92,-3.5 -2.99,-5.35 -0.16,-0.35 -0.16,-0.96 -0.51,-1.22 -2.89,-2.19 -5.88,-4.3 -8.86,-6.48 -0.26,-0.27 -0.79,-0.62 -0.86,-0.98 -2.99,-8.94 -10.97,-13.66 -17.2,-19.89 -1.58,-1.57 -1.67,-4.47 -2.89,-6.58 -1.84,-3.32 -4.48,-5.43 -8.41,-6.39 -2.02,-0.53 -4.3,-3.51 -4.83,-5.7 -1.05,-4.38 -5.25,-5.34 -7.45,-8.25 -0.43,-0.51 -1.57,-0.86 -1.57,-1.39 -0.1,-5.44 -5.36,-6.4 -8.06,-9.65 -1.05,-1.31 -2.02,-2.81 -3.06,-4.2 -0.54,-0.71 -1.07,-1.4 -1.67,-2.01 -1.5,-1.5 -3.42,-2.73 -4.56,-4.38 -4.05,-5.7 -7.63,-11.75 -11.83,-17.28 -2.55,-3.33 -6.06,-5.87 -8.86,-9.03 -6.06,-6.66 -12.1,-13.41 -17.81,-20.42 -2.97,-3.51 -5.34,-7.55 -8.23,-11.67 0.36,-0.16 0.61,-0.34 0.88,-0.43 -11.75,-7.19 -22.79,-15.78 -32.51,-24.11 -4.75,1.94 -11.07,0.8 -16.67,0.8 -3.94,0 -7.8,-0.36 -11.75,-0.88 -1.39,-0.18 -2.63,-1.4 -4.13,-2.28 -1.3,3.68 -3.85,2.89 -6.82,1.22 -2.55,-1.48 -5.44,-3.32 -7.36,1.76 -2.89,-4.47 -6.06,-2.28 -9.38,-1.84 -3.24,0.43 -6.76,-0.61 -10.18,-0.71 -9.2,-0.17 -18.41,-0.08 -27.7,-0.35 -8.23,-0.26 -16.56,-1.66 -24.7,-1.04 -4.13,0.25 -7.82,-2.72 -12.54,0.08 -3.17,1.84 -8.69,-0.61 -13.14,-1.05 -4.76,-0.35 -9.83,-1.75 -14.3,-0.7 -6.85,1.67 -11.84,-1.4 -17.8,-4.56 0.62,2.45 1.05,4.3 1.32,5.44 -5.88,-0.53 -11.57,-1.23 -17.28,-1.5 -3.5,-0.17 -7.08,0.53 -10.6,0.18 -2.2,-0.27 -4.21,-1.75 -6.83,-2.89 -4.21,4.21 -13.77,4.21 -20.88,-1.58 0.79,1.76 1.24,2.55 1.86,3.77 -3.25,-0.44 -6.14,-0.79 -10.17,-1.32 0.97,-1.32 2.19,-2.89 3.32,-4.38 0.18,0.09 0.26,0.18 0.46,0.27 2.53,-3.08 5.07,-6.23 7.62,-9.39 3.58,-4.38 7.18,-8.94 11.12,-13.23 1.58,-1.84 3.94,-2.98 5.96,-4.47 0.27,-0.18 0.87,-0.09 0.87,-0.18 0.87,-5.7 7.81,-7.1 9.05,-12.97 0.43,-2.36 4.36,-3.95 6.48,-6.05 3.76,-3.85 7.28,-7.98 11.02,-11.93 2.21,-2.26 4.49,-4.38 6.42,-6.66 1.84,-2.36 3.59,-4.81 5.44,-7.09 4.81,-5.88 9.46,-11.66 14.54,-17.27 2.73,-3.07 6.15,-5.52 8.93,-8.42 1.59,-1.75 2.46,-4.12 4.13,-5.87 1.32,-1.5 3.17,-2.72 4.84,-3.77 4.81,-3.07 6.12,-8.77 9.72,-12.7 4.9,-5.44 10.09,-10.79 15.42,-15.87 0.97,-0.97 2.89,-0.97 4.39,-1.41 -1.23,-4.04 16.75,-24.02 23.84,-26.74 -1.32,-1.66 0.7,-7.09 3.33,-8.32 5.26,-2.46 8.5,-6.75 11.74,-11.4 2.64,-3.86 7.02,-6.57 10.62,-9.63 0.69,-0.63 2.01,-0.79 2.27,-1.49 2.27,-6.32 7.54,-9.65 12.97,-12.72 0.8,-0.44 1.05,-1.84 1.59,-2.71 1.32,-2.11 2.43,-4.39 4.02,-6.23 4.73,-5.44 9.83,-10.69 14.65,-16.13 3.94,-4.56 7.9,-9.12 11.47,-14.03 2.1,-2.89 3.52,-6.39 5.27,-9.64 2.63,1.05 5.69,-0.96 6.31,-4.29 0.43,-2.28 8.23,-10.44 9.73,-11.75 6.04,-5.08 12.8,-2.36 18.94,-1.66 10.33,1.23 20.68,1.83 31.03,2.46 3.77,0.16 7.44,0.34 11.21,0.08 6.41,-0.44 12.44,2.1 19.37,0.71 6.14,-1.24 12.98,1.22 19.56,1.92 3.85,0.35 7.7,0.44 11.47,0.79 10.8,0.79 21.56,1.75 32.35,2.54 3.15,0.27 6.48,-0.08 9.72,0.17 1.67,0.1 3.25,1.24 4.92,1.32 2.46,0.17 4.9,-0.44 7.36,-0.35 4.92,0.17 10.61,-0.87 14.64,1.31 5,2.63 9.48,-0.87 14.37,1.32 4.65,1.92 10.52,0.61 15.78,1.14 4.83,0.53 9.56,1.67 14.38,2.37 0.71,0.18 1.58,-0.88 2.38,-1.06 2,-0.43 4.29,-1.4 5.96,-0.88 4.99,1.59 9.54,3.69 15.07,1.14 2.01,-0.96 5.26,1.06 7.89,1.23 12.62,0.36 25.23,0.53 37.77,0.97 6.48,0.26 13.59,2.89 19.3,1.04 6.66,-2.18 12.97,4.3 19.1,-0.69 0.7,-0.53 2.98,1.4 4.56,1.4 9.47,0.27 19.01,0.09 28.57,0.61 6.4,0.27 12.8,0.88 19.02,2.37 2.3,0.61 3.95,3.95 5.87,6.05 0.71,0.88 1.32,1.84 1.95,2.8 2.18,3.51 4.28,7.11 6.46,10.61 0.81,1.32 1.77,2.45 2.82,3.59 0.44,0.53 1.59,0.79 1.67,1.42 1.48,5.6 5.35,9.72 8.77,14.28 4.2,5.43 9.72,10.78 11.39,17 2.27,8.59 8.07,14.29 12.43,21.12 1.78,2.72 1.78,7.63 6.68,7.9 -3.26,4.29 2.18,4.38 3.4,6.39 4.65,7.9 9.57,15.7 14.92,23.15 2.8,3.95 7.62,6.66 9.72,10.96 2.28,4.56 6.92,6.57 9.04,10.77 4.38,8.51 10.87,15.43 17.17,22.54 3.68,4.2 6.39,9.29 9.64,13.93 1.07,1.4 2.46,2.46 3.42,3.85 1.67,2.38 3.17,4.83 4.83,7.29 1.92,2.71 3.85,5.52 6.05,8.14 5.43,6.4 11.04,12.8 16.56,19.12 2.53,2.88 5.35,5.6 7.81,8.58 1.57,1.93 2.53,4.3 4.28,7.28 2.63,0.52 4.66,2.54 4.56,6.57 0,1.05 0.79,2.37 1.59,3.07 5,4.21 10.34,8.16 15.08,12.62 5.69,5.36 10.96,11.14 16.3,16.92 5.61,6.14 10.86,12.63 16.65,18.59 2.81,2.89 6.4,4.99 10.25,6.48 0.54,1.41 0.71,3.25 1.67,4.21 1.85,2.02 3.95,3.77 6.31,5.18 2.62,1.57 5.44,2.89 8.6,1.22 0.52,-0.35 1.48,-0.17 2.1,0.18 8.5,3.5 16.83,6.22 26.3,4.2 3.68,-0.7 7.88,-0.88 11.22,2.11 0.52,0.43 1.92,0.43 2.54,0 5.52,-3.42 11.56,-2.11 17.35,-1.85 4.73,0.09 9.82,3.34 14.02,2.2 4.04,-1.06 7.21,0.53 10.79,0.43 8.32,-0.25 16.66,0.35 24.98,0.63 4.12,0.08 8.16,0 12.18,0.43 3.25,0.26 6.5,1.4 9.74,1.67 2.1,0.18 4.22,-0.53 6.32,-0.71 2.35,-0.17 4.81,-0.35 7.18,-0.17 3.68,0.26 7.44,0.96 11.13,1.31 5.16,0.44 10.44,0.71 15.6,0.97 1.39,0.08 2.89,-0.26 4.39,-0.18 3.14,0.18 6.4,0.26 9.55,0.7 2.45,0.36 5.17,2.46 6.3,-1.49 4.49,0.71 8.77,1.49 13.17,2.11 0.87,0.08 2,0.25 2.71,-0.26 4.91,-3.08 9.91,-1.5 14.89,-0.36 0.97,0.27 2.21,0.97 2.72,0.52 5.8,-4.03 12.45,-0.43 18.68,-2.1 3.6,-0.96 7.88,-0.08 11.74,0.62 2.81,0.61 4.48,-1.58 7.1,-1.76 3.25,-0.16 5.88,2.1 9.21,1.49 -0.62,0.97 -1.4,1.75 -2.19,2.63z"/>
    </g>
   </g>
   <polygon class="fil3" points="22282.49,12893.41 23551.77,12893.41 23551.77,13571.53 22282.49,13571.53 "/>
   <path class="fil3 str0" d="M20913.02 13242.28l23.06 -1.84 11.57 1.23 18.93 -0.61 17.09 -2.98 1.76 -14.73 -4.3 -13.93 -9.12 -22.62 -16.47 -31.64 -8.51 -22.45 -12.18 -22.09 -23.14 -55.31 -6.14 -9.2 -5.96 -11.57 -3.68 -13.41 -5.52 -9.03 -3.59 -9.82 -12.89 -22.44 -4.21 -12.8 -40.24 -84.76 -3.58 -12.1 -6.67 -10.96 -3.77 -11.04 -11.57 -21.21 -10.26 -11.05 -20.07 -6.05 -19.54 6.66 -10.96 10.44 -5.52 10.25 -4.3 12.19 -5.52 8.59 -24.2 55.92 -6.75 9.21 -3.06 12.18 -6.75 11.66 -3.68 10.78 -61.98 130.44 -3.76 13.41 -6.05 9.02 -4.39 12.28 -10.78 19.46 -9.29 24.37 -6.66 8.58 -2.99 10.88 -12.18 24.36 -3.68 12.27 3.07 15.26 12.18 3.59 23.67 -1.23 12.18 1.23 34.19 -1.23 14.02 -4.29 11.58 -10.87 10.87 -20.16 11.57 -11.49 12.8 -6.83 11.57 1.93 25.59 -2.54 11.05 1.92 59.6 -0.52 11.05 1.14 13.32 -1.93 13.41 6.83 11.57 9.65 5.52 11.66 3.6 10.96 12.19 9.11 14.1 6.05 12.8 1.22zm-138.32 -151.73l-12.19 -2.36 -13.93 1.22 -9.82 -4.29 -0.61 -11.49 28.67 -65.92 6.74 -5.43 8.41 4.91 28.76 67.06 -2.54 10.87 -9.12 4.91 -24.37 0.52zm236.85 128.68l4.29 15.78 11.66 6.05 12.19 1.22 25.6 -1.84 23.58 1.23 23.22 -1.23 11.57 1.84 13.42 -1.22 120.61 0.61 11.57 -6.14 6.75 -18.84 -0.61 -49.35 -5.53 -18.14 -11.04 -7.46 -12.71 1.32 -11.66 2.36 -12.8 -1.75 -24.98 0.62 -12 -2.55 -11.05 1.93 -23.76 -1.31 -12.79 1.31 -12.19 -4.91 -4.91 -12.18 0.61 -206.52 -1.22 -14.64 1.22 -24.37 -1.83 -34.63 0.61 -11.57 -6.05 -13.4 -12.18 -7.28 -23.67 0 -12.18 2.36 -24.46 -2.36 -11.57 1.75 -12.8 4.91 -5.52 13.41 0 85.2 -1.14 11.57 1.14 12.19 -1.76 22.61 0.62 13.42 1.14 11.57 0.61 228.43zm462.91 23.67l87.14 -1.23 12.79 -5.52 6.66 -12.8 0 -61.36 -6.66 -12.18 -12.79 -5.52 -13.94 1.13 -11.66 -1.75 -31.03 -0.61 -20.07 2.36 -12.19 -1.13 -13.4 0.61 -11.58 -1.84 -13.41 1.23 -12.8 -6.14 -4.91 -10.96 0 -38.39 5.52 -12.8 10.96 -6.66 18.32 -0.62 19.47 1.76 23.05 -1.14 24.98 0.61 12.19 -1.23 14.1 0.62 12.1 -4.91 4.3 -12.18 1.75 -54.79 -6.05 -17.09 -14.02 -7.9 -35.85 0 -12.71 1.23 -25.6 -1.75 -35.42 1.14 -12.79 -5.52 -4.91 -18.85 0 -18.85 5.52 -11.65 13.41 -4.91 11.57 0.61 11.57 -2.36 87.13 1.13 11.49 -0.52 12.79 -7.27 6.05 -11.05 -0.52 -12.19 0.52 -12.18 -1.14 -36.46 -5.52 -11.57 -12.18 -4.92 -12.8 0 -10.87 -2.36 -49.35 0.53 -13.41 1.22 -12.19 -1.22 -10.34 0.61 -12.27 -1.14 -49.97 1.14 -12.18 -1.75 -11.4 2.36 -11.04 -1.22 -12.18 1.22 -12.19 -0.61 -12.8 4.91 -6.66 12.8 1.14 23.05 -1.76 24.98 1.76 13.41 -1.14 59.78 1.76 12.8 -1.24 11.57 -0.52 49.79 1.76 11.05 -0.62 98.7 -1.14 11.66 1.76 12.18 -1.76 41.9 1.14 13.41 4.91 16.48 18.32 7.89 43.83 0.61 13.41 -1.22 11.05 0.61 24.98 -1.75 11.39 2.36 14.11 0.62 12.1 -1.23 12.18 1.23z"/>
   <path class="fil4" d="M20591.81 13728.35l29.9 -1.23 10.95 0.61 14.03 -1.23 12.71 -4.9 5.52 -12.8 -0.61 -12.1 0.61 -13.41 -1.22 -22.53 1.22 -11.57 -0.61 -14.03 5.52 -10.95 13.94 -6.75 13.41 -1.23 12.8 2.46 62.76 -4.91 57.85 -23.14 9.12 -7.28 8.59 -9.73 7.89 -7.89 7.88 -9.2 12.8 -19.46 10.35 -23.75 1.84 -13.42 3.68 -9.73 1.23 -49.96 -2.45 -10.34 -1.85 -13.42 -7.27 -22.52 -11.57 -20.7 -14.64 -20.15 -27.44 -23.76 -20.07 -13.32 -24.37 -7.37 -10.35 -4.2 -12.18 0 -12.18 -4.3 -18.32 -0.61 -19.46 0.61 -13.41 1.84 -37.17 -0.61 -12.19 -1.84 -37.77 2.45 -13.33 -0.61 -10.95 -1.84 -12.8 2.45 -12.8 6.66 -5.52 9.73 0.61 73.72 -2.46 24.37 1.23 11.57 -0.61 157.79 1.23 11.57 -0.62 112.64 6.75 11.57 18.85 6.13 10.95 0.62zm91.35 -208.36l-12.19 -7.28 -5.43 -10.34 -1.84 -49.35 1.22 -12.8 0 -24.99 6.05 -11.57 12.8 -6.04 63.37 1.84 12.19 5.43 9.73 6.75 7.97 7.89 6.05 12.18 1.84 10.96 1.23 17.01 -1.23 16.48 -4.29 10.95 -5.44 9.73 -7.97 9.82 -9.73 7.28 -9.73 3.06 -18.85 2.37 -31.12 -0.61 -14.63 1.23z"/>
   <polygon class="fil4" points="21080.29,13728.35 21167.42,13727.12 21180.22,13721.6 21186.88,13708.8 21186.88,13647.35 21180.22,13635.16 21167.42,13629.64 21153.4,13630.87 21141.83,13629.03 21110.79,13628.41 21090.63,13630.87 21078.45,13629.64 21065.04,13630.26 21053.47,13628.41 21040.14,13629.64 21027.34,13623.59 21022.44,13612.64 21022.44,13574.24 21027.96,13561.45 21038.91,13554.7 21057.15,13554.17 21076.61,13555.92 21099.84,13554.7 21124.73,13555.31 21136.92,13554.17 21150.94,13554.7 21163.12,13549.88 21167.42,13537.69 21169.26,13482.91 21163.12,13465.81 21149.1,13457.93 21113.16,13457.93 21100.37,13459.15 21074.86,13457.31 21039.53,13458.54 21026.73,13453.02 21021.82,13434.17 21021.82,13415.23 21027.34,13403.66 21040.67,13398.84 21052.33,13399.46 21063.9,13397 21150.94,13398.23 21162.51,13397.62 21175.31,13390.25 21181.44,13379.3 21180.83,13367.11 21181.44,13354.93 21180.22,13318.37 21174.7,13306.8 21162.51,13301.98 21149.72,13301.98 21138.76,13299.53 21089.41,13300.14 21076.08,13301.37 21063.9,13300.14 21053.47,13300.75 21041.29,13299.53 20991.4,13300.75 20979.22,13298.91 20967.65,13301.37 20956.69,13300.14 20944.51,13301.37 20932.32,13300.75 20919.53,13305.57 20912.78,13318.37 20914.01,13341.51 20912.16,13366.5 20914.01,13379.91 20912.78,13439.6 20914.62,13452.4 20913.39,13463.97 20912.78,13513.94 20914.62,13524.9 20914.01,13623.59 20912.78,13635.16 20914.62,13647.35 20912.78,13689.34 20914.01,13702.75 20918.91,13719.23 20937.15,13727.12 20981.06,13727.74 20994.39,13726.51 21005.35,13727.12 21030.33,13725.28 21041.9,13727.74 21055.92,13728.35 21068.1,13727.12 "/>
   <polygon class="fil4" points="21534.09,13716.16 21550.48,13725.89 21567.58,13727.73 21580.98,13723.44 21587.03,13711.25 21588.26,13488.96 21586.42,13478.61 21586.42,13418.3 21588.26,13403.66 21586.42,13318.98 21580.37,13306.8 21568.19,13300.14 21492.62,13300.75 21481.05,13307.41 21474.39,13320.21 21473.78,13333.01 21475.62,13342.74 21473.78,13368.34 21475,13381.75 21473.78,13490.79 21470.1,13501.14 21460.98,13496.84 21417.77,13453.63 21400.68,13440.21 21280.67,13318.98 21271.55,13311.71 21257.53,13304.44 21239.3,13300.14 21225.27,13306.19 21219.75,13317.76 21219.75,13502.37 21219.13,13512.71 21220.36,13537.69 21218.52,13548.03 21219.75,13647.96 21218.52,13659.53 21219.75,13710.64 21225.27,13722.21 21238.07,13726.5 21263.05,13727.73 21276.38,13726.5 21300.13,13728.35 21312.93,13727.73 21325.11,13721.6 21331.25,13702.75 21331.86,13548.65 21333.09,13536.46 21337.3,13526.12 21345.27,13529.19 21353.17,13539.53 21396.38,13580.9 21404.35,13590.02 21414.7,13596.77 21509.11,13690.56 21524.89,13708.27 "/>
   <polygon class="fil4" points="21635.74,13709.41 21643.1,13720.98 21654.67,13727.73 21666.85,13727.12 21691.22,13728.35 21704.03,13727.12 21729.53,13727.73 21742.33,13720.45 21747.24,13708.8 21748.46,13697.23 21747.24,13683.9 21747.24,13576.08 21752.67,13563.28 21765.47,13555.31 21837.35,13554.7 21850.14,13556.54 21861.1,13556.54 21872.67,13563.28 21878.81,13574.86 21879.42,13709.41 21886.08,13719.22 21903.79,13727.12 21935.43,13727.12 21947.62,13725.89 21972.59,13727.73 21984.18,13719.84 21991.45,13709.41 21990.21,13654.01 21992.06,13634.55 21990.21,13624.82 21990.84,13318.98 21985.4,13306.19 21973.22,13301.36 21903.18,13300.75 21885.47,13305.05 21879.42,13319.6 21878.81,13342.74 21880.03,13353.09 21878.81,13378.06 21880.65,13389.64 21880.03,13437.15 21873.29,13449.33 21861.1,13456.08 21849.53,13454.24 21825.78,13456.69 21812.98,13455.47 21802.02,13456.69 21766.08,13456.08 21754.51,13450.56 21748.46,13438.99 21747.85,13425.58 21747.85,13412.78 21747.24,13401.82 21747.85,13354.31 21749.07,13340.9 21747.85,13318.37 21742.33,13306.8 21729.53,13300.14 21716.12,13301.36 21655.9,13300.14 21642.49,13306.19 21636.35,13318.37 21635.12,13331.78 21636.35,13379.29 21635.12,13391.48 21637.58,13416.46 21636.35,13439.6 21636.96,13454.24 21635.74,13466.43 21635.74,13648.57 21637.58,13659.53 "/>
   <path class="fil4" d="M22353.88 13727.74l23.15 -1.85 11.57 1.23 18.85 -0.61 17.09 -3.07 1.85 -14.64 -4.3 -13.94 -9.12 -22.53 -16.47 -31.73 -8.5 -22.53 -12.19 -21.91 -23.14 -55.4 -6.15 -9.2 -6.04 -11.57 -3.68 -13.33 -5.44 -9.21 -3.68 -9.72 -12.79 -22.53 -4.3 -12.8 -40.15 -84.67 -3.69 -12.19 -6.65 -10.95 -3.68 -10.96 -11.58 -21.31 -10.33 -10.95 -20.17 -6.14 -19.46 6.75 -10.95 10.34 -5.44 10.35 -4.3 12.18 -5.53 8.51 -24.36 56.1 -6.65 9.11 -3.08 12.19 -6.67 11.57 -3.67 10.95 -62.15 130.35 -3.6 13.41 -6.13 9.12 -4.29 12.19 -10.95 19.45 -9.13 24.37 -6.66 8.59 -3.07 10.96 -12.18 24.37 -3.69 12.18 3.07 15.17 12.18 3.68 23.76 -1.23 12.19 1.23 34.1 -1.23 14.02 -4.29 11.58 -10.96 10.95 -20.07 11.57 -11.57 12.8 -6.67 11.57 1.76 25.59 -2.37 10.96 1.76 59.7 -0.53 10.95 1.14 13.42 -1.76 13.41 6.67 11.56 9.72 5.44 11.57 3.69 10.96 12.18 9.21 14.02 6.05 12.79 1.23zm-138.31 -151.65l-12.18 -2.46 -13.94 1.23 -9.83 -4.3 -0.61 -11.57 28.67 -65.74 6.66 -5.52 8.58 4.91 28.58 66.97 -2.35 10.95 -9.21 4.91 -24.37 0.62z"/>
   <polygon class="fil3 str0" points="20464.39,13246.58 20478.95,13241.67 20492.36,13223.96 20500.42,13207.05 20503.93,13194.25 20515.59,13174.79 20519.27,13162.6 20525.4,13149.81 20528.91,13139.37 20535.66,13128.33 20559.41,13073.02 20563.71,13059.52 20574.58,13040.06 20627.7,12914.71 20633.75,12903.67 20644,12881.66 20647.16,12870.18 20658.73,12848.79 20662.94,12832.41 20659.96,12819.61 20648.91,12817.15 20636.2,12815.92 20625.16,12814.17 20613.67,12815.31 20601.49,12815.92 20578.35,12813.56 20564.94,12821.45 20554.5,12831.7 20497.88,12965.81 20494.28,12978.61 20488.76,12988.87 20486.31,12999.92 20480.35,13010.87 20468.17,13044.97 20462.03,13055.92 20455.37,13054.79 20440.03,13021.74 20437.66,13010.26 20427.23,12989.48 20396.73,12910.33 20380.94,12878.07 20363.85,12831.7 20353.6,12821.45 20339.48,12815.31 20304.86,12814.17 20292.67,12815.92 20269.45,12815.92 20259.81,12820.22 20254.89,12832.41 20274.35,12884.21 20280.49,12893.24 20283.56,12904.9 20288.38,12917.08 20295.05,12926.11 20299.34,12938.91 20354.21,13062.06 20357.8,13074.25 20373.15,13105.89 20377.27,13118.69 20387.69,13139.37 20394.36,13150.33 20397.34,13162.6 20421.71,13220.37 20427.23,13229.48 20439.41,13239.92 20452.82,13244.83 "/>
   <polygon class="fil5" points="21935.99,12809.65 21921.35,12814.56 21907.94,12832.27 21900.05,12849.27 21896.37,12862.07 21884.8,12881.53 21881.12,12893.72 21875.07,12906.51 21871.39,12916.86 21864.73,12927.9 21840.97,12983.3 21836.68,12996.71 21825.72,13016.17 21772.69,13141.61 21766.64,13152.66 21756.29,13174.57 21753.23,13186.14 21741.66,13207.44 21737.36,13223.92 21740.43,13236.63 21751.38,13239.08 21764.19,13240.31 21775.14,13242.15 21786.71,13240.93 21798.9,13240.31 21822.04,13242.77 21835.45,13234.88 21845.79,13224.54 21902.42,13090.5 21906.1,13077.71 21911.62,13067.36 21913.99,13056.41 21920.12,13045.45 21932.3,13011.26 21938.36,13000.3 21945.11,13001.53 21960.36,13034.49 21962.73,13046.07 21973.17,13066.75 22003.58,13145.91 22019.45,13178.16 22036.45,13224.54 22046.8,13234.88 22060.82,13240.93 22095.52,13242.15 22107.71,13240.31 22130.85,13240.31 22140.57,13236.11 22145.49,13223.92 22126.03,13172.11 22119.9,13163 22116.83,13151.43 22112.01,13139.24 22105.25,13130.04 22101.04,13117.33 22046.18,12994.25 22042.59,12982.07 22027.32,12950.43 22023.04,12937.64 22012.69,12916.86 22006.03,12905.9 22002.95,12893.72 21978.59,12835.86 21973.17,12826.74 21960.98,12816.4 21947.57,12811.49 "/>
  </g>
 </g>
</svg>
