<?xml version="1.0" encoding="UTF-8"?>
<!DOCTYPE svg PUBLIC "-//W3C//DTD SVG 1.1//EN" "http://www.w3.org/Graphics/SVG/1.1/DTD/svg11.dtd">
<!-- Creator: CorelDRAW 2020 (64 Bit) -->
<svg xmlns="http://www.w3.org/2000/svg" xml:space="preserve" width="42.573cm" height="28.184cm" version="1.1" style="shape-rendering:geometricPrecision; text-rendering:geometricPrecision; image-rendering:optimizeQuality; fill-rule:evenodd; clip-rule:evenodd"
viewBox="0 0 42573 28184"
 xmlns:xlink="http://www.w3.org/1999/xlink"
 xmlns:xodm="http://www.corel.com/coreldraw/odm/2003">
 <defs>
  <style type="text/css">
   <![CDATA[
    .str0 {stroke:black;stroke-width:41.89;stroke-miterlimit:22.9256}
    .fil3 {fill:none;fill-rule:nonzero}
    .fil4 {fill:black;fill-rule:nonzero}
    .fil0 {fill:black;fill-rule:nonzero}
    .fil5 {fill:#C40008;fill-rule:nonzero}
    .fil1 {fill:white;fill-rule:nonzero;fill-opacity:0.000000}
    .fil2 {fill:black;fill-rule:nonzero}
   ]]>
  </style>
    <clipPath id="id0" style="clip-rule:nonzero">
     <path d="M22951.26 12091.02l2115.47 0 0 1130.19 -2115.47 0 0 -1130.19z"/>
    </clipPath>
    <clipPath id="id1" style="clip-rule:nonzero">
     <path d="M22951.26 12091.02l2115.47 0 0 1130.19 -2115.47 0 0 -1130.19z"/>
    </clipPath>
 </defs>
 <g id="Camada_x0020_1">
  <metadata id="CorelCorpID_0Corel-Layer"/>
  <path class="fil0" d="M26237.89 16142.06c-264.04,100.12 -397.15,396.68 -296.79,660.67 100.23,264.04 396.79,397.08 660.78,296.79 263.98,-100.29 397.14,-396.85 296.73,-660.9 -100.35,-263.81 -396.79,-397.03 -660.72,-296.56zm-481.62 730.72c139.06,366.15 549.81,550.51 915.78,411.45 365.97,-139 550.45,-549.87 411.39,-915.84 139.06,365.97 -45.42,776.84 -411.39,915.84 -365.97,139.06 -776.72,-45.3 -915.78,-411.45zm986.12 596.22c-467.84,177.7 -993.07,-57.92 -1170.89,-525.82 -177.82,-467.66 58.03,-993.07 525.82,-1170.77 467.84,-177.94 993.07,58.09 1170.83,525.75 177.82,467.9 -57.97,993.07 -525.76,1170.84zm-4631.19 241.74c-263.99,100.29 -397.09,396.85 -296.68,660.66 100.29,264.05 396.74,397.09 660.66,296.8 264.11,-100.3 397.27,-396.86 296.86,-660.9 -100.3,-263.81 -396.92,-397.03 -660.84,-296.56zm-481.51 731.18c139.12,365.69 549.87,549.99 915.84,411.22 365.91,-139.23 550.33,-550.1 411.22,-916.07 139.11,365.97 -45.31,776.84 -411.22,916.07 -365.97,138.77 -776.72,-45.53 -915.84,-411.22zm986.07 595.75c-467.73,177.88 -992.96,-57.91 -1170.83,-525.81 -177.82,-467.67 58.08,-993.07 525.75,-1170.77 467.84,-177.76 993.07,58.08 1170.89,525.99 177.82,467.66 -58.03,992.83 -525.81,1170.59zm-2931.34 -7869.37l4770.02 -1813.16c248.34,-94.52 518.39,-77.24 750.45,46.35 -231.94,-123.59 -502,-140.87 -750.45,-46.35l-4770.02 1813.16zm6240.62 1671.43c11.09,384.53 -224.4,740.82 -587.17,878.76 362.88,-138.18 598.26,-494.23 587.17,-878.76zm-5206.16 2634.48l4618.99 -1755.72 -4618.99 1755.72zm4689.16 -1571.18l-4618.93 1756.13c-101.87,38.47 -216.24,-12.79 -254.94,-114.72 -38.76,-101.75 12.61,-216.29 114.48,-254.76l4618.88 -1755.9c297.43,-113.07 485.41,-413.31 457.39,-730.31l-235.5 -2659.35c-19.96,-224.7 -141.04,-422.19 -332.11,-541.81 -191.31,-119.91 -421.78,-142.73 -632.7,-62.41l-4770.08 1813.35c-101.81,38.7 -216.23,-12.79 -255,-114.54 -38.7,-101.93 12.73,-216.41 114.54,-254.94l4770.08 -1813.57c327.56,-124.35 685.88,-89.15 982.91,97.02 297.09,185.99 485.24,492.83 516.12,842.1l235.56 2659.19c43.67,492.42 -248.69,959.09 -710.7,1134.52zm-9979.22 -2201.33l995.76 -378.52 -995.76 378.52zm1967.29 -297.37c127.5,73.9 241.63,173.2 333.81,295.51l3865.04 5128.46 66.67 -25.34c-40.46,14.01 -85.35,0.41 -111.16,-33.8l-3820.44 -5069.32c-92.24,-122.31 -206.36,-221.78 -333.92,-295.51zm9041.78 3582.78l35.09 92.47 -35.03 -92.47 -0.06 0zm70.12 184.94l-4842.82 1840.95c-81.56,30.89 -175.49,4.15 -227.91,-65.67l-3865.1 -5128.46c-248.52,-329.72 -691.61,-457.63 -1077.43,-310.75l-995.64 378.29c-101.81,38.71 -216.29,-12.55 -254.99,-114.48 -38.71,-101.75 12.72,-216.23 114.53,-254.99l995.64 -378.53c549.11,-208.81 1179.83,-26.73 1533.54,442.39l3775.72 5009.84 4704 -1788.01c101.87,-38.94 216.35,12.55 254.99,114.25 38.71,101.99 -12.66,216.47 -114.53,255.17z"/>
  <g id="_2068086173200">
   <g style="clip-path:url(#id0)">
    <polygon class="fil1" points="22951.26,12091.02 25066.73,12091.02 25066.73,13221.21 22951.26,13221.21 "/>
   </g>
   <g style="clip-path:url(#id1)">
    <g>
     <path id="1" class="fil2" d="M25062.05 12666.63c-0.14,-0.73 -0.47,-1.9 -1.02,-2.2 -10.97,-4.23 -16.38,-19 -31.57,-16.05 -5.71,1.02 -12.13,-1.61 -18.11,-1.18 -5.12,0.3 -10.97,-4.38 -15.79,1.32 -0.28,0.58 -1.88,0 -3.05,0 -6.28,-0.72 -12.73,-1.9 -19,-1.75 -12.43,0.15 -24.86,1.45 -37.25,1.75 -21.35,0.45 -42.51,0.71 -63.83,0.58 -18.12,-0.3 -36.1,-1.47 -54.22,-2.03 -9.5,-0.3 -19.15,0.73 -28.63,0 -10.1,-0.75 -20.15,-2.79 -30.25,-4.1 -5.1,-0.59 -10.22,-1.04 -15.05,-1.47 -2.77,0.58 -4.95,1.32 -7.02,1.47 -2.78,0 -5.53,-0.44 -8.45,-0.59 -3.83,-0.3 -7.75,-0.15 -11.7,-0.71 -3.65,-0.45 -7.16,-1.9 -10.8,-2.2 -9.53,-0.75 -19.3,0.13 -28.5,-1.77 -8.35,-1.6 -16.23,-0.42 -24.25,-0.42 -9.21,-0.16 -18.41,0.42 -27.61,0.14 -14.3,-0.59 -28.34,1.01 -42.8,-2.34 -12.59,-2.78 -26.3,-1.16 -39.6,-0.3 -5.27,0.44 -9.79,-1.9 -13.87,-3.2 -6.9,-2.35 -11.4,-9.36 -16.35,-15.2 -3.68,-4.38 -0.75,-15.78 -10.85,-12.86 -7.02,-8.49 -13.43,-16.35 -20,-24.24 -0.15,-0.16 -0.43,-0.3 -0.72,-0.3 -8.05,-1.16 -10.98,-7.16 -12.73,-12.41 -4.07,-2.64 -7.75,-4.25 -10.22,-6.87 -8.9,-9.37 -17.53,-19 -25.98,-28.92 -8.35,-9.66 -18.87,-16.96 -26.47,-27.48 -4.38,-6.28 -10.23,-11.7 -15.03,-17.97 -6.15,-8.46 -14.02,-15.93 -21.48,-23.36 -12.42,-12.57 -20.9,-28.79 -35.8,-39 -1.47,-1.05 -1.9,-3.54 -2.92,-5.44 -1.9,-3.65 -3.08,-7.73 -5.55,-10.8 -11.55,-13.45 -23.35,-26.73 -35.37,-39.9 -3.65,-4.06 -9.48,-7.13 -11.53,-11.81 -5.83,-13.89 -18.13,-22.35 -26.45,-34.2 -5.38,-7.74 -10.93,-15.34 -16.37,-23.09 -0.85,-1.45 -0.43,-3.65 -0.71,-5.83 -1.75,0 -3.82,-0.13 -6,-0.3 -0.55,-2.18 -0.55,-4.67 -1.74,-6.27 -8.61,-11.85 -17.4,-23.53 -26.46,-35.06 -4.52,-5.85 -9.94,-10.97 -14.15,-16.95 -7.6,-10.39 -14.9,-21.04 -21.9,-31.72 -6.44,-9.78 -12.17,-20.13 -18.74,-29.8 -4.36,-6.42 -9.2,-13.13 -15.01,-18.12 -4.55,-3.78 -10.99,-5.38 -16.82,-7.45 -3.22,-1.15 -6.72,-1.3 -10.1,-1.9 -8.73,-0.86 -17.08,-3.5 -25.68,-4.65 -9.65,-1.35 -19.59,-0.88 -29.39,-1.76 -10.95,-1.02 -21.75,-2.64 -32.6,-3.8 -5.23,-0.44 -10.5,-0.3 -15.75,-0.74 -10.81,-1.01 -21.61,-1.46 -32.58,-3.2 -19.28,-3.08 -39.43,-1.05 -59.02,-1.9 -6.56,-0.3 -12.26,-2.91 -19.71,-1.18 -8.2,2.03 -17.55,-1.6 -26.34,-2.77 -1,-0.15 -2.01,-0.45 -3.05,-0.56 -13.15,-1.19 -26,-2.37 -39.16,-3.39 -2.79,-0.28 -5.69,0 -8.6,0.3 -6.15,0.44 -14.02,3.65 -17.99,1.02 -5.96,-3.8 -10.8,-0.72 -15.9,-1.32 -10.7,-1.01 -21.5,-0.75 -32.15,-1.46 -7.31,-0.72 -14.9,-4.39 -21.61,-3.05 -7.75,1.6 -14.77,-1.6 -22.05,-0.75 -11.12,1.31 -21.8,-1.45 -33.05,-0.85 -15.64,1 -31.7,-2.79 -47.6,-3.67 -18.7,-1.18 -37.57,-1.18 -56.27,-1.77 -5.1,-0.13 -10.07,-0.71 -15.18,-0.71 -6.74,-0.15 -13.6,0.15 -20.49,-0.15 -5.83,-0.15 -12.53,-2.79 -17.65,-0.74 -11.11,4.39 -20.9,1.47 -29.51,-4.1 -6.44,-4.21 -12.44,-6.71 -20.17,-8.16 -15.77,-3.07 -25.83,4.66 -36.22,14.03 -4.55,4.22 -8.35,11.52 -12.15,13.28 -8.75,3.95 -12.7,11.99 -18.81,17.54 -12.3,11.1 -22.35,24.68 -33.32,37.25 -2.92,3.51 -5.27,7.6 -8.48,10.81 -5.1,4.99 -10.65,9.35 -16.2,13.89 -3.09,2.61 -7.02,4.51 -9.52,7.73 -4.82,6 -8.02,13.43 -13.3,18.83 -10.52,10.69 -22.03,20.19 -33.02,30.4 -5.25,4.97 -10.06,10.24 -15.05,15.49 -5.25,5.56 -10.06,11.55 -15.6,16.66 -3.66,3.5 -8.8,5.4 -12.43,8.92 -2.5,2.62 -3.5,6.87 -5.53,9.92 -1.35,2.06 -3.54,3.51 -5.14,5.41 -3.95,4.84 -7,11.1 -12.13,14.17 -9.62,5.7 -17.37,13.17 -24.53,21.48 -2.79,3.2 -4.39,7.44 -7.3,10.39 -5.1,5.25 -10.8,9.76 -16.24,14.6 -3.35,3.05 -6.56,6.26 -9.63,9.63 -5.23,6.13 -10.08,12.72 -15.62,18.7 -3.1,3.37 -7.31,5.7 -11.11,8.62 2.76,4.1 2.63,6.41 -1.77,9.5 -3.07,2.18 -7.17,3.06 -9.48,5.7 -7.45,7.88 -14.49,16.06 -21.34,24.55 -1.75,2.03 -1.75,7.01 -3.35,7.43 -10.51,3.08 -13.43,13.6 -20.75,19.73 -7.16,6.14 -13.16,13.45 -19.58,20.3 -4.83,5.14 -9.67,10.25 -14.3,15.35 -0.6,0.74 -1.78,1.9 -1.63,2.19 3.81,6 -2.04,7.16 -4.67,9.93 -6.4,6.43 -12.87,12.72 -18.83,19.58 -5.7,6.89 -10.54,14.6 -19.87,17.69 -1.32,0.43 -3.08,2.33 -3.22,3.8 -0.46,6.13 -3.96,8.9 -9.51,9.05 0.6,1.76 1.61,3.36 1.16,3.95 -5.41,6.85 -12.41,11.81 -15.75,21.03 -3.36,9.37 -14.35,15.5 -12.41,27.6 0,0.3 0,0.6 -0.15,0.88 -4.55,7.32 -4.42,14.19 0.26,21.79 4.25,7.3 7.15,15.33 9.8,21.01 4.54,0.3 7.74,-0.28 9.05,1.04 9.07,9.2 18.85,16.21 32.75,15.65 1.74,0 3.64,0.56 5.39,0.71 7.16,0.89 14.46,1.45 21.63,2.49 6.87,0.86 14.32,0.73 20.17,3.8 5.23,2.76 8.45,2.46 12.7,-0.75 1.45,-1 3.95,-1.45 5.7,-1.15 3.95,0.56 7.73,2.2 11.7,2.76 8.45,1.34 16.8,-3.65 25.4,0.15 6.86,3.09 15.8,-2.48 22.35,4.24 0.45,0.45 3.21,-1.02 4.7,-1.74 1.15,-0.6 2.05,-2.2 3.2,-2.2 7.3,-0.16 14.6,0 21.91,0 3.2,0 6.44,-0.75 9.64,-0.45 6.41,0.45 13.01,2.05 19.43,1.77 15.92,-1.02 31.7,-1.02 47.03,6.42 -0.13,-2.34 -0.26,-3.94 -0.45,-6.59 6.6,1.19 12.44,2.94 18.29,3.09 7.75,0 15.63,-1.9 23.36,-1.75 11.55,0.3 23.25,1.75 34.77,2.61 2.07,0.15 4.1,0.89 6.13,0.74 8.35,-0.29 16.8,-1.6 25,-0.89 9.94,0.74 20.3,-0.71 29.79,4.25 0.9,0.59 2.5,-0.16 3.81,-0.45 5.14,-0.86 10.09,-2.2 15.05,-2.46 9.34,-0.6 18.7,-0.3 28.04,-0.6 3.96,0 8.06,-0.14 11.98,-0.87 6,-1.32 11.98,-3.37 16.22,-4.52 5.86,7.74 9.2,14.45 14.48,18.84 13.13,11.38 23.08,24.98 32,39.71 3.33,5.44 4.97,12.45 9.48,16.24 10.82,9.2 17.69,20.75 24.69,33.15 1.45,-0.72 3.06,-1.6 4.66,-2.32 3.8,12.57 12.3,21.77 20.77,30.82 5.27,5.7 8.77,12.86 13.87,18.7 10.36,11.55 24.26,20.6 26.45,37.98 0,0.88 3.21,1.9 4.96,1.9 1.45,-0.13 2.79,-1.73 4.09,-2.48 3.06,7.01 6.01,13.3 8.8,19.58 2.16,0.43 5.51,0 6.55,1.47 4.38,5.7 9.78,11.66 11.38,18.25 1.6,6.41 5.57,9.65 9.67,13.45 4.23,3.93 9.76,7.15 12.55,12.13 3.5,6.27 9.35,10.5 12.26,17.97 2.79,6.85 11.99,11.36 16.8,18.96 4.69,7.47 12.89,12.74 19.15,19.45 3.2,3.52 5.54,8.04 8.64,11.99 2.63,3.51 5.4,6.86 8.45,10.06 1.46,1.47 4.38,1.6 5.56,3.24 4.69,6.41 7.74,14.9 13.72,19.71 6.58,5.25 12.72,10.52 17.52,17.54 2.95,4.36 7.01,7.88 10.98,11.51 6.42,5.7 9.03,14.64 16.52,19.59 9.2,6 14.75,15.78 24.21,22.06 12.3,8.19 22.24,19.89 33.34,29.95 4.83,4.24 10.06,8.05 15.16,12.14 3.97,3.21 7.64,6.71 11.85,9.35 4.1,2.48 8.8,4.08 13.15,6.11 7.04,3.37 13.59,7.34 20.77,9.95 5.1,1.75 10.93,1.62 16.5,2.64 13.28,2.35 26.72,5.1 40.17,7.3 4.81,0.71 9.95,-0.3 14.75,0.3 6,0.71 11.7,3.2 17.7,3.36 7.28,0.29 14.58,-1.48 21.9,-1.61 4.51,-0.15 8.91,1.16 13.3,1.9 1.6,0.13 3.65,0.86 4.51,0.13 5.27,-4.52 10.37,-0.28 15.35,0.3 2.5,0.3 4.82,1.02 7.14,1.02 13.76,-0.14 27.5,-0.59 41.21,-0.59 2.19,0 4.25,1.6 6.87,2.79 4.52,-3.35 52.17,-2.2 56.98,1.46 1.9,-1.31 3.82,-3.66 5.29,-3.51 5.66,1.03 11.23,3.21 17.51,1.31 4.24,-1.31 9.05,-1.16 13.44,-0.88 5.98,0.43 11.85,1.77 17.81,2.63 4.4,0.59 8.79,-1.31 12.57,-1.6 11.98,-0.73 24.27,1.3 36.52,2.34 4.68,0.43 9.2,1.16 13.88,1.9 0.13,0.43 0.28,0.86 0.45,1.31 2.18,-1.01 4.53,-3.21 6.7,-3.21 17.4,0.43 34.78,1.03 52,1.75 4.25,0.3 8.5,1.18 12.75,1.31 4.8,0 9.78,-0.73 14.58,-0.86 4.24,-0.15 8.47,0.13 12.55,0.13 5.29,0 10.39,-0.28 15.67,0 7.43,0.3 14.9,2.2 22.18,1.48 13.3,-1.48 26.74,-7.46 39.47,-5.86 9.63,1.18 17.68,-2.49 26.43,-2.19 4.95,0.15 11.24,-1.45 14.47,-4.66 6.87,-6.74 14.45,-3.37 21.63,-3.8 1.15,0 2.62,1.31 3.64,0.86 7.3,-3.21 14.61,-6.56 21.78,-10.06 4.68,-2.2 9.48,-3.97 13.43,-7.04 5.27,-3.93 9.65,-9.05 14.75,-13.43 9.52,-8.18 20.75,-14.47 27.04,-26 1.16,-2.18 3.93,-3.37 5.83,-5.12 2.93,-2.48 5.7,-5.26 8.33,-7.88 1.2,-2.2 3.8,-2.78 6.15,-3.93 9.49,-4.55 10.95,-18.14 22.77,-19.89 3.38,-9.35 13.75,-10.96 19.45,-18.11 7,-8.47 16.2,-14.9 25.27,-21.49 11.7,-8.61 21.9,-19.41 33.01,-29.06 2.19,-2.04 4.82,-4.4 7.75,-5.25 4.52,-1.64 11.97,0.73 8.6,-8.64 -0.26,-0.86 1.92,-2.91 3.1,-3.93 7.14,-5.7 14.15,-11.53 21.45,-16.97 2.65,-2.03 6.29,-3.05 8.79,-5.25 12.7,-11.98 25.41,-24.38 37.98,-36.51 5.82,-5.7 11.52,-11.4 17.52,-16.8 5.7,-5.27 11.7,-10.37 17.68,-15.49 2.03,-1.31 2.63,-5.98 4.1,-6.45 10.05,-2.31 12.55,-13.71 20.9,-16.93 9.92,-3.97 10.5,-18.57 22.75,-18.7 0.47,0 0.75,-1.32 1.33,-1.9 2.2,-2.92 3.82,-6.58 6.6,-8.62 5.24,-4.25 11.65,-6.86 16.47,-11.26 8.07,-7.44 14.9,-15.92 23.55,-23.09 12.72,-10.35 24.23,-22.33 35.93,-33.86 8.49,-8.49 16.49,-17.55 24.69,-26.3 7.46,-8.05 14.9,-16.09 22.5,-24.1 2.78,-2.95 5.28,-7.04 8.6,-8.35 5.13,-1.74 6.88,-4.95 8.06,-9.64 0.6,-2.05 2.2,-4.38 3.95,-5.7 12.7,-9.06 20,-21.91 24.39,-36.08 3.36,-11.53 0.16,-23.52 -1.6,-35.07zm-97.74 51.57c-3.36,4.23 -9.5,5.57 -10.96,11.83 -0.47,1.6 -4.7,2.35 -5.99,4.97 -3.5,2.78 -7.31,5.28 -10.68,8.18 -7.3,6.44 -14.32,13.02 -21.45,19.59 -3.97,3.65 -7.92,7.45 -11.85,10.95 -4.67,4.25 -9.2,8.48 -14.02,12.71 -8.78,7.75 -17.53,15.64 -26.73,23.09 -5.68,4.81 -14.48,6.11 -16.67,14.75 -10.08,0.6 -13.43,10.23 -20.15,15.33 -2.65,2.07 -4.66,4.83 -7.16,7.02 -6.57,6 -14.6,10.81 -19.44,17.98 -6.56,9.93 -15.18,16.37 -24.68,22.5 -1.47,1.02 -2.65,3.07 -3.67,4.67 -2.75,4.83 -4.08,10.81 -11.98,10.36 -1.62,-0.13 -3.93,4.39 -5.25,7.04 -4.97,9.63 -13.12,15.61 -21.77,21.46 -4.65,3.07 -8.75,7.29 -13.58,11.39 4.38,5.26 -2.32,7.16 -5.7,10.25 -1.62,1.45 -3.95,2.46 -6.13,3.35 -7.02,2.48 -7.3,10.5 -12.29,14.75 -9.33,7.9 -18.1,16.21 -27.73,23.81 -4.85,3.8 -7.35,11.1 -15.22,10.52 -2.76,9.63 -12.7,12.42 -18.68,19 -7.9,8.62 -17.85,15.18 -26.45,23.22 -7.6,7.01 -14.33,14.9 -21.75,22.06 -5.57,5.25 -11.57,9.8 -17.27,14.9 -3.35,2.92 -6.7,6.14 -10.05,9.2 -2.06,1.62 -4.26,2.94 -6.6,4.54 0.74,0.28 2.04,0.88 3.5,1.6 -6.43,-0.89 -8.63,9.2 -15.9,5.7 -0.33,0 -1.63,1.01 -1.63,1.6 -0.3,7.76 -7.73,9.8 -11.4,14.76 -0.85,1.19 -2.03,3.35 -3.05,3.35 -7.6,-0.56 -7.75,5.44 -10.52,9.2 -2.48,2.65 -5.1,5.44 -7.6,8.2 -0.86,0.87 -1.75,1.75 -2.65,2.64 -6.7,5.25 -14.73,8.61 -17.8,18.4 -0.71,2.93 -9.93,4.36 -15.21,4.36 -7.42,0 -14.89,-2.75 -22.34,-2.91 -8.48,-0.14 -16.96,1.9 -25.43,1.9 -6.87,0 -13.57,-2.32 -20.43,-2.49 -4.82,-0.13 -10.99,4.25 -14.19,2.35 -9.63,-5.4 -19.43,0.14 -29.21,-2.18 -8.2,-2.07 -18.7,-3.67 -25.72,-0.17 -8.48,4.25 -13.72,-2.16 -20.3,-1.6 -12.28,1.17 -24.4,-2.16 -36.67,0 -8.33,1.3 -16.95,2.35 -24.7,-3.05 -1.16,-0.75 -3.95,0.89 -5.83,1 -1.9,0.3 -3.8,-0.11 -5.53,-0.41 -0.47,0 -1.19,-0.89 -1.19,-0.89 -6,6.42 -13.45,1.9 -19.45,1.19 -9.33,-1.05 -20.3,3.63 -27.6,-5.14 -1.45,1.47 -2.63,3.65 -3.63,3.65 -9.93,-0.71 -19.9,-2.05 -29.83,-2.91 -2.05,-0.15 -4.24,1.45 -6.27,1.45 -5.4,-0.14 -10.52,-1.3 -16.37,-0.72 -8.2,0.88 -16.93,-3.8 -25.56,-4.83 -4.8,-0.59 -9.95,2.2 -14.9,2.05 -8.17,-0.44 -16.24,-2.49 -24.4,-3.35 -3.95,-0.3 -7.89,0.41 -11.8,0 -3.25,-0.17 -6.47,-1.34 -10.85,-2.2 -0.44,0.3 -3.52,2.76 -4.24,2.03 -6.41,-4.52 -13.58,-1.17 -20,-2.32 -11.41,-1.9 -23.25,-6.3 -34.18,-4.81 -8.2,1.01 -14.62,-1.49 -21.92,-1.9 -6.45,-0.45 -12.75,0.13 -19.01,-0.6 -2.79,-0.29 -5.25,-2.35 -8.04,-3.65 -1,-0.6 -2.03,-1.6 -2.91,-1.45 -13.15,1.01 -23.09,-6.15 -33.45,-12.57 -11.39,-7.02 -20.6,-15.93 -26.87,-27.9 -0.32,-0.47 -0.6,-1.18 -1.03,-1.18 -14.77,-2.34 -18.55,-17.52 -29.24,-24.84 -6.85,-4.68 -11.23,-13.15 -17.1,-19.58 -3.65,-3.78 -8.75,-6.42 -11.96,-10.52 -4.1,-4.81 -6.44,-10.8 -10.2,-15.91 -1.94,-2.49 -5.74,-3.5 -7.77,-5.85 -4.08,-4.82 -7.43,-9.94 -11.23,-14.9 -1.49,-1.75 -3.24,-3.35 -4.69,-5.12 -2.2,-2.92 -4.25,-6 -7.16,-10.22 -0.15,0 -2.19,0.59 -4.69,1.32 -9.63,-12.58 -19.43,-25.28 -29.21,-38 -4.52,-1.47 -7.89,-4.08 -6.3,-10.52 -12.7,-2.91 -17.65,-14.75 -25.69,-22.48 -2.5,-2.93 -5.13,-5.72 -7.31,-8.78 -1.89,-2.79 -3.2,-5.84 -4.99,-8.92 -0.26,-0.58 -0.26,-1.6 -0.85,-2.03 -4.81,-3.65 -9.8,-7.17 -14.76,-10.8 -0.44,-0.45 -1.32,-1.04 -1.44,-1.64 -4.98,-14.9 -18.28,-22.76 -28.66,-33.15 -2.64,-2.61 -2.79,-7.45 -4.82,-10.96 -3.07,-5.54 -7.47,-9.05 -14.02,-10.65 -3.36,-0.89 -7.16,-5.85 -8.05,-9.5 -1.75,-7.3 -8.75,-8.9 -12.41,-13.75 -0.72,-0.85 -2.62,-1.44 -2.62,-2.32 -0.17,-9.07 -8.93,-10.67 -13.43,-16.08 -1.75,-2.19 -3.37,-4.69 -5.1,-7 -0.9,-1.19 -1.79,-2.34 -2.79,-3.35 -2.5,-2.5 -5.7,-4.55 -7.6,-7.3 -6.75,-9.5 -12.71,-19.59 -19.71,-28.8 -4.25,-5.55 -10.1,-9.79 -14.77,-15.05 -10.1,-11.1 -20.17,-22.35 -29.68,-34.04 -4.95,-5.85 -8.9,-12.58 -13.72,-19.45 0.6,-0.26 1.02,-0.56 1.47,-0.71 -19.59,-11.99 -37.99,-26.3 -54.19,-40.19 -7.91,3.24 -18.45,1.34 -27.78,1.34 -6.57,0 -13,-0.6 -19.58,-1.47 -2.32,-0.3 -4.39,-2.33 -6.89,-3.8 -2.16,6.13 -6.41,4.82 -11.36,2.03 -4.25,-2.46 -9.07,-5.53 -12.27,2.94 -4.82,-7.45 -10.1,-3.8 -15.63,-3.07 -5.4,0.72 -11.27,-1.02 -16.97,-1.18 -15.33,-0.29 -30.68,-0.14 -46.17,-0.59 -13.71,-0.43 -27.6,-2.76 -41.16,-1.73 -6.89,0.42 -13.04,-4.53 -20.9,0.13 -5.29,3.07 -14.49,-1.01 -21.9,-1.75 -7.94,-0.58 -16.39,-2.91 -23.84,-1.16 -11.41,2.78 -19.73,-2.34 -29.66,-7.6 1.03,4.08 1.75,7.16 2.2,9.06 -9.8,-0.88 -19.29,-2.05 -28.8,-2.5 -5.84,-0.28 -11.8,0.89 -17.67,0.3 -3.67,-0.45 -7.02,-2.91 -11.38,-4.81 -7.02,7.01 -22.95,7.01 -34.8,-2.64 1.31,2.94 2.06,4.25 3.1,6.29 -5.42,-0.74 -10.24,-1.32 -16.95,-2.2 1.61,-2.2 3.65,-4.82 5.53,-7.3 0.3,0.15 0.43,0.3 0.77,0.45 4.21,-5.14 8.45,-10.39 12.7,-15.65 5.96,-7.3 11.96,-14.9 18.53,-22.05 2.63,-3.07 6.57,-4.97 9.93,-7.45 0.45,-0.3 1.45,-0.15 1.45,-0.3 1.45,-9.5 13.02,-11.84 15.09,-21.62 0.71,-3.93 7.26,-6.58 10.8,-10.08 6.26,-6.42 12.13,-13.3 18.36,-19.89 3.69,-3.76 7.49,-7.3 10.7,-11.1 3.07,-3.93 5.99,-8.01 9.07,-11.81 8.02,-9.8 15.77,-19.44 24.23,-28.79 4.55,-5.11 10.25,-9.2 14.89,-14.03 2.65,-2.92 4.1,-6.87 6.88,-9.78 2.2,-2.5 5.28,-4.54 8.07,-6.29 8.01,-5.11 10.2,-14.61 16.2,-21.16 8.16,-9.07 16.81,-17.99 25.7,-26.45 1.61,-1.62 4.81,-1.62 7.31,-2.35 -2.05,-6.74 27.92,-40.04 39.74,-44.57 -2.2,-2.77 1.16,-11.82 5.55,-13.87 8.76,-4.1 14.16,-11.25 19.56,-19 4.4,-6.43 11.7,-10.95 17.7,-16.05 1.15,-1.05 3.35,-1.31 3.79,-2.48 3.78,-10.53 12.56,-16.08 21.61,-21.2 1.34,-0.73 1.75,-3.07 2.65,-4.52 2.2,-3.51 4.05,-7.31 6.7,-10.38 7.89,-9.07 16.39,-17.82 24.42,-26.88 6.57,-7.6 13.17,-15.2 19.12,-23.39 3.5,-4.81 5.86,-10.65 8.78,-16.06 4.38,1.75 9.48,-1.6 10.52,-7.15 0.71,-3.8 13.71,-17.4 16.21,-19.59 10.07,-8.46 21.34,-3.93 31.57,-2.76 17.22,2.05 34.47,3.05 51.72,4.1 6.28,0.26 12.4,0.56 18.68,0.13 10.68,-0.73 20.73,3.5 32.28,1.18 10.24,-2.06 21.64,2.04 32.6,3.2 6.42,0.59 12.84,0.74 19.12,1.32 18,1.32 35.93,2.92 53.92,4.23 5.25,0.45 10.8,-0.13 16.2,0.29 2.78,0.16 5.41,2.06 8.2,2.2 4.1,0.28 8.16,-0.74 12.26,-0.59 8.2,0.29 17.69,-1.45 24.4,2.19 8.34,4.38 15.8,-1.45 23.95,2.2 7.75,3.2 17.54,1.01 26.3,1.9 8.05,0.88 15.94,2.78 23.97,3.95 1.18,0.3 2.63,-1.47 3.97,-1.77 3.33,-0.72 7.15,-2.33 9.93,-1.47 8.32,2.65 15.9,6.15 25.12,1.9 3.35,-1.6 8.76,1.77 13.15,2.05 21.03,0.6 42.05,0.89 62.95,1.62 10.8,0.43 22.65,4.82 32.16,1.73 11.1,-3.63 21.62,7.17 31.84,-1.15 1.16,-0.88 4.96,2.34 7.6,2.34 15.78,0.45 31.68,0.15 47.61,1.01 10.67,0.45 21.34,1.47 31.7,3.95 3.84,1.02 6.59,6.59 9.79,10.09 1.18,1.46 2.2,3.06 3.25,4.66 3.63,5.85 7.13,11.85 10.76,17.69 1.35,2.2 2.95,4.08 4.7,5.98 0.74,0.88 2.65,1.32 2.79,2.37 2.46,9.33 8.91,16.2 14.61,23.8 7,9.05 16.2,17.96 18.99,28.33 3.78,14.32 13.45,23.82 20.71,35.2 2.97,4.53 2.97,12.72 11.14,13.17 -5.44,7.15 3.63,7.3 5.66,10.65 7.75,13.16 15.95,26.16 24.87,38.58 4.67,6.58 12.7,11.1 16.2,18.27 3.8,7.6 11.53,10.95 15.07,17.95 7.3,14.18 18.11,25.71 28.61,37.56 6.14,7 10.65,15.49 16.07,23.22 1.78,2.33 4.1,4.1 5.7,6.42 2.78,3.96 5.28,8.05 8.05,12.15 3.2,4.51 6.42,9.2 10.08,13.56 9.05,10.67 18.4,21.34 27.6,31.87 4.22,4.8 8.92,9.33 13.02,14.3 2.62,3.22 4.22,7.17 7.13,12.13 4.39,0.87 7.77,4.24 7.6,10.95 0,1.75 1.32,3.95 2.65,5.12 8.34,7.02 17.24,13.6 25.14,21.03 9.48,8.94 18.26,18.57 27.16,28.2 9.35,10.24 18.1,21.05 27.75,30.99 4.69,4.81 10.67,8.31 17.09,10.8 0.9,2.35 1.18,5.41 2.78,7.01 3.08,3.37 6.58,6.29 10.52,8.64 4.36,2.61 9.06,4.81 14.33,2.03 0.87,-0.58 2.47,-0.28 3.5,0.3 14.17,5.83 28.05,10.37 43.83,7 6.14,-1.17 13.14,-1.47 18.7,3.52 0.87,0.71 3.2,0.71 4.24,0 9.2,-5.7 19.26,-3.52 28.91,-3.09 7.89,0.15 16.37,5.57 23.37,3.67 6.73,-1.77 12.02,0.88 17.98,0.72 13.87,-0.42 27.77,0.58 41.64,1.05 6.86,0.13 13.6,0 20.3,0.71 5.41,0.44 10.83,2.34 16.23,2.79 3.5,0.3 7.03,-0.89 10.53,-1.19 3.92,-0.28 8.02,-0.58 11.97,-0.28 6.13,0.43 12.4,1.6 18.55,2.18 8.6,0.74 17.4,1.19 26,1.62 2.32,0.13 4.82,-0.43 7.32,-0.3 5.23,0.3 10.66,0.43 15.91,1.17 4.09,0.6 8.62,4.1 10.5,-2.49 7.49,1.19 14.62,2.49 21.95,3.52 1.45,0.13 3.34,0.42 4.52,-0.43 8.18,-5.14 16.52,-2.5 24.82,-0.6 1.61,0.45 3.68,1.61 4.53,0.86 9.67,-6.71 20.75,-0.71 31.13,-3.5 6,-1.6 13.14,-0.13 19.57,1.04 4.68,1.01 7.47,-2.64 11.83,-2.94 5.42,-0.26 9.8,3.5 15.35,2.49 -1.03,1.61 -2.33,2.91 -3.65,4.38z"/>
    </g>
   </g>
   <polygon class="fil3" points="22951.26,12091.02 25066.73,12091.02 25066.73,13221.21 22951.26,13221.21 "/>
   <path class="fil3 str0" d="M20668.82 12672.47l38.43 -3.06 19.28 2.04 31.55 -1.02 28.49 -4.97 2.93 -24.54 -7.17 -23.23 -15.19 -37.69 -27.46 -52.74 -14.18 -37.4 -20.31 -36.82 -38.57 -92.18 -10.22 -15.34 -9.93 -19.29 -6.14 -22.35 -9.2 -15.05 -5.99 -16.36 -21.48 -37.4 -7.01 -21.33 -67.06 -141.27 -5.98 -20.16 -11.11 -18.27 -6.28 -18.41 -19.28 -35.35 -17.1 -18.41 -33.45 -10.08 -32.58 11.1 -18.27 17.39 -9.2 17.09 -7.16 20.31 -9.2 14.31 -40.33 93.21 -11.25 15.34 -5.11 20.32 -11.24 19.42 -6.14 17.97 -103.29 217.4 -6.28 22.34 -10.08 15.05 -7.31 20.46 -17.97 32.43 -15.49 40.61 -11.1 14.32 -4.97 18.12 -20.3 40.61 -6.14 20.45 5.11 25.42 20.31 5.99 39.44 -2.04 20.31 2.04 56.98 -2.04 23.37 -7.16 19.29 -18.12 18.12 -33.59 19.28 -19.15 21.33 -11.39 19.29 3.22 42.66 -4.24 18.4 3.21 99.35 -0.87 18.4 1.9 22.22 -3.22 22.34 11.39 19.29 16.07 9.2 19.43 5.99 18.27 20.31 15.19 23.52 10.08 21.33 2.04zm-230.54 -252.88l-20.31 -3.94 -23.23 2.03 -16.35 -7.15 -1.03 -19.14 47.78 -109.87 11.25 -9.05 14.01 8.18 47.92 111.77 -4.23 18.11 -15.19 8.18 -40.62 0.88zm394.75 214.46l7.15 26.3 19.44 10.08 20.31 2.04 42.66 -3.06 39.3 2.04 38.71 -2.04 19.28 3.06 22.36 -2.04 201.03 1.02 19.28 -10.23 11.25 -31.4 -1.03 -82.26 -9.2 -30.23 -18.4 -12.43 -21.19 2.2 -19.43 3.94 -21.33 -2.92 -41.64 1.02 -20.01 -4.24 -18.41 3.22 -39.59 -2.19 -21.33 2.19 -20.31 -8.18 -8.18 -20.3 1.02 -344.21 -2.04 -24.39 2.04 -40.62 -3.06 -57.71 1.02 -19.29 -10.09 -22.34 -20.3 -12.13 -39.45 0 -20.3 3.94 -40.76 -3.94 -19.29 2.92 -21.33 8.19 -9.2 22.35 0 141.99 -1.9 19.29 1.9 20.31 -2.93 37.69 1.03 22.36 1.9 19.28 1.02 380.72zm771.52 39.45l145.22 -2.05 21.33 -9.2 11.1 -21.33 0 -102.26 -11.1 -20.32 -21.33 -9.2 -23.22 1.9 -19.44 -2.92 -51.71 -1.02 -33.46 3.94 -20.3 -1.9 -22.35 1.03 -19.3 -3.07 -22.34 2.04 -21.34 -10.22 -8.18 -18.26 0 -64 9.2 -21.33 18.27 -11.1 30.53 -1.03 32.44 2.93 38.42 -1.9 41.64 1.02 20.31 -2.05 23.51 1.03 20.17 -8.18 7.15 -20.3 2.93 -91.32 -10.08 -28.48 -23.38 -13.16 -59.75 0 -21.18 2.05 -42.66 -2.92 -59.03 1.9 -21.32 -9.2 -8.19 -31.42 0 -31.41 9.2 -19.42 22.35 -8.19 19.29 1.02 19.28 -3.94 145.22 1.9 19.14 -0.87 21.33 -12.13 10.08 -18.41 -0.88 -20.31 0.88 -20.3 -1.9 -60.78 -9.2 -19.28 -20.31 -8.19 -21.33 0 -18.11 -3.94 -82.26 0.88 -22.35 2.04 -20.31 -2.04 -17.24 1.01 -20.45 -1.89 -83.27 1.89 -20.31 -2.91 -18.99 3.94 -18.41 -2.04 -20.3 2.04 -20.31 -1.03 -21.33 8.19 -11.1 21.33 1.89 38.42 -2.92 41.64 2.92 22.35 -1.89 99.64 2.92 21.33 -2.05 19.28 -0.87 82.98 2.92 18.42 -1.03 164.5 -1.89 19.42 2.92 20.32 -2.92 69.83 1.89 22.35 8.19 27.47 30.53 13.14 73.05 1.02 22.35 -2.04 18.41 1.02 41.63 -2.92 18.99 3.94 23.53 1.03 20.16 -2.05 20.3 2.05z"/>
   <path class="fil4" d="M20133.47 13482.58l49.82 -2.05 18.26 1.02 23.38 -2.05 21.18 -8.17 9.2 -21.33 -1.02 -20.17 1.02 -22.34 -2.03 -37.56 2.03 -19.28 -1.02 -23.38 9.21 -18.25 23.22 -11.25 22.36 -2.05 21.33 4.09 104.6 -8.18 96.42 -38.57 15.19 -12.13 14.33 -16.22 13.14 -13.14 13.15 -15.34 21.33 -32.43 17.24 -39.59 3.07 -22.36 6.13 -16.21 2.06 -83.28 -4.1 -17.23 -3.07 -22.36 -12.12 -37.54 -19.28 -34.49 -24.41 -33.6 -45.72 -39.58 -33.46 -22.22 -40.62 -12.27 -17.24 -7.01 -20.3 0 -20.31 -7.16 -30.53 -1.02 -32.43 1.02 -22.35 3.07 -61.95 -1.02 -20.31 -3.07 -62.96 4.09 -22.21 -1.02 -18.26 -3.07 -21.33 4.09 -21.33 11.1 -9.2 16.22 1.01 122.86 -4.09 40.62 2.05 19.28 -1.02 262.98 2.05 19.28 -1.03 187.73 11.25 19.29 31.41 10.22 18.26 1.03zm152.24 -347.27l-20.32 -12.13 -9.05 -17.24 -3.06 -82.25 2.03 -21.33 0 -41.64 10.08 -19.28 21.33 -10.08 105.63 3.07 20.31 9.05 16.22 11.25 13.28 13.15 10.09 20.31 3.07 18.26 2.05 28.34 -2.05 27.47 -7.15 18.26 -9.07 16.22 -13.29 16.36 -16.21 12.13 -16.22 5.11 -31.42 3.94 -51.86 -1.02 -24.39 2.05z"/>
   <polygon class="fil4" points="20947.6,13482.58 21092.82,13480.53 21114.15,13471.33 21125.25,13450 21125.25,13347.59 21114.15,13327.27 21092.82,13318.07 21069.44,13320.12 21050.16,13317.05 20998.43,13316.02 20964.84,13320.12 20944.52,13318.07 20922.18,13319.1 20902.89,13316.02 20880.68,13318.07 20859.35,13307.99 20851.18,13289.73 20851.18,13225.74 20860.38,13204.41 20878.64,13193.16 20909.03,13192.28 20941.46,13195.21 20980.18,13193.16 21021.66,13194.18 21041.98,13192.28 21065.35,13193.16 21085.65,13185.13 21092.82,13164.82 21095.88,13073.51 21085.65,13045.02 21062.28,13031.88 21002.38,13031.88 20981.06,13033.92 20938.55,13030.85 20879.66,13032.9 20858.33,13023.69 20850.15,12992.28 20850.15,12960.72 20859.35,12941.44 20881.56,12933.4 20900.99,12934.43 20920.28,12930.34 21065.35,12932.38 21084.64,12931.36 21105.97,12919.09 21116.19,12900.83 21115.17,12880.52 21116.19,12860.22 21114.15,12799.29 21104.94,12780 21084.64,12771.97 21063.31,12771.97 21045.04,12767.88 20962.79,12768.9 20940.58,12770.95 20920.28,12768.9 20902.89,12769.92 20882.59,12767.88 20799.45,12769.92 20779.15,12766.86 20759.86,12770.95 20741.6,12768.9 20721.3,12770.95 20700.98,12769.92 20679.66,12777.96 20668.41,12799.29 20670.46,12837.86 20667.39,12879.5 20670.46,12901.85 20668.41,13001.34 20671.48,13022.67 20669.43,13041.95 20668.41,13125.23 20671.48,13143.49 20670.46,13307.99 20668.41,13327.27 20671.48,13347.59 20668.41,13417.57 20670.46,13439.92 20678.63,13467.38 20709.03,13480.53 20782.21,13481.56 20804.42,13479.51 20822.69,13480.53 20864.32,13477.47 20883.61,13481.56 20906.98,13482.58 20927.29,13480.53 "/>
   <polygon class="fil4" points="21703.93,13462.26 21731.24,13478.48 21759.74,13481.55 21782.09,13474.39 21792.17,13454.08 21794.22,13083.59 21791.14,13066.34 21791.14,12965.83 21794.22,12941.44 21791.14,12800.31 21781.07,12780 21760.76,12768.89 21634.82,12769.92 21615.54,12781.02 21604.44,12802.35 21603.41,12823.68 21606.48,12839.9 21603.41,12882.56 21605.45,12904.91 21603.41,13086.66 21597.28,13103.9 21582.09,13096.74 21510.06,13024.71 21481.57,13002.35 21281.56,12800.31 21266.37,12788.18 21242.99,12776.06 21212.61,12768.89 21189.23,12778.98 21180.03,12798.26 21180.03,13105.94 21179,13123.18 21181.05,13164.81 21177.98,13182.05 21180.03,13348.6 21177.98,13367.89 21180.03,13453.06 21189.23,13472.35 21210.56,13479.5 21252.2,13481.55 21274.41,13479.5 21314,13482.58 21335.32,13481.55 21355.64,13471.33 21365.87,13439.92 21366.88,13183.08 21368.93,13162.77 21375.95,13145.53 21389.23,13150.65 21402.39,13167.89 21474.42,13236.84 21487.7,13252.03 21504.95,13263.28 21662.29,13419.6 21688.59,13449.12 "/>
   <polygon class="fil4" points="21873.35,13451.02 21885.61,13470.3 21904.9,13481.55 21925.2,13480.53 21965.81,13482.58 21987.16,13480.53 22029.67,13481.55 22050.99,13469.42 22059.17,13450 22061.22,13430.71 22059.17,13408.5 22059.17,13228.8 22068.24,13207.47 22089.56,13194.18 22209.36,13193.16 22230.69,13196.23 22248.95,13196.23 22268.24,13207.47 22278.47,13226.76 22279.49,13451.02 22290.59,13467.37 22320.1,13480.53 22372.83,13480.53 22393.15,13478.48 22434.77,13481.55 22454.07,13468.4 22466.19,13451.02 22464.14,13358.69 22467.22,13326.26 22464.14,13310.03 22465.17,12800.31 22456.12,12778.98 22435.81,12770.94 22319.07,12769.92 22289.57,12777.08 22279.49,12801.33 22278.47,12839.9 22280.5,12857.14 22278.47,12898.77 22281.53,12918.06 22280.5,12997.24 22269.26,13017.56 22248.95,13028.8 22229.67,13025.73 22190.07,13029.82 22168.74,13027.78 22150.49,13029.82 22090.59,13028.8 22071.3,13019.6 22061.22,13000.32 22060.2,12977.96 22060.2,12956.63 22059.17,12938.37 22060.2,12859.19 22062.24,12836.83 22060.2,12799.29 22050.99,12780 22029.67,12768.89 22007.31,12770.94 21906.94,12768.89 21884.6,12778.98 21874.36,12799.29 21872.32,12821.64 21874.36,12900.82 21872.32,12921.13 21876.41,12962.77 21874.36,13001.34 21875.38,13025.73 21873.35,13046.04 21873.35,13349.62 21876.41,13367.89 "/>
   <path class="fil4" d="M23070.25 13481.56l38.57 -3.08 19.3 2.05 31.41 -1.02 28.48 -5.12 3.08 -24.39 -7.15 -23.23 -15.21 -37.55 -27.46 -52.88 -14.16 -37.55 -20.31 -36.53 -38.57 -92.33 -10.24 -15.34 -10.07 -19.28 -6.14 -22.21 -9.07 -15.34 -6.14 -16.21 -21.32 -37.55 -7.15 -21.33 -66.92 -141.12 -6.15 -20.32 -11.08 -18.25 -6.14 -18.27 -19.3 -35.5 -17.22 -18.26 -33.61 -10.23 -32.43 11.25 -18.25 17.24 -9.07 17.23 -7.17 20.32 -9.21 14.17 -40.61 93.5 -11.08 15.19 -5.13 20.31 -11.11 19.29 -6.12 18.25 -103.59 217.25 -6 22.35 -10.21 15.19 -7.15 20.32 -18.26 32.43 -15.2 40.61 -11.11 14.31 -5.11 18.27 -20.3 40.62 -6.15 20.3 5.11 25.27 20.3 6.14 39.61 -2.05 20.31 2.05 56.82 -2.05 23.37 -7.15 19.31 -18.27 18.25 -33.45 19.28 -19.28 21.34 -11.11 19.27 2.92 42.66 -3.94 18.27 2.93 99.49 -0.88 18.26 1.89 22.36 -2.92 22.35 11.11 19.27 16.21 9.07 19.28 6.13 18.27 20.32 15.34 23.36 10.08 21.32 2.05zm-230.52 -252.74l-20.3 -4.1 -23.23 2.05 -16.38 -7.17 -1.02 -19.28 47.77 -109.57 11.11 -9.2 14.31 8.18 47.63 111.62 -3.92 18.25 -15.35 8.19 -40.62 1.03z"/>
   <polygon class="fil3 str0" points="19921.1,12679.64 19945.36,12671.45 19967.71,12641.94 19981.15,12613.75 19986.99,12592.42 20006.43,12559.99 20012.56,12539.67 20022.78,12518.34 20028.64,12500.96 20039.88,12482.55 20079.47,12390.37 20086.63,12367.86 20104.75,12335.43 20193.28,12126.52 20203.36,12108.11 20220.45,12071.44 20225.71,12052.31 20245,12016.65 20252.01,11989.34 20247.04,11968.01 20228.64,11963.92 20207.45,11961.87 20189.04,11958.95 20169.9,11960.84 20149.6,11961.87 20111.03,11957.93 20088.67,11971.08 20071.29,11988.17 19976.91,12211.69 19970.92,12233.02 19961.72,12250.12 19957.63,12268.53 19947.69,12286.78 19927.39,12343.62 19917.16,12361.87 19906.06,12359.98 19880.49,12304.9 19876.54,12285.76 19859.16,12251.14 19808.32,12119.21 19782.02,12065.45 19753.53,11988.17 19736.44,11971.08 19712.92,11960.84 19655.21,11958.95 19634.9,11961.87 19596.19,11961.87 19580.12,11969.03 19571.94,11989.34 19604.37,12075.68 19614.6,12090.73 19619.71,12110.16 19627.75,12130.46 19638.86,12145.52 19646.01,12166.85 19737.46,12372.1 19743.45,12392.42 19769.02,12445.15 19775.89,12466.48 19793.27,12500.96 19804.38,12519.22 19809.34,12539.67 19849.96,12635.95 19859.16,12651.14 19879.47,12668.53 19901.82,12676.71 "/>
   <polygon class="fil5" points="22373.77,11951.42 22349.36,11959.6 22327.01,11989.11 22313.87,12017.46 22307.73,12038.79 22288.44,12071.22 22282.32,12091.53 22272.23,12112.85 22266.1,12130.1 22255,12148.51 22215.4,12240.84 22208.24,12263.18 22189.98,12295.62 22101.59,12504.69 22091.51,12523.09 22074.27,12559.62 22069.16,12578.9 22049.88,12614.4 22042.72,12641.86 22047.83,12663.05 22066.09,12667.14 22087.43,12669.18 22105.68,12672.25 22124.97,12670.21 22145.28,12669.18 22183.85,12673.28 22206.2,12660.13 22223.44,12642.89 22317.81,12419.5 22323.95,12398.19 22333.14,12380.94 22337.1,12362.68 22347.3,12344.41 22367.62,12287.44 22377.72,12269.17 22388.97,12271.22 22414.38,12326.16 22418.34,12345.44 22435.72,12379.92 22486.41,12511.85 22512.86,12565.61 22541.19,12642.89 22558.45,12660.13 22581.81,12670.21 22639.65,12672.25 22659.96,12669.18 22698.53,12669.18 22714.74,12662.18 22722.93,12641.86 22690.5,12555.52 22680.27,12540.33 22675.16,12521.05 22667.14,12500.74 22655.87,12485.4 22648.85,12464.21 22557.41,12259.09 22551.43,12238.79 22525.99,12186.05 22518.84,12164.73 22501.59,12130.1 22490.5,12111.83 22485.37,12091.53 22444.76,11995.1 22435.72,11979.91 22415.42,11962.67 22393.06,11954.48 "/>
  </g>
 </g>
</svg>
