<svg width="458" height="378" viewBox="0 0 458 378" fill="none" xmlns="http://www.w3.org/2000/svg">
<path d="M416 266.27C406.02 270.054 400.989 281.263 404.783 291.24C408.571 301.22 419.779 306.248 429.757 302.458C439.734 298.667 444.767 287.458 440.972 277.479C437.179 267.508 425.975 262.473 416 266.27ZM435.068 316.422C417.385 323.138 397.534 314.233 390.813 296.549C384.093 278.873 393.007 259.015 410.687 252.299C428.369 245.574 448.22 254.495 454.939 272.17C461.66 289.854 452.748 309.703 435.068 316.422ZM260.03 325.559C250.053 329.349 245.022 340.558 248.817 350.529C252.608 360.508 263.812 365.537 273.787 361.746C283.769 357.955 288.802 346.747 285.007 336.767C281.216 326.797 270.005 321.762 260.03 325.559ZM279.1 375.71C261.422 382.433 241.571 373.522 234.849 355.837C228.128 338.162 237.044 318.304 254.719 311.588C272.402 304.869 292.253 313.783 298.974 331.468C305.694 349.143 296.78 368.992 279.1 375.71ZM348.594 9.75656C357.98 6.18415 368.187 6.83728 376.957 11.5084C368.191 6.83728 357.984 6.18415 348.594 9.75656ZM404.176 141.458C404.595 155.991 395.694 169.457 381.983 174.671C395.698 169.448 404.595 155.991 404.176 141.458ZM384.635 181.645L210.062 248.019C206.211 249.473 201.889 247.535 200.426 243.683C198.961 239.837 200.903 235.508 204.753 234.054L379.325 167.689C390.566 163.416 397.671 152.068 396.612 140.087L387.711 39.5763C386.957 31.0837 382.381 23.6195 375.159 19.0984C367.928 14.5664 359.218 13.7039 351.246 16.7396L170.959 85.2757C167.111 86.7384 162.787 84.7923 161.322 80.9466C159.859 77.0941 161.803 72.7673 165.651 71.3111L345.937 2.76673C358.317 -1.93312 371.86 -0.602741 383.087 6.43361C394.315 13.4631 401.426 25.0603 402.593 38.261L411.497 138.766C413.147 157.377 402.097 175.015 384.635 181.645ZM81.8223 87.2063C86.6412 89.9993 90.9548 93.7524 94.4388 98.3752L240.519 292.207L243.039 291.249C241.51 291.779 239.813 291.264 238.838 289.972L94.4429 98.3752C90.9567 93.7524 86.6435 89.9929 81.8223 87.2063ZM423.559 222.618L424.885 226.113L423.561 222.618H423.559ZM426.209 229.608L243.173 299.188C240.091 300.355 236.541 299.344 234.559 296.705L88.4769 102.874C79.084 90.4121 62.3373 85.5777 47.7552 91.1291L10.1247 105.427C6.27676 106.89 1.94995 104.952 0.487269 101.1C-0.975786 97.2541 0.968035 92.9274 4.81597 91.4624L42.4464 77.1558C63.2002 69.2637 87.0384 76.1455 100.407 93.876L243.111 283.224L420.9 215.646C424.751 214.174 429.077 216.12 430.538 219.964C432.001 223.819 430.059 228.146 426.209 229.608Z" fill="black"/>
<mask id="mask0_369_3" style="mask-type:luminance" maskUnits="userSpaceOnUse" x="291" y="113" width="81" height="43">
<path d="M291.781 113.16H371.736V155.876H291.781V113.16Z" fill="white"/>
</mask>
<g mask="url(#mask0_369_3)">
<path d="M371.56 134.915C371.554 134.888 371.542 134.843 371.521 134.832C371.106 134.672 370.902 134.114 370.328 134.225C370.112 134.264 369.869 134.165 369.643 134.181C369.45 134.192 369.229 134.015 369.047 134.231C369.036 134.253 368.976 134.231 368.931 134.231C368.694 134.204 368.45 134.159 368.213 134.165C367.743 134.17 367.274 134.219 366.805 134.231C365.998 134.248 365.199 134.258 364.393 134.253C363.708 134.241 363.028 134.197 362.344 134.176C361.985 134.165 361.62 134.204 361.262 134.176C360.88 134.148 360.5 134.071 360.118 134.021C359.925 133.999 359.732 133.982 359.549 133.965C359.445 133.987 359.362 134.015 359.284 134.021C359.179 134.021 359.075 134.004 358.965 133.999C358.82 133.987 358.672 133.993 358.522 133.972C358.385 133.955 358.252 133.9 358.114 133.889C357.754 133.86 357.385 133.894 357.037 133.822C356.722 133.761 356.424 133.806 356.121 133.806C355.773 133.8 355.425 133.822 355.077 133.811C354.537 133.789 354.006 133.849 353.459 133.723C352.984 133.618 352.465 133.679 351.963 133.711C351.764 133.728 351.593 133.64 351.439 133.591C351.178 133.502 351.008 133.237 350.821 133.016C350.681 132.85 350.792 132.42 350.411 132.53C350.145 132.209 349.903 131.912 349.655 131.614C349.649 131.608 349.638 131.603 349.627 131.603C349.323 131.559 349.212 131.332 349.146 131.133C348.992 131.034 348.853 130.973 348.76 130.874C348.424 130.52 348.097 130.156 347.778 129.781C347.462 129.416 347.065 129.14 346.778 128.742C346.612 128.505 346.391 128.3 346.21 128.063C345.977 127.743 345.68 127.461 345.398 127.18C344.928 126.705 344.608 126.092 344.045 125.706C343.989 125.666 343.973 125.572 343.934 125.5C343.862 125.363 343.818 125.208 343.725 125.092C343.288 124.584 342.842 124.082 342.388 123.584C342.25 123.431 342.029 123.315 341.952 123.138C341.732 122.613 341.267 122.293 340.952 121.845C340.749 121.553 340.539 121.266 340.333 120.973C340.301 120.918 340.317 120.835 340.307 120.752C340.241 120.752 340.162 120.747 340.08 120.741C340.059 120.658 340.059 120.564 340.014 120.504C339.689 120.056 339.356 119.615 339.014 119.179C338.843 118.958 338.638 118.764 338.479 118.538C338.192 118.145 337.916 117.743 337.652 117.339C337.408 116.97 337.192 116.578 336.943 116.213C336.779 115.97 336.596 115.717 336.376 115.528C336.204 115.385 335.961 115.325 335.74 115.247C335.619 115.203 335.486 115.197 335.359 115.175C335.029 115.142 334.713 115.042 334.388 114.999C334.023 114.948 333.648 114.966 333.277 114.933C332.863 114.894 332.455 114.833 332.045 114.789C331.847 114.772 331.648 114.778 331.45 114.761C331.041 114.723 330.633 114.706 330.218 114.64C329.49 114.524 328.728 114.6 327.988 114.568C327.74 114.557 327.524 114.458 327.243 114.524C326.933 114.6 326.579 114.463 326.247 114.419C326.209 114.413 326.171 114.402 326.132 114.398C325.635 114.353 325.149 114.308 324.652 114.27C324.546 114.259 324.437 114.27 324.327 114.281C324.094 114.298 323.797 114.419 323.647 114.319C323.422 114.176 323.239 114.292 323.046 114.27C322.642 114.231 322.233 114.241 321.831 114.214C321.555 114.187 321.268 114.048 321.014 114.099C320.721 114.16 320.456 114.039 320.181 114.071C319.76 114.12 319.357 114.016 318.932 114.039C318.34 114.076 317.733 113.933 317.133 113.9C316.426 113.855 315.713 113.855 315.006 113.833C314.813 113.828 314.625 113.806 314.432 113.806C314.177 113.801 313.918 113.812 313.658 113.801C313.437 113.795 313.184 113.695 312.991 113.773C312.571 113.939 312.201 113.828 311.875 113.618C311.632 113.458 311.405 113.364 311.113 113.309C310.517 113.193 310.137 113.485 309.744 113.839C309.572 113.999 309.428 114.275 309.285 114.341C308.954 114.491 308.805 114.795 308.574 115.004C308.109 115.424 307.729 115.937 307.314 116.412C307.204 116.545 307.115 116.699 306.994 116.821C306.801 117.009 306.591 117.174 306.382 117.346C306.265 117.444 306.116 117.516 306.022 117.638C305.84 117.865 305.719 118.145 305.519 118.35C305.122 118.754 304.687 119.113 304.271 119.499C304.073 119.686 303.891 119.886 303.702 120.084C303.504 120.294 303.322 120.521 303.113 120.714C302.974 120.846 302.78 120.918 302.643 121.051C302.548 121.15 302.511 121.31 302.434 121.426C302.383 121.504 302.3 121.558 302.24 121.63C302.09 121.813 301.975 122.05 301.781 122.166C301.418 122.381 301.125 122.664 300.854 122.978C300.749 123.099 300.688 123.259 300.578 123.37C300.385 123.569 300.17 123.739 299.964 123.922C299.838 124.037 299.716 124.159 299.6 124.286C299.403 124.518 299.219 124.767 299.01 124.993C298.893 125.12 298.734 125.208 298.59 125.319C298.694 125.474 298.69 125.561 298.523 125.678C298.407 125.76 298.252 125.793 298.165 125.893C297.883 126.191 297.617 126.5 297.358 126.821C297.292 126.898 297.292 127.086 297.232 127.102C296.835 127.218 296.724 127.616 296.448 127.848C296.177 128.08 295.95 128.356 295.708 128.615C295.525 128.809 295.342 129.002 295.167 129.195C295.144 129.223 295.1 129.267 295.105 129.278C295.249 129.504 295.028 129.548 294.929 129.653C294.687 129.896 294.442 130.134 294.217 130.393C294.002 130.653 293.819 130.945 293.466 131.062C293.416 131.078 293.35 131.15 293.345 131.205C293.327 131.437 293.195 131.542 292.985 131.547C293.008 131.614 293.046 131.674 293.029 131.697C292.824 131.955 292.56 132.143 292.434 132.491C292.307 132.846 291.891 133.077 291.965 133.535C291.965 133.546 291.965 133.557 291.959 133.568C291.787 133.845 291.792 134.104 291.969 134.391C292.129 134.667 292.239 134.971 292.339 135.185C292.511 135.197 292.632 135.175 292.681 135.225C293.024 135.573 293.394 135.837 293.919 135.816C293.985 135.816 294.057 135.837 294.123 135.843C294.393 135.877 294.669 135.898 294.94 135.937C295.2 135.97 295.481 135.965 295.703 136.081C295.9 136.185 296.022 136.174 296.183 136.052C296.237 136.015 296.332 135.998 296.398 136.009C296.547 136.03 296.69 136.092 296.84 136.113C297.16 136.164 297.475 135.975 297.8 136.119C298.06 136.236 298.397 136.025 298.645 136.279C298.662 136.296 298.766 136.241 298.823 136.214C298.866 136.191 298.9 136.13 298.944 136.13C299.219 136.124 299.495 136.13 299.772 136.13C299.893 136.13 300.015 136.102 300.136 136.113C300.378 136.13 300.628 136.191 300.87 136.18C301.472 136.142 302.068 136.142 302.648 136.423C302.643 136.334 302.638 136.274 302.631 136.174C302.88 136.219 303.101 136.285 303.322 136.291C303.615 136.291 303.913 136.219 304.205 136.224C304.642 136.236 305.084 136.291 305.519 136.323C305.597 136.329 305.674 136.357 305.751 136.351C306.066 136.34 306.386 136.291 306.696 136.317C307.071 136.345 307.463 136.291 307.822 136.478C307.856 136.5 307.916 136.472 307.966 136.461C308.16 136.429 308.347 136.378 308.534 136.368C308.887 136.345 309.241 136.357 309.594 136.345C309.744 136.345 309.899 136.34 310.047 136.313C310.274 136.263 310.5 136.185 310.66 136.142C310.882 136.434 311.008 136.688 311.207 136.854C311.704 137.284 312.08 137.798 312.417 138.355C312.543 138.56 312.605 138.825 312.775 138.968C313.184 139.316 313.444 139.753 313.708 140.221C313.763 140.194 313.824 140.161 313.884 140.134C314.028 140.609 314.349 140.956 314.669 141.298C314.869 141.514 315.001 141.785 315.194 142.005C315.585 142.442 316.111 142.784 316.193 143.441C316.193 143.474 316.315 143.513 316.381 143.513C316.436 143.508 316.486 143.447 316.535 143.419C316.651 143.684 316.762 143.921 316.868 144.159C316.95 144.175 317.076 144.159 317.116 144.214C317.281 144.43 317.485 144.655 317.546 144.904C317.606 145.146 317.756 145.269 317.911 145.413C318.071 145.561 318.28 145.683 318.385 145.871C318.518 146.108 318.739 146.268 318.849 146.55C318.954 146.809 319.302 146.979 319.484 147.267C319.661 147.549 319.971 147.748 320.208 148.002C320.328 148.135 320.417 148.306 320.534 148.455C320.633 148.588 320.738 148.714 320.853 148.835C320.909 148.891 321.019 148.896 321.064 148.958C321.241 149.2 321.356 149.521 321.582 149.703C321.831 149.901 322.063 150.1 322.244 150.366C322.356 150.53 322.509 150.663 322.659 150.801C322.902 151.016 323.001 151.354 323.284 151.541C323.631 151.768 323.841 152.137 324.199 152.375C324.664 152.684 325.039 153.127 325.459 153.507C325.641 153.667 325.839 153.811 326.032 153.966C326.182 154.087 326.321 154.219 326.48 154.319C326.635 154.413 326.812 154.473 326.977 154.55C327.243 154.677 327.49 154.827 327.762 154.926C327.954 154.992 328.175 154.987 328.385 155.026C328.887 155.115 329.395 155.218 329.904 155.302C330.085 155.328 330.28 155.29 330.461 155.313C330.688 155.34 330.903 155.434 331.13 155.44C331.405 155.451 331.681 155.384 331.958 155.379C332.128 155.373 332.294 155.423 332.46 155.451C332.521 155.456 332.598 155.483 332.631 155.456C332.83 155.285 333.023 155.445 333.211 155.467C333.305 155.479 333.393 155.506 333.481 155.506C334.001 155.5 334.52 155.483 335.038 155.483C335.121 155.483 335.199 155.544 335.298 155.589C335.469 155.462 337.27 155.506 337.452 155.644C337.523 155.595 337.596 155.506 337.652 155.511C337.866 155.55 338.076 155.633 338.313 155.561C338.474 155.511 338.655 155.517 338.821 155.528C339.047 155.544 339.269 155.595 339.494 155.627C339.661 155.649 339.827 155.578 339.97 155.567C340.422 155.539 340.887 155.616 341.35 155.655C341.527 155.671 341.698 155.699 341.874 155.727C341.879 155.743 341.885 155.759 341.891 155.776C341.974 155.738 342.063 155.655 342.145 155.655C342.802 155.671 343.459 155.694 344.11 155.721C344.271 155.733 344.431 155.766 344.592 155.771C344.773 155.771 344.962 155.743 345.143 155.738C345.303 155.733 345.463 155.743 345.617 155.743C345.817 155.743 346.01 155.733 346.21 155.743C346.49 155.754 346.773 155.826 347.048 155.799C347.551 155.743 348.059 155.517 348.54 155.578C348.904 155.622 349.208 155.483 349.539 155.495C349.726 155.5 349.963 155.44 350.085 155.319C350.345 155.064 350.632 155.191 350.903 155.175C350.946 155.175 351.002 155.225 351.041 155.208C351.316 155.086 351.593 154.96 351.864 154.827C352.041 154.744 352.222 154.677 352.371 154.561C352.57 154.413 352.736 154.219 352.929 154.054C353.289 153.744 353.713 153.507 353.951 153.071C353.995 152.989 354.099 152.944 354.171 152.877C354.282 152.784 354.387 152.679 354.486 152.58C354.531 152.496 354.63 152.475 354.718 152.431C355.077 152.259 355.132 151.745 355.579 151.679C355.707 151.326 356.099 151.265 356.314 150.995C356.579 150.675 356.926 150.432 357.269 150.183C357.711 149.857 358.097 149.449 358.517 149.084C358.6 149.007 358.699 148.918 358.81 148.886C358.981 148.824 359.262 148.913 359.135 148.559C359.125 148.527 359.207 148.449 359.252 148.411C359.522 148.195 359.787 147.975 360.063 147.769C360.163 147.693 360.3 147.654 360.395 147.571C360.875 147.118 361.355 146.65 361.83 146.191C362.05 145.976 362.266 145.76 362.493 145.556C362.708 145.357 362.935 145.164 363.161 144.971C363.237 144.921 363.26 144.745 363.316 144.727C363.696 144.64 363.79 144.209 364.106 144.087C364.481 143.937 364.502 143.385 364.965 143.38C364.983 143.38 364.994 143.33 365.016 143.308C365.099 143.198 365.16 143.06 365.265 142.983C365.463 142.822 365.706 142.723 365.888 142.557C366.193 142.276 366.451 141.955 366.778 141.684C367.258 141.293 367.694 140.84 368.136 140.405C368.457 140.084 368.759 139.741 369.069 139.411C369.351 139.106 369.632 138.802 369.919 138.5C370.024 138.388 370.119 138.234 370.244 138.184C370.438 138.118 370.504 137.997 370.549 137.82C370.572 137.742 370.632 137.654 370.698 137.604C371.178 137.262 371.454 136.776 371.62 136.241C371.747 135.805 371.626 135.352 371.56 134.915ZM367.866 136.864C367.739 137.024 367.506 137.075 367.451 137.311C367.433 137.372 367.274 137.4 367.225 137.499C367.093 137.604 366.949 137.699 366.821 137.808C366.545 138.052 366.28 138.301 366.011 138.549C365.86 138.687 365.711 138.83 365.563 138.963C365.386 139.123 365.215 139.283 365.033 139.443C364.701 139.736 364.37 140.034 364.022 140.316C363.808 140.498 363.475 140.547 363.392 140.873C363.011 140.896 362.885 141.26 362.631 141.453C362.531 141.531 362.455 141.635 362.36 141.718C362.112 141.945 361.808 142.127 361.626 142.398C361.378 142.773 361.052 143.016 360.693 143.248C360.637 143.287 360.593 143.364 360.554 143.424C360.45 143.607 360.4 143.833 360.101 143.816C360.04 143.811 359.953 143.982 359.903 144.082C359.715 144.446 359.407 144.672 359.08 144.893C358.904 145.009 358.749 145.169 358.567 145.324C358.732 145.522 358.479 145.594 358.351 145.711C358.29 145.766 358.202 145.804 358.12 145.838C357.854 145.931 357.844 146.235 357.655 146.395C357.302 146.694 356.971 147.008 356.607 147.295C356.424 147.439 356.329 147.715 356.032 147.693C355.928 148.057 355.552 148.162 355.326 148.411C355.027 148.737 354.651 148.985 354.326 149.288C354.039 149.553 353.784 149.852 353.504 150.122C353.294 150.321 353.067 150.493 352.851 150.685C352.725 150.796 352.598 150.917 352.471 151.033C352.394 151.094 352.31 151.144 352.222 151.205C352.25 151.215 352.299 151.238 352.354 151.265C352.111 151.231 352.028 151.613 351.753 151.481C351.741 151.481 351.692 151.519 351.692 151.541C351.68 151.834 351.4 151.911 351.261 152.099C351.229 152.144 351.184 152.225 351.146 152.225C350.858 152.204 350.853 152.431 350.748 152.573C350.654 152.673 350.555 152.779 350.461 152.883C350.428 152.916 350.395 152.949 350.361 152.983C350.107 153.181 349.804 153.308 349.688 153.678C349.661 153.789 349.313 153.843 349.113 153.843C348.833 153.843 348.55 153.739 348.269 153.733C347.948 153.728 347.628 153.805 347.308 153.805C347.048 153.805 346.795 153.717 346.535 153.711C346.353 153.706 346.12 153.871 345.999 153.8C345.635 153.596 345.265 153.805 344.895 153.717C344.585 153.639 344.188 153.579 343.923 153.711C343.602 153.871 343.404 153.629 343.156 153.65C342.692 153.695 342.233 153.569 341.77 153.65C341.455 153.7 341.129 153.739 340.836 153.535C340.792 153.507 340.687 153.569 340.616 153.573C340.544 153.584 340.472 153.569 340.407 153.557C340.389 153.557 340.362 153.524 340.362 153.524C340.135 153.766 339.854 153.596 339.627 153.569C339.274 153.529 338.86 153.706 338.584 153.374C338.529 153.43 338.484 153.512 338.446 153.512C338.071 153.486 337.694 153.435 337.319 153.402C337.241 153.397 337.159 153.457 337.082 153.457C336.878 153.452 336.684 153.408 336.463 153.43C336.153 153.463 335.823 153.286 335.497 153.247C335.316 153.225 335.121 153.331 334.934 153.325C334.625 153.308 334.32 153.231 334.012 153.198C333.863 153.187 333.714 153.214 333.566 153.198C333.443 153.192 333.321 153.148 333.156 153.115C333.139 153.127 333.023 153.22 332.996 153.192C332.753 153.021 332.482 153.148 332.24 153.104C331.808 153.032 331.361 152.866 330.948 152.922C330.638 152.961 330.395 152.866 330.119 152.851C329.876 152.834 329.637 152.856 329.401 152.828C329.295 152.817 329.202 152.739 329.097 152.69C329.059 152.667 329.02 152.63 328.987 152.635C328.49 152.673 328.114 152.403 327.723 152.16C327.292 151.895 326.944 151.558 326.707 151.106C326.695 151.088 326.685 151.061 326.668 151.061C326.11 150.973 325.967 150.399 325.563 150.122C325.304 149.945 325.139 149.625 324.917 149.382C324.779 149.239 324.586 149.139 324.465 148.985C324.31 148.803 324.221 148.576 324.079 148.383C324.006 148.289 323.862 148.251 323.786 148.162C323.631 147.98 323.505 147.786 323.361 147.599C323.305 147.533 323.239 147.472 323.184 147.405C323.101 147.295 323.023 147.179 322.913 147.019C322.908 147.019 322.831 147.041 322.736 147.069C322.372 146.594 322.002 146.114 321.632 145.633C321.461 145.577 321.334 145.479 321.394 145.235C320.914 145.125 320.727 144.678 320.423 144.386C320.329 144.275 320.229 144.169 320.147 144.054C320.075 143.948 320.026 143.833 319.958 143.717C319.948 143.695 319.948 143.656 319.926 143.64C319.744 143.502 319.556 143.369 319.368 143.232C319.351 143.215 319.318 143.192 319.314 143.17C319.125 142.607 318.623 142.31 318.23 141.917C318.131 141.818 318.125 141.635 318.048 141.503C317.932 141.293 317.766 141.161 317.518 141.1C317.391 141.066 317.248 140.879 317.214 140.741C317.148 140.465 316.883 140.405 316.745 140.221C316.718 140.189 316.646 140.167 316.646 140.134C316.64 139.791 316.309 139.73 316.138 139.526C316.072 139.443 316.011 139.349 315.946 139.261C315.912 139.216 315.878 139.173 315.84 139.135C315.746 139.04 315.625 138.963 315.553 138.859C315.298 138.5 315.073 138.118 314.808 137.77C314.647 137.561 314.426 137.4 314.25 137.201C313.868 136.782 313.488 136.357 313.128 135.915C312.941 135.694 312.792 135.439 312.61 135.18C312.632 135.17 312.648 135.159 312.665 135.153C311.925 134.7 311.229 134.159 310.617 133.634C310.318 133.756 309.92 133.685 309.567 133.685C309.319 133.685 309.076 133.662 308.827 133.629C308.739 133.618 308.661 133.541 308.567 133.485C308.485 133.717 308.324 133.668 308.137 133.562C307.977 133.469 307.794 133.353 307.674 133.673C307.491 133.392 307.292 133.53 307.083 133.557C306.879 133.584 306.657 133.519 306.441 133.513C305.862 133.502 305.282 133.507 304.696 133.49C304.178 133.474 303.653 133.386 303.141 133.425C302.88 133.441 302.648 133.254 302.351 133.43C302.151 133.546 301.803 133.392 301.523 133.364C301.223 133.342 300.904 133.254 300.622 133.32C300.191 133.425 299.876 133.231 299.501 133.033C299.54 133.187 299.567 133.303 299.584 133.375C299.214 133.342 298.855 133.298 298.496 133.281C298.275 133.27 298.05 133.314 297.828 133.292C297.689 133.275 297.562 133.182 297.398 133.11C297.132 133.375 296.53 133.375 296.082 133.01C296.132 133.121 296.16 133.171 296.2 133.248C295.995 133.22 295.813 133.198 295.559 133.165C295.62 133.082 295.697 132.983 295.768 132.889C295.779 132.895 295.784 132.9 295.797 132.906C295.956 132.712 296.116 132.513 296.277 132.315C296.502 132.039 296.729 131.751 296.977 131.481C297.077 131.365 297.226 131.293 297.353 131.2C297.37 131.188 297.408 131.194 297.408 131.188C297.462 130.829 297.9 130.741 297.978 130.371C298.005 130.223 298.252 130.122 298.386 129.99C298.623 129.748 298.844 129.487 299.08 129.238C299.219 129.096 299.363 128.962 299.484 128.819C299.6 128.67 299.711 128.516 299.827 128.372C300.13 128.002 300.423 127.638 300.743 127.284C300.915 127.091 301.13 126.937 301.306 126.754C301.406 126.644 301.461 126.494 301.566 126.384C301.649 126.29 301.765 126.213 301.871 126.147C302.173 125.954 302.256 125.595 302.483 125.347C302.791 125.004 303.118 124.667 303.454 124.347C303.515 124.286 303.636 124.286 303.731 124.258C303.653 124.004 304.786 122.745 305.233 122.574C305.15 122.469 305.276 122.127 305.442 122.05C305.773 121.895 305.978 121.625 306.182 121.332C306.348 121.089 306.624 120.918 306.851 120.725C306.894 120.685 306.977 120.676 306.994 120.631C307.137 120.233 307.469 120.024 307.811 119.83C307.861 119.802 307.877 119.714 307.911 119.659C307.994 119.527 308.064 119.383 308.164 119.267C308.462 118.924 308.784 118.593 309.087 118.251C309.335 117.964 309.585 117.676 309.81 117.367C309.942 117.185 310.031 116.964 310.141 116.76C310.307 116.826 310.5 116.699 310.539 116.49C310.566 116.346 311.057 115.832 311.152 115.749C311.532 115.43 311.958 115.601 312.345 115.645C312.996 115.722 313.648 115.76 314.3 115.8C314.537 115.81 314.768 115.821 315.006 115.805C315.409 115.777 315.789 115.937 316.226 115.849C316.613 115.772 317.044 115.927 317.458 115.97C317.701 115.993 317.943 115.998 318.181 116.02C318.861 116.07 319.539 116.131 320.219 116.18C320.417 116.197 320.627 116.175 320.831 116.191C320.936 116.197 321.035 116.269 321.141 116.274C321.296 116.285 321.449 116.246 321.604 116.252C321.914 116.263 322.273 116.197 322.526 116.335C322.842 116.5 323.123 116.28 323.431 116.418C323.724 116.539 324.094 116.456 324.426 116.49C324.73 116.523 325.028 116.595 325.331 116.639C325.376 116.65 325.431 116.583 325.482 116.572C325.607 116.545 325.752 116.484 325.857 116.517C326.171 116.617 326.458 116.749 326.806 116.588C326.933 116.528 327.137 116.655 327.303 116.666C328.098 116.688 328.893 116.699 329.682 116.727C330.091 116.743 330.539 116.909 330.898 116.792C331.317 116.655 331.715 117.063 332.101 116.749C332.145 116.716 332.289 116.837 332.389 116.837C332.985 116.854 333.586 116.843 334.188 116.876C334.591 116.893 334.995 116.931 335.386 117.025C335.531 117.063 335.635 117.274 335.756 117.406C335.801 117.461 335.839 117.522 335.879 117.582C336.016 117.803 336.148 118.03 336.286 118.251C336.337 118.334 336.397 118.405 336.463 118.477C336.491 118.51 336.563 118.527 336.569 118.567C336.662 118.919 336.905 119.179 337.121 119.466C337.385 119.808 337.733 120.145 337.839 120.537C337.982 121.078 338.347 121.437 338.621 121.867C338.734 122.038 338.734 122.348 339.042 122.365C338.837 122.635 339.18 122.641 339.256 122.767C339.549 123.265 339.859 123.756 340.196 124.226C340.373 124.474 340.676 124.645 340.809 124.916C340.952 125.203 341.244 125.33 341.378 125.595C341.654 126.13 342.063 126.566 342.459 127.014C342.692 127.279 342.862 127.6 343.067 127.892C343.134 127.98 343.222 128.047 343.282 128.134C343.387 128.284 343.482 128.439 343.587 128.594C343.707 128.764 343.829 128.941 343.968 129.106C344.31 129.509 344.663 129.913 345.011 130.311C345.17 130.492 345.348 130.663 345.503 130.851C345.602 130.973 345.662 131.122 345.772 131.31C345.938 131.342 346.066 131.47 346.059 131.723C346.059 131.79 346.109 131.873 346.16 131.917C346.475 132.182 346.811 132.431 347.11 132.712C347.468 133.05 347.8 133.414 348.136 133.778C348.49 134.165 348.82 134.573 349.185 134.949C349.362 135.131 349.588 135.263 349.831 135.357C349.865 135.446 349.876 135.562 349.936 135.622C350.053 135.749 350.185 135.86 350.334 135.949C350.499 136.047 350.676 136.13 350.875 136.025C350.908 136.003 350.969 136.015 351.008 136.037C351.543 136.257 352.068 136.429 352.664 136.301C352.896 136.257 353.161 136.246 353.371 136.434C353.404 136.461 353.492 136.461 353.531 136.434C353.879 136.219 354.259 136.301 354.624 136.317C354.922 136.323 355.243 136.528 355.507 136.456C355.762 136.389 355.962 136.489 356.187 136.483C356.711 136.468 357.236 136.505 357.761 136.523C358.02 136.528 358.275 136.523 358.528 136.55C358.732 136.567 358.937 136.638 359.141 136.655C359.274 136.667 359.407 136.622 359.539 136.61C359.687 136.6 359.842 136.588 359.992 136.6C360.223 136.616 360.46 136.66 360.693 136.682C361.018 136.71 361.35 136.727 361.675 136.743C361.763 136.748 361.858 136.727 361.952 136.732C362.15 136.743 362.355 136.748 362.553 136.776C362.708 136.799 362.879 136.931 362.95 136.682C363.233 136.727 363.503 136.776 363.78 136.815C363.835 136.82 363.906 136.831 363.951 136.799C364.26 136.605 364.575 136.704 364.889 136.776C364.95 136.793 365.028 136.837 365.06 136.809C365.425 136.555 365.844 136.782 366.237 136.677C366.463 136.616 366.733 136.672 366.976 136.716C367.153 136.754 367.258 136.616 367.423 136.605C367.628 136.595 367.794 136.737 368.003 136.699C367.965 136.76 367.915 136.809 367.866 136.864Z" fill="black"/>
</g>
<path d="M205.515 135.136L206.967 135.02L207.696 135.097L208.889 135.059L209.965 134.871L210.076 133.944L209.805 133.066L209.231 131.641L208.193 129.648L207.657 128.234L206.89 126.843L205.432 123.359L205.046 122.779L204.67 122.05L204.438 121.205L204.091 120.636L203.864 120.018L203.052 118.604L202.787 117.798L200.253 112.459L200.027 111.697L199.607 111.006L199.37 110.311L198.641 108.974L197.995 108.279L196.73 107.898L195.499 108.317L194.808 108.974L194.461 109.62L194.19 110.388L193.842 110.929L192.318 114.452L191.893 115.032L191.7 115.8L191.275 116.534L191.043 117.213L187.139 125.429L186.902 126.274L186.521 126.843L186.244 127.616L185.565 128.842L184.98 130.376L184.56 130.918L184.372 131.603L183.605 133.137L183.373 133.91L183.566 134.871L184.334 135.097L185.824 135.02L186.592 135.097L188.746 135.02L189.629 134.75L190.358 134.065L191.043 132.795L191.771 132.072L192.578 131.641L193.307 131.763L194.919 131.603L195.615 131.724L199.37 131.691L200.065 131.763L200.905 131.641L201.749 132.072L202.478 132.679L202.826 133.413L203.052 134.104L203.82 134.678L204.709 135.059L205.515 135.136ZM196.802 125.578L196.034 125.429L195.156 125.506L194.538 125.236L194.499 124.512L196.305 120.36L196.73 120.018L197.26 120.327L199.071 124.551L198.911 125.236L198.337 125.545L196.802 125.578ZM211.721 133.684L211.992 134.678L212.726 135.059L213.494 135.136L215.106 135.02L216.592 135.097L218.055 135.02L218.783 135.136L219.629 135.059L227.226 135.097L227.955 134.711L228.38 133.524L228.341 130.415L227.994 129.272L227.298 128.803L226.497 128.886L225.763 129.035L224.957 128.924L223.383 128.963L222.627 128.803L221.931 128.924L220.435 128.842L219.629 128.924L218.861 128.615L218.552 127.848L218.59 114.838L218.513 113.917L218.59 112.381L218.475 110.2L218.513 109.471L218.132 108.627L217.365 108.168H215.874L215.106 108.317L213.566 108.168L212.837 108.279L212.031 108.588L211.683 109.433V114.799L211.611 115.529L211.683 116.296L211.572 117.721L211.611 118.566L211.683 119.294L211.721 133.684ZM240.881 135.175L246.37 135.097L247.176 134.75L247.595 133.944V130.079L247.176 129.311L246.37 128.963L245.492 129.035L244.757 128.924L242.803 128.886L241.538 129.035L240.771 128.963L239.926 129.002L239.197 128.886L238.353 128.963L237.546 128.577L237.237 127.886V125.468L237.585 124.661L238.275 124.242L239.429 124.203L240.655 124.314L242.107 124.242L243.681 124.28L244.449 124.203L245.337 124.242L246.1 123.933L246.37 123.165L246.481 119.714L246.1 118.638L245.216 118.14H242.958L242.157 118.218L240.545 118.107L238.314 118.179L237.508 117.831L237.198 116.644V115.457L237.546 114.723L238.391 114.413L239.12 114.452L239.849 114.303L245.337 114.375L246.061 114.342L246.867 113.883L247.248 113.187L247.215 112.42L247.248 111.653L247.176 109.355L246.828 108.627L246.061 108.317H245.254L244.57 108.168L241.461 108.202L240.616 108.279L239.849 108.202L239.197 108.24L238.424 108.168L235.277 108.24L234.509 108.13L233.792 108.279L233.096 108.202L232.328 108.279L231.561 108.24L230.755 108.549L230.335 109.355L230.407 110.808L230.296 112.381L230.407 113.226L230.335 116.992L230.446 117.798L230.368 118.527L230.335 121.663L230.446 122.359L230.407 128.577L230.335 129.311L230.446 130.079L230.335 132.718L230.407 133.563L230.716 134.601L231.87 135.097L234.631 135.136L235.476 135.059L236.171 135.097L237.745 134.987L238.463 135.136L239.352 135.175L240.114 135.097L240.881 135.175Z" stroke="black" stroke-width="1.58324" stroke-miterlimit="22.9256"/>
<path d="M185.281 165.754L187.164 165.677L187.854 165.715L188.738 165.638L189.539 165.329L189.886 164.523L189.848 163.761L189.886 162.916L189.81 161.497L189.886 160.768L189.848 159.884L190.196 159.195L191.073 158.769L191.919 158.692L192.725 158.846L196.678 158.537L200.322 157.08L200.896 156.621L201.438 156.008L201.935 155.511L202.432 154.932L203.238 153.706L203.889 152.21L204.006 151.365L204.237 150.752L204.315 147.604L204.16 146.953L204.044 146.108L203.586 144.689L202.857 143.386L201.935 142.116L200.207 140.62L198.942 139.78L197.407 139.316L196.755 139.051H195.988L195.22 138.781L194.066 138.742L192.841 138.781L191.996 138.897L189.655 138.858L188.887 138.742L186.507 138.897L185.668 138.858L184.978 138.742L184.172 138.897L183.365 139.316L183.018 139.929L183.056 144.573L182.901 146.108L182.979 146.837L182.94 156.776L183.018 157.505L182.979 164.6L183.404 165.329L184.591 165.715L185.281 165.754ZM191.035 152.629L190.267 152.171L189.925 151.519L189.81 148.41L189.886 147.604V146.03L190.267 145.302L191.073 144.921L195.066 145.037L195.833 145.379L196.446 145.804L196.948 146.301L197.33 147.069L197.446 147.759L197.523 148.83L197.446 149.868L197.176 150.558L196.833 151.171L196.33 151.79L195.718 152.248L195.105 152.441L193.917 152.59L191.957 152.552L191.035 152.629Z" fill="black"/>
<path d="M216.052 165.754L221.54 165.677L222.346 165.329L222.766 164.523V160.652L222.346 159.884L221.54 159.537L220.656 159.614L219.928 159.498L217.973 159.459L216.703 159.614L215.935 159.537L215.091 159.576L214.362 159.459L213.522 159.537L212.716 159.156L212.407 158.466V156.047L212.755 155.241L213.445 154.816L214.594 154.782L215.82 154.893L217.283 154.816L218.851 154.854L219.619 154.782L220.502 154.816L221.269 154.512L221.54 153.744L221.656 150.293L221.269 149.217L220.386 148.72H218.122L217.316 148.797L215.71 148.681L213.484 148.759L212.678 148.41L212.368 147.223V146.03L212.716 145.302L213.556 144.998L214.29 145.037L215.019 144.882L220.502 144.959L221.231 144.921L222.037 144.457L222.423 143.767L222.385 142.999L222.423 142.232L222.346 139.929L221.998 139.2L221.231 138.897H220.425L219.734 138.742L216.626 138.781L215.786 138.858L215.019 138.781L214.362 138.819L213.594 138.742L210.452 138.819L209.685 138.703L208.956 138.858L208.266 138.781L207.498 138.858L206.73 138.819L205.925 139.123L205.499 139.929L205.577 141.387L205.461 142.961L205.577 143.805L205.499 147.566L205.616 148.372L205.538 149.101L205.499 152.248L205.616 152.938L205.577 159.156L205.499 159.884L205.616 160.652L205.499 163.297L205.577 164.142L205.886 165.18L207.035 165.677L209.801 165.716L210.64 165.638L211.331 165.677L212.904 165.561L213.633 165.716L214.516 165.754L215.284 165.677L216.052 165.754Z" fill="black"/>
<path d="M244.638 164.986L245.67 165.599L246.748 165.715L247.592 165.445L247.973 164.677L248.051 150.674L247.934 150.022V146.224L248.051 145.302L247.934 139.968L247.554 139.2L246.786 138.78L242.026 138.819L241.297 139.239L240.878 140.045L240.839 140.851L240.955 141.464L240.839 143.076L240.916 143.921L240.839 150.79L240.607 151.442L240.033 151.171L237.311 148.449L236.234 147.604L228.675 139.968L228.1 139.509L227.217 139.051L226.069 138.78L225.185 139.162L224.837 139.89V151.519L224.798 152.171L224.876 153.744L224.76 154.396L224.837 160.69L224.76 161.42L224.837 164.639L225.185 165.368L225.991 165.638L227.565 165.715L228.404 165.638L229.901 165.754L230.706 165.715L231.474 165.329L231.861 164.142L231.899 154.435L231.977 153.667L232.242 153.015L232.744 153.209L233.241 153.86L235.964 156.466L236.466 157.041L237.118 157.466L243.064 163.374L244.058 164.49L244.638 164.986Z" fill="black"/>
<path d="M251.041 164.561L251.504 165.29L252.233 165.715L253.001 165.677L254.535 165.754L255.342 165.677L256.949 165.715L257.755 165.257L258.064 164.523L258.141 163.794L258.064 162.954V156.163L258.407 155.356L259.213 154.854L263.74 154.816L264.547 154.932H265.237L265.966 155.356L266.353 156.086L266.391 164.561L266.811 165.179L267.926 165.677H269.919L270.687 165.599L272.26 165.715L272.989 165.218L273.447 164.561L273.37 161.072L273.486 159.846L273.37 159.233L273.409 139.968L273.067 139.162L272.299 138.858L267.887 138.819L266.772 139.09L266.391 140.006L266.353 141.464L266.429 142.116L266.353 143.689L266.468 144.418L266.429 147.411L266.004 148.179L265.237 148.604L264.508 148.488L263.011 148.642L262.205 148.565L261.515 148.642L259.252 148.604L258.522 148.256L258.141 147.527L258.103 146.682V145.876L258.064 145.186L258.103 142.193L258.18 141.348L258.103 139.929L257.755 139.2L256.949 138.78L256.104 138.858L252.31 138.78L251.466 139.162L251.079 139.929L251.002 140.774L251.079 143.767L251.002 144.534L251.157 146.108L251.079 147.566L251.118 148.488L251.041 149.255V160.729L251.157 161.42L251.041 164.561Z" fill="black"/>
<path d="M296.278 165.716L297.736 165.599L298.466 165.677L299.653 165.638L300.729 165.445L300.846 164.523L300.575 163.645L300 162.226L298.963 160.227L298.427 158.808L297.66 157.427L296.202 153.938L295.815 153.358L295.434 152.629L295.202 151.79L294.86 151.21L294.627 150.597L293.822 149.178L293.551 148.372L291.022 143.038L290.79 142.27L290.371 141.58L290.139 140.89L289.409 139.548L288.759 138.858L287.488 138.471L286.263 138.897L285.573 139.548L285.23 140.199L284.959 140.967L284.611 141.503L283.076 145.037L282.657 145.611L282.463 146.379L282.043 147.108L281.812 147.797L277.897 156.008L277.67 156.853L277.284 157.427L277.014 158.195L276.324 159.421L275.749 160.956L275.33 161.497L275.136 162.187L274.369 163.722L274.137 164.49L274.33 165.445L275.097 165.677L276.594 165.599L277.362 165.677L279.509 165.599L280.393 165.329L281.122 164.639L281.812 163.374L282.541 162.646L283.347 162.226L284.076 162.336L285.688 162.187L286.379 162.298L290.139 162.265L290.829 162.336L291.674 162.226L292.519 162.646L293.247 163.258L293.59 163.987L293.822 164.678L294.59 165.257L295.473 165.638L296.278 165.716ZM287.566 156.163L286.799 156.008L285.921 156.086L285.301 155.815L285.263 155.086L287.068 150.945L287.488 150.597L288.029 150.906L289.829 155.125L289.681 155.815L289.101 156.124L287.566 156.163Z" fill="black"/>
<path d="M177.255 135.407L178.172 135.097L179.017 133.982L179.525 132.917L179.746 132.11L180.48 130.885L180.712 130.117L181.098 129.311L181.32 128.654L181.745 127.958L183.241 124.474L183.511 123.623L184.196 122.397L187.542 114.502L187.923 113.806L188.569 112.42L188.768 111.697L189.497 110.349L189.762 109.317L189.574 108.511L188.879 108.356L188.078 108.279L187.382 108.168L186.659 108.24L185.891 108.279L184.434 108.13L183.589 108.627L182.932 109.273L179.365 117.721L179.138 118.527L178.79 119.173L178.636 119.869L178.26 120.559L177.493 122.707L177.106 123.397L176.687 123.325L175.72 121.244L175.571 120.52L174.914 119.212L172.993 114.225L171.999 112.193L170.922 109.273L170.276 108.627L169.387 108.24L167.206 108.168L166.438 108.279H164.975L164.368 108.549L164.059 109.317L165.284 112.58L165.671 113.149L165.864 113.883L166.168 114.651L166.588 115.22L166.858 116.026L170.315 123.783L170.541 124.551L171.507 126.544L171.767 127.351L172.424 128.654L172.844 129.344L173.031 130.117L174.566 133.756L174.914 134.33L175.682 134.987L176.527 135.296L177.255 135.407Z" stroke="black" stroke-width="1.58324" stroke-miterlimit="22.9256"/>
<path d="M269.954 107.884L269.032 108.193L268.187 109.308L267.691 110.38L267.458 111.186L266.729 112.412L266.498 113.179L266.117 113.985L265.885 114.637L265.466 115.333L263.969 118.822L263.698 119.667L263.008 120.893L259.667 128.795L259.286 129.49L258.635 130.871L258.442 131.599L257.713 132.941L257.442 133.979L257.635 134.78L258.326 134.935L259.132 135.012L259.822 135.128L260.551 135.051L261.319 135.012L262.776 135.167L263.621 134.67L264.273 134.018L267.839 125.575L268.071 124.77L268.419 124.118L268.569 123.427L268.954 122.737L269.722 120.584L270.104 119.893L270.529 119.971L271.489 122.047L271.639 122.776L272.296 124.079L274.212 129.065L275.211 131.097L276.282 134.018L276.934 134.67L277.817 135.051L280.004 135.128L280.771 135.012H282.229L282.842 134.747L283.151 133.979L281.925 130.716L281.539 130.142L281.346 129.413L281.043 128.645L280.616 128.066L280.351 127.265L276.895 119.512L276.669 118.745L275.708 116.752L275.437 115.946L274.785 114.637L274.366 113.946L274.172 113.179L272.638 109.535L272.296 108.96L271.529 108.309L270.684 107.999L269.954 107.884Z" fill="#C40008"/>
</svg>
