<svg width="447" height="282" viewBox="0 0 447 282" fill="none" xmlns="http://www.w3.org/2000/svg">
<path d="M112.474 130.755C126.51 130.755 137.25 119.182 137.25 105.958C137.25 91.9063 125.687 81.1615 112.474 81.1615C99.2549 81.1615 87.6924 92.7344 87.6924 105.958C87.6924 119.182 98.432 130.755 112.474 130.755Z" fill="#C40008"/>
<mask id="mask0_376_2" style="mask-type:luminance" maskUnits="userSpaceOnUse" x="172" y="0" width="105" height="38">
<path d="M172.667 0.583344H276.667V37.6667H172.667V0.583344Z" fill="white"/>
</mask>
<g mask="url(#mask0_376_2)">
<path d="M276.006 35.7031V11.7344C276.006 5.94793 271.047 0.989594 265.266 0.989594H184.328C178.547 0.989594 173.589 5.94793 173.589 11.7344V36.5313H276.006C275.177 35.7031 276.006 35.7031 276.006 35.7031Z" fill="#C40008"/>
</g>
<mask id="mask1_376_2" style="mask-type:luminance" maskUnits="userSpaceOnUse" x="0" y="25" width="447" height="257">
<path d="M0.973633 25.6667H446.974V281.583H0.973633V25.6667Z" fill="white"/>
</mask>
<g mask="url(#mask1_376_2)">
<path d="M423.021 26.6146H292.521V35.7032C292.521 44.7969 285.088 53.0625 275.177 53.0625H172.765C163.677 53.0625 155.422 45.6198 155.422 35.7032V26.6146H24.9216C11.708 26.6146 0.973633 37.3594 0.973633 50.5834V257.208C0.973633 270.438 11.708 281.182 24.9216 281.182H423.021C436.234 281.182 446.974 270.438 446.974 257.208V50.5834C446.968 37.3594 436.234 26.6146 423.021 26.6146ZM112.474 63.8073C135.599 63.8073 153.765 82.8177 153.765 105.13C153.765 128.276 134.771 146.458 112.474 146.458C89.3434 146.458 71.1768 127.448 71.1768 105.13C71.1768 82.8177 89.3434 63.8073 112.474 63.8073ZM185.979 238.203C182.677 241.505 178.547 243.984 173.588 243.984H50.5257C46.3955 243.984 41.4424 242.333 38.1403 238.203C34.833 234.896 34.0101 229.938 34.0101 225.802C38.9632 186.958 71.9997 157.203 111.646 157.203C151.291 157.203 184.328 186.958 189.281 225.802C190.932 230.76 189.281 234.896 185.979 238.203ZM404.849 227.458H221.494C217.364 227.458 213.234 223.323 213.234 219.193C213.234 214.229 217.364 210.927 221.494 210.927H404.849C408.979 210.927 413.109 214.229 413.109 219.193C413.109 224.151 408.979 227.458 404.849 227.458ZM404.849 162.161H221.494C217.364 162.161 213.234 158.854 213.234 153.896C213.234 149.766 217.364 145.63 221.494 145.63H404.849C408.979 145.63 413.109 149.766 413.109 153.896C413.109 158.026 408.979 162.161 404.849 162.161ZM404.849 96.8646H221.494C217.364 96.8646 213.234 92.7344 213.234 88.599C213.234 83.6407 217.364 80.3334 221.494 80.3334H404.849C408.979 80.3334 413.109 83.6407 413.109 88.599C413.109 92.7344 408.979 96.8646 404.849 96.8646Z" fill="#C40008"/>
</g>
<path d="M112.474 173.734C81.0889 173.734 55.4847 196.875 51.3545 227.458L173.589 226.63C169.459 196.875 143.854 173.734 112.474 173.734Z" fill="#C40008"/>
</svg>
