<?xml version="1.0" encoding="UTF-8"?>
<!DOCTYPE svg PUBLIC "-//W3C//DTD SVG 1.1//EN" "http://www.w3.org/Graphics/SVG/1.1/DTD/svg11.dtd">
<!-- Creator: CorelDRAW 2020 (64 Bit) -->
<?xml-stylesheet href="icone-menu.css" type="text/css"?>
<svg xmlns="http://www.w3.org/2000/svg" xml:space="preserve" width="20cm" height="20cm" version="1.1" style="shape-rendering:geometricPrecision; text-rendering:geometricPrecision; image-rendering:optimizeQuality; fill-rule:evenodd; clip-rule:evenodd"
viewBox="0 0 20000 20000"
 xmlns:xlink="http://www.w3.org/1999/xlink"
 xmlns:xodm="http://www.corel.com/coreldraw/odm/2003">
 <g id="Camada_x0020_1">
  <metadata id="CorelCorpID_0Corel-Layer"/>
  <path class="fil0" d="M12045 7526.09c128.15,0 227.16,54.63 296.26,115.25 55.71,48.87 136.35,173.72 136.35,275.15l-861.7 0c17.77,-37.03 -2.94,-131.31 136.28,-271.71 60.14,-60.64 173.34,-118.69 292.81,-118.69zm1.47 -650.67l3.36 0c242.13,0.89 384.62,247.84 299.7,448.73 -44.26,104.68 -107.25,132.95 -118.12,149.18 38.77,9.03 110.84,55.28 139.57,78.49 44.3,35.79 71.52,66.76 105.64,112.43 30.41,40.68 54.21,94.64 70.92,147.14 19.28,60.62 21.45,111.13 21.52,189.29l0 3.74c-320.07,0 -640.12,0 -960.18,0l-72.61 0c-6.64,-0.89 -10.13,-2.79 -11.81,-6.54l0 -29.36c2.62,-34.86 4.91,-75.26 11.4,-107.46 26.22,-130.05 84.24,-216.98 177.75,-300.58 29.9,-26.74 108.38,-76.98 152.02,-87.15 -2.93,-4 -47.52,-38.71 -69.29,-64.36 -69.52,-81.9 -93.76,-203.12 -58.73,-309.85 39.18,-119.34 151.78,-222.8 308.86,-223.7zm-237.12 327.09c0,-131.01 104.23,-239.16 242.69,-239.16 119.07,0 232.13,104.57 232.13,221.58l0 31.65c0,117.4 -108.87,221.58 -242.69,221.58 -124.65,0 -232.13,-110.74 -232.13,-235.65z"/>
 </g>
</svg>
