<svg width="213" height="115" viewBox="0 0 213 115" fill="none" xmlns="http://www.w3.org/2000/svg">
<mask id="mask0_201_404" style="mask-type:luminance" maskUnits="userSpaceOnUse" x="0" y="0" width="213" height="115">
<path d="M0.420166 0.878296H212.653V114.264H0.420166V0.878296Z" fill="white"/>
</mask>
<g mask="url(#mask0_201_404)">
<path d="M212.184 58.6257C212.169 58.5524 212.141 58.4356 212.082 58.4069C210.982 57.9813 210.44 56.5009 208.916 56.7942C208.345 56.8966 207.699 56.6328 207.098 56.6774C206.585 56.7061 205.999 56.2371 205.515 56.8093C205.486 56.8679 205.325 56.8093 205.208 56.8093C204.577 56.736 203.933 56.6177 203.302 56.6328C202.056 56.6476 200.811 56.7795 199.564 56.8093C197.424 56.8528 195.299 56.8826 193.159 56.8679C191.342 56.838 189.539 56.7209 187.722 56.6623C186.769 56.6328 185.801 56.736 184.849 56.6623C183.838 56.589 182.826 56.3837 181.815 56.2518C181.302 56.1932 180.789 56.1487 180.306 56.1052C180.027 56.1638 179.807 56.2371 179.602 56.2518C179.323 56.2518 179.045 56.2084 178.752 56.1933C178.371 56.1638 177.975 56.1785 177.579 56.1199C177.212 56.0765 176.861 55.9298 176.495 55.8999C175.542 55.8266 174.56 55.9147 173.637 55.7242C172.801 55.5628 172.009 55.6807 171.203 55.6807C170.28 55.666 169.357 55.7242 168.433 55.6947C166.996 55.6361 165.589 55.7979 164.139 55.4608C162.878 55.1819 161.501 55.3436 160.167 55.4309C159.638 55.4755 159.185 55.2404 158.774 55.1085C158.086 54.8746 157.632 54.1704 157.133 53.5842C156.766 53.1451 157.059 52.0018 156.048 52.2943C155.345 51.4443 154.699 50.6532 154.04 49.8618C154.026 49.847 153.996 49.8319 153.966 49.8319C153.16 49.7151 152.867 49.1142 152.692 48.5866C152.282 48.3227 151.915 48.161 151.666 47.8972C150.771 46.9591 149.907 45.9923 149.057 44.9956C148.222 44.0277 147.166 43.2948 146.404 42.24C145.964 41.6092 145.378 41.0668 144.894 40.4372C144.279 39.5872 143.487 38.8395 142.74 38.0919C141.493 36.8315 140.644 35.204 139.148 34.179C139.002 34.0758 138.958 33.8268 138.856 33.6363C138.665 33.2693 138.547 32.8588 138.298 32.5515C137.141 31.203 135.953 29.8692 134.751 28.5501C134.385 28.1397 133.799 27.8324 133.594 27.3634C133.007 25.971 131.776 25.1202 130.94 23.9331C130.399 23.1568 129.841 22.3941 129.299 21.6177C129.211 21.4707 129.256 21.2508 129.226 21.0315C129.05 21.0315 128.845 21.0168 128.625 21.0017C128.566 20.7817 128.566 20.5326 128.449 20.372C127.585 19.1841 126.705 18.0121 125.797 16.8537C125.342 16.2678 124.799 15.755 124.374 15.154C123.612 14.1128 122.879 13.0428 122.176 11.9728C121.53 10.9912 120.959 9.95072 120.3 8.98316C119.859 8.33837 119.377 7.66412 118.79 7.16522C118.335 6.78462 117.691 6.62399 117.105 6.41876C116.782 6.30046 116.431 6.28685 116.093 6.22827C115.214 6.13983 114.379 5.87601 113.514 5.75923C112.546 5.62732 111.55 5.67079 110.568 5.58273C109.468 5.48068 108.383 5.31891 107.299 5.20175C106.772 5.15828 106.243 5.17191 105.716 5.12844C104.632 5.0264 103.547 4.98179 102.447 4.80604C100.512 4.49763 98.4906 4.70285 96.526 4.61592C95.8665 4.58606 95.2954 4.32225 94.5478 4.49762C93.7265 4.70285 92.7884 4.337 91.9089 4.22021C91.8069 4.2051 91.7037 4.17561 91.6013 4.16049C90.2826 4.04371 88.9923 3.92655 87.6736 3.82451C87.3951 3.79465 87.1014 3.8245 86.8089 3.85322C86.1932 3.89669 85.4017 4.2202 85.006 3.95638C84.4051 3.57465 83.9213 3.88309 83.4084 3.82451C82.3384 3.72133 81.2537 3.75115 80.1837 3.67783C79.4509 3.60413 78.6882 3.23754 78.0139 3.36945C77.2376 3.53084 76.5342 3.20881 75.8014 3.29574C74.6868 3.42765 73.6168 3.15024 72.4882 3.20882C70.9205 3.31087 69.3081 2.92989 67.7105 2.84183C65.8344 2.72466 63.9435 2.72465 62.0673 2.66607C61.5544 2.65133 61.0567 2.59273 60.543 2.59273C59.8688 2.57799 59.1805 2.60786 58.4911 2.578C57.9053 2.56288 57.231 2.29943 56.7181 2.50466C55.6036 2.94498 54.622 2.65134 53.7573 2.09386C53.1125 1.6698 52.5115 1.42071 51.7341 1.27406C50.1516 0.965655 49.1402 1.74312 48.0997 2.6812C47.6458 3.10564 47.2637 3.83846 46.8831 4.01496C46.0036 4.41068 45.6079 5.21688 44.9918 5.77285C43.7612 6.88781 42.7498 8.25031 41.6499 9.51041C41.3574 9.86266 41.1227 10.2731 40.8003 10.5955C40.2874 11.0944 39.7303 11.5336 39.1728 11.9875C38.8656 12.2513 38.4698 12.4418 38.2211 12.7653C37.737 13.3663 37.4146 14.1127 36.8873 14.6551C35.8321 15.7251 34.6737 16.6783 33.5742 17.7044C33.0466 18.2022 32.5636 18.7298 32.0647 19.2574C31.5374 19.8149 31.0533 20.4158 30.4962 20.9283C30.1299 21.2806 29.6174 21.4707 29.2504 21.823C29.0017 22.0868 28.8985 22.512 28.6933 22.8196C28.5614 23.0249 28.3422 23.1715 28.1805 23.362C27.7847 23.8458 27.4775 24.4754 26.9638 24.7827C25.997 25.3549 25.2203 26.1029 24.5014 26.9378C24.2229 27.2602 24.0623 27.6854 23.7686 27.9791C23.2561 28.5067 22.6846 28.9606 22.1423 29.4448C21.8051 29.752 21.4831 30.0744 21.1743 30.4116C20.6471 31.0272 20.1629 31.6868 19.6066 32.2877C19.2982 32.6249 18.8737 32.8588 18.492 33.1525C18.7705 33.563 18.7558 33.7969 18.3166 34.1053C18.0094 34.3257 17.5985 34.413 17.3634 34.6768C16.6159 35.4678 15.9129 36.2891 15.2235 37.1388C15.0481 37.344 15.0481 37.8429 14.8863 37.8867C13.8315 38.1951 13.5389 39.25 12.8061 39.8649C12.0868 40.4806 11.4859 41.2135 10.8415 41.9028C10.3577 42.4153 9.87356 42.929 9.40566 43.4419C9.34594 43.5152 9.22914 43.6324 9.24388 43.6618C9.62486 44.2628 9.03865 44.3799 8.77484 44.6585C8.13043 45.3033 7.48487 45.9337 6.88393 46.622C6.31246 47.3114 5.82871 48.0877 4.89063 48.3961C4.75873 48.4395 4.58335 48.63 4.56823 48.7767C4.52477 49.3927 4.17251 49.6713 3.61541 49.6853C3.674 49.8618 3.77718 50.0224 3.73334 50.081C3.19098 50.77 2.48684 51.2689 2.1497 52.1922C1.81257 53.1303 0.713852 53.746 0.90434 54.9619C0.90434 54.9914 0.904362 55.0201 0.889244 55.0499C0.435322 55.7828 0.450064 56.4722 0.919103 57.2337C1.34354 57.9666 1.6372 58.7728 1.90064 59.345C2.35494 59.3737 2.67733 59.3151 2.80924 59.447C3.71859 60.3704 4.70014 61.0741 6.09252 61.0159C6.26902 61.0159 6.45949 61.0741 6.63486 61.0881C7.35297 61.1766 8.08583 61.2348 8.8047 61.338C9.49295 61.4253 10.2405 61.4116 10.8267 61.7189C11.354 61.9974 11.6764 61.9676 12.102 61.6456C12.2486 61.5435 12.4977 61.4986 12.6742 61.5284C13.0699 61.587 13.4505 61.7488 13.8462 61.807C14.6962 61.9389 15.5319 61.4404 16.3966 61.8221C17.0849 62.1294 17.9795 61.5723 18.639 62.2466C18.6825 62.29 18.9611 62.1445 19.1081 62.0708C19.2249 62.0126 19.3133 61.8508 19.4301 61.8508C20.1629 61.8357 20.8958 61.8508 21.6286 61.8508C21.9522 61.8508 22.2742 61.7775 22.5966 61.807C23.241 61.8508 23.9005 62.0126 24.5461 61.9827C26.1437 61.8807 27.7265 61.8807 29.2656 62.6271C29.2504 62.3932 29.2357 62.2314 29.2217 61.9676C29.8812 62.0859 30.4674 62.2613 31.0533 62.276C31.8296 62.276 32.6221 62.0859 33.3985 62.0995C34.5569 62.1294 35.7289 62.276 36.8873 62.3633C37.0926 62.3785 37.2978 62.4518 37.503 62.4366C38.3379 62.4079 39.188 62.276 40.0089 62.3497C41.0055 62.4219 42.0456 62.276 42.9988 62.7738C43.0869 62.8324 43.2475 62.7591 43.3794 62.7303C43.8931 62.6423 44.3908 62.5104 44.8897 62.4816C45.8278 62.4219 46.7659 62.4518 47.704 62.4219C48.0997 62.4219 48.5105 62.4079 48.9059 62.3346C49.5068 62.2027 50.1078 61.9975 50.5322 61.8807C51.1184 62.657 51.4555 63.3313 51.9843 63.7704C53.303 64.9141 54.2996 66.2774 55.1931 67.7582C55.5303 68.2994 55.692 69.0036 56.1459 69.3842C57.231 70.3075 57.92 71.466 58.623 72.7113C58.7701 72.638 58.9307 72.5507 59.092 72.4773C59.473 73.7378 60.3238 74.6608 61.1738 75.5701C61.7011 76.1416 62.0533 76.8593 62.5658 77.4455C63.6063 78.6036 64.9995 79.5118 65.2187 81.2564C65.2187 81.3445 65.5411 81.4466 65.7176 81.4466C65.8642 81.433 65.9961 81.2712 66.128 81.1979C66.4353 81.902 66.729 82.5316 67.0064 83.1624C67.2267 83.2059 67.5639 83.1624 67.6671 83.3091C68.1063 83.8802 68.6486 84.4811 68.8092 85.1406C68.971 85.785 69.3667 86.1086 69.7771 86.4892C70.2027 86.8849 70.7591 87.2073 71.0376 87.7062C71.3895 88.3358 71.9757 88.7611 72.2694 89.509C72.5468 90.1969 73.4713 90.6523 73.9539 91.4139C74.423 92.1615 75.2443 92.6891 75.8751 93.3634C76.1971 93.7153 76.431 94.1696 76.7398 94.5653C77.0033 94.9172 77.281 95.2543 77.5894 95.5767C77.7361 95.7237 78.0286 95.7373 78.1469 95.8991C78.6148 96.5435 78.9233 97.3935 79.5242 97.8773C80.1837 98.4049 80.7994 98.9325 81.2836 99.6366C81.5757 100.076 81.9866 100.428 82.3823 100.795C83.0267 101.366 83.2905 102.26 84.0381 102.758C84.9614 103.359 85.5185 104.341 86.4717 104.971C87.7024 105.793 88.699 106.965 89.8136 107.976C90.2966 108.402 90.825 108.782 91.3379 109.193C91.7332 109.515 92.0991 109.867 92.5246 110.131C92.9351 110.38 93.4041 110.541 93.8437 110.746C94.5478 111.083 95.2069 111.479 95.9251 111.742C96.4376 111.919 97.0249 111.904 97.5813 112.007C98.9147 112.241 100.264 112.52 101.612 112.74C102.096 112.812 102.609 112.71 103.093 112.769C103.694 112.842 104.265 113.091 104.866 113.106C105.599 113.136 106.331 112.959 107.064 112.944C107.518 112.931 107.959 113.063 108.398 113.136C108.56 113.15 108.765 113.223 108.852 113.15C109.38 112.696 109.893 113.121 110.391 113.179C110.641 113.209 110.875 113.282 111.11 113.282C112.488 113.268 113.865 113.223 115.243 113.223C115.463 113.223 115.668 113.385 115.932 113.502C116.387 113.165 121.164 113.282 121.649 113.649C121.839 113.517 122.029 113.281 122.176 113.297C122.747 113.4 123.304 113.619 123.934 113.429C124.36 113.297 124.844 113.311 125.283 113.341C125.884 113.385 126.47 113.517 127.071 113.605C127.511 113.663 127.951 113.473 128.332 113.443C129.534 113.37 130.765 113.575 131.997 113.677C132.466 113.722 132.919 113.795 133.389 113.869C133.404 113.912 133.417 113.956 133.432 114.001C133.652 113.898 133.886 113.677 134.107 113.677C135.851 113.722 137.595 113.78 139.325 113.854C139.749 113.882 140.174 113.971 140.6 113.986C141.083 113.986 141.582 113.912 142.066 113.898C142.49 113.882 142.916 113.912 143.326 113.912C143.854 113.912 144.366 113.882 144.894 113.912C145.641 113.942 146.389 114.133 147.122 114.059C148.456 113.912 149.805 113.311 151.08 113.473C152.047 113.59 152.853 113.223 153.732 113.253C154.23 113.268 154.861 113.106 155.183 112.784C155.872 112.109 156.634 112.447 157.353 112.403C157.47 112.403 157.617 112.535 157.719 112.49C158.452 112.168 159.185 111.831 159.902 111.479C160.371 111.26 160.855 111.083 161.251 110.776C161.778 110.38 162.219 109.867 162.732 109.427C163.684 108.606 164.813 107.976 165.443 106.818C165.561 106.599 165.84 106.481 166.03 106.305C166.322 106.057 166.601 105.778 166.865 105.514C166.982 105.294 167.246 105.235 167.481 105.118C168.433 104.664 168.579 103.301 169.767 103.125C170.104 102.187 171.145 102.025 171.716 101.308C172.42 100.458 173.343 99.812 174.252 99.1525C175.425 98.2877 176.451 97.203 177.565 96.2362C177.785 96.031 178.049 95.7959 178.341 95.7086C178.795 95.5468 179.543 95.7819 179.206 94.8438C179.177 94.7558 179.396 94.5506 179.514 94.4481C180.232 93.8759 180.935 93.2901 181.668 92.7477C181.932 92.5421 182.299 92.4401 182.548 92.2201C183.823 91.0182 185.098 89.7725 186.359 88.5558C186.945 87.9836 187.517 87.4125 188.118 86.8702C188.689 86.3426 189.29 85.8297 189.891 85.316C190.096 85.1841 190.155 84.7151 190.301 84.6716C191.313 84.4376 191.562 83.2943 192.398 82.972C193.394 82.5762 193.453 81.1094 194.683 81.0958C194.728 81.0958 194.757 80.9639 194.815 80.9053C195.036 80.6116 195.197 80.2447 195.475 80.0406C196.004 79.615 196.648 79.3516 197.132 78.9112C197.938 78.1644 198.626 77.3136 199.491 76.5955C200.766 75.5554 201.925 74.3535 203.097 73.1951C203.947 72.3454 204.753 71.4361 205.574 70.5573C206.321 69.7512 207.069 68.945 207.831 68.1388C208.109 67.8451 208.358 67.4347 208.696 67.3028C209.209 67.1274 209.385 66.805 209.502 66.336C209.56 66.1307 209.722 65.8957 209.897 65.7638C211.173 64.8555 211.906 63.5652 212.346 62.1445C212.683 60.9861 212.359 59.7842 212.184 58.6257ZM202.378 63.8003C202.041 64.2247 201.426 64.3578 201.279 64.9874C201.235 65.1488 200.811 65.2225 200.678 65.4864C200.327 65.7638 199.945 66.0136 199.609 66.3061C198.876 66.9517 198.172 67.6112 197.454 68.2707C197.058 68.6366 196.663 69.0183 196.267 69.3694C195.798 69.795 195.343 70.2202 194.86 70.6446C193.98 71.4221 193.101 72.2135 192.178 72.9611C191.605 73.4441 190.727 73.5761 190.507 74.4408C189.495 74.5001 189.158 75.4669 188.484 75.9798C188.22 76.185 188.015 76.4636 187.766 76.6839C187.106 77.2849 186.3 77.7687 185.816 78.4868C185.157 79.4834 184.292 80.1279 183.339 80.7435C183.193 80.8456 183.075 81.0512 182.973 81.2126C182.694 81.6967 182.562 82.2977 181.771 82.2531C181.61 82.2391 181.376 82.6934 181.244 82.9569C180.745 83.924 179.924 84.525 179.059 85.1119C178.59 85.4192 178.18 85.8448 177.697 86.2541C178.136 86.7817 177.462 86.9733 177.124 87.2806C176.964 87.4273 176.729 87.5293 176.51 87.6177C175.805 87.8668 175.777 88.673 175.278 89.0982C174.34 89.8896 173.46 90.7245 172.493 91.4872C172.009 91.8678 171.761 92.6007 170.969 92.5421C170.691 93.51 169.694 93.789 169.093 94.4481C168.302 95.3129 167.305 95.9724 166.44 96.7786C165.678 97.4816 165.003 98.273 164.256 98.9919C163.7 99.5195 163.099 99.9738 162.526 100.486C162.189 100.78 161.852 101.102 161.515 101.41C161.309 101.571 161.09 101.703 160.856 101.865C160.929 101.893 161.061 101.952 161.207 102.025C160.563 101.937 160.343 102.949 159.61 102.598C159.58 102.598 159.448 102.7 159.448 102.758C159.419 103.535 158.672 103.74 158.305 104.239C158.217 104.356 158.099 104.576 157.997 104.576C157.235 104.518 157.221 105.118 156.942 105.499C156.693 105.763 156.43 106.041 156.18 106.32C156.093 106.407 156.004 106.496 155.916 106.584C155.242 107.111 154.435 107.449 154.128 108.43C154.055 108.724 153.131 108.871 152.604 108.871C151.856 108.871 151.108 108.592 150.36 108.577C149.511 108.562 148.661 108.768 147.811 108.768C147.122 108.768 146.448 108.534 145.758 108.519C145.275 108.504 144.66 108.943 144.337 108.753C143.369 108.21 142.388 108.768 141.406 108.534C140.585 108.328 139.53 108.167 138.826 108.519C137.976 108.943 137.448 108.299 136.789 108.357C135.557 108.474 134.341 108.138 133.11 108.357C132.274 108.489 131.409 108.592 130.633 108.049C130.516 107.976 130.237 108.138 130.047 108.152C129.857 108.181 129.666 108.138 129.49 108.108C129.446 108.108 129.372 108.02 129.372 108.02C128.771 108.666 128.024 108.21 127.423 108.138C126.485 108.035 125.386 108.504 124.653 107.624C124.506 107.771 124.389 107.991 124.286 107.991C123.29 107.918 122.293 107.786 121.296 107.698C121.091 107.683 120.871 107.844 120.666 107.844C120.124 107.83 119.611 107.712 119.024 107.771C118.203 107.859 117.324 107.39 116.459 107.287C115.976 107.229 115.463 107.507 114.965 107.492C114.144 107.449 113.337 107.243 112.516 107.155C112.121 107.127 111.725 107.2 111.329 107.155C111.007 107.14 110.685 107.023 110.245 106.936C110.201 106.965 109.893 107.214 109.82 107.14C109.175 106.686 108.456 107.023 107.812 106.906C106.669 106.716 105.482 106.276 104.382 106.422C103.562 106.526 102.916 106.276 102.183 106.232C101.539 106.188 100.908 106.247 100.278 106.173C99.9998 106.144 99.7507 105.938 99.4722 105.806C99.369 105.748 99.2669 105.646 99.1785 105.661C97.8598 105.763 96.8632 105.045 95.823 104.4C94.6797 103.696 93.7564 102.802 93.1256 101.6C93.0957 101.556 93.067 101.483 93.0235 101.483C91.5431 101.249 91.161 99.7247 90.0921 98.9919C89.4031 98.5228 88.9628 97.6721 88.3766 97.0277C88.0107 96.6467 87.4971 96.3828 87.1747 95.9724C86.7643 95.4886 86.5303 94.8877 86.1493 94.3748C85.9581 94.125 85.5771 94.0229 85.3719 93.789C84.9614 93.3048 84.6243 92.7912 84.2433 92.2934C84.0966 92.118 83.9213 91.9563 83.7743 91.7809C83.5543 91.4872 83.3498 91.18 83.0565 90.7544C83.0414 90.7544 82.8362 90.813 82.5875 90.8863C81.6196 89.6258 80.6377 88.3506 79.6561 87.0754C79.2018 86.9284 78.8647 86.6649 79.0253 86.0202C77.7501 85.7265 77.2523 84.5397 76.4461 83.7634C76.1971 83.4697 75.9333 83.1912 75.7133 82.8835C75.5228 82.605 75.3909 82.2977 75.2144 81.9893C75.1857 81.9307 75.1857 81.8287 75.1271 81.7837C74.6433 81.4178 74.1444 81.066 73.6467 80.7001C73.6032 80.6555 73.5147 80.5969 73.5 80.5383C73.0022 79.0428 71.6684 78.2517 70.6272 77.2116C70.3634 76.9478 70.3483 76.4636 70.143 76.1117C69.8358 75.5554 69.3966 75.2031 68.7359 75.0417C68.3999 74.9544 68.0182 74.4555 67.9309 74.0897C67.7544 73.3568 67.0514 73.1951 66.6844 72.7113C66.6111 72.624 66.4206 72.5654 66.4206 72.4773C66.4054 71.568 65.5271 71.4073 65.0716 70.865C64.8963 70.6446 64.7345 70.396 64.5591 70.1616C64.4707 70.0437 64.3838 69.9269 64.2806 69.8245C64.0315 69.5747 63.7095 69.3694 63.519 69.0916C62.8448 68.1388 62.2438 67.1274 61.5397 66.2041C61.1153 65.6466 60.5279 65.2226 60.06 64.6938C59.0486 63.5803 58.0372 62.4518 57.084 61.2797C56.5862 60.6924 56.1898 60.0192 55.7068 59.3299C55.7653 59.3004 55.8088 59.2717 55.8534 59.2566C53.8892 58.0547 52.0425 56.6177 50.4154 55.2257C49.624 55.5477 48.5687 55.3576 47.6306 55.3576C46.9711 55.3576 46.3256 55.299 45.6664 55.2117C45.4321 55.1818 45.2269 54.9766 44.977 54.83C44.7578 55.4457 44.3326 55.3137 43.8349 55.0352C43.4093 54.7861 42.9255 54.4789 42.6031 55.3289C42.119 54.5809 41.5917 54.9479 41.0354 55.0201C40.493 55.0938 39.9057 54.918 39.3346 54.9033C37.7955 54.8746 36.2565 54.8882 34.7024 54.8447C33.3251 54.8012 31.9328 54.5662 30.5695 54.6693C29.8812 54.7128 29.2655 54.2139 28.4741 54.683C27.9465 54.9914 27.0232 54.5809 26.2756 54.5076C25.4841 54.449 24.6334 54.2139 23.8865 54.3904C22.7432 54.6693 21.9072 54.1557 20.9109 53.6281C21.0137 54.0385 21.0863 54.3469 21.1309 54.5374C20.1493 54.449 19.1961 54.3322 18.2433 54.2876C17.6571 54.2589 17.0561 54.3757 16.4699 54.3171C16.1033 54.2736 15.7662 54.0238 15.3266 53.8333C14.6225 54.5374 13.0253 54.5374 11.8381 53.5695C11.97 53.8632 12.0434 53.9951 12.1454 54.2003C11.6042 54.127 11.12 54.0684 10.4458 53.9799C10.6075 53.76 10.8116 53.4962 11.0032 53.2471C11.032 53.2622 11.0467 53.277 11.0754 53.291C11.501 52.7781 11.9266 52.2504 12.3507 51.7232C12.9516 50.9903 13.5526 50.2277 14.2121 49.5095C14.477 49.2023 14.8727 49.011 15.2099 48.7619C15.2533 48.7332 15.3554 48.7472 15.3554 48.7332C15.5024 47.7804 16.6605 47.5453 16.8657 46.5634C16.9394 46.1677 17.5985 45.9042 17.9496 45.552C18.5804 44.9076 19.1663 44.2182 19.7971 43.5587C20.1629 43.1781 20.5447 42.8258 20.8671 42.4452C21.1743 42.0495 21.468 41.639 21.7753 41.2581C22.5818 40.2754 23.3582 39.3086 24.2089 38.3705C24.6632 37.858 25.2343 37.4472 25.7034 36.9634C25.9672 36.6697 26.1138 36.274 26.3927 35.9815C26.6127 35.7316 26.92 35.5264 27.1989 35.351C28.0051 34.8382 28.225 33.8853 28.826 33.2258C29.6461 32.3176 30.5109 31.423 31.4055 30.5733C31.5661 30.4116 31.8893 30.4116 32.1384 30.3383C31.9328 29.664 34.9375 26.3221 36.1246 25.8678C35.9043 25.5893 36.2414 24.6807 36.6821 24.4755C37.5616 24.065 38.1028 23.3469 38.6452 22.5706C39.0855 21.925 39.8184 21.4707 40.4193 20.9582C40.5365 20.855 40.7564 20.8263 40.8003 20.7091C41.1809 19.6531 42.0608 19.0968 42.9701 18.5832C43.102 18.5098 43.1455 18.2759 43.2339 18.1289C43.4528 17.777 43.6433 17.396 43.9082 17.0887C44.6993 16.1794 45.5493 15.3006 46.3554 14.3913C47.015 13.6297 47.6745 12.8674 48.2754 12.0461C48.6273 11.5634 48.8612 10.9761 49.1549 10.4337C49.5941 10.6102 50.1077 10.2731 50.2102 9.71562C50.2835 9.33503 51.5874 7.97139 51.8373 7.75256C52.8487 6.90141 53.9772 7.35685 55.0026 7.47363C56.7321 7.67886 58.4616 7.78129 60.1919 7.88447C60.8216 7.9132 61.4376 7.94265 62.0673 7.89806C63.1373 7.82587 64.1487 8.25031 65.3068 8.01598C66.3333 7.81075 67.4754 8.2216 68.5753 8.33839C69.2201 8.39697 69.8656 8.41172 70.4953 8.4703C72.2981 8.6022 74.101 8.76396 75.9038 8.89587C76.431 8.93933 76.9885 8.88074 77.5309 8.92458C77.8098 8.93932 78.0732 9.12982 78.351 9.14456C78.7615 9.17329 79.1719 9.07125 79.5828 9.08599C80.4037 9.11471 81.3557 8.93933 82.03 9.30519C82.866 9.74551 83.6136 9.15968 84.4338 9.52554C85.2112 9.84756 86.1932 9.6287 87.0727 9.71562C87.8788 9.80407 88.6703 9.99458 89.4765 10.1114C89.5932 10.1412 89.7403 9.96583 89.8722 9.93597C90.2093 9.86265 90.5899 9.70089 90.8688 9.78933C91.7037 10.0531 92.466 10.405 93.3894 9.97945C93.7265 9.81882 94.2689 10.1563 94.7084 10.1847C96.8197 10.2433 98.9298 10.2731 101.026 10.3464C102.11 10.3903 103.298 10.8306 104.25 10.5222C105.364 10.1563 106.42 11.2399 107.445 10.405C107.563 10.3166 107.944 10.639 108.208 10.639C109.79 10.6836 111.388 10.6541 112.985 10.7421C114.055 10.7856 115.125 10.8888 116.167 11.1379C116.547 11.2399 116.826 11.7974 117.148 12.1493C117.265 12.2963 117.369 12.4566 117.471 12.6183C117.838 13.2045 118.19 13.8055 118.555 14.3913C118.687 14.6116 118.849 14.8021 119.024 14.9922C119.098 15.0807 119.288 15.1241 119.303 15.2273C119.552 16.1654 120.197 16.8536 120.769 17.6164C121.472 18.5246 122.395 19.4192 122.674 20.4593C123.056 21.8963 124.022 22.8484 124.755 23.9917C125.049 24.4467 125.049 25.2669 125.869 25.3115C125.328 26.0296 126.236 26.0443 126.441 26.3815C127.218 27.7005 128.039 29.0044 128.933 30.2509C129.401 30.9105 130.207 31.3644 130.56 32.0825C130.94 32.8452 131.718 33.1823 132.07 33.8853C132.803 35.3072 133.886 36.4645 134.942 37.6524C135.557 38.3558 136.012 39.2054 136.554 39.9828C136.73 40.2168 136.964 40.3933 137.126 40.6277C137.405 41.023 137.654 41.4338 137.932 41.8443C138.255 42.2986 138.577 42.7676 138.944 43.2068C139.852 44.2768 140.79 45.3468 141.714 46.4028C142.139 46.8858 142.608 47.3401 143.018 47.8386C143.282 48.161 143.443 48.5567 143.736 49.0556C144.176 49.1429 144.513 49.48 144.498 50.1543C144.498 50.3308 144.63 50.55 144.762 50.6679C145.598 51.3709 146.491 52.0305 147.284 52.7781C148.236 53.6727 149.115 54.6395 150.01 55.6074C150.948 56.6328 151.826 57.7175 152.794 58.7142C153.263 59.198 153.864 59.5502 154.509 59.7989C154.597 60.0329 154.627 60.3417 154.787 60.5019C155.096 60.8394 155.447 61.1327 155.843 61.3667C156.283 61.6305 156.752 61.8508 157.279 61.5723C157.367 61.5137 157.528 61.5435 157.632 61.6017C159.053 62.188 160.445 62.6422 162.029 62.3047C162.643 62.1879 163.347 62.1581 163.905 62.657C163.992 62.7303 164.227 62.7303 164.329 62.657C165.252 62.0859 166.264 62.3047 167.232 62.3497C168.023 62.3633 168.873 62.9057 169.577 62.7156C170.25 62.5398 170.779 62.8036 171.38 62.7889C172.772 62.7454 174.164 62.8475 175.557 62.891C176.246 62.9057 176.919 62.8909 177.593 62.9643C178.136 63.0089 178.678 63.1993 179.221 63.2432C179.573 63.2727 179.924 63.1559 180.276 63.126C180.672 63.0962 181.082 63.0674 181.478 63.0962C182.093 63.1408 182.724 63.2579 183.339 63.3165C184.203 63.3898 185.083 63.4333 185.948 63.4779C186.183 63.4919 186.432 63.4333 186.681 63.4484C187.208 63.4779 187.751 63.4919 188.278 63.5652C188.689 63.6238 189.143 63.9757 189.333 63.3165C190.081 63.4333 190.8 63.5652 191.533 63.6684C191.679 63.6835 191.869 63.7122 191.987 63.6238C192.807 63.1113 193.643 63.3747 194.478 63.5652C194.64 63.6098 194.845 63.727 194.933 63.6537C195.9 62.9794 197.014 63.5803 198.055 63.3014C198.656 63.1408 199.374 63.2878 200.019 63.4046C200.488 63.5066 200.766 63.1408 201.206 63.1113C201.748 63.0826 202.188 63.4632 202.746 63.36C202.642 63.5218 202.51 63.6536 202.378 63.8003Z" fill="black"/>
</g>
<path fill-rule="evenodd" clip-rule="evenodd" d="M93.3423 56.7469L94.0536 56.6902L94.4108 56.728L94.9951 56.7091L95.5224 56.6169L95.5764 56.1626L95.4438 55.7328L95.1625 55.0348L94.6542 54.0585L94.3919 53.3661L94.0158 52.6843L93.3019 50.9778L93.1126 50.6936L92.9285 50.3368L92.8151 49.923L92.6446 49.6444L92.5339 49.3413L92.1363 48.6489L92.0063 48.2543L90.7647 45.6389L90.6539 45.2655L90.4484 44.9272L90.3323 44.5867L89.9751 43.932L89.6584 43.5911L89.0393 43.4048L88.4361 43.61L88.0978 43.932L87.9274 44.2484L87.7951 44.6245L87.6247 44.8894L86.8782 46.6151L86.67 46.899L86.5751 47.275L86.3668 47.6348L86.2534 47.9674L84.341 51.9922L84.225 52.4057L84.0383 52.6843L83.9029 53.063L83.5704 53.6635L83.2835 54.4153L83.0779 54.6806L82.986 55.0159L82.61 55.7676L82.4966 56.1463L82.5911 56.6169L82.9671 56.728L83.6974 56.6902L84.0734 56.728L85.1283 56.6902L85.561 56.5575L85.9178 56.2223L86.2534 55.6002L86.6103 55.2457L87.0052 55.0348L87.3624 55.0945L88.1523 55.0159L88.4928 55.0752L90.3323 55.0593L90.6728 55.0945L91.084 55.0348L91.4979 55.2457L91.8547 55.5431L92.0252 55.9029L92.1363 56.2412L92.5123 56.5224L92.9474 56.7091L93.3423 56.7469ZM89.0745 52.0652L88.6984 51.9922L88.2683 52.03L87.9656 51.8974L87.9463 51.5429L88.8311 49.5091L89.0393 49.3413L89.299 49.4929L90.186 51.5621L90.1074 51.8974L89.8262 52.0489L89.0745 52.0652ZM96.3826 56.0356L96.5152 56.5224L96.8747 56.7091L97.2507 56.7469L98.0407 56.6902L98.7682 56.728L99.4848 56.6902L99.842 56.7469L100.256 56.7091L103.978 56.728L104.335 56.5386L104.543 55.9574L104.524 54.4342L104.353 53.8744L104.013 53.6446L103.62 53.6851L103.261 53.758L102.866 53.7044L102.095 53.7229L101.725 53.6446L101.384 53.7044L100.651 53.6635L100.256 53.7044L99.8798 53.5528L99.7282 53.1767L99.7471 46.8045L99.7093 46.3528L99.7471 45.6011L99.6904 44.5326L99.7093 44.1754L99.5226 43.7616L99.1469 43.5371H98.4163L98.0407 43.61L97.2859 43.5371L96.9291 43.5911L96.5341 43.7427L96.3637 44.1565V46.7856L96.3285 47.1423L96.3637 47.5184L96.3096 48.2161L96.3285 48.6304L96.3637 48.9872L96.3826 56.0356ZM110.666 56.7658L113.355 56.728L113.75 56.5575L113.955 56.1626V54.2694L113.75 53.8933L113.355 53.7229L112.925 53.758L112.565 53.7044L111.608 53.6851L110.988 53.758L110.612 53.7229L110.198 53.7422L109.841 53.6851L109.428 53.7229L109.033 53.5335L108.881 53.1956V52.0111L109.052 51.6162L109.389 51.4106L109.955 51.3917L110.555 51.4457L111.267 51.4106L112.037 51.4295L112.413 51.3917L112.849 51.4106L113.222 51.259L113.355 50.8833L113.409 49.1927L113.222 48.6651L112.789 48.4221H111.683L111.291 48.4595L110.501 48.4055L109.409 48.4406L109.014 48.2706L108.862 47.6889V47.1072L109.033 46.7474L109.446 46.5962L109.803 46.6151L110.16 46.5422L112.849 46.5773L113.203 46.5611L113.598 46.3366L113.785 45.9956L113.768 45.6196L113.785 45.2439L113.75 44.1187L113.579 43.7616L113.203 43.61H112.808L112.473 43.5371L110.95 43.5533L110.537 43.5911L110.16 43.5533L109.841 43.5722L109.463 43.5371L107.921 43.5722L107.545 43.5182L107.193 43.5911L106.853 43.5533L106.477 43.5911L106.101 43.5722L105.706 43.7238L105.5 44.1187L105.535 44.83L105.481 45.6011L105.535 46.0145L105.5 47.8593L105.554 48.2543L105.517 48.6111L105.5 50.1475L105.554 50.4884L105.535 53.5335L105.5 53.8933L105.554 54.2694L105.5 55.5624L105.535 55.9759L105.687 56.4846L106.252 56.728L107.604 56.7469L108.018 56.7091L108.359 56.728L109.13 56.674L109.482 56.7469L109.917 56.7658L110.29 56.728L110.666 56.7658Z" fill="#373435"/>
<path d="M83.4314 71.7444L84.3536 71.7066L84.6918 71.7255L85.1246 71.6877L85.5165 71.5362L85.687 71.1412L85.6681 70.7682L85.687 70.3543L85.6492 69.6593L85.687 69.3021L85.6681 68.8693L85.8385 68.5314L86.2687 68.3232L86.6825 68.285L87.0775 68.361L89.0137 68.2094L90.7988 67.4955L91.0804 67.271L91.3453 66.9705L91.5887 66.7271L91.8321 66.4432L92.2271 65.8427L92.5461 65.1099L92.6031 64.696L92.7169 64.3959L92.7547 62.8542L92.6787 62.5349L92.622 62.121L92.3975 61.4259L92.0407 60.7876L91.5887 60.1655L90.7421 59.4326L90.1226 59.0214L89.3709 58.7942L89.0519 58.6646H88.6758L88.2997 58.532L87.7343 58.5131L87.1341 58.532L86.7203 58.5887L85.5736 58.5701L85.1975 58.5131L84.0319 58.5887L83.6207 58.5701L83.2828 58.5131L82.8879 58.5887L82.4929 58.7942L82.3224 59.0947L82.3413 61.3692L82.2654 62.121L82.3035 62.4782L82.2846 67.3466L82.3224 67.7037L82.3035 71.1794L82.5118 71.5362L83.0931 71.7255L83.4314 71.7444ZM86.2498 65.3154L85.8737 65.091L85.7059 64.7716L85.6492 63.2492L85.687 62.8542V62.0832L85.8737 61.726L86.2687 61.5397L88.2242 61.5964L88.6002 61.7642L88.9003 61.9725L89.1464 62.2159L89.3331 62.5919L89.3898 62.9298L89.428 63.4544L89.3898 63.9631L89.2575 64.301L89.0897 64.6015L88.8436 64.9042L88.5435 65.1287L88.2431 65.2232L87.6614 65.2965L86.7014 65.2776L86.2498 65.3154Z" fill="#373435"/>
<path d="M98.5037 71.7444L101.192 71.7066L101.587 71.5361L101.793 71.1412V69.2454L101.587 68.8693L101.192 68.6989L100.759 68.7367L100.403 68.68L99.4448 68.6611L98.8227 68.7367L98.4466 68.6989L98.0331 68.7181L97.676 68.6611L97.2647 68.6989L96.8698 68.5121L96.7186 68.1743V66.9898L96.8891 66.5948L97.227 66.3865L97.7897 66.3703L98.3899 66.4243L99.1069 66.3865L99.8749 66.4054L100.251 66.3703L100.684 66.3865L101.059 66.2376L101.192 65.8616L101.249 64.1714L101.059 63.6441L100.627 63.4003H99.5177L99.1231 63.4381L98.3359 63.3814L97.2459 63.4192L96.8509 63.2491L96.6993 62.6675V62.0832L96.8698 61.726L97.281 61.5775L97.6408 61.5964L97.998 61.5208L100.684 61.5586L101.041 61.5397L101.435 61.3125L101.625 60.9743L101.606 60.5986L101.625 60.2225L101.587 59.0947L101.417 58.7375L101.041 58.5886H100.646L100.308 58.513L98.7849 58.5319L98.3737 58.5701L97.998 58.5319L97.676 58.5508L97.3003 58.513L95.7612 58.5508L95.3852 58.4941L95.028 58.5701L94.6901 58.5319L94.3141 58.5701L93.938 58.5508L93.5431 58.6997L93.3348 59.0947L93.3726 59.8087L93.3159 60.5793L93.3726 60.9932L93.3348 62.8349L93.3919 63.2299L93.3537 63.5871L93.3348 65.1287L93.3919 65.467L93.3726 68.5121L93.3348 68.8693L93.3919 69.2454L93.3348 70.541L93.3726 70.9548L93.5242 71.4632L94.0866 71.7066L95.4419 71.7255L95.8531 71.6877L96.191 71.7066L96.962 71.6495L97.3188 71.7255L97.7515 71.7444L98.1276 71.7066L98.5037 71.7444Z" fill="#373435"/>
<path d="M112.506 71.3684L113.012 71.6689L113.54 71.7256L113.953 71.5929L114.14 71.2172L114.178 64.3581L114.121 64.0388V62.1781L114.178 61.7261L114.121 59.1133L113.934 58.7376L113.558 58.532L111.227 58.5509L110.87 58.7565L110.664 59.1514L110.645 59.5464L110.702 59.8465L110.645 60.6364L110.683 61.0499L110.645 64.4148L110.532 64.7338L110.251 64.6015L108.917 63.2681L108.39 62.8542L104.687 59.1133L104.406 58.8892L103.972 58.6646L103.41 58.532L102.977 58.7187L102.807 59.0755V64.7716L102.788 65.091L102.826 65.8616L102.769 66.181L102.807 69.2643L102.769 69.6211L102.807 71.1979L102.977 71.5551L103.372 71.6878L104.143 71.7256L104.554 71.6878L105.287 71.7445L105.682 71.7256L106.058 71.5362L106.247 70.9549L106.266 66.1999L106.304 65.8238L106.434 65.5048L106.68 65.5993L106.923 65.9187L108.257 67.195L108.503 67.4762L108.822 67.6845L111.735 70.5789L112.222 71.125L112.506 71.3684Z" fill="#373435"/>
<path d="M115.642 71.1601L115.87 71.5173L116.227 71.7256L116.602 71.7067L117.355 71.7445L117.75 71.7067L118.536 71.7256L118.931 71.501L119.083 71.1412L119.121 70.7844L119.083 70.3732V67.0465L119.25 66.6515L119.645 66.4055L121.864 66.3866L122.258 66.4433H122.596L122.954 66.6515L123.143 67.0083L123.162 71.1601L123.367 71.4632L123.914 71.7067H124.89L125.266 71.6689L126.037 71.7256L126.394 71.4821L126.618 71.1601L126.58 69.451L126.637 68.8505L126.58 68.5504L126.599 59.1133L126.431 58.7187L126.056 58.5701L123.895 58.5509L123.348 58.6835L123.162 59.1325L123.143 59.8465L123.181 60.1655L123.143 60.9365L123.2 61.2933L123.181 62.7594L122.972 63.1354L122.596 63.3437L122.239 63.287L121.506 63.3626L121.111 63.3248L120.774 63.3626L119.665 63.3437L119.307 63.1732L119.121 62.8164L119.102 62.4022V62.0076L119.083 61.6694L119.102 60.2036L119.14 59.7898L119.102 59.0947L118.931 58.7376L118.536 58.532L118.123 58.5701L116.265 58.532L115.851 58.7187L115.661 59.0947L115.624 59.5082L115.661 60.9743L115.624 61.3504L115.699 62.121L115.661 62.835L115.68 63.287L115.642 63.6627V69.2832L115.699 69.6211L115.642 71.1601Z" fill="#373435"/>
<path d="M137.802 71.7255L138.516 71.6688L138.873 71.7066L139.454 71.6877L139.982 71.5928L140.038 71.1412L139.906 70.7114L139.625 70.016L139.116 69.0371L138.854 68.342L138.478 67.6659L137.764 65.9564L137.575 65.6726L137.388 65.3154L137.274 64.9042L137.107 64.6204L136.993 64.3202L136.598 63.6248L136.466 63.2299L135.227 60.6171L135.113 60.2414L134.908 59.9031L134.794 59.5652L134.437 58.908L134.118 58.5701L133.496 58.3804L132.895 58.5886L132.557 58.908L132.389 59.227L132.257 59.603L132.087 59.8653L131.335 61.5964L131.129 61.8775L131.034 62.2536L130.829 62.6104L130.715 62.9487L128.798 66.9705L128.687 67.3843L128.497 67.6659L128.365 68.0416L128.027 68.6422L127.745 69.3943L127.54 69.6592L127.445 69.9971L127.069 70.7492L126.956 71.1249L127.05 71.5928L127.426 71.7066L128.159 71.6688L128.535 71.7066L129.587 71.6688L130.02 71.5361L130.377 71.1979L130.715 70.5788L131.072 70.2216L131.467 70.016L131.824 70.0704L132.614 69.9971L132.952 70.0512L134.794 70.0353L135.132 70.0704L135.546 70.016L135.96 70.2216L136.317 70.5217L136.485 70.8789L136.598 71.2171L136.974 71.501L137.407 71.6877L137.802 71.7255ZM133.533 67.0465L133.158 66.9705L132.728 67.0082L132.425 66.876L132.406 66.5188L133.29 64.4903L133.496 64.3202L133.761 64.4714L134.642 66.5381L134.569 66.876L134.286 67.0276L133.533 67.0465Z" fill="#373435"/>
<path d="M79.4995 56.8796L79.9489 56.728L80.3624 56.1815L80.6114 55.6596L80.7195 55.2646L81.0793 54.6644L81.1927 54.2883L81.3821 53.8934L81.4906 53.5714L81.6988 53.2308L82.4317 51.5244L82.5639 51.1075L82.8996 50.5073L84.5387 46.6393L84.7251 46.2988L85.0418 45.6196L85.1389 45.2655L85.4961 44.6056L85.6261 44.0998L85.5339 43.7049L85.193 43.6293L84.8011 43.5911L84.4601 43.5371L84.106 43.5722L83.73 43.5911L83.016 43.5182L82.6021 43.7616L82.2801 44.0779L80.5328 48.2161L80.4221 48.6111L80.2516 48.9275L80.1757 49.2683L79.992 49.6066L79.6159 50.6588L79.4266 50.9967L79.2209 50.9616L78.7478 49.9419L78.6748 49.5877L78.3528 48.9467L77.4117 46.504L76.9249 45.5089L76.3973 44.0779L76.0809 43.7616L75.6455 43.5722L74.577 43.5371L74.201 43.5911H73.4844L73.187 43.7238L73.0354 44.0998L73.6356 45.6982L73.8253 45.9768L73.9198 46.3366L74.0687 46.7123L74.2743 46.9912L74.4066 47.3862L76.0998 51.1861L76.2106 51.5622L76.6841 52.5384L76.8111 52.9334L77.1332 53.5714L77.3387 53.9096L77.4306 54.2883L78.1823 56.0708L78.3528 56.3519L78.7289 56.674L79.1427 56.8252L79.4995 56.8796Z" fill="#373435"/>
<path d="M124.907 43.3976L124.456 43.5492L124.042 44.0957L123.798 44.6203L123.685 45.0153L123.328 45.6158L123.214 45.9915L123.028 46.3864L122.914 46.7054L122.708 47.0463L121.975 48.7558L121.843 49.1697L121.504 49.7699L119.868 53.6405L119.682 53.981L119.362 54.6576L119.268 55.0144L118.911 55.6716L118.778 56.1804L118.873 56.5723L119.211 56.6483L119.606 56.6861L119.944 56.7427L120.301 56.705L120.677 56.6861L121.391 56.7616L121.805 56.5182L122.124 56.1989L123.871 52.0637L123.985 51.6687L124.155 51.3494L124.228 51.0114L124.418 50.6732L124.793 49.6187L124.98 49.2804L125.188 49.3182L125.659 50.3353L125.732 50.6921L126.054 51.3308L126.993 53.7728L127.482 54.7683L128.007 56.1989L128.326 56.5182L128.759 56.705L129.83 56.7427L130.206 56.6861H130.92L131.22 56.556L131.371 56.1804L130.771 54.5816L130.582 54.3004L130.487 53.9436L130.338 53.5675L130.13 53.2833L130 52.8914L128.307 49.0937L128.196 48.718L127.726 47.7414L127.593 47.3465L127.274 46.7054L127.068 46.3675L126.973 45.9915L126.222 44.2064L126.054 43.9252L125.678 43.6059L125.264 43.4547L124.907 43.3976Z" fill="#C40008"/>
</svg>
