<svg width="122" height="122" viewBox="0 0 122 122" fill="none" xmlns="http://www.w3.org/2000/svg">
<path d="M61.258 0.175293C44.5865 0.175293 30.9462 17.1507 30.9462 38.0655C30.9462 58.9806 44.5865 75.956 61.258 75.956C77.9295 75.956 91.5698 58.9806 91.5698 38.0655C91.5698 17.1507 77.9295 0.175293 61.258 0.175293ZM29.5818 75.956C13.5162 76.7145 0.633301 89.8998 0.633301 106.269V121.425H121.883V106.269C121.883 89.8998 109.151 76.7145 92.9342 75.956C84.7497 85.2014 73.5351 91.1119 61.258 91.1119C48.981 91.1119 37.7664 85.2014 29.5818 75.956Z" fill="#C40008"/>
<mask id="mask0_203_404" style="mask-type:luminance" maskUnits="userSpaceOnUse" x="71" y="99" width="25" height="14">
<path d="M71.4846 99.8282H95.5153V112.645H71.4846V99.8282Z" fill="white"/>
</mask>
<g mask="url(#mask0_203_404)">
<path d="M95.4614 106.357C95.4584 106.348 95.4557 106.334 95.45 106.331C95.3227 106.283 95.2633 106.116 95.091 106.147C95.026 106.162 94.9527 106.133 94.885 106.136C94.8253 106.139 94.7603 106.088 94.7066 106.153C94.7009 106.159 94.6839 106.153 94.6699 106.15C94.5992 106.145 94.5256 106.131 94.4553 106.131C94.3139 106.133 94.1726 106.147 94.0312 106.15C93.7912 106.156 93.5478 106.162 93.3078 106.159C93.1014 106.156 92.8951 106.142 92.6917 106.136C92.5814 106.133 92.474 106.142 92.3667 106.136C92.2507 106.128 92.1377 106.102 92.022 106.088C91.9653 106.082 91.906 106.077 91.8493 106.071C91.8183 106.08 91.796 106.088 91.7703 106.088C91.7393 106.088 91.7079 106.082 91.6769 106.082C91.632 106.08 91.5866 106.08 91.5443 106.074C91.5019 106.068 91.4622 106.051 91.4199 106.049C91.3126 106.04 91.1996 106.051 91.0979 106.029C91.0015 106.009 90.9112 106.023 90.8209 106.023C90.7162 106.023 90.6119 106.029 90.5072 106.026C90.3458 106.02 90.1848 106.037 90.0207 106.001C89.8767 105.967 89.7214 105.986 89.5714 105.995C89.5124 106.001 89.4583 105.975 89.4133 105.958C89.3344 105.933 89.2834 105.854 89.2267 105.786C89.1874 105.738 89.2214 105.608 89.1054 105.642C89.0264 105.546 88.9527 105.455 88.8763 105.365C88.8763 105.365 88.8706 105.365 88.868 105.362C88.7773 105.351 88.7466 105.283 88.7266 105.223C88.6786 105.192 88.6363 105.175 88.608 105.144C88.5063 105.037 88.4103 104.929 88.3139 104.816C88.2179 104.706 88.0992 104.624 88.0142 104.505C87.9635 104.435 87.8959 104.373 87.8423 104.302C87.7712 104.203 87.6838 104.121 87.5992 104.036C87.4578 103.895 87.3615 103.711 87.1918 103.593C87.1751 103.581 87.1694 103.553 87.1581 103.533C87.1381 103.491 87.1241 103.443 87.0931 103.409C86.9631 103.256 86.8301 103.107 86.6947 102.957C86.652 102.912 86.5844 102.878 86.5617 102.824C86.4967 102.666 86.3554 102.57 86.2624 102.437C86.2027 102.346 86.1377 102.262 86.0757 102.174C86.0674 102.16 86.07 102.134 86.0674 102.109C86.0473 102.106 86.0246 102.106 85.9993 102.103C85.9936 102.078 85.9936 102.052 85.9797 102.033C85.8837 101.9 85.7816 101.767 85.68 101.634C85.6293 101.569 85.567 101.51 85.519 101.445C85.4313 101.326 85.3496 101.204 85.2703 101.083C85.1966 100.973 85.1316 100.857 85.0583 100.747C85.0076 100.673 84.9535 100.597 84.8859 100.54C84.8349 100.498 84.7615 100.481 84.6965 100.456C84.6599 100.444 84.6202 100.442 84.5805 100.436C84.4819 100.425 84.3855 100.393 84.2895 100.382C84.1791 100.368 84.0661 100.371 83.9561 100.362C83.8318 100.351 83.7074 100.331 83.5861 100.32C83.5264 100.314 83.4644 100.317 83.4051 100.312C83.2834 100.3 83.1594 100.295 83.0347 100.275C82.817 100.241 82.5883 100.264 82.3649 100.252C82.2916 100.249 82.2266 100.221 82.142 100.241C82.0486 100.264 81.9439 100.221 81.8423 100.207C81.8309 100.207 81.8196 100.201 81.8082 100.201C81.6586 100.187 81.5115 100.176 81.3645 100.162C81.3309 100.162 81.2995 100.165 81.2659 100.167C81.1948 100.173 81.1075 100.207 81.0621 100.179C80.9945 100.134 80.9377 100.17 80.8814 100.165C80.7597 100.15 80.6354 100.156 80.5137 100.145C80.4321 100.139 80.3471 100.097 80.2707 100.114C80.1804 100.131 80.1014 100.094 80.0194 100.105C79.8924 100.119 79.7706 100.085 79.6433 100.094C79.4653 100.105 79.2846 100.063 79.1036 100.052C78.8915 100.04 78.6768 100.04 78.4622 100.032C78.4055 100.032 78.3491 100.026 78.2925 100.023C78.2161 100.023 78.1372 100.026 78.0608 100.023C77.9928 100.02 77.9168 99.9923 77.8601 100.015C77.7327 100.066 77.6198 100.032 77.5241 99.967C77.4504 99.9186 77.3828 99.8933 77.2947 99.8763C77.1141 99.8422 77.001 99.9273 76.8824 100.035C76.8313 100.083 76.789 100.165 76.7467 100.184C76.645 100.23 76.5997 100.32 76.529 100.385C76.3907 100.509 76.2776 100.662 76.1533 100.806C76.1192 100.846 76.094 100.894 76.0573 100.93C75.9976 100.984 75.9355 101.035 75.8736 101.086C75.8365 101.117 75.7915 101.137 75.7632 101.173C75.7095 101.241 75.6725 101.326 75.6136 101.388C75.4945 101.507 75.3619 101.617 75.2375 101.733C75.1782 101.787 75.1245 101.849 75.0678 101.908C75.0085 101.971 74.9521 102.038 74.8898 102.097C74.8474 102.134 74.7911 102.157 74.7484 102.199C74.7201 102.227 74.7092 102.275 74.6865 102.31C74.6695 102.332 74.6468 102.349 74.6271 102.372C74.5818 102.425 74.5481 102.499 74.4888 102.533C74.3784 102.598 74.2907 102.683 74.2117 102.776C74.1804 102.813 74.1607 102.861 74.1271 102.895C74.0704 102.951 74.0054 103.005 73.943 103.058C73.9064 103.093 73.8697 103.129 73.8356 103.169C73.7737 103.236 73.72 103.313 73.6577 103.381C73.621 103.417 73.573 103.446 73.5307 103.48C73.5617 103.525 73.559 103.55 73.5106 103.587C73.477 103.609 73.429 103.621 73.4033 103.649C73.3186 103.739 73.2366 103.833 73.1603 103.929C73.1406 103.952 73.1407 104.008 73.121 104.014C73.0019 104.047 72.9683 104.166 72.8863 104.237C72.8042 104.305 72.7366 104.39 72.6629 104.466C72.6092 104.525 72.5556 104.582 72.5019 104.641C72.4962 104.65 72.4819 104.661 72.4849 104.664C72.5272 104.731 72.4622 104.746 72.4312 104.777C72.3579 104.85 72.2842 104.921 72.2165 105C72.1515 105.079 72.0975 105.167 71.9905 105.201C71.9762 105.206 71.9565 105.226 71.9535 105.243C71.9508 105.314 71.9112 105.345 71.8461 105.348C71.8545 105.365 71.8658 105.385 71.8605 105.39C71.7981 105.469 71.7192 105.526 71.6825 105.63C71.6428 105.735 71.5184 105.806 71.5381 105.944C71.5411 105.947 71.5381 105.95 71.5381 105.952C71.4875 106.034 71.4875 106.114 71.5411 106.201C71.5891 106.28 71.6228 106.374 71.6511 106.439C71.7021 106.441 71.7418 106.433 71.7558 106.45C71.8575 106.554 71.9705 106.633 72.1258 106.628C72.1485 106.625 72.1685 106.633 72.1882 106.636C72.2702 106.645 72.3522 106.65 72.4338 106.662C72.5102 106.673 72.5952 106.67 72.6629 106.704C72.7222 106.738 72.7589 106.735 72.8069 106.698C72.8239 106.687 72.8522 106.682 72.8719 106.684C72.9172 106.69 72.9596 106.71 73.005 106.715C73.101 106.73 73.1943 106.673 73.2929 106.718C73.3723 106.752 73.4713 106.69 73.5477 106.766C73.553 106.772 73.5843 106.755 73.601 106.747C73.6127 106.741 73.624 106.721 73.635 106.721C73.72 106.718 73.8021 106.721 73.8867 106.721C73.9207 106.721 73.9574 106.713 73.9941 106.715C74.0674 106.721 74.1437 106.738 74.2174 106.735C74.3985 106.724 74.5764 106.724 74.7514 106.809C74.7484 106.783 74.7484 106.763 74.7458 106.732C74.8195 106.747 74.8871 106.769 74.9522 106.769C75.0425 106.769 75.1301 106.747 75.2178 106.749C75.3505 106.752 75.4805 106.769 75.6136 106.78C75.6359 106.78 75.6585 106.789 75.6842 106.789C75.7772 106.783 75.8736 106.769 75.9666 106.778C76.0796 106.786 76.1987 106.769 76.3056 106.826C76.317 106.831 76.3339 106.823 76.3483 106.82C76.4046 106.812 76.4613 106.795 76.5207 106.792C76.625 106.786 76.7327 106.789 76.84 106.786C76.8823 106.786 76.9303 106.786 76.9726 106.775C77.0433 106.761 77.1084 106.738 77.1594 106.724C77.2244 106.812 77.2611 106.888 77.3231 106.939C77.4731 107.066 77.5861 107.221 77.6848 107.388C77.7245 107.45 77.7445 107.529 77.7951 107.572C77.9168 107.676 77.9927 107.809 78.0751 107.947C78.0918 107.939 78.1088 107.931 78.1289 107.922C78.1708 108.066 78.2672 108.168 78.3632 108.272C78.4225 108.335 78.4622 108.417 78.5215 108.482C78.6372 108.615 78.7955 108.717 78.8212 108.914C78.8212 108.923 78.8579 108.937 78.8775 108.934C78.8946 108.934 78.9086 108.917 78.9229 108.906C78.9596 108.988 78.9906 109.058 79.0246 109.129C79.0499 109.135 79.0866 109.132 79.0979 109.146C79.1489 109.211 79.2082 109.279 79.2279 109.352C79.2449 109.426 79.2903 109.463 79.3353 109.505C79.3863 109.55 79.4482 109.587 79.4796 109.643C79.5193 109.714 79.587 109.762 79.621 109.847C79.6489 109.926 79.7536 109.977 79.8103 110.062C79.864 110.146 79.9573 110.206 80.0276 110.282C80.0643 110.322 80.09 110.372 80.1241 110.418C80.155 110.457 80.186 110.497 80.2227 110.533C80.237 110.548 80.2707 110.55 80.2851 110.567C80.3387 110.644 80.3723 110.737 80.4404 110.793C80.5167 110.853 80.5848 110.912 80.6411 110.991C80.6721 111.039 80.7201 111.082 80.7655 111.121C80.8388 111.186 80.8671 111.288 80.9518 111.344C81.0565 111.413 81.1215 111.523 81.2288 111.593C81.3675 111.687 81.4805 111.819 81.6049 111.933C81.6612 111.984 81.7205 112.026 81.7772 112.071C81.8226 112.108 81.8649 112.147 81.9129 112.176C81.9579 112.207 82.0119 112.224 82.0625 112.246C82.1419 112.286 82.2153 112.331 82.2973 112.359C82.3566 112.379 82.4216 112.379 82.4836 112.39C82.6363 112.416 82.789 112.447 82.9417 112.472C82.995 112.481 83.0547 112.47 83.1084 112.475C83.1761 112.484 83.241 112.512 83.309 112.515C83.3911 112.517 83.4757 112.498 83.5604 112.495C83.6084 112.495 83.6594 112.509 83.7105 112.517C83.7275 112.517 83.7528 112.526 83.7611 112.517C83.8204 112.467 83.8797 112.515 83.9361 112.523C83.9644 112.526 83.9902 112.535 84.0155 112.535C84.1739 112.532 84.3291 112.526 84.4845 112.526C84.5102 112.526 84.5325 112.546 84.5639 112.557C84.6145 112.52 85.1572 112.535 85.2109 112.577C85.2306 112.56 85.2533 112.535 85.2703 112.537C85.3353 112.546 85.3976 112.571 85.4679 112.549C85.5163 112.535 85.5696 112.537 85.6206 112.54C85.6886 112.546 85.7563 112.56 85.8243 112.571C85.8723 112.577 85.923 112.554 85.9657 112.552C86.104 112.543 86.2423 112.568 86.3806 112.58C86.4347 112.582 86.4884 112.591 86.5391 112.6C86.5421 112.605 86.5421 112.611 86.5451 112.617C86.5704 112.602 86.5958 112.58 86.6211 112.58C86.8187 112.582 87.0137 112.591 87.2118 112.6C87.2598 112.602 87.3078 112.611 87.3562 112.614C87.4095 112.614 87.4662 112.605 87.5228 112.602C87.5708 112.602 87.6158 112.605 87.6642 112.605C87.7232 112.605 87.7825 112.602 87.8423 112.605C87.9269 112.608 88.0115 112.63 88.0962 112.622C88.2462 112.605 88.3989 112.537 88.5429 112.554C88.6503 112.568 88.7436 112.526 88.8423 112.532C88.899 112.532 88.9696 112.515 89.0063 112.478C89.0853 112.402 89.1703 112.438 89.2523 112.436C89.2663 112.433 89.2834 112.45 89.2947 112.444C89.3767 112.407 89.4584 112.371 89.5408 112.331C89.5944 112.306 89.6477 112.286 89.693 112.252C89.7554 112.207 89.8034 112.147 89.8597 112.099C89.9701 112.006 90.0975 111.935 90.1678 111.803C90.1821 111.777 90.2131 111.766 90.2358 111.746C90.2668 111.715 90.2978 111.687 90.3291 111.656C90.3431 111.63 90.3742 111.625 90.3999 111.61C90.5072 111.56 90.5238 111.404 90.6599 111.387C90.6965 111.279 90.8152 111.26 90.8802 111.181C90.9592 111.085 91.0639 111.011 91.1656 110.935C91.2982 110.839 91.4143 110.717 91.5413 110.607C91.567 110.584 91.5949 110.559 91.6289 110.548C91.68 110.531 91.7646 110.556 91.7279 110.449C91.7249 110.44 91.7476 110.418 91.762 110.406C91.841 110.341 91.923 110.274 92.005 110.211C92.036 110.189 92.0783 110.177 92.104 110.152C92.2507 110.016 92.392 109.878 92.536 109.739C92.601 109.674 92.6664 109.609 92.7341 109.547C92.8017 109.488 92.8697 109.431 92.9374 109.372C92.9601 109.358 92.9658 109.304 92.9828 109.301C93.0958 109.273 93.1268 109.143 93.2201 109.106C93.3331 109.064 93.3388 108.897 93.4802 108.895C93.4828 108.895 93.4885 108.88 93.4945 108.875C93.5198 108.841 93.5364 108.801 93.5678 108.776C93.6271 108.731 93.7005 108.7 93.7572 108.649C93.8476 108.564 93.9265 108.468 94.0229 108.389C94.1669 108.27 94.2996 108.134 94.4326 108.001C94.5286 107.908 94.6189 107.806 94.7123 107.704C94.797 107.614 94.882 107.524 94.9667 107.43C94.9977 107.399 95.026 107.351 95.0657 107.337C95.125 107.317 95.1446 107.281 95.1586 107.227C95.1646 107.204 95.1813 107.179 95.2013 107.162C95.3453 107.06 95.43 106.916 95.478 106.755C95.5177 106.622 95.4811 106.487 95.4614 106.357ZM94.3506 106.942C94.3139 106.99 94.2432 107.004 94.2262 107.074C94.2205 107.094 94.1726 107.103 94.1586 107.131C94.1189 107.162 94.0765 107.193 94.0368 107.224C93.9548 107.298 93.8728 107.371 93.7938 107.447C93.7485 107.487 93.7035 107.529 93.6582 107.572C93.6075 107.62 93.5535 107.668 93.4998 107.713C93.3981 107.803 93.2995 107.891 93.1948 107.979C93.1298 108.032 93.0308 108.046 93.0054 108.145C92.8921 108.151 92.8527 108.259 92.7764 108.318C92.7484 108.341 92.7254 108.372 92.6974 108.397C92.6211 108.465 92.5303 108.522 92.4771 108.601C92.4007 108.714 92.3043 108.787 92.1943 108.858C92.1773 108.869 92.166 108.892 92.1547 108.909C92.1237 108.965 92.1067 109.033 92.016 109.027C91.9994 109.025 91.974 109.075 91.957 109.106C91.9003 109.217 91.807 109.284 91.711 109.349C91.6573 109.386 91.6093 109.431 91.5556 109.479C91.6063 109.539 91.5299 109.559 91.4906 109.595C91.4736 109.612 91.4482 109.624 91.4229 109.632C91.3409 109.663 91.3379 109.754 91.2816 109.802C91.1769 109.889 91.0752 109.985 90.9679 110.07C90.9112 110.112 90.8828 110.197 90.7952 110.189C90.7615 110.299 90.6512 110.33 90.5805 110.406C90.4928 110.502 90.3798 110.579 90.2808 110.669C90.1961 110.748 90.1171 110.836 90.0325 110.918C89.9701 110.977 89.9024 111.031 89.8374 111.087C89.8008 111.121 89.7637 111.158 89.7244 111.192C89.7014 111.212 89.6761 111.226 89.6507 111.243C89.6564 111.246 89.6734 111.254 89.6874 111.26C89.6167 111.252 89.5914 111.367 89.5094 111.328C89.5064 111.325 89.4897 111.339 89.4897 111.344C89.4867 111.432 89.402 111.455 89.3597 111.511C89.3514 111.526 89.3371 111.551 89.3257 111.548C89.238 111.543 89.238 111.61 89.207 111.656C89.1787 111.684 89.1477 111.715 89.1197 111.746C89.108 111.757 89.0997 111.769 89.0883 111.777C89.015 111.836 88.9216 111.873 88.8876 111.986C88.8793 112.017 88.7747 112.034 88.7153 112.034C88.6307 112.034 88.5456 112.003 88.4609 112C88.3649 112 88.2689 112.023 88.1725 112.023C88.0962 112.023 88.0172 111.998 87.9382 111.995C87.8846 111.995 87.8165 112.043 87.7799 112.023C87.6695 111.961 87.5565 112.023 87.4465 111.998C87.3532 111.972 87.2344 111.955 87.1551 111.995C87.0591 112.043 86.9998 111.972 86.9234 111.978C86.7851 111.989 86.6468 111.952 86.5081 111.978C86.4121 111.992 86.3157 112.003 86.2284 111.944C86.214 111.933 86.183 111.952 86.1604 111.955C86.1407 111.955 86.118 111.952 86.0984 111.949C86.0927 111.949 86.084 111.938 86.084 111.938C86.0163 112.012 85.9316 111.961 85.864 111.952C85.7563 111.941 85.632 111.995 85.55 111.896C85.533 111.91 85.5189 111.935 85.5076 111.935C85.3946 111.927 85.2846 111.913 85.1712 111.901C85.1485 111.901 85.1232 111.918 85.0979 111.918C85.0386 111.916 84.9792 111.904 84.9142 111.91C84.8182 111.921 84.7218 111.868 84.6232 111.856C84.5695 111.848 84.5102 111.882 84.4535 111.879C84.3602 111.873 84.2672 111.851 84.1765 111.842C84.1315 111.836 84.0862 111.845 84.0408 111.842C84.0041 111.839 83.9705 111.828 83.9194 111.817C83.9138 111.819 83.8798 111.848 83.8711 111.839C83.7978 111.788 83.7188 111.825 83.6424 111.814C83.515 111.791 83.3797 111.743 83.255 111.76C83.162 111.771 83.0883 111.743 83.0067 111.738C82.933 111.732 82.8623 111.738 82.7916 111.732C82.7607 111.726 82.7296 111.704 82.7013 111.69C82.6869 111.684 82.676 111.673 82.6647 111.673C82.515 111.684 82.4046 111.602 82.2859 111.531C82.1559 111.452 82.0512 111.348 81.9805 111.214C81.9779 111.209 81.9749 111.2 81.9692 111.2C81.8026 111.175 81.7576 111.003 81.6359 110.918C81.5595 110.864 81.5089 110.768 81.4439 110.697C81.4012 110.652 81.3448 110.624 81.3052 110.579C81.2598 110.522 81.2345 110.454 81.1921 110.398C81.1695 110.37 81.1271 110.358 81.1018 110.33C81.0564 110.276 81.0168 110.217 80.9744 110.16C80.9578 110.141 80.9378 110.124 80.9234 110.104C80.8981 110.07 80.8728 110.036 80.8418 109.988C80.8388 109.988 80.8165 109.994 80.7881 110.002C80.6778 109.861 80.5674 109.717 80.4548 109.57C80.4037 109.556 80.367 109.525 80.3837 109.451C80.2397 109.42 80.1834 109.284 80.0927 109.197C80.0643 109.166 80.0337 109.132 80.0107 109.098C79.9884 109.067 79.9713 109.033 79.9543 108.999C79.9487 108.991 79.9487 108.979 79.943 108.974C79.8864 108.931 79.8327 108.892 79.7764 108.852C79.7707 108.847 79.7623 108.841 79.7593 108.832C79.7026 108.663 79.5503 108.575 79.4343 108.457C79.4033 108.428 79.4003 108.372 79.3806 108.332C79.344 108.27 79.296 108.23 79.2196 108.211C79.1799 108.202 79.1376 108.145 79.1293 108.103C79.1092 108.021 79.0302 108.004 78.9879 107.947C78.9792 107.939 78.9565 107.931 78.9565 107.922C78.9565 107.82 78.8549 107.801 78.8042 107.741C78.7842 107.716 78.7672 107.688 78.7476 107.662C78.7362 107.648 78.7279 107.634 78.7135 107.623C78.6852 107.594 78.6515 107.572 78.6288 107.538C78.5525 107.43 78.4849 107.317 78.4029 107.213C78.3575 107.151 78.2898 107.103 78.2358 107.043C78.1231 106.916 78.0102 106.789 77.8998 106.656C77.8431 106.591 77.7977 106.515 77.7444 106.436C77.7501 106.433 77.7558 106.43 77.7611 106.427C77.5381 106.292 77.3291 106.131 77.145 105.972C77.0547 106.009 76.936 105.986 76.8287 105.986C76.755 105.989 76.6817 105.981 76.6084 105.969C76.58 105.967 76.5573 105.944 76.529 105.927C76.5037 105.998 76.4556 105.984 76.402 105.952C76.3509 105.924 76.2973 105.887 76.2606 105.984C76.2069 105.899 76.1476 105.941 76.0826 105.95C76.0203 105.958 75.9556 105.938 75.8906 105.936C75.7152 105.933 75.5399 105.933 75.3675 105.93C75.2092 105.924 75.0538 105.899 74.8985 105.91C74.8195 105.916 74.7515 105.859 74.6612 105.913C74.6018 105.947 74.4971 105.899 74.412 105.893C74.3217 105.885 74.2257 105.856 74.141 105.879C74.011 105.91 73.9177 105.851 73.8047 105.791C73.816 105.839 73.8244 105.873 73.8304 105.893C73.717 105.885 73.6097 105.873 73.5023 105.865C73.4343 105.862 73.3666 105.876 73.3016 105.871C73.2593 105.865 73.2227 105.837 73.1716 105.814C73.0926 105.896 72.9116 105.893 72.7759 105.786C72.7929 105.817 72.8016 105.834 72.813 105.856C72.7506 105.848 72.6969 105.842 72.6206 105.831C72.6376 105.808 72.6602 105.777 72.6829 105.749C72.6855 105.752 72.6882 105.752 72.6912 105.755C72.7392 105.695 72.7872 105.636 72.8352 105.577C72.9033 105.495 72.9709 105.407 73.0446 105.328C73.0756 105.291 73.121 105.269 73.1603 105.243C73.1633 105.24 73.1747 105.24 73.1747 105.238C73.1913 105.13 73.3243 105.104 73.347 104.994C73.3553 104.949 73.429 104.918 73.4683 104.878C73.542 104.805 73.607 104.729 73.6777 104.655C73.72 104.613 73.7624 104.57 73.799 104.528C73.833 104.483 73.867 104.438 73.9037 104.392C73.994 104.282 74.0817 104.172 74.1777 104.067C74.2287 104.011 74.2938 103.963 74.3471 103.909C74.3754 103.875 74.3954 103.83 74.4238 103.796C74.4491 103.768 74.4831 103.745 74.5168 103.725C74.6071 103.669 74.6328 103.561 74.7004 103.485C74.7938 103.383 74.8928 103.282 74.9914 103.186C75.0115 103.166 75.0481 103.166 75.0765 103.16C75.0538 103.084 75.3928 102.705 75.5259 102.655C75.5032 102.623 75.5399 102.522 75.5909 102.496C75.6896 102.451 75.7493 102.372 75.8113 102.281C75.8623 102.208 75.9439 102.16 76.0119 102.101C76.0259 102.089 76.0516 102.084 76.0573 102.072C76.0996 101.95 76.1986 101.888 76.303 101.832C76.3169 101.823 76.3226 101.795 76.3313 101.778C76.3566 101.739 76.3793 101.696 76.4076 101.662C76.498 101.561 76.594 101.459 76.6847 101.357C76.7606 101.272 76.8344 101.185 76.902 101.094C76.9417 101.038 76.97 100.97 77.001 100.911C77.0516 100.93 77.1114 100.891 77.1227 100.829C77.131 100.786 77.278 100.631 77.3064 100.608C77.4194 100.512 77.5494 100.563 77.6651 100.574C77.8601 100.597 78.0582 100.611 78.2532 100.622C78.3235 100.625 78.3941 100.628 78.4622 100.622C78.5865 100.614 78.6995 100.665 78.8296 100.637C78.9482 100.614 79.0782 100.659 79.2026 100.673C79.2732 100.679 79.3466 100.682 79.4173 100.687C79.6237 100.704 79.8273 100.721 80.0307 100.735C80.09 100.741 80.152 100.735 80.2144 100.738C80.2454 100.741 80.2767 100.764 80.3073 100.766C80.3527 100.766 80.4007 100.755 80.446 100.758C80.542 100.761 80.6498 100.741 80.7231 100.781C80.8191 100.831 80.9038 100.766 80.9971 100.806C81.0848 100.846 81.1948 100.817 81.2964 100.829C81.3872 100.84 81.4775 100.863 81.5678 100.874C81.5822 100.877 81.5962 100.857 81.6132 100.854C81.6499 100.846 81.6926 100.829 81.7262 100.837C81.8196 100.868 81.9042 100.908 82.0089 100.86C82.0486 100.84 82.1106 100.88 82.1616 100.882C82.399 100.888 82.639 100.891 82.8767 100.899C82.998 100.905 83.1311 100.953 83.2411 100.919C83.368 100.88 83.487 101.001 83.6027 100.908C83.614 100.896 83.6594 100.933 83.6877 100.933C83.8684 100.939 84.0495 100.936 84.2302 100.945C84.3488 100.95 84.4736 100.961 84.5892 100.99C84.6346 101.001 84.6656 101.063 84.6996 101.106C84.7136 101.12 84.7249 101.139 84.7388 101.156C84.7785 101.224 84.8182 101.292 84.8606 101.357C84.8746 101.383 84.8946 101.405 84.9116 101.425C84.9225 101.436 84.9426 101.439 84.9452 101.45C84.9736 101.558 85.0469 101.637 85.1093 101.722C85.1883 101.823 85.2956 101.925 85.3266 102.044C85.3693 102.205 85.4792 102.315 85.5613 102.442C85.5953 102.493 85.5953 102.587 85.6887 102.592C85.6263 102.671 85.7279 102.674 85.7506 102.711C85.8409 102.861 85.9343 103.008 86.0333 103.149C86.087 103.225 86.1803 103.276 86.2196 103.355C86.2624 103.443 86.35 103.48 86.3894 103.561C86.474 103.723 86.5957 103.853 86.7144 103.985C86.7851 104.065 86.8361 104.161 86.8981 104.248C86.9181 104.277 86.9434 104.296 86.9631 104.322C86.9941 104.367 87.0224 104.415 87.0534 104.46C87.0901 104.511 87.1268 104.565 87.1695 104.613C87.2711 104.734 87.3759 104.856 87.4832 104.974C87.5312 105.031 87.5848 105.082 87.6302 105.139C87.6581 105.175 87.6782 105.221 87.7092 105.277C87.7602 105.286 87.7995 105.322 87.7969 105.399C87.7969 105.418 87.8109 105.444 87.8279 105.458C87.9212 105.537 88.0229 105.611 88.1132 105.695C88.2206 105.797 88.3196 105.907 88.4212 106.015C88.5259 106.131 88.6276 106.255 88.735 106.368C88.7886 106.422 88.8593 106.461 88.93 106.489C88.9413 106.518 88.9443 106.549 88.9614 106.569C88.998 106.608 89.0373 106.642 89.0826 106.667C89.1306 106.696 89.1843 106.721 89.2436 106.69C89.255 106.684 89.272 106.687 89.2834 106.693C89.4444 106.758 89.6027 106.812 89.7838 106.772C89.8514 106.758 89.9334 106.755 89.9954 106.812C90.0041 106.82 90.0295 106.82 90.0438 106.812C90.1455 106.747 90.2612 106.772 90.3715 106.778C90.4618 106.778 90.5578 106.84 90.6372 106.82C90.7135 106.8 90.7728 106.828 90.8405 106.828C90.9989 106.823 91.1568 106.834 91.3126 106.837C91.3916 106.84 91.4679 106.84 91.5443 106.845C91.6063 106.854 91.666 106.874 91.7279 106.879C91.7676 106.882 91.807 106.868 91.8493 106.865C91.8947 106.862 91.94 106.86 91.9823 106.862C92.053 106.868 92.1236 106.879 92.1943 106.888C92.293 106.896 92.392 106.899 92.4884 106.905C92.5164 106.908 92.5447 106.899 92.5731 106.902C92.6324 106.905 92.6944 106.908 92.7537 106.916C92.7991 106.922 92.8528 106.961 92.8724 106.888C92.9571 106.902 93.0395 106.913 93.1215 106.927C93.1381 106.93 93.1608 106.93 93.1748 106.922C93.2681 106.862 93.3614 106.893 93.4574 106.916C93.4744 106.919 93.4972 106.933 93.5055 106.925C93.6159 106.848 93.7428 106.916 93.8589 106.885C93.9295 106.868 94.0116 106.882 94.0849 106.896C94.1359 106.908 94.1696 106.868 94.2176 106.865C94.2799 106.86 94.3279 106.902 94.3929 106.893C94.3815 106.91 94.3646 106.925 94.3506 106.942Z" fill="white"/>
</g>
<path fill-rule="evenodd" clip-rule="evenodd" d="M45.4138 106.47L45.8519 106.436L46.0748 106.458L46.4339 106.447L46.759 106.39L46.7929 106.111L46.7109 105.845L46.5382 105.416L46.2249 104.811L46.0635 104.384L45.8292 103.966L45.3881 102.912L45.2725 102.736L45.1595 102.516L45.0888 102.262L44.9841 102.089L44.9165 101.9L44.6704 101.473L44.5914 101.23L43.8226 99.6162L43.755 99.3876L43.6276 99.1782L43.5569 98.9692L43.3366 98.5621L43.1416 98.3531L42.7598 98.2371L42.3868 98.3644L42.1778 98.5621L42.0731 98.7598L41.9915 98.9915L41.8868 99.1555L41.426 100.218L41.299 100.396L41.2393 100.628L41.1124 100.848L41.0416 101.055L39.8602 103.536L39.7899 103.793L39.6738 103.966L39.5918 104.197L39.3854 104.568L39.2075 105.031L39.0805 105.195L39.0238 105.404L38.7921 105.868L38.7214 106.099L38.7807 106.39L39.0124 106.458L39.4649 106.436L39.6965 106.458L40.3466 106.436L40.6119 106.354L40.8327 106.147L41.0416 105.763L41.2624 105.546L41.5054 105.416L41.7257 105.452L42.2118 105.404L42.4208 105.441L43.5569 105.43L43.7659 105.452L44.0203 105.416L44.2747 105.546L44.4981 105.729L44.6027 105.95L44.6704 106.159L44.9021 106.331L45.1708 106.447L45.4138 106.47ZM42.7825 103.581L42.5482 103.536L42.2825 103.559L42.0958 103.477L42.0844 103.259L42.6299 102.007L42.7598 101.9L42.9212 101.996L43.4666 103.271L43.4186 103.477L43.2459 103.57L42.7825 103.581ZM47.2903 106.032L47.3723 106.331L47.5927 106.447L47.8244 106.47L48.3135 106.436L48.7629 106.458L49.2036 106.436L49.4239 106.47L49.6782 106.447L51.9758 106.458L52.1966 106.342L52.3235 105.984L52.3122 105.042L52.2075 104.698L51.9985 104.556L51.7555 104.582L51.5351 104.627L51.2891 104.593L50.8144 104.604L50.5853 104.556L50.3763 104.593L49.9239 104.568L49.6782 104.593L49.4466 104.5L49.3532 104.268L49.3646 100.337L49.3423 100.057L49.3646 99.5939L49.3305 98.9352L49.3423 98.7148L49.2262 98.4574L48.9945 98.3191H48.5452L48.3135 98.3644L47.8471 98.3191L47.6267 98.3531L47.3837 98.4464L47.279 98.7035V100.326L47.2563 100.546L47.279 100.778L47.245 101.207L47.2563 101.462L47.279 101.682L47.2903 106.032ZM56.1019 106.481L57.7608 106.458L58.0038 106.354L58.1312 106.111V104.941L58.0038 104.709L57.7608 104.604L57.4954 104.627L57.2747 104.593L56.6814 104.582L56.3 104.627L56.0683 104.604L55.8139 104.616L55.5932 104.582L55.3389 104.604L55.0932 104.488L54.9998 104.279V103.547L55.1045 103.304L55.3161 103.177L55.6639 103.166L56.0343 103.2L56.4724 103.177L56.9497 103.188L57.1814 103.166L57.4501 103.177L57.6792 103.084L57.7608 102.852L57.7948 101.809L57.6792 101.484L57.4134 101.334H56.7293L56.4863 101.357L56.0003 101.323L55.3275 101.346L55.0818 101.241L54.9885 100.882V100.523L55.0932 100.303L55.3502 100.207L55.5705 100.218L55.7912 100.173L57.4501 100.196L57.6674 100.184L57.9108 100.046L58.0268 99.8369L58.0151 99.6049L58.0268 99.3732L58.0038 98.6808L57.8995 98.4574L57.6674 98.3644H57.4244L57.2184 98.3191L56.2773 98.3304L56.023 98.3531L55.7912 98.3304L55.5932 98.3418L55.3615 98.3191L54.4091 98.3418L54.1774 98.3077L53.9601 98.3531L53.7507 98.3304L53.516 98.3531L53.2843 98.3418L53.0413 98.4351L52.9143 98.6808L52.9366 99.1188L52.9029 99.5939L52.9366 99.8479L52.9143 100.987L52.948 101.23L52.9256 101.45L52.9143 102.4L52.948 102.609L52.9366 104.488L52.9143 104.709L52.948 104.941L52.9143 105.741L52.9366 105.995L53.03 106.309L53.3777 106.458L54.2141 106.47L54.4684 106.447L54.6778 106.458L55.1525 106.424L55.3728 106.47L55.6412 106.481L55.8702 106.458L56.1019 106.481Z" stroke="white" stroke-width="0.935055" stroke-miterlimit="22.9256"/>
<path d="M39.2999 115.723L39.868 115.7L40.077 115.711L40.3426 115.689L40.5857 115.595L40.6904 115.352L40.679 115.121L40.6904 114.866L40.6677 114.437L40.6904 114.216L40.679 113.95L40.7837 113.741L41.0491 113.614L41.3064 113.589L41.5495 113.637L42.7423 113.544L43.8444 113.103L44.0194 112.964L44.1808 112.778L44.3305 112.628L44.4828 112.453L44.7258 112.083L44.9238 111.631L44.9575 111.376L45.0285 111.19L45.0508 110.24L45.0028 110.042L44.9692 109.788L44.8305 109.358L44.6101 108.963L44.3305 108.581L43.8104 108.129L43.426 107.874L42.9626 107.733L42.7676 107.654H42.5359L42.3012 107.572L41.9535 107.561L41.5835 107.572L41.3287 107.606L40.6223 107.595L40.388 107.561L39.6699 107.606L39.4155 107.595L39.2066 107.561L38.9636 107.606L38.7205 107.733L38.6158 107.92L38.6272 109.321L38.5791 109.788L38.6045 110.008L38.5935 113.009L38.6158 113.23L38.6045 115.375L38.7318 115.595L39.0905 115.711L39.2999 115.723ZM41.0377 111.758L40.8061 111.619L40.7017 111.421L40.6677 110.483L40.6904 110.24V109.762L40.8061 109.542L41.0491 109.426L42.2559 109.463L42.4875 109.567L42.6743 109.694L42.8239 109.844L42.94 110.076L42.974 110.285L42.9993 110.61L42.974 110.924L42.8946 111.133L42.7903 111.317L42.6376 111.503L42.4539 111.642L42.2672 111.701L41.9081 111.746L41.3178 111.735L41.0377 111.758Z" fill="white"/>
<path d="M48.5993 115.723L50.258 115.7L50.5011 115.595L50.6285 115.352V114.182L50.5011 113.95L50.258 113.846L49.9897 113.869L49.769 113.835L49.1783 113.82L48.7969 113.869L48.5652 113.846L48.3082 113.857L48.0875 113.82L47.8332 113.846L47.5901 113.73L47.4971 113.521V112.789L47.6014 112.546L47.8104 112.419L48.1582 112.408L48.5285 112.442L48.9692 112.419L49.4443 112.43L49.6761 112.408L49.9444 112.419L50.176 112.326L50.258 112.094L50.2921 111.051L50.176 110.726L49.9077 110.576H49.2236L48.9806 110.599L48.4946 110.562L47.8222 110.587L47.5788 110.483L47.4858 110.124V109.762L47.5901 109.542L47.8445 109.451L48.0652 109.463L48.2855 109.415L49.9444 109.437L50.1647 109.426L50.4077 109.288L50.5238 109.078L50.5124 108.847L50.5238 108.615L50.5011 107.92L50.3968 107.699L50.1647 107.606H49.9217L49.7127 107.561L48.7716 107.572L48.5172 107.595L48.2855 107.572L48.0875 107.583L47.8558 107.561L46.9064 107.583L46.6747 107.549L46.454 107.595L46.245 107.572L46.0133 107.595L45.7816 107.583L45.5386 107.677L45.4112 107.92L45.4339 108.361L45.3972 108.835L45.4339 109.09L45.4112 110.226L45.4452 110.472L45.4225 110.692L45.4112 111.642L45.4452 111.851L45.4339 113.73L45.4112 113.95L45.4452 114.182L45.4112 114.982L45.4339 115.236L45.5272 115.55L45.875 115.7L46.7083 115.711L46.9627 115.689L47.1721 115.7L47.6468 115.666L47.8671 115.711L48.1355 115.723L48.3672 115.7L48.5993 115.723Z" fill="white"/>
<path d="M57.2378 115.491L57.5515 115.677L57.8735 115.711L58.1309 115.629L58.2466 115.398L58.2692 111.167L58.2352 110.969V109.822L58.2692 109.542L58.2352 107.931L58.1195 107.699L57.8879 107.572L56.4494 107.583L56.229 107.71L56.1017 107.953L56.0903 108.196L56.1243 108.383L56.0903 108.869L56.113 109.126L56.0903 111.201L56.0197 111.399L55.8446 111.316L55.0219 110.494L54.6972 110.24L52.4136 107.931L52.2382 107.792L51.9726 107.654L51.6248 107.572L51.3595 107.688L51.2548 107.908V111.421L51.2434 111.619L51.2662 112.094L51.2295 112.292L51.2548 114.193L51.2295 114.414L51.2548 115.386L51.3595 115.607L51.6025 115.689L52.0772 115.711L52.3316 115.689L52.7836 115.723L53.0266 115.711L53.2583 115.595L53.3744 115.236L53.3883 112.303L53.4114 112.071L53.49 111.874L53.6431 111.932L53.7928 112.128L54.6152 112.916L54.7675 113.091L54.9655 113.219L56.7627 115.004L57.0624 115.341L57.2378 115.491Z" fill="white"/>
<path d="M59.1744 115.364L59.3127 115.584L59.5334 115.711L59.7651 115.7L60.2285 115.723L60.4715 115.7L60.9576 115.711L61.2036 115.573L61.2939 115.352L61.3192 115.132L61.2939 114.877V112.826L61.3987 112.58L61.6417 112.43L63.0121 112.419L63.2551 112.453H63.4641L63.6848 112.58L63.8005 112.8L63.8119 115.364L63.9392 115.55L64.2756 115.7H64.8773L65.109 115.677L65.5837 115.711L65.8044 115.562L65.9458 115.364L65.9201 114.309L65.9568 113.936L65.9201 113.753L65.9345 107.931L65.8297 107.688L65.5981 107.595L64.2642 107.583L63.9279 107.665L63.8119 107.942L63.8005 108.383L63.8232 108.581L63.8005 109.056L63.8345 109.276L63.8232 110.18L63.6962 110.412L63.4641 110.539L63.2438 110.505L62.7918 110.551L62.5461 110.528L62.3397 110.551L61.6556 110.539L61.4353 110.435L61.3192 110.214L61.3053 109.96V109.717L61.2939 109.508L61.3053 108.603L61.3306 108.349L61.3053 107.92L61.2036 107.699L60.9576 107.572L60.7032 107.595L59.5557 107.572L59.3018 107.688L59.1857 107.92L59.1604 108.174L59.1857 109.078L59.1604 109.31L59.2084 109.788L59.1857 110.226L59.1971 110.505L59.1744 110.737V114.205L59.2084 114.414L59.1744 115.364Z" fill="white"/>
<path d="M72.8443 115.711L73.2853 115.677L73.5057 115.7L73.8647 115.689L74.1898 115.629L74.2234 115.352L74.1418 115.087L73.9691 114.657L73.6553 114.052L73.4943 113.625L73.2596 113.207L72.8215 112.153L72.7059 111.978L72.5872 111.758L72.5195 111.503L72.4149 111.328L72.3442 111.144L72.1012 110.715L72.0192 110.472L71.2561 108.858L71.1854 108.626L71.058 108.417L70.9877 108.211L70.767 107.804L70.572 107.595L70.188 107.479L69.8176 107.606L69.6086 107.804L69.5039 108.002L69.4219 108.234L69.3172 108.395L68.8538 109.463L68.7264 109.635L68.6701 109.867L68.5431 110.087L68.4725 110.296L67.2884 112.778L67.2203 113.032L67.1043 113.207L67.0226 113.439L66.8133 113.809L66.6409 114.273L66.5139 114.436L66.4546 114.646L66.2229 115.109L66.1519 115.341L66.2116 115.629L66.4432 115.7L66.8953 115.677L67.1273 115.7L67.7771 115.677L68.0427 115.595L68.2631 115.386L68.4725 115.005L68.6928 114.784L68.9359 114.657L69.1562 114.691L69.6422 114.646L69.8516 114.68L70.9877 114.668L71.1967 114.691L71.4511 114.657L71.7085 114.784L71.9288 114.971L72.0332 115.191L72.1012 115.398L72.3329 115.573L72.6012 115.689L72.8443 115.711ZM70.2103 112.826L69.9786 112.778L69.7129 112.8L69.5266 112.721L69.5153 112.501L70.0606 111.249L70.188 111.144L70.3516 111.234L70.8944 112.512L70.849 112.721L70.6767 112.812L70.2103 112.826Z" fill="white"/>
<mask id="mask1_203_404" style="mask-type:luminance" maskUnits="userSpaceOnUse" x="32" y="95" width="13" height="15">
<path d="M32.292 95.0747H44.1616V109.544H32.292V95.0747Z" fill="white"/>
</mask>
<g mask="url(#mask1_203_404)">
<path d="M36.8733 106.552L37.1503 106.458L37.4073 106.122L37.56 105.8L37.6276 105.557L37.8483 105.184L37.9187 104.952L38.0347 104.709L38.1024 104.511L38.2297 104.302L38.6818 103.248L38.7638 102.99L38.9702 102.62L39.9819 100.232L40.098 100.023L40.293 99.6048L40.3519 99.3874L40.5726 98.9804L40.6516 98.6693L40.5949 98.4233L40.3863 98.3753L40.1429 98.353L39.9339 98.319L39.7162 98.3416L39.4845 98.353L39.0438 98.3076L38.7864 98.4573L38.5884 98.6553L37.512 101.207L37.444 101.45L37.3366 101.645L37.2886 101.854L37.1756 102.066L36.9439 102.713L36.8279 102.923L36.7009 102.9L36.4099 102.273L36.3645 102.055L36.1665 101.657L35.5845 100.15L35.2851 99.5371L34.9597 98.6553L34.7646 98.4573L34.4963 98.3416L33.8353 98.319L33.6036 98.353H33.1625L32.9788 98.435L32.8855 98.6693L33.2558 99.6528L33.3715 99.8255L33.4309 100.045L33.5216 100.28L33.6486 100.453L33.7306 100.696L34.7764 103.038L34.8441 103.271L35.1351 103.875L35.2144 104.118L35.4121 104.511L35.5391 104.72L35.5958 104.952L36.0621 106.054L36.1665 106.227L36.3982 106.424L36.6529 106.518L36.8733 106.552Z" stroke="white" stroke-width="0.935055" stroke-miterlimit="22.9256"/>
</g>
<path d="M64.8894 98.2336L64.6093 98.327L64.3549 98.6634L64.2023 98.9884L64.1346 99.2315L63.9142 99.6015L63.8436 99.8332L63.7275 100.076L63.6599 100.274L63.5325 100.483L63.0805 101.537L62.9985 101.794L62.7894 102.165L61.7803 104.553L61.6647 104.762L61.4666 105.18L61.4103 105.401L61.1896 105.805L61.1079 106.118L61.1673 106.362L61.3737 106.41L61.6193 106.432L61.8257 106.466L62.046 106.444L62.2777 106.432L62.7188 106.478L62.9757 106.328L63.1708 106.13L64.2502 103.581L64.3213 103.335L64.423 103.14L64.471 102.93L64.5866 102.721L64.8183 102.071L64.9343 101.862L65.0614 101.888L65.3527 102.512L65.3977 102.733L65.5957 103.129L66.1751 104.635L66.4775 105.248L66.8025 106.13L66.9976 106.328L67.2659 106.444L67.9273 106.466L68.159 106.432H68.5997L68.7834 106.35L68.8768 106.118L68.5067 105.132L68.3907 104.96L68.3314 104.739L68.238 104.508L68.111 104.332L68.029 104.089L66.9863 101.746L66.9182 101.515L66.6272 100.913L66.5452 100.67L66.3502 100.274L66.2201 100.065L66.1638 99.8332L65.7004 98.7337L65.5957 98.5587L65.3641 98.3606L65.1097 98.2677L64.8894 98.2336Z" fill="white"/>
</svg>
