<svg xmlns="http://www.w3.org/2000/svg" xmlns:xlink="http://www.w3.org/1999/xlink" width="500" zoomAndPan="magnify" viewBox="0 0 375 374.999991" height="500" preserveAspectRatio="xMidYMid meet" version="1.0"><defs><clipPath id="dc795505d4"><path d="M 149 82.1875 L 227 82.1875 L 227 110 L 149 110 Z M 149 82.1875 " clip-rule="nonzero"/></clipPath><clipPath id="dc555e02bb"><path d="M 20.230469 101 L 354.730469 101 L 354.730469 292.9375 L 20.230469 292.9375 Z M 20.230469 101 " clip-rule="nonzero"/></clipPath></defs><path fill="#c40008" d="M 103.855469 179.816406 C 114.382812 179.816406 122.4375 171.136719 122.4375 161.21875 C 122.4375 150.679688 113.765625 142.621094 103.855469 142.621094 C 93.941406 142.621094 85.269531 151.300781 85.269531 161.21875 C 85.269531 171.136719 93.324219 179.816406 103.855469 179.816406 Z M 103.855469 179.816406 " fill-opacity="1" fill-rule="nonzero"/><g clip-path="url(#dc795505d4)"><path fill="#c40008" d="M 226.503906 108.527344 L 226.503906 90.550781 C 226.503906 86.210938 222.785156 82.492188 218.449219 82.492188 L 157.746094 82.492188 C 153.410156 82.492188 149.691406 86.210938 149.691406 90.550781 L 149.691406 109.148438 L 226.503906 109.148438 C 225.882812 108.527344 226.503906 108.527344 226.503906 108.527344 Z M 226.503906 108.527344 " fill-opacity="1" fill-rule="nonzero"/></g><g clip-path="url(#dc555e02bb)"><path fill="#c40008" d="M 336.765625 101.710938 L 238.890625 101.710938 L 238.890625 108.527344 C 238.890625 115.347656 233.316406 121.546875 225.882812 121.546875 L 149.074219 121.546875 C 142.257812 121.546875 136.066406 115.964844 136.066406 108.527344 L 136.066406 101.710938 L 38.191406 101.710938 C 28.28125 101.710938 20.230469 109.769531 20.230469 119.6875 L 20.230469 274.65625 C 20.230469 284.578125 28.28125 292.636719 38.191406 292.636719 L 336.765625 292.636719 C 346.675781 292.636719 354.730469 284.578125 354.730469 274.65625 L 354.730469 119.6875 C 354.726562 109.769531 346.675781 101.710938 336.765625 101.710938 Z M 103.855469 129.605469 C 121.199219 129.605469 134.824219 143.863281 134.824219 160.597656 C 134.824219 177.957031 120.578125 191.59375 103.855469 191.59375 C 86.507812 191.59375 72.882812 177.335938 72.882812 160.597656 C 72.882812 143.863281 86.507812 129.605469 103.855469 129.605469 Z M 158.984375 260.402344 C 156.507812 262.878906 153.410156 264.738281 149.691406 264.738281 L 57.394531 264.738281 C 54.296875 264.738281 50.582031 263.5 48.105469 260.402344 C 45.625 257.921875 45.007812 254.203125 45.007812 251.101562 C 48.722656 221.96875 73.5 199.652344 103.234375 199.652344 C 132.96875 199.652344 157.746094 221.96875 161.460938 251.101562 C 162.699219 254.820312 161.460938 257.921875 158.984375 260.402344 Z M 323.136719 252.34375 L 185.621094 252.34375 C 182.523438 252.34375 179.425781 249.242188 179.425781 246.144531 C 179.425781 242.421875 182.523438 239.945312 185.621094 239.945312 L 323.136719 239.945312 C 326.234375 239.945312 329.332031 242.421875 329.332031 246.144531 C 329.332031 249.863281 326.234375 252.34375 323.136719 252.34375 Z M 323.136719 203.371094 L 185.621094 203.371094 C 182.523438 203.371094 179.425781 200.890625 179.425781 197.171875 C 179.425781 194.074219 182.523438 190.972656 185.621094 190.972656 L 323.136719 190.972656 C 326.234375 190.972656 329.332031 194.074219 329.332031 197.171875 C 329.332031 200.269531 326.234375 203.371094 323.136719 203.371094 Z M 323.136719 154.398438 L 185.621094 154.398438 C 182.523438 154.398438 179.425781 151.300781 179.425781 148.199219 C 179.425781 144.480469 182.523438 142 185.621094 142 L 323.136719 142 C 326.234375 142 329.332031 144.480469 329.332031 148.199219 C 329.332031 151.300781 326.234375 154.398438 323.136719 154.398438 Z M 323.136719 154.398438 " fill-opacity="1" fill-rule="nonzero"/></g><path fill="#c40008" d="M 103.855469 212.050781 C 80.316406 212.050781 61.113281 229.40625 58.015625 252.34375 L 149.691406 251.722656 C 146.59375 229.40625 127.390625 212.050781 103.855469 212.050781 Z M 103.855469 212.050781 " fill-opacity="1" fill-rule="nonzero"/></svg>