<svg width="228" height="228" viewBox="0 0 228 228" fill="none" xmlns="http://www.w3.org/2000/svg">
<path d="M227.644 0.414185H0.87207V227.186H227.644V0.414185Z" fill="#FEFEFE"/>
<path fill-rule="evenodd" clip-rule="evenodd" d="M79.0735 111.602L80.97 111.451L81.9221 111.552L83.4804 111.501L84.8868 111.256L85.0311 110.044L84.6774 108.898L83.9275 107.037L82.5718 104.433L81.8718 102.587L80.8691 100.769L78.9649 96.2181L78.4604 95.4606L77.9702 94.5086L77.6671 93.4053L77.2128 92.6623L76.9168 91.8546L75.8567 90.0079L75.5105 88.9549L72.1996 81.981L71.9041 80.9855L71.3561 80.0837L71.0461 79.1751L70.0941 77.4297L69.2497 76.5211L67.5984 76.0233L65.9902 76.5713L65.0885 77.4297L64.6341 78.2732L64.2807 79.276L63.8261 79.9827L61.8354 84.5843L61.2802 85.3414L61.0277 86.3445L60.4725 87.3033L60.1694 88.1904L55.0701 98.9227L54.7601 100.026L54.2623 100.769L53.9018 101.779L53.0147 103.38L52.2501 105.385L51.7021 106.092L51.4564 106.986L50.4541 108.991L50.1514 110.001L50.4035 111.256L51.4061 111.552L53.3534 111.451L54.3561 111.552L57.1688 111.451L58.3231 111.097L59.2752 110.203L60.1694 108.544L61.1214 107.599L62.1748 107.037L63.1265 107.195L65.2328 106.986L66.1414 107.145L71.0461 107.102L71.9547 107.195L73.0512 107.037L74.1544 107.599L75.1064 108.392L75.5608 109.352L75.8567 110.254L76.8594 111.004L78.0204 111.501L79.0735 111.602ZM67.6921 99.1177L66.6895 98.9227L65.5428 99.024L64.735 98.6703L64.6844 97.7254L67.0432 92.3013L67.5984 91.8546L68.2908 92.2586L70.656 97.776L70.4474 98.6703L69.6972 99.0743L67.6921 99.1177ZM87.1802 109.705L87.5339 111.004L88.4928 111.501L89.4959 111.602L91.6019 111.451L93.5423 111.552L95.4528 111.451L96.4049 111.602L97.5088 111.501L107.434 111.552L108.386 111.047L108.941 109.496L108.89 105.435L108.436 103.943L107.527 103.329L106.481 103.438L105.522 103.632L104.469 103.488L102.413 103.539L101.426 103.329L100.516 103.488L98.5618 103.38L97.5088 103.488L96.5062 103.084L96.1025 102.082L96.1527 85.0893L96.0518 83.8851L96.1527 81.8797L96.0015 79.0307L96.0518 78.0786L95.554 76.9754L94.5517 76.3763H92.6042L91.6019 76.5713L89.5893 76.3763L88.6371 76.5211L87.5842 76.9243L87.1299 78.0283V85.0386L87.0362 85.9907L87.1299 86.9934L86.9855 88.854L87.0362 89.9577L87.1299 90.9097L87.1802 109.705ZM125.269 111.653L132.439 111.552L133.492 111.097L134.04 110.044V104.996L133.492 103.993L132.439 103.539L131.292 103.632L130.333 103.488L127.78 103.438L126.128 103.632L125.125 103.539L124.022 103.589L123.07 103.438L121.967 103.539L120.914 103.034L120.509 102.132V98.973L120.964 97.92L121.865 97.372L123.373 97.3213L124.974 97.4657L126.871 97.372L128.927 97.4222L129.929 97.3213L131.09 97.372L132.086 96.968L132.439 95.9656L132.584 91.4578L132.086 90.0514L130.932 89.4025H127.982L126.936 89.503L124.83 89.359L121.916 89.4527L120.863 88.9984L120.459 87.4477V85.897L120.914 84.9373L122.017 84.534L122.969 84.5843L123.921 84.3897L131.09 84.483L132.035 84.4403L133.088 83.8416L133.586 82.933L133.543 81.9299L133.586 80.928L133.492 77.9274L133.038 76.9754L132.035 76.5713H130.982L130.088 76.3763L126.027 76.4198L124.924 76.5211L123.921 76.4198L123.07 76.47L122.06 76.3763L117.949 76.47L116.947 76.326L116.009 76.5211L115.1 76.4198L114.098 76.5211L113.095 76.47L112.042 76.8741L111.494 77.9274L111.588 79.824L111.443 81.8797L111.588 82.9833L111.494 87.902L111.638 88.9549L111.537 89.907L111.494 94.0036L111.638 94.9126L111.588 103.034L111.494 103.993L111.638 104.996L111.494 108.443L111.588 109.547L111.992 110.903L113.499 111.552L117.105 111.602L118.209 111.501L119.118 111.552L121.173 111.407L122.111 111.602L123.272 111.653L124.267 111.552L125.269 111.653Z" fill="#373435"/>
<path d="M52.6443 151.595L55.1035 151.494L56.0046 151.545L57.1589 151.443L58.2047 151.04L58.659 149.987L58.6087 148.992L58.659 147.888L58.5577 146.034L58.659 145.082L58.6087 143.928L59.063 143.027L60.2097 142.471L61.3137 142.371L62.3667 142.573L67.5303 142.169L72.2906 140.265L73.0412 139.666L73.7476 138.865L74.3969 138.216L75.0459 137.459L76.0988 135.858L76.95 133.903L77.1016 132.799L77.4047 131.999L77.5056 127.888L77.3038 127.037L77.1518 125.933L76.5535 124.08L75.6014 122.377L74.3969 120.719L72.1394 118.764L70.4874 117.668L68.4823 117.062L67.6316 116.716H66.6293L65.6261 116.363L64.1189 116.312L62.5178 116.363L61.4146 116.514L58.3562 116.463L57.3535 116.312L54.2452 116.514L53.1484 116.463L52.2474 116.312L51.1944 116.514L50.1411 117.062L49.6868 117.863L49.7371 123.928L49.5352 125.933L49.6361 126.885L49.5859 139.868L49.6868 140.82L49.6361 150.088L50.1913 151.04L51.742 151.545L52.6443 151.595ZM60.1595 134.451L59.1567 133.853L58.7096 133.002L58.5577 128.941L58.659 127.888V125.832L59.1567 124.88L60.2097 124.382L65.4243 124.534L66.4271 124.981L67.2279 125.537L67.884 126.186L68.3814 127.188L68.5333 128.09L68.6342 129.489L68.5333 130.845L68.18 131.746L67.7325 132.547L67.076 133.355L66.2759 133.954L65.4749 134.206L63.9242 134.4L61.3636 134.35L60.1595 134.451Z" fill="#373435"/>
<path d="M92.8363 151.595L100.006 151.494L101.058 151.04L101.607 149.987V144.931L101.058 143.928L100.006 143.474L98.8514 143.575L97.8993 143.424L95.3459 143.373L93.6875 143.575L92.6843 143.474L91.5811 143.525L90.6291 143.373L89.5326 143.474L88.4796 142.976L88.076 142.075V138.916L88.5302 137.863L89.4317 137.308L90.9322 137.264L92.5332 137.408L94.4445 137.308L96.4926 137.358L97.4953 137.264L98.6496 137.308L99.6519 136.911L100.006 135.908L100.157 131.4L99.6519 129.994L98.4976 129.344H95.5405L94.4879 129.446L92.3888 129.294L89.4824 129.395L88.4293 128.941L88.0253 127.39V125.832L88.4796 124.88L89.576 124.483L90.5353 124.534L91.4874 124.332L98.6496 124.433L99.6017 124.382L100.655 123.777L101.159 122.875L101.109 121.873L101.159 120.87L101.058 117.863L100.604 116.911L99.6017 116.514H98.5487L97.6469 116.312L93.5862 116.363L92.4897 116.463L91.4874 116.363L90.6291 116.413L89.6268 116.312L85.5229 116.413L84.5202 116.262L83.5681 116.463L82.6667 116.363L81.664 116.463L80.6617 116.413L79.6087 116.81L79.0531 117.863L79.1536 119.767L79.0024 121.822L79.1536 122.926L79.0531 127.837L79.2043 128.89L79.1034 129.842L79.0531 133.954L79.2043 134.855L79.1536 142.976L79.0531 143.928L79.2043 144.931L79.0531 148.386L79.1536 149.489L79.5577 150.845L81.0578 151.494L84.6714 151.545L85.7678 151.443L86.6696 151.494L88.7249 151.342L89.677 151.545L90.8313 151.595L91.8336 151.494L92.8363 151.595Z" fill="#373435"/>
<path d="M130.175 150.593L131.524 151.393L132.931 151.545L134.034 151.191L134.532 150.189L134.633 131.898L134.481 131.047V126.085L134.633 124.88L134.481 117.913L133.984 116.911L132.981 116.363L126.764 116.413L125.811 116.961L125.263 118.014L125.213 119.067L125.364 119.868L125.213 121.974L125.314 123.077L125.213 132.049L124.91 132.901L124.16 132.547L120.604 128.991L119.198 127.888L109.324 117.913L108.573 117.315L107.42 116.716L105.919 116.363L104.765 116.86L104.311 117.812V133.002L104.261 133.853L104.361 135.908L104.21 136.76L104.311 144.981L104.21 145.933L104.311 150.138L104.765 151.09L105.818 151.443L107.874 151.545L108.97 151.443L110.925 151.595L111.978 151.545L112.98 151.04L113.486 149.489L113.536 136.81L113.637 135.807L113.983 134.956L114.64 135.209L115.288 136.06L118.844 139.464L119.501 140.214L120.352 140.769L128.12 148.486L129.418 149.944L130.175 150.593Z" fill="#373435"/>
<path d="M138.539 150.037L139.145 150.989L140.097 151.545L141.1 151.494L143.105 151.595L144.158 151.494L146.256 151.545L147.31 150.946L147.714 149.987L147.815 149.035L147.714 147.938V139.067L148.161 138.014L149.214 137.358L155.128 137.308L156.181 137.459H157.083L158.035 138.014L158.54 138.966L158.59 150.037L159.138 150.845L160.596 151.494H163.199L164.202 151.393L166.257 151.545L167.209 150.896L167.808 150.037L167.707 145.479L167.859 143.878L167.707 143.077L167.757 117.913L167.31 116.86L166.308 116.463L160.545 116.413L159.088 116.766L158.59 117.964L158.54 119.868L158.64 120.719L158.54 122.774L158.692 123.726L158.64 127.635L158.085 128.638L157.083 129.193L156.131 129.042L154.176 129.244L153.123 129.143L152.222 129.244L149.265 129.193L148.313 128.739L147.815 127.787L147.764 126.683V125.63L147.714 124.729L147.764 120.82L147.865 119.717L147.764 117.863L147.31 116.911L146.256 116.363L145.153 116.463L140.198 116.363L139.095 116.86L138.59 117.863L138.489 118.966L138.59 122.875L138.489 123.878L138.691 125.933L138.59 127.837L138.64 129.042L138.539 130.044V145.032L138.691 145.933L138.539 150.037Z" fill="#373435"/>
<path d="M197.63 151.545L199.534 151.393L200.486 151.494L202.037 151.443L203.443 151.191L203.595 149.987L203.241 148.84L202.491 146.986L201.135 144.376L200.435 142.522L199.433 140.719L197.529 136.161L197.024 135.403L196.526 134.451L196.224 133.355L195.776 132.597L195.473 131.797L194.42 129.943L194.067 128.89L190.764 121.923L190.461 120.921L189.913 120.019L189.61 119.118L188.658 117.365L187.807 116.463L186.147 115.958L184.546 116.514L183.645 117.365L183.197 118.216L182.844 119.219L182.39 119.918L180.385 124.534L179.837 125.284L179.584 126.286L179.036 127.238L178.733 128.14L173.619 138.865L173.324 139.969L172.818 140.719L172.465 141.721L171.564 143.323L170.813 145.328L170.265 146.034L170.013 146.936L169.011 148.941L168.708 149.944L168.96 151.191L169.963 151.494L171.917 151.393L172.92 151.494L175.726 151.393L176.88 151.04L177.832 150.138L178.733 148.486L179.685 147.534L180.738 146.986L181.69 147.131L183.796 146.936L184.698 147.08L189.61 147.037L190.511 147.131L191.615 146.986L192.718 147.534L193.67 148.335L194.118 149.287L194.42 150.189L195.423 150.946L196.577 151.443L197.63 151.545ZM186.248 139.067L185.246 138.865L184.099 138.966L183.291 138.613L183.241 137.661L185.599 132.252L186.147 131.797L186.854 132.201L189.205 137.712L189.011 138.613L188.253 139.017L186.248 139.067Z" fill="#373435"/>
<path d="M42.1594 111.956L43.3568 111.552L44.4604 110.095L45.1241 108.703L45.4124 107.65L46.3717 106.049L46.6748 105.046L47.1793 103.993L47.4681 103.135L48.0233 102.226L49.9777 97.6751L50.3311 96.5639L51.2257 94.9629L55.5964 84.6489L56.0941 83.7403L56.9381 81.9299L57.1974 80.9855L58.1494 79.2253L58.4961 77.8772L58.2508 76.8238L57.3421 76.622L56.2963 76.5211L55.387 76.3763L54.4425 76.47L53.4401 76.5211L51.5361 76.326L50.432 76.9754L49.5737 77.819L44.9146 88.854L44.6187 89.907L44.1644 90.7506L43.9626 91.66L43.472 92.561L42.4697 95.3669L41.9648 96.2683L41.4167 96.1746L40.1544 93.4556L39.9597 92.5107L39.1014 90.8016L36.5914 84.2884L35.2932 81.6344L33.8868 77.819L33.0428 76.9754L31.8817 76.47L29.0327 76.3763L28.03 76.5211H26.1191L25.3254 76.8741L24.9214 77.8772L26.5224 82.1393L27.0277 82.882L27.2798 83.8416L27.6766 84.844L28.225 85.587L28.5784 86.64L33.0931 96.7733L33.389 97.776L34.6514 100.379L34.9904 101.432L35.8484 103.135L36.3968 104.036L36.6417 105.046L38.6471 109.799L39.1014 110.549L40.1041 111.407L41.2073 111.811L42.1594 111.956Z" fill="#373435"/>
<path d="M163.245 76.0048L162.04 76.4088L160.937 77.8654L160.287 79.265L159.984 80.3176L159.032 81.919L158.73 82.9213L158.232 83.9743L157.929 84.8254L157.381 85.7344L155.426 90.2929L155.073 91.3961L154.171 92.9971L149.807 103.318L149.31 104.227L148.459 106.03L148.206 106.983L147.254 108.735L146.901 110.091L147.153 111.137L148.055 111.338L149.108 111.44L150.01 111.591L150.962 111.49L151.964 111.44L153.868 111.642L154.972 110.992L155.823 110.141L160.482 99.1132L160.785 98.0602L161.239 97.2094L161.434 96.308L161.939 95.4062L162.942 92.5935L163.439 91.6917L163.995 91.7926L165.25 94.5044L165.444 95.4565L166.303 97.1592L168.806 103.672L170.111 106.326L171.51 110.141L172.361 110.992L173.515 111.49L176.371 111.591L177.374 111.44H179.278L180.079 111.093L180.482 110.091L178.881 105.828L178.376 105.078L178.124 104.126L177.728 103.124L177.172 102.366L176.826 101.32L172.311 91.1939L172.015 90.1916L170.76 87.5879L170.407 86.5349L169.556 84.8254L169.008 83.924L168.755 82.9213L166.75 78.1613L166.303 77.4111L165.3 76.56L164.196 76.1559L163.245 76.0048Z" fill="#C40008"/>
</svg>
