<svg width="221" height="84" viewBox="0 0 221 84" fill="none" xmlns="http://www.w3.org/2000/svg">
<mask id="mask0_209_1558" style="mask-type:luminance" maskUnits="userSpaceOnUse" x="134" y="15" width="85" height="49">
<path d="M134.867 15.0874H218.203V63.4374H134.867V15.0874Z" fill="white"/>
</mask>
<g mask="url(#mask0_209_1558)">
<path d="M218.019 39.7125C218.013 39.6813 218.001 39.6312 217.979 39.6188C217.547 39.4376 217.334 38.8062 216.736 38.9313C216.51 38.975 216.257 38.8625 216.022 38.8812C215.82 38.8937 215.59 38.6938 215.4 38.9375C215.389 38.9625 215.326 38.9375 215.279 38.9375C215.032 38.9063 214.779 38.8563 214.531 38.8625C214.042 38.8688 213.552 38.925 213.064 38.9375C212.223 38.9562 211.389 38.9687 210.549 38.9625C209.835 38.95 209.127 38.9 208.413 38.875C208.039 38.8625 207.659 38.9063 207.286 38.875C206.888 38.8438 206.491 38.7563 206.094 38.7C205.892 38.675 205.691 38.6562 205.501 38.6375C205.392 38.6625 205.306 38.6938 205.225 38.7C205.116 38.7 205.006 38.6813 204.891 38.675C204.741 38.6625 204.586 38.6687 204.431 38.6438C204.287 38.625 204.149 38.5625 204.005 38.55C203.631 38.5187 203.245 38.5563 202.882 38.475C202.554 38.4063 202.244 38.4563 201.928 38.4563C201.564 38.45 201.202 38.475 200.839 38.4626C200.276 38.4375 199.723 38.5062 199.153 38.3625C198.658 38.2438 198.118 38.3126 197.594 38.35C197.386 38.3687 197.208 38.2688 197.047 38.2125C196.776 38.1125 196.598 37.8125 196.403 37.5626C196.258 37.375 196.374 36.8876 195.976 37.0125C195.7 36.65 195.447 36.3125 195.188 35.975C195.182 35.9687 195.171 35.9625 195.16 35.9625C194.842 35.9126 194.728 35.6562 194.658 35.4312C194.498 35.3188 194.353 35.25 194.256 35.1375C193.904 34.7375 193.565 34.325 193.231 33.9C192.903 33.4875 192.489 33.175 192.189 32.725C192.017 32.4563 191.786 32.225 191.597 31.9563C191.355 31.5938 191.045 31.275 190.751 30.9563C190.261 30.4187 189.927 29.725 189.341 29.2875C189.283 29.2438 189.266 29.1375 189.226 29.0562C189.151 28.9 189.104 28.725 189.007 28.5938C188.552 28.0187 188.086 27.45 187.614 26.8875C187.47 26.7125 187.24 26.5812 187.159 26.3813C186.93 25.7876 186.446 25.425 186.117 24.9188C185.905 24.5876 185.686 24.2625 185.473 23.9313C185.439 23.8688 185.455 23.775 185.444 23.6813C185.375 23.6813 185.294 23.675 185.208 23.6687C185.186 23.575 185.186 23.4688 185.139 23.4C184.8 22.8938 184.454 22.3937 184.097 21.9C183.92 21.65 183.706 21.4313 183.539 21.175C183.24 20.7312 182.953 20.275 182.676 19.8188C182.423 19.4 182.198 18.9563 181.939 18.5438C181.767 18.2687 181.577 17.9813 181.347 17.7688C181.168 17.6063 180.915 17.5376 180.685 17.45C180.558 17.4 180.42 17.3938 180.287 17.3687C179.943 17.3313 179.614 17.2187 179.275 17.1688C178.895 17.1125 178.504 17.1312 178.118 17.0938C177.686 17.05 177.261 16.9812 176.834 16.9313C176.628 16.9125 176.42 16.9187 176.213 16.9C175.787 16.8563 175.361 16.8375 174.929 16.7625C174.17 16.6313 173.376 16.7188 172.604 16.6812C172.346 16.6688 172.121 16.5563 171.828 16.6313C171.505 16.7188 171.137 16.5626 170.791 16.5125C170.751 16.5063 170.711 16.4938 170.671 16.4876C170.152 16.4375 169.646 16.3875 169.128 16.3438C169.019 16.3313 168.904 16.3438 168.789 16.3563C168.547 16.375 168.236 16.5125 168.08 16.4C167.845 16.2375 167.655 16.3688 167.454 16.3438C167.033 16.3 166.608 16.3125 166.188 16.2813C165.899 16.25 165.601 16.0937 165.336 16.15C165.031 16.2188 164.754 16.0812 164.467 16.1188C164.03 16.175 163.609 16.0563 163.165 16.0812C162.55 16.125 161.917 15.9626 161.29 15.925C160.553 15.875 159.811 15.875 159.074 15.85C158.872 15.8438 158.677 15.8188 158.476 15.8188C158.211 15.8126 157.94 15.825 157.669 15.8126C157.439 15.8063 157.175 15.6938 156.973 15.7812C156.535 15.9688 156.15 15.8438 155.811 15.6063C155.558 15.425 155.321 15.3188 155.016 15.2562C154.395 15.125 153.998 15.4563 153.589 15.8562C153.41 16.0376 153.261 16.35 153.111 16.425C152.766 16.5938 152.61 16.9376 152.37 17.175C151.886 17.65 151.489 18.2313 151.057 18.7688C150.942 18.9188 150.85 19.0937 150.723 19.2312C150.522 19.4438 150.303 19.6313 150.084 19.825C149.964 19.9376 149.808 20.0188 149.71 20.1563C149.52 20.4125 149.394 20.7312 149.186 20.9625C148.772 21.4187 148.318 21.825 147.885 22.2626C147.679 22.475 147.489 22.7 147.293 22.925C147.085 23.1626 146.895 23.4188 146.678 23.6375C146.533 23.7875 146.332 23.8688 146.188 24.0188C146.09 24.1313 146.05 24.3125 145.969 24.4438C145.917 24.5313 145.831 24.5938 145.768 24.675C145.613 24.8813 145.492 25.15 145.29 25.2813C144.911 25.525 144.606 25.8437 144.323 26.2C144.214 26.3375 144.151 26.5187 144.036 26.6438C143.835 26.8688 143.61 27.0626 143.397 27.2687C143.264 27.4 143.137 27.5375 143.017 27.6813C142.81 27.9437 142.62 28.225 142.401 28.4813C142.28 28.625 142.113 28.725 141.964 28.85C142.073 29.025 142.068 29.125 141.894 29.2563C141.774 29.35 141.612 29.3876 141.521 29.5C141.227 29.8376 140.951 30.1875 140.68 30.55C140.611 30.6375 140.611 30.85 140.548 30.8687C140.134 31 140.019 31.45 139.731 31.7126C139.449 31.975 139.212 32.2875 138.959 32.5812C138.769 32.8 138.579 33.0188 138.396 33.2375C138.373 33.2687 138.326 33.3188 138.332 33.3312C138.482 33.5876 138.252 33.6375 138.148 33.7563C137.895 34.0313 137.641 34.3 137.406 34.5938C137.181 34.8875 136.991 35.2187 136.623 35.35C136.571 35.3687 136.502 35.45 136.496 35.5125C136.479 35.775 136.34 35.8937 136.122 35.9C136.145 35.975 136.186 36.0437 136.168 36.0688C135.955 36.3626 135.679 36.575 135.547 36.9688C135.414 37.3688 134.982 37.6313 135.058 38.15C135.058 38.1626 135.058 38.175 135.052 38.1875C134.873 38.5 134.879 38.7938 135.063 39.1187C135.23 39.4313 135.345 39.775 135.449 40.0187C135.628 40.0313 135.754 40.0062 135.806 40.0625C136.163 40.4562 136.548 40.7562 137.095 40.7313C137.164 40.7313 137.239 40.7562 137.307 40.7625C137.59 40.8 137.878 40.825 138.159 40.8688C138.43 40.9062 138.724 40.9 138.954 41.0313C139.16 41.15 139.287 41.1375 139.454 41C139.512 40.9563 139.61 40.9376 139.679 40.95C139.834 40.975 139.984 41.0438 140.139 41.0687C140.473 41.125 140.801 40.9125 141.141 41.075C141.411 41.2062 141.763 40.9688 142.021 41.2563C142.039 41.275 142.148 41.2125 142.206 41.1813C142.251 41.1563 142.286 41.0876 142.332 41.0876C142.62 41.0813 142.907 41.0876 143.196 41.0876C143.322 41.0876 143.449 41.0562 143.575 41.0687C143.828 41.0876 144.088 41.1563 144.341 41.1437C144.968 41.1 145.589 41.1 146.194 41.4188C146.188 41.3188 146.183 41.25 146.176 41.1375C146.436 41.1875 146.666 41.2625 146.895 41.2688C147.201 41.2688 147.512 41.1875 147.817 41.1938C148.271 41.2062 148.732 41.2688 149.186 41.3063C149.267 41.3126 149.347 41.3438 149.428 41.3375C149.756 41.325 150.09 41.2688 150.413 41.3C150.804 41.3313 151.213 41.2688 151.586 41.4813C151.622 41.5062 151.684 41.475 151.736 41.4626C151.938 41.425 152.133 41.3687 152.329 41.3562C152.697 41.3313 153.066 41.3438 153.434 41.3313C153.59 41.3313 153.751 41.325 153.906 41.2937C154.142 41.2376 154.377 41.15 154.544 41.1C154.775 41.4312 154.907 41.7188 155.114 41.9063C155.633 42.3938 156.024 42.975 156.375 43.6062C156.507 43.8375 156.571 44.1375 156.749 44.3C157.175 44.6938 157.445 45.1875 157.721 45.7187C157.779 45.6875 157.843 45.65 157.906 45.6188C158.055 46.1562 158.39 46.55 158.723 46.9376C158.93 47.1813 159.068 47.4875 159.269 47.7375C159.678 48.2313 160.225 48.6188 160.311 49.3625C160.311 49.4 160.438 49.4438 160.507 49.4438C160.564 49.4375 160.616 49.3688 160.668 49.3376C160.789 49.6376 160.905 49.9062 161.014 50.175C161.1 50.1938 161.232 50.175 161.273 50.2376C161.445 50.4813 161.658 50.7375 161.721 51.0188C161.784 51.2938 161.94 51.4313 162.101 51.5938C162.268 51.7625 162.487 51.9 162.596 52.1126C162.734 52.3812 162.964 52.5626 163.079 52.8813C163.189 53.175 163.551 53.3687 163.741 53.6938C163.926 54.0125 164.248 54.2375 164.496 54.525C164.622 54.675 164.714 54.8687 164.835 55.0376C164.939 55.1876 165.048 55.3313 165.169 55.4687C165.226 55.5312 165.341 55.5375 165.388 55.6062C165.572 55.8813 165.693 56.2438 165.928 56.4499C166.188 56.6749 166.43 56.8999 166.619 57.1999C166.735 57.3875 166.895 57.5375 167.051 57.6937C167.304 57.9375 167.408 58.3187 167.701 58.5312C168.064 58.7876 168.283 59.2062 168.656 59.475C169.14 59.8249 169.531 60.325 169.969 60.7563C170.159 60.9375 170.366 61.0999 170.567 61.275C170.723 61.4125 170.866 61.5626 171.033 61.675C171.194 61.7813 171.379 61.85 171.551 61.9376C171.828 62.0813 172.086 62.25 172.369 62.3625C172.57 62.4375 172.8 62.4312 173.019 62.475C173.542 62.575 174.072 62.6938 174.601 62.7875C174.791 62.8187 174.993 62.775 175.182 62.8C175.419 62.8313 175.643 62.9375 175.88 62.9437C176.167 62.9562 176.454 62.8812 176.743 62.875C176.92 62.8688 177.094 62.925 177.266 62.9562C177.329 62.9625 177.41 62.9938 177.444 62.9625C177.652 62.7688 177.853 62.95 178.049 62.9749C178.147 62.9875 178.239 63.0187 178.33 63.0187C178.872 63.0125 179.413 62.9938 179.954 62.9938C180.04 62.9938 180.121 63.0625 180.224 63.1125C180.402 62.9687 182.279 63.0188 182.469 63.175C182.544 63.1187 182.619 63.0188 182.676 63.025C182.901 63.0688 183.12 63.1625 183.367 63.0813C183.534 63.025 183.724 63.0312 183.896 63.0437C184.132 63.0625 184.363 63.1187 184.598 63.1563C184.772 63.1812 184.944 63.1 185.093 63.0875C185.565 63.0563 186.049 63.1438 186.532 63.1875C186.716 63.2063 186.894 63.2375 187.079 63.2687C187.084 63.2875 187.09 63.3063 187.096 63.325C187.183 63.2813 187.274 63.1875 187.361 63.1875C188.046 63.2063 188.731 63.2313 189.409 63.2625C189.576 63.2749 189.744 63.3125 189.911 63.3187C190.1 63.3187 190.296 63.2876 190.485 63.2813C190.652 63.275 190.819 63.2876 190.98 63.2876C191.188 63.2876 191.389 63.275 191.597 63.2876C191.89 63.3 192.184 63.3813 192.471 63.3499C192.995 63.2875 193.524 63.0312 194.026 63.1C194.405 63.15 194.722 62.9938 195.067 63.0063C195.262 63.0125 195.51 62.9438 195.637 62.8062C195.908 62.5187 196.206 62.6625 196.489 62.6437C196.534 62.6437 196.592 62.7 196.633 62.6813C196.92 62.5438 197.208 62.4 197.49 62.25C197.675 62.1563 197.864 62.0813 198.019 61.95C198.227 61.7813 198.399 61.5626 198.601 61.375C198.975 61.025 199.418 60.7563 199.666 60.2625C199.711 60.1687 199.82 60.1187 199.896 60.0437C200.011 59.9375 200.12 59.8187 200.224 59.7063C200.27 59.6125 200.373 59.5875 200.466 59.5376C200.839 59.3438 200.897 58.7625 201.363 58.6875C201.496 58.2875 201.905 58.2187 202.129 57.9125C202.405 57.55 202.768 57.275 203.124 56.9938C203.585 56.625 203.987 56.1626 204.425 55.75C204.511 55.6625 204.615 55.5626 204.73 55.525C204.908 55.4562 205.202 55.5563 205.069 55.1562C205.058 55.1188 205.144 55.0313 205.191 54.9875C205.473 54.7438 205.749 54.4937 206.036 54.2625C206.14 54.175 206.284 54.1313 206.382 54.0375C206.883 53.525 207.383 52.9937 207.878 52.475C208.108 52.2312 208.332 51.9875 208.569 51.7563C208.793 51.5313 209.03 51.3125 209.265 51.0938C209.346 51.0375 209.369 50.8376 209.426 50.8187C209.823 50.7188 209.921 50.2313 210.249 50.0938C210.641 49.925 210.664 49.3 211.147 49.2938C211.164 49.2938 211.175 49.2375 211.199 49.2125C211.285 49.0875 211.349 48.9312 211.458 48.8438C211.665 48.6626 211.918 48.55 212.108 48.3626C212.425 48.0437 212.695 47.6813 213.035 47.375C213.536 46.9313 213.99 46.4188 214.451 45.925C214.784 45.5625 215.1 45.175 215.423 44.8C215.717 44.4563 216.01 44.1125 216.309 43.7687C216.419 43.6438 216.517 43.4687 216.649 43.4126C216.851 43.3376 216.919 43.2 216.966 43C216.989 42.9125 217.052 42.8126 217.121 42.7563C217.622 42.3688 217.909 41.8187 218.082 41.2125C218.214 40.7188 218.088 40.2063 218.019 39.7125ZM214.169 41.9188C214.036 42.1 213.794 42.1563 213.737 42.425C213.719 42.4937 213.552 42.525 213.501 42.6375C213.363 42.7563 213.213 42.8625 213.08 42.9875C212.793 43.2626 212.517 43.5437 212.235 43.825C212.079 43.9812 211.924 44.1437 211.769 44.2937C211.584 44.475 211.406 44.6562 211.216 44.8376C210.87 45.1688 210.526 45.5063 210.163 45.825C209.939 46.0313 209.593 46.0875 209.507 46.4562C209.11 46.4813 208.978 46.8938 208.712 47.1125C208.609 47.2 208.529 47.3188 208.431 47.4125C208.172 47.6687 207.855 47.875 207.665 48.1812C207.406 48.6063 207.067 48.8813 206.692 49.1438C206.635 49.1876 206.589 49.275 206.549 49.3438C206.439 49.55 206.387 49.8063 206.077 49.7876C206.013 49.7813 205.921 49.975 205.869 50.0876C205.674 50.5 205.352 50.7563 205.012 51.0063C204.828 51.1376 204.667 51.3188 204.477 51.4937C204.649 51.7187 204.385 51.8 204.253 51.9312C204.189 51.9938 204.097 52.0376 204.011 52.075C203.734 52.1813 203.723 52.525 203.527 52.7063C203.159 53.0438 202.814 53.4 202.434 53.725C202.244 53.8875 202.145 54.2 201.835 54.175C201.726 54.5876 201.334 54.7062 201.099 54.9875C200.787 55.3563 200.396 55.6376 200.057 55.9812C199.758 56.2812 199.492 56.6188 199.199 56.925C198.981 57.15 198.744 57.3437 198.52 57.5625C198.387 57.6875 198.256 57.825 198.123 57.9563C198.043 58.025 197.956 58.0812 197.864 58.15C197.893 58.1625 197.944 58.1875 198.002 58.2187C197.749 58.1813 197.662 58.6125 197.375 58.4625C197.363 58.4625 197.311 58.5063 197.311 58.5312C197.3 58.8626 197.006 58.95 196.862 59.1626C196.828 59.2125 196.782 59.3063 196.742 59.3063C196.443 59.2812 196.437 59.5375 196.328 59.7C196.229 59.8125 196.126 59.9313 196.028 60.0499C195.994 60.0875 195.96 60.1249 195.924 60.1625C195.66 60.3875 195.343 60.5313 195.223 60.9499C195.194 61.075 194.831 61.1375 194.624 61.1375C194.331 61.1375 194.037 61.0187 193.743 61.0125C193.409 61.0062 193.076 61.0937 192.742 61.0937C192.471 61.0937 192.207 60.9937 191.936 60.9875C191.746 60.9813 191.504 61.1687 191.378 61.0875C190.998 60.8562 190.613 61.0937 190.227 60.9937C189.904 60.9063 189.49 60.8375 189.214 60.9875C188.88 61.1687 188.673 60.8938 188.414 60.9187C187.931 60.9688 187.453 60.825 186.969 60.9187C186.641 60.975 186.302 61.0187 185.997 60.7875C185.951 60.7563 185.841 60.825 185.767 60.8313C185.692 60.8437 185.617 60.825 185.548 60.8126C185.531 60.8126 185.502 60.775 185.502 60.775C185.265 61.05 184.973 60.8562 184.736 60.825C184.368 60.7812 183.936 60.9813 183.649 60.6063C183.591 60.6688 183.545 60.7625 183.505 60.7625C183.114 60.7313 182.722 60.675 182.331 60.6375C182.25 60.6312 182.164 60.7 182.083 60.7C181.871 60.6938 181.669 60.6437 181.439 60.6688C181.116 60.7062 180.771 60.5063 180.431 60.4625C180.242 60.4375 180.04 60.5562 179.844 60.55C179.523 60.5313 179.206 60.4438 178.883 60.4062C178.728 60.3938 178.572 60.425 178.418 60.4062C178.291 60.4 178.164 60.3499 177.991 60.3125C177.974 60.325 177.853 60.4313 177.824 60.4C177.571 60.2063 177.29 60.3499 177.037 60.3C176.587 60.2188 176.12 60.0312 175.689 60.0937C175.367 60.1375 175.114 60.0312 174.827 60.0125C174.572 59.9938 174.325 60.0188 174.077 59.9876C173.968 59.975 173.871 59.8875 173.761 59.8313C173.721 59.8062 173.681 59.7626 173.646 59.7688C173.128 59.8125 172.737 59.5062 172.328 59.2313C171.879 58.9313 171.517 58.55 171.269 58.0376C171.257 58.0187 171.246 57.9875 171.229 57.9875C170.647 57.8875 170.498 57.2375 170.078 56.925C169.808 56.725 169.635 56.3625 169.404 56.0876C169.261 55.925 169.06 55.8125 168.932 55.6376C168.771 55.4313 168.679 55.175 168.53 54.9563C168.455 54.85 168.305 54.8063 168.225 54.7062C168.064 54.5 167.931 54.2813 167.782 54.0688C167.724 53.9938 167.655 53.925 167.598 53.85C167.511 53.725 167.431 53.5937 167.316 53.4125C167.309 53.4125 167.23 53.4375 167.131 53.4688C166.751 52.9313 166.366 52.3875 165.98 51.8438C165.802 51.7812 165.669 51.6688 165.732 51.3938C165.232 51.2687 165.036 50.7626 164.72 50.4312C164.622 50.3063 164.518 50.1875 164.432 50.0562C164.358 49.9376 164.306 49.8063 164.236 49.675C164.225 49.65 164.225 49.6062 164.202 49.5875C164.012 49.4313 163.816 49.2813 163.621 49.125C163.603 49.1063 163.569 49.0812 163.563 49.0563C163.368 48.4187 162.844 48.0813 162.435 47.6375C162.331 47.525 162.326 47.3188 162.245 47.1688C162.125 46.9313 161.951 46.7813 161.692 46.7126C161.56 46.675 161.411 46.4625 161.376 46.3062C161.307 45.9938 161.031 45.925 160.887 45.7187C160.858 45.6813 160.783 45.6563 160.783 45.6188C160.778 45.2313 160.432 45.1625 160.254 44.9313C160.185 44.8376 160.121 44.7312 160.053 44.6313C160.017 44.5812 159.983 44.5313 159.943 44.4875C159.845 44.3813 159.719 44.2937 159.644 44.175C159.379 43.7687 159.143 43.3376 158.867 42.9437C158.7 42.7062 158.469 42.525 158.286 42.3C157.888 41.825 157.491 41.3438 157.117 40.8437C156.921 40.5938 156.766 40.3062 156.576 40.0125C156.6 40 156.616 39.9875 156.634 39.9813C155.862 39.4688 155.138 38.8563 154.499 38.2625C154.187 38.4 153.773 38.3188 153.405 38.3188C153.146 38.3188 152.893 38.2937 152.634 38.2563C152.542 38.2438 152.461 38.1563 152.363 38.0938C152.277 38.3562 152.11 38.3 151.914 38.1813C151.747 38.075 151.557 37.9438 151.431 38.3063C151.241 37.9875 151.034 38.1437 150.815 38.175C150.603 38.2062 150.372 38.1312 150.147 38.125C149.543 38.1125 148.939 38.1188 148.329 38.1C147.788 38.0813 147.241 37.9812 146.706 38.025C146.436 38.0438 146.194 37.8312 145.883 38.0313C145.675 38.1626 145.313 37.9875 145.02 37.9563C144.709 37.9313 144.375 37.8312 144.082 37.9062C143.632 38.025 143.304 37.8063 142.913 37.5813C142.954 37.7562 142.983 37.8875 142.999 37.9688C142.614 37.9313 142.24 37.8813 141.865 37.8626C141.636 37.85 141.4 37.9 141.169 37.875C141.026 37.8563 140.893 37.75 140.721 37.6688C140.444 37.9688 139.817 37.9688 139.35 37.5563C139.402 37.6812 139.431 37.7375 139.472 37.825C139.259 37.7938 139.069 37.7687 138.805 37.7313C138.868 37.6376 138.948 37.525 139.022 37.4188C139.034 37.425 139.04 37.4313 139.052 37.4375C139.219 37.2188 139.386 36.9938 139.553 36.7688C139.788 36.4563 140.025 36.1313 140.283 35.825C140.387 35.6938 140.542 35.6126 140.674 35.5062C140.692 35.4938 140.732 35.5 140.732 35.4938C140.789 35.0876 141.244 34.9875 141.325 34.5688C141.354 34.4 141.612 34.2875 141.751 34.1375C141.998 33.8625 142.229 33.5687 142.475 33.2876C142.62 33.125 142.769 32.975 142.896 32.8125C143.017 32.6438 143.132 32.4688 143.253 32.3063C143.569 31.8875 143.874 31.475 144.208 31.075C144.387 30.8562 144.611 30.6813 144.795 30.475C144.899 30.35 144.956 30.1812 145.066 30.0563C145.152 29.95 145.273 29.8625 145.383 29.7875C145.699 29.5688 145.785 29.1626 146.021 28.8813C146.343 28.4938 146.683 28.1126 147.034 27.75C147.098 27.6813 147.224 27.6813 147.322 27.65C147.241 27.3626 148.421 25.9376 148.888 25.7438C148.8 25.625 148.933 25.2375 149.105 25.15C149.451 24.975 149.665 24.6688 149.877 24.3375C150.05 24.0626 150.337 23.8688 150.574 23.65C150.619 23.6063 150.705 23.5937 150.723 23.5438C150.872 23.0938 151.218 22.8563 151.575 22.6376C151.627 22.6062 151.644 22.5063 151.679 22.4438C151.765 22.2938 151.839 22.1313 151.943 22C152.254 21.6125 152.588 21.2375 152.904 20.85C153.163 20.525 153.423 20.2 153.658 19.85C153.796 19.6438 153.889 19.3937 154.004 19.1625C154.176 19.2375 154.377 19.0937 154.418 18.8562C154.447 18.6938 154.959 18.1125 155.057 18.0188C155.454 17.6562 155.897 17.85 156.3 17.9C156.979 17.9876 157.658 18.0312 158.338 18.075C158.585 18.0875 158.826 18.1 159.074 18.0813C159.495 18.05 159.891 18.2313 160.345 18.1313C160.749 18.0437 161.197 18.2188 161.629 18.2687C161.883 18.2938 162.136 18.3 162.383 18.325C163.091 18.3813 163.799 18.45 164.507 18.5063C164.714 18.525 164.932 18.5 165.146 18.5188C165.255 18.525 165.359 18.6063 165.468 18.6125C165.63 18.625 165.79 18.5813 165.951 18.5876C166.274 18.6 166.647 18.525 166.912 18.6813C167.241 18.8687 167.535 18.6188 167.856 18.775C168.161 18.9125 168.547 18.8188 168.893 18.8562C169.209 18.8938 169.519 18.975 169.836 19.025C169.883 19.0376 169.94 18.9626 169.992 18.95C170.124 18.9188 170.274 18.85 170.383 18.8876C170.711 19 171.01 19.15 171.373 18.9688C171.505 18.9 171.718 19.0438 171.891 19.0563C172.719 19.0812 173.548 19.0937 174.371 19.125C174.797 19.1438 175.263 19.3313 175.638 19.2C176.075 19.0438 176.49 19.5063 176.892 19.15C176.938 19.1126 177.087 19.25 177.191 19.25C177.813 19.2688 178.44 19.2563 179.067 19.2938C179.487 19.3125 179.907 19.3563 180.316 19.4625C180.466 19.5063 180.576 19.7438 180.702 19.8938C180.748 19.9563 180.788 20.025 180.829 20.0938C180.973 20.3438 181.111 20.6 181.254 20.85C181.306 20.9438 181.369 21.025 181.439 21.1062C181.468 21.1438 181.543 21.1625 181.548 21.2063C181.645 21.6063 181.9 21.9 182.124 22.225C182.4 22.6125 182.763 22.9937 182.872 23.4375C183.021 24.05 183.401 24.4563 183.689 24.9437C183.805 25.1375 183.805 25.4876 184.126 25.5063C183.913 25.8125 184.27 25.8188 184.35 25.9625C184.655 26.525 184.978 27.0813 185.33 27.6125C185.513 27.8938 185.83 28.0875 185.968 28.3937C186.117 28.7188 186.422 28.8626 186.56 29.1626C186.849 29.7688 187.274 30.2625 187.689 30.7688C187.931 31.0688 188.109 31.4313 188.322 31.7625C188.391 31.8626 188.483 31.9376 188.546 32.0375C188.656 32.2062 188.754 32.3813 188.863 32.5563C188.989 32.75 189.116 32.95 189.26 33.1376C189.617 33.5938 189.985 34.05 190.347 34.5C190.514 34.7063 190.699 34.9 190.86 35.1125C190.964 35.25 191.027 35.4188 191.142 35.6313C191.314 35.6687 191.447 35.8125 191.441 36.1C191.441 36.175 191.493 36.2687 191.545 36.3188C191.873 36.6188 192.224 36.9 192.535 37.2188C192.909 37.6 193.255 38.0126 193.605 38.425C193.974 38.8625 194.319 39.325 194.699 39.75C194.883 39.9563 195.119 40.1063 195.372 40.2125C195.407 40.3125 195.418 40.4438 195.481 40.5125C195.603 40.6563 195.741 40.7813 195.896 40.8813C196.068 40.9937 196.252 41.0876 196.46 40.9688C196.494 40.9438 196.557 40.9563 196.598 40.9812C197.156 41.2313 197.703 41.425 198.324 41.2812C198.566 41.2313 198.843 41.2187 199.061 41.4312C199.096 41.4626 199.187 41.4626 199.228 41.4312C199.591 41.1875 199.987 41.2812 200.367 41.3C200.678 41.3063 201.012 41.5376 201.288 41.4563C201.553 41.3813 201.761 41.4938 201.996 41.4875C202.543 41.4688 203.09 41.5125 203.636 41.5313C203.907 41.5376 204.172 41.5313 204.436 41.5625C204.649 41.5812 204.863 41.6625 205.076 41.6813C205.214 41.6938 205.352 41.6438 205.49 41.6313C205.645 41.6188 205.806 41.6063 205.962 41.6188C206.203 41.6375 206.45 41.6876 206.692 41.7125C207.032 41.7437 207.378 41.7626 207.717 41.7813C207.809 41.7875 207.907 41.7626 208.005 41.7688C208.212 41.7813 208.425 41.7875 208.632 41.8187C208.793 41.8438 208.972 41.9938 209.046 41.7125C209.34 41.7626 209.622 41.8187 209.91 41.8625C209.968 41.8688 210.042 41.8812 210.088 41.8438C210.411 41.625 210.739 41.7375 211.066 41.8187C211.13 41.8376 211.211 41.8875 211.245 41.8563C211.625 41.5688 212.062 41.825 212.471 41.7063C212.707 41.6375 212.989 41.7 213.242 41.75C213.426 41.7938 213.536 41.6375 213.708 41.625C213.921 41.6126 214.094 41.775 214.313 41.7312C214.272 41.8 214.221 41.8563 214.169 41.9188Z" fill="black"/>
</g>
<path d="M44.9539 39.9625L46.4675 39.8313L47.2272 39.9188L48.4703 39.875L49.5925 39.6625L49.7076 38.6126L49.4256 37.6188L48.8271 36.0063L47.7451 33.7501L47.1868 32.15L46.3868 30.575L44.8674 26.6313L44.4647 25.9751L44.0733 25.1501L43.8315 24.1938L43.469 23.5501L43.233 22.8501L42.3869 21.2501L42.1107 20.3376L39.4691 14.2939L39.2332 13.4313L38.7958 12.6501L38.5483 11.8626L37.7886 10.3501L37.1152 9.56259L35.7973 9.13135L34.5139 9.60634L33.7945 10.3501L33.4319 11.0813L33.1499 11.9501L32.7874 12.5625L31.1989 16.5501L30.7557 17.2063L30.5543 18.0751L30.1112 18.9063L29.8694 19.6751L25.8006 28.9751L25.553 29.9313L25.1559 30.575L24.8682 31.4501L24.1603 32.8376L23.5502 34.5751L23.1129 35.1876L22.9172 35.9625L22.1172 37.7L21.8755 38.5751L22.0769 39.6625L22.8768 39.9188L24.4308 39.8313L25.2307 39.9188L27.4753 39.8313L28.3961 39.5251L29.1558 38.75L29.8694 37.3125L30.6291 36.4938L31.4694 36.0063L32.2291 36.1439L33.9096 35.9625L34.6347 36.1001L38.5483 36.0626L39.2734 36.1439L40.1482 36.0063L41.0288 36.4938L41.7885 37.1813L42.151 38.0126L42.3869 38.7938L43.187 39.4439L44.1135 39.875L44.9539 39.9625ZM35.8721 29.1438L35.0722 28.9751L34.157 29.0625L33.5125 28.7563L33.4722 27.9375L35.3542 23.2376L35.7973 22.8501L36.3498 23.2001L38.2374 27.9813L38.0706 28.7563L37.472 29.1063L35.8721 29.1438ZM51.4226 38.3189L51.7046 39.4439L52.4701 39.875L53.2701 39.9625L54.9506 39.8313L56.4988 39.9188L58.0239 39.8313L58.7836 39.9625L59.6641 39.875L67.5833 39.9188L68.3429 39.4813L68.7861 38.1375L68.7458 34.6188L68.3833 33.3251L67.6581 32.7938L66.8236 32.8875L66.0581 33.0563L65.2179 32.9313L63.5776 32.975L62.7892 32.7938L62.064 32.9313L60.5044 32.8376L59.6641 32.9313L58.8641 32.5813L58.5418 31.7126L58.5821 16.9875L58.5016 15.9439L58.5821 14.2063L58.4613 11.7376L58.5016 10.9126L58.1045 9.95634L57.3044 9.43759H55.7506L54.9506 9.60634L53.3449 9.43759L52.5852 9.56259L51.745 9.9126L51.3824 10.8688V16.9439L51.3076 17.7689L51.3824 18.6375L51.2673 20.2501L51.3076 21.2064L51.3824 22.0314L51.4226 38.3189ZM81.8159 40.0063L87.5366 39.9188L88.3768 39.5251L88.8142 38.6126V34.2375L88.3768 33.3689L87.5366 32.975L86.6214 33.0563L85.856 32.9313L83.8187 32.8875L82.5008 33.0563L81.7007 32.975L80.8203 33.0188L80.0606 32.8875L79.18 32.975L78.3398 32.5376L78.0174 31.7563V29.0189L78.38 28.1064L79.0995 27.6313L80.3022 27.5876L81.58 27.7125L83.0935 27.6313L84.7337 27.6751L85.5338 27.5876L86.4603 27.6313L87.2546 27.2814L87.5366 26.4126L87.6516 22.5063L87.2546 21.2876L86.3337 20.7251H83.9798L83.1453 20.8125L81.4648 20.6876L79.1397 20.7689L78.2994 20.3751L77.9771 19.0314V17.6876L78.3398 16.8564L79.2202 16.5063L79.9799 16.5501L80.7396 16.3813L86.4603 16.4625L87.2142 16.4251L88.0545 15.9063L88.4516 15.1189L88.417 14.2501L88.4516 13.3813L88.3768 10.7813L88.0143 9.95634L87.2142 9.60634H86.374L85.6604 9.43759L82.4202 9.47509L81.5396 9.56259L80.7396 9.47509L80.0606 9.51884L79.2548 9.43759L75.9743 9.51884L75.1744 9.39384L74.4262 9.56259L73.7011 9.47509L72.9011 9.56259L72.1011 9.51884L71.2608 9.86884L70.8234 10.7813L70.8983 12.4251L70.7831 14.2063L70.8983 15.1626L70.8234 19.4251L70.9386 20.3376L70.8579 21.1626L70.8234 24.7125L70.9386 25.5001L70.8983 32.5376L70.8234 33.3689L70.9386 34.2375L70.8234 37.2251L70.8983 38.1813L71.2206 39.3563L72.4234 39.9188L75.301 39.9625L76.1815 39.875L76.9067 39.9188L78.547 39.7938L79.295 39.9625L80.2217 40.0063L81.0159 39.9188L81.8159 40.0063Z" stroke="black" stroke-width="1.5834"/>
<path d="M23.8645 74.619L25.8271 74.5315L26.5465 74.5752L27.4674 74.4877L28.3019 74.1378L28.6644 73.2252L28.6241 72.3627L28.6644 71.4065L28.5839 69.8003L28.6644 68.9753L28.6241 67.9752L28.9868 67.194L29.9018 66.7128L30.7824 66.6252L31.6226 66.8003L35.7433 66.4502L39.5417 64.8002L40.1403 64.2815L40.7043 63.5877L41.2223 63.0252L41.7402 62.369L42.5805 60.9815L43.2596 59.2878L43.3805 58.3315L43.6222 57.6378L43.7028 54.0752L43.5416 53.3377L43.4208 52.3814L42.9431 50.7752L42.1834 49.3002L41.2223 47.8627L39.4209 46.169L38.103 45.219L36.503 44.694L35.824 44.394H35.0239L34.2239 44.0877L33.0211 44.0439L31.7434 44.0877L30.8629 44.219L28.4227 44.1752L27.6228 44.0439L25.1422 44.219L24.2674 44.1752L23.5481 44.0439L22.7078 44.219L21.8675 44.694L21.5049 45.3877L21.5453 50.6439L21.384 52.3814L21.4647 53.2064L21.4244 64.4564L21.5049 65.2814L21.4647 73.3128L21.9078 74.1378L23.1452 74.5752L23.8645 74.619ZM29.8615 59.7627L29.0616 59.244L28.7047 58.5065L28.5839 54.9877L28.6644 54.0752V52.2939L29.0616 51.4689L29.9018 51.0378L34.0628 51.1689L34.8628 51.5564L35.5016 52.0377L36.0253 52.6002L36.4224 53.469L36.5433 54.2502L36.6239 55.4628L36.5433 56.6377L36.2613 57.419L35.9045 58.1127L35.3807 58.8127L34.7419 59.3315L34.1031 59.5502L32.8658 59.7189L30.8226 59.6753L29.8615 59.7627Z" fill="black"/>
<path d="M55.936 74.6188L61.6567 74.5314L62.4969 74.1375L62.9343 73.225V68.8438L62.4969 67.975L61.6567 67.5813L60.7358 67.6688L59.9761 67.5375L57.9388 67.4938L56.6151 67.6688L55.8151 67.5813L54.9345 67.625L54.1748 67.4938L53.3001 67.5813L52.4598 67.15L52.1375 66.3688V63.6313L52.5001 62.7188L53.2194 62.2376L54.4166 62.2L55.6942 62.3251L57.2193 62.2376L58.8538 62.2813L59.6539 62.2L60.5746 62.2376L61.3747 61.8938L61.6567 61.025L61.7774 57.1188L61.3747 55.9L60.4538 55.3376H58.0941L57.2539 55.4251L55.5792 55.2938L53.2598 55.3813L52.4195 54.9876L52.0972 53.6438V52.2938L52.4598 51.4688L53.3346 51.125L54.1 51.1688L54.8597 50.9938L60.5746 51.0813L61.3343 51.0375L62.1746 50.5125L62.5775 49.7313L62.5371 48.8625L62.5775 47.9938L62.4969 45.3876L62.1344 44.5626L61.3343 44.2188H60.4941L59.7746 44.0438L56.5344 44.0876L55.6597 44.1751L54.8597 44.0876L54.1748 44.1313L53.3749 44.0438L50.1001 44.1313L49.3002 44L48.5405 44.1751L47.8211 44.0876L47.0212 44.1751L46.2211 44.1313L45.3809 44.4751L44.9378 45.3876L45.0183 47.0376L44.8975 48.8188L45.0183 49.775L44.9378 54.0313L45.0586 54.9438L44.978 55.7688L44.9378 59.3313L45.0586 60.1125L45.0183 67.15L44.9378 67.975L45.0586 68.8438L44.9378 71.8376L45.0183 72.7938L45.3406 73.9688L46.5377 74.5314L49.421 74.575L50.2958 74.4876L51.0153 74.5314L52.6554 74.4001L53.4151 74.575L54.336 74.6188L55.136 74.5314L55.936 74.6188Z" fill="black"/>
<path d="M85.7305 73.75L86.8066 74.4437L87.929 74.575L88.8094 74.2686L89.2066 73.3999L89.2871 57.55L89.1662 56.8124V52.5124L89.2871 51.4686L89.1662 45.4312L88.7692 44.5624L87.9692 44.0874L83.0082 44.1312L82.2485 44.6062L81.8111 45.5186L81.7708 46.4311L81.8917 47.125L81.7708 48.9499L81.8514 49.9062L81.7708 57.6811L81.5291 58.4186L80.9306 58.1124L78.0933 55.0312L76.971 54.0749L69.0922 45.4312L68.4936 44.9124L67.5728 44.3936L66.3756 44.0874L65.4548 44.5187L65.0923 45.3437V58.5061L65.0519 59.2436L65.1325 61.0249L65.0117 61.7624L65.0923 68.8874L65.0117 69.7124L65.0923 73.3561L65.4548 74.1811L66.2951 74.4874L67.9353 74.575L68.8102 74.4874L70.3698 74.6186L71.21 74.575L72.01 74.1374L72.4129 72.7937L72.4531 61.8061L72.5338 60.9374L72.81 60.1999L73.3337 60.4187L73.8517 61.1562L76.689 64.1062L77.2127 64.7562L77.8918 65.2374L84.0902 71.9249L85.1261 73.1874L85.7305 73.75Z" fill="black"/>
<path d="M92.4043 73.2686L92.8878 74.0936L93.6475 74.575L94.4474 74.5312L96.0473 74.6186L96.8877 74.5312L98.5624 74.575L99.4026 74.0562L99.725 73.225L99.8055 72.4L99.725 71.4499V63.7624L100.082 62.8499L100.922 62.2812L105.641 62.2374L106.481 62.3687H107.201L107.961 62.8499L108.364 63.6749L108.404 73.2686L108.841 73.9686L110.004 74.5312H112.081L112.881 74.4437L114.521 74.575L115.281 74.0124L115.759 73.2686L115.678 69.3186L115.8 67.9312L115.678 67.2374L115.719 45.4312L115.362 44.5187L114.562 44.1749L109.963 44.1312L108.801 44.4374L108.404 45.475L108.364 47.125L108.444 47.8624L108.364 49.6436L108.484 50.4686L108.444 53.8561L108.001 54.7249L107.201 55.2061L106.441 55.075L104.882 55.2499L104.041 55.1624L103.322 55.2499L100.962 55.2061L100.203 54.8124L99.8055 53.9874L99.7652 53.0311V52.1186L99.725 51.3374L99.7652 47.95L99.8457 46.9937L99.7652 45.3874L99.4026 44.5624L98.5624 44.0874L97.6818 44.1749L93.728 44.0874L92.8475 44.5187L92.4446 45.3874L92.364 46.3436L92.4446 49.7311L92.364 50.5999L92.5251 52.3812L92.4446 54.0312L92.4849 55.075L92.4043 55.9436V68.9311L92.5251 69.7124L92.4043 73.2686Z" fill="black"/>
<path d="M139.555 74.5753L141.074 74.444L141.835 74.5316L143.072 74.4878L144.194 74.269L144.315 73.2253L144.034 72.2316L143.435 70.6252L142.353 68.3628L141.795 66.7565L140.995 65.194L139.475 61.244L139.072 60.5878L138.675 59.7628L138.433 58.8128L138.076 58.1565L137.834 57.4628L136.995 55.8566L136.713 54.944L134.076 48.9065L133.834 48.0378L133.398 47.2565L133.156 46.4752L132.396 44.9565L131.717 44.1753L130.393 43.7378L129.116 44.219L128.397 44.9565L128.04 45.694L127.757 46.5628L127.394 47.1691L125.794 51.169L125.358 51.8191L125.156 52.6878L124.718 53.5128L124.477 54.2941L120.396 63.5878L120.16 64.544L119.758 65.194L119.476 66.0628L118.757 67.4503L118.158 69.1878L117.72 69.8002L117.519 70.5816L116.719 72.319L116.477 73.1878L116.678 74.269L117.478 74.5316L119.038 74.444L119.838 74.5316L122.077 74.444L122.998 74.1378L123.758 73.3566L124.477 71.9253L125.236 71.1003L126.077 70.6252L126.836 70.7503L128.517 70.5816L129.236 70.7066L133.156 70.669L133.875 70.7503L134.756 70.6252L135.637 71.1003L136.396 71.794L136.753 72.619L136.995 73.4002L137.795 74.0565L138.715 74.4878L139.555 74.5753ZM130.474 63.7628L129.674 63.5878L128.759 63.6753L128.114 63.3691L128.074 62.5441L129.956 57.8565L130.393 57.4628L130.957 57.8128L132.833 62.5878L132.679 63.3691L132.074 63.719L130.474 63.7628Z" fill="black"/>
<path d="M15.4988 40.2686L16.4542 39.9185L17.3348 38.656L17.8642 37.4498L18.0944 36.5373L18.8599 35.1497L19.1015 34.281L19.5044 33.3686L19.7347 32.6248L20.1778 31.8373L21.7375 27.8936L22.0195 26.9311L22.7331 25.5435L26.2207 16.606L26.6179 15.8186L27.2913 14.2498L27.4984 13.4311L28.2581 11.9061L28.5344 10.7373L28.3387 9.82481L27.6136 9.64981L26.779 9.56231L26.0539 9.43731L25.2999 9.51856L24.5 9.56231L22.9806 9.39355L22.1001 9.95605L21.4152 10.6873L17.6973 20.2498L17.4614 21.1623L17.0987 21.8936L16.9376 22.681L16.5462 23.4623L15.7463 25.8935L15.3434 26.6747L14.9061 26.5935L13.8989 24.2373L13.7435 23.4185L13.0586 21.9373L11.0558 16.2935L10.0199 13.9936L8.89762 10.6873L8.22426 9.95605L7.29767 9.51856L5.02437 9.43731L4.22439 9.56231H2.69927L2.06619 9.86856L1.7439 10.7373L3.02155 14.431L3.42442 15.0748L3.62586 15.9061L3.94239 16.7749L4.37979 17.4185L4.66179 18.331L8.26455 27.1123L8.50051 27.9811L9.50767 30.2373L9.77816 31.1498L10.463 32.6248L10.9004 33.406L11.0962 34.281L12.6961 38.3998L13.0586 39.0497L13.8587 39.7935L14.7391 40.1435L15.4988 40.2686Z" stroke="black" stroke-width="1.5834"/>
<path d="M112.118 9.11523L111.156 9.46524L110.276 10.7277L109.758 11.9402L109.517 12.8528L108.757 14.2402L108.515 15.109L108.118 16.0215L107.876 16.759L107.439 17.5464L105.879 21.4965L105.597 22.4528L104.878 23.8402L101.396 32.784L100.999 33.5715L100.32 35.134L100.118 35.959L99.3587 37.4777L99.0767 38.6528L99.2781 39.559L99.9975 39.734L100.838 39.8214L101.557 39.9527L102.317 39.8652L103.117 39.8214L104.636 39.9965L105.517 39.434L106.196 38.6964L109.914 29.1402L110.156 28.2278L110.518 27.4902L110.674 26.709L111.076 25.9277L111.876 23.4903L112.274 22.709L112.717 22.7964L113.718 25.1465L113.874 25.9715L114.559 27.4464L116.555 33.0903L117.597 35.3902L118.714 38.6964L119.393 39.434L120.314 39.8652L122.592 39.9527L123.392 39.8214H124.911L125.55 39.5214L125.873 38.6528L124.595 34.959L124.192 34.309L123.991 33.484L123.675 32.6152L123.231 31.959L122.954 31.0527L119.352 22.2777L119.117 21.409L118.115 19.1528L117.833 18.2403L117.153 16.759L116.717 15.9777L116.515 15.109L114.915 10.984L114.559 10.334L113.759 9.59648L112.878 9.24649L112.118 9.11523Z" fill="#C40008"/>
</svg>
