<svg width="456" height="129" viewBox="0 0 456 129" fill="none" xmlns="http://www.w3.org/2000/svg">
<path d="M92.5664 61.5295L95.7383 61.2847L97.332 61.4461L99.931 61.3628L102.285 60.9566L102.53 58.9305L101.936 57.0034L100.686 53.8941L98.4154 49.5347L97.2487 46.4461L95.5716 43.4201L92.3789 35.8055L91.5404 34.5347L90.7227 32.9409L90.2123 31.0972L89.4518 29.8524L88.9623 28.4982L87.181 25.4097L86.6081 23.6493L81.0612 11.9878L80.5716 10.3315L79.6497 8.81592L79.1393 7.3003L77.5456 4.37321L76.1341 2.86279L73.3685 2.01904L70.6914 2.94092L69.1758 4.37321L68.4154 5.78467L67.8268 7.46696L67.0664 8.64925L63.7331 16.3472L62.8112 17.6128L62.3789 19.2899L61.4622 20.8888L60.9466 22.3836L52.4154 40.3263L51.9049 42.1701L51.0664 43.4201L50.4727 45.0972L48.9779 47.7743L47.707 51.1336L46.7904 52.3211L46.3789 53.8107L44.7018 57.1701L44.1914 58.8472L44.6185 60.9566L46.2956 61.4461L49.5508 61.2847L51.2279 61.4461L55.9362 61.2847L57.8581 60.6909L59.457 59.1961L60.9466 56.4097L62.5456 54.8368L64.306 53.8941L65.8997 54.1597L69.4206 53.8107L70.9362 54.0816L79.1393 53.9982L80.655 54.1597L82.4987 53.8941L84.3372 54.8368L85.9362 56.1649L86.6914 57.7639L87.181 59.2743L88.8581 60.5243L90.806 61.3628L92.5664 61.5295ZM73.5352 40.6545L71.8581 40.3263L69.931 40.493L68.582 39.8993L68.4987 38.3211L72.4466 29.2586L73.3685 28.4982L74.5352 29.1753L78.4831 38.4045L78.1393 39.8993L76.8893 40.5711L73.5352 40.6545ZM106.124 58.3576L106.717 60.5243L108.316 61.3628L109.994 61.5295L113.514 61.2847L116.764 61.4461L119.957 61.2847L121.556 61.5295L123.395 61.3628L139.994 61.4461L141.587 60.6076L142.509 58.0086L142.426 51.217L141.671 48.717L140.155 47.6961L138.395 47.8784L136.801 48.2066L135.04 47.9618L131.603 48.0451L129.947 47.6961L128.431 47.9618L125.155 47.7743L123.395 47.9618L121.717 47.2847L121.04 45.6076L121.124 17.1857L120.962 15.1805L121.124 11.8211L120.879 7.0555L120.962 5.46175L120.124 3.618L118.447 2.61279H115.191L113.514 2.94092L110.155 2.61279L108.561 2.86279L106.801 3.53467L106.046 5.37842V17.1024L105.879 18.7013L106.046 20.3784L105.796 23.4878L105.879 25.3263L106.046 26.9253L106.124 58.3576ZM169.822 61.6076L181.811 61.4461L183.572 60.6909L184.494 58.9305V50.4774L183.572 48.8003L181.811 48.0451L179.889 48.2066L178.29 47.9618L174.014 47.8784L171.254 48.2066L169.577 48.0451L167.733 48.1232L166.139 47.8784L164.296 48.0451L162.535 47.2013L161.863 45.6909V40.4097L162.619 38.6493L164.134 37.7274L166.65 37.6493L169.332 37.8941L172.504 37.7274L175.941 37.8107L177.619 37.6493L179.561 37.7274L181.217 37.0555L181.811 35.3784L182.056 27.8472L181.217 25.493L179.296 24.4097H174.363L172.603 24.5711L169.082 24.3263L164.212 24.4878L162.452 23.7326L161.78 21.1336V18.5347L162.535 16.9409L164.379 16.2638L165.973 16.3472L167.572 16.019L179.561 16.1805L181.139 16.1024L182.895 15.0972L183.738 13.5815L183.655 11.9045L183.738 10.2274L183.572 5.21175L182.816 3.618L181.139 2.94092H179.379L177.884 2.61279L171.087 2.69613L169.249 2.86279L167.572 2.69613L166.139 2.77946L164.462 2.61279L157.582 2.77946L155.905 2.53467L154.332 2.86279L152.816 2.69613L151.139 2.86279L149.462 2.77946L147.702 3.45654L146.78 5.21175L146.941 8.38363L146.697 11.8211L146.941 13.6649L146.78 21.8888L147.025 23.6493L146.863 25.2482L146.78 32.1024L147.025 33.618L146.941 47.2013L146.78 48.8003L147.025 50.4774L146.78 56.2482L146.941 58.092L147.619 60.3628L150.134 61.4461L156.171 61.5295L158.014 61.3628L159.53 61.4461L162.967 61.2013L164.54 61.5295L166.483 61.6076L168.145 61.4461L169.822 61.6076Z" stroke="white" stroke-width="3.66705"/>
<mask id="mask0_373_71" style="mask-type:luminance" maskUnits="userSpaceOnUse" x="281" y="13" width="175" height="94">
<path d="M281.01 13.5242H455.838V106.712H281.01V13.5242Z" fill="white"/>
</mask>
<g mask="url(#mask0_373_71)">
<path d="M455.453 60.9825C455.443 60.92 455.412 60.8263 455.37 60.8054C454.459 60.4617 454.011 59.2429 452.761 59.4773C452.287 59.5606 451.761 59.3523 451.266 59.3836C450.834 59.4096 450.36 59.0242 449.964 59.4981C449.927 59.5398 449.792 59.4981 449.703 59.4877C449.182 59.4356 448.656 59.3419 448.136 59.3471C447.11 59.3679 446.089 59.4721 445.057 59.4929C443.297 59.5294 441.542 59.5606 439.781 59.5398C438.287 59.519 436.792 59.4148 435.302 59.3731C434.511 59.3523 433.714 59.4304 432.932 59.3731C432.099 59.3158 431.266 59.144 430.438 59.0346C430.011 58.9825 429.589 58.9513 429.188 58.9148C428.959 58.9669 428.787 59.0294 428.61 59.0346C428.375 59.0398 428.146 58.9981 427.917 58.9877C427.594 58.9669 427.266 58.9721 426.948 58.9304C426.646 58.894 426.354 58.7742 426.047 58.7481C425.261 58.6908 424.459 58.7586 423.698 58.6075C423.016 58.4617 422.36 58.5658 421.693 58.5606C420.927 58.5554 420.167 58.5971 419.406 58.5711C418.235 58.5294 417.068 58.6544 415.87 58.3888C414.833 58.1544 413.698 58.295 412.604 58.3627C412.167 58.394 411.792 58.2065 411.458 58.0971C410.886 57.9044 410.516 57.3211 410.104 56.8419C409.802 56.4825 410.047 55.5398 409.214 55.7846C408.63 55.0815 408.094 54.4252 407.557 53.7794C407.542 53.769 407.516 53.7638 407.495 53.7586C406.833 53.6596 406.594 53.1648 406.448 52.7377C406.099 52.5138 405.797 52.3888 405.594 52.17C404.86 51.394 404.151 50.5971 403.453 49.7846C402.766 48.9929 401.891 48.3888 401.266 47.5138C400.896 47.0033 400.417 46.5606 400.026 46.0346C399.516 45.3315 398.87 44.7273 398.245 44.1075C397.214 43.0763 396.521 41.7377 395.292 40.8836C395.167 40.8002 395.125 40.6023 395.047 40.4513C394.891 40.1492 394.797 39.8054 394.583 39.5502C393.63 38.4408 392.651 37.3523 391.672 36.2638C391.365 35.9252 390.88 35.6804 390.714 35.2898C390.224 34.144 389.208 33.4408 388.531 32.4669C388.083 31.8263 387.615 31.2065 387.177 30.5658C387.099 30.4513 387.136 30.269 387.115 30.0867C386.969 30.0815 386.797 30.0658 386.62 30.0554C386.578 29.8731 386.578 29.6752 386.479 29.545C385.761 28.5658 385.031 27.6023 384.292 26.644C383.917 26.1648 383.474 25.7429 383.115 25.2533C382.49 24.3992 381.891 23.519 381.307 22.6336C380.771 21.8263 380.307 20.9773 379.761 20.1804C379.396 19.644 379.005 19.0971 378.511 18.6856C378.141 18.3731 377.604 18.2429 377.13 18.0711C376.87 17.9773 376.573 17.9669 376.292 17.9148C375.573 17.8419 374.88 17.6231 374.177 17.5294C373.37 17.4252 372.547 17.4513 371.74 17.3836C370.844 17.3002 369.948 17.1648 369.047 17.0711C368.615 17.0294 368.177 17.0502 367.745 17.0138C366.849 16.9304 365.959 16.8888 365.057 16.7481C363.459 16.4981 361.802 16.6648 360.172 16.5867C359.63 16.5606 359.162 16.3523 358.542 16.4981C357.875 16.6596 357.104 16.3627 356.375 16.2638C356.292 16.2533 356.209 16.2221 356.12 16.2169C355.042 16.1179 353.969 16.0242 352.891 15.9356C352.651 15.92 352.412 15.9408 352.172 15.9617C351.667 16.0033 351.021 16.2638 350.682 16.0502C350.193 15.7325 349.797 15.9877 349.37 15.9461C348.49 15.8575 347.599 15.8836 346.714 15.8158C346.115 15.7638 345.49 15.4617 344.932 15.5711C344.287 15.7013 343.709 15.4408 343.104 15.5086C342.193 15.6127 341.302 15.3783 340.38 15.4356C339.078 15.5138 337.766 15.2013 336.448 15.1283C334.896 15.0398 333.339 15.0398 331.787 14.9877C331.375 14.9773 330.959 14.9304 330.542 14.9252C329.979 14.9096 329.417 14.9356 328.854 14.92C328.36 14.9044 327.802 14.6856 327.391 14.8523C326.464 15.2221 325.656 14.9773 324.948 14.5138C324.412 14.17 323.927 13.9669 323.287 13.8471C321.979 13.5971 321.141 14.2273 320.287 14.9981C319.906 15.3471 319.599 15.9565 319.287 16.0971C318.563 16.4252 318.235 17.0815 317.724 17.545C316.709 18.4617 315.875 19.5763 314.974 20.6179C314.729 20.9044 314.542 21.2481 314.276 21.5086C313.854 21.9148 313.391 22.2794 312.938 22.6492C312.677 22.8679 312.354 23.0242 312.151 23.2846C311.755 23.7846 311.485 24.394 311.047 24.8419C310.177 25.7169 309.224 26.5086 308.323 27.3523C307.891 27.7586 307.49 28.1961 307.078 28.6231C306.646 29.0815 306.245 29.5763 305.787 29.9981C305.479 30.2846 305.063 30.4461 304.766 30.7377C304.552 30.9513 304.474 31.295 304.302 31.5554C304.193 31.7221 304.016 31.8419 303.886 32.0033C303.547 32.394 303.297 32.92 302.875 33.17C302.078 33.644 301.438 34.2533 300.854 34.9408C300.625 35.2065 300.485 35.5554 300.24 35.8002C299.823 36.2273 299.349 36.5971 298.906 36.9981C298.63 37.2533 298.36 37.5138 298.115 37.795C297.672 38.3002 297.276 38.8471 296.818 39.3367C296.557 39.6127 296.214 39.8106 295.906 40.0554C296.13 40.3783 296.115 40.5763 295.75 40.8367C295.5 41.0086 295.162 41.0867 294.964 41.3002C294.349 41.9513 293.771 42.6336 293.203 43.3263C293.063 43.4981 293.063 43.8992 292.927 43.9408C292.063 44.1961 291.813 45.0606 291.214 45.5711C290.62 46.0658 290.125 46.6752 289.594 47.2429C289.198 47.6596 288.802 48.0867 288.417 48.5086C288.365 48.5658 288.271 48.6596 288.287 48.6804C288.594 49.1752 288.115 49.269 287.891 49.5033C287.365 50.0294 286.828 50.5554 286.344 51.1231C285.86 51.6856 285.464 52.3315 284.698 52.5711C284.584 52.6075 284.443 52.7742 284.432 52.8836C284.396 53.394 284.11 53.6231 283.651 53.644C283.698 53.7794 283.781 53.92 283.745 53.9617C283.297 54.5242 282.719 54.9408 282.443 55.6961C282.162 56.4721 281.25 56.9825 281.412 57.9773C281.417 57.9981 281.412 58.0242 281.396 58.0398C281.026 58.6492 281.042 59.2169 281.417 59.8471C281.776 60.4408 282.016 61.1075 282.229 61.5711C282.604 61.6075 282.875 61.545 282.979 61.6544C283.724 62.42 284.542 63.0033 285.682 62.9565C285.834 62.9461 285.985 62.9981 286.136 63.0138C286.729 63.0815 287.323 63.1336 287.917 63.2117C288.479 63.2898 289.104 63.2742 289.584 63.5242C290.026 63.7533 290.281 63.7377 290.63 63.4721C290.75 63.3836 290.953 63.3419 291.104 63.3679C291.432 63.42 291.745 63.5554 292.073 63.6023C292.766 63.7065 293.453 63.3002 294.167 63.6127C294.74 63.8679 295.474 63.4044 296.016 63.9565C296.057 63.9981 296.281 63.8836 296.406 63.8211C296.505 63.7742 296.578 63.6388 296.667 63.6388C297.271 63.6231 297.875 63.6388 298.479 63.6388C298.745 63.6388 299.011 63.5815 299.276 63.5971C299.813 63.6336 300.354 63.769 300.886 63.7429C302.203 63.6596 303.5 63.6648 304.776 64.2794C304.766 64.0815 304.75 63.9513 304.735 63.7273C305.281 63.8263 305.761 63.9773 306.25 63.9825C306.891 63.9929 307.537 63.8263 308.172 63.8419C309.136 63.8679 310.094 63.9825 311.057 64.0606C311.224 64.0763 311.391 64.1231 311.557 64.1231C312.245 64.0971 312.943 63.9825 313.62 64.0398C314.443 64.1127 315.302 63.9825 316.084 64.3992C316.162 64.4408 316.292 64.3783 316.401 64.3575C316.818 64.2898 317.229 64.1752 317.646 64.1492C318.417 64.1075 319.193 64.1283 319.969 64.1127C320.292 64.1023 320.63 64.1023 320.948 64.0294C321.448 63.92 321.938 63.7638 322.292 63.6648C322.771 64.3002 323.047 64.8523 323.485 65.2221C324.573 66.1544 325.396 67.2794 326.13 68.4877C326.401 68.9356 326.547 69.5138 326.917 69.8315C327.813 70.5867 328.375 71.545 328.964 72.5606C329.073 72.5033 329.214 72.4304 329.344 72.3679C329.662 73.4148 330.354 74.1596 331.057 74.92C331.49 75.3836 331.781 75.9773 332.203 76.4513C333.057 77.4096 334.203 78.1544 334.386 79.5867C334.391 79.6544 334.656 79.7429 334.797 79.7377C334.917 79.7377 335.026 79.6075 335.136 79.5346C335.396 80.1231 335.63 80.644 335.86 81.1544C336.047 81.1908 336.323 81.1596 336.412 81.2742C336.771 81.7481 337.214 82.2325 337.349 82.7846C337.479 83.3106 337.802 83.5711 338.141 83.8836C338.495 84.2117 338.948 84.4825 339.177 84.8836C339.469 85.4044 339.959 85.7533 340.198 86.3731C340.422 86.9461 341.182 87.3106 341.578 87.9408C341.974 88.5554 342.651 88.9929 343.167 89.5398C343.438 89.8315 343.625 90.2013 343.875 90.5242C344.094 90.8106 344.323 91.0971 344.578 91.3575C344.698 91.4773 344.943 91.4877 345.037 91.6179C345.427 92.1596 345.677 92.8471 346.172 93.2481C346.719 93.6856 347.224 94.1179 347.625 94.7013C347.865 95.0554 348.203 95.3523 348.526 95.644C349.063 96.1179 349.281 96.8523 349.896 97.2586C350.656 97.7638 351.115 98.5606 351.901 99.0815C352.912 99.7586 353.729 100.722 354.646 101.545C355.047 101.904 355.485 102.222 355.906 102.555C356.229 102.816 356.531 103.102 356.88 103.321C357.224 103.529 357.61 103.66 357.974 103.831C358.542 104.102 359.094 104.436 359.682 104.644C360.104 104.795 360.589 104.779 361.042 104.863C362.151 105.061 363.25 105.29 364.365 105.467C364.761 105.529 365.188 105.446 365.589 105.498C366.078 105.555 366.557 105.753 367.042 105.769C367.646 105.79 368.255 105.649 368.865 105.639C369.229 105.628 369.599 105.738 369.964 105.79C370.089 105.805 370.261 105.863 370.328 105.805C370.771 105.43 371.188 105.779 371.604 105.831C371.802 105.852 371.995 105.92 372.188 105.92C373.323 105.904 374.464 105.868 375.604 105.863C375.776 105.863 375.948 105.998 376.167 106.092C376.542 105.816 380.479 105.915 380.87 106.217C381.026 106.113 381.182 105.91 381.307 105.93C381.781 106.003 382.229 106.191 382.75 106.029C383.099 105.925 383.5 105.936 383.865 105.962C384.36 106.003 384.844 106.113 385.333 106.18C385.698 106.233 386.063 106.071 386.375 106.05C387.375 105.988 388.386 106.154 389.396 106.243C389.781 106.279 390.162 106.342 390.547 106.394C390.557 106.43 390.563 106.472 390.578 106.509C390.761 106.415 390.948 106.238 391.136 106.238C392.568 106.269 394.005 106.326 395.438 106.384C395.787 106.404 396.136 106.483 396.479 106.488C396.886 106.493 397.292 106.43 397.693 106.42C398.042 106.41 398.386 106.43 398.735 106.43C399.162 106.43 399.589 106.41 400.016 106.43C400.636 106.456 401.255 106.618 401.86 106.55C402.959 106.43 404.068 105.936 405.11 106.071C405.906 106.17 406.573 105.863 407.307 105.889C407.709 105.899 408.229 105.769 408.5 105.498C409.068 104.946 409.688 105.222 410.287 105.191C410.38 105.186 410.505 105.295 410.578 105.264C411.188 104.998 411.787 104.717 412.386 104.436C412.766 104.253 413.167 104.102 413.495 103.858C413.932 103.529 414.292 103.102 414.709 102.748C415.5 102.076 416.432 101.555 416.948 100.597C417.042 100.42 417.276 100.326 417.438 100.18C417.672 99.9669 417.896 99.7481 418.125 99.5294C418.219 99.3471 418.438 99.3002 418.63 99.2013C419.406 98.8315 419.531 97.7065 420.511 97.5658C420.787 96.795 421.646 96.6544 422.12 96.0763C422.698 95.3679 423.453 94.8367 424.198 94.295C425.172 93.5815 426.016 92.6961 426.927 91.8992C427.12 91.7273 427.334 91.545 427.573 91.4669C427.943 91.3419 428.568 91.5294 428.292 90.7533C428.266 90.6856 428.438 90.519 428.542 90.4356C429.125 89.9617 429.709 89.4825 430.313 89.0294C430.531 88.8627 430.834 88.7846 431.037 88.5971C432.094 87.6075 433.13 86.5919 434.177 85.5867C434.656 85.1231 435.13 84.6544 435.62 84.2013C436.099 83.7638 436.599 83.3523 437.089 82.9304C437.261 82.8158 437.302 82.4252 437.422 82.3992C438.255 82.2065 438.464 81.2638 439.151 80.9929C439.974 80.67 440.016 79.4721 441.037 79.4513C441.073 79.4513 441.099 79.3471 441.141 79.295C441.318 79.0554 441.459 78.7638 441.688 78.5815C442.12 78.2429 442.651 78.0294 443.052 77.6596C443.714 77.045 444.281 76.3471 444.99 75.7638C446.042 74.8992 446.995 73.92 447.964 72.9565C448.667 72.2586 449.328 71.519 450.005 70.8002C450.625 70.1336 451.235 69.4669 451.86 68.8054C452.094 68.5606 452.297 68.2273 452.584 68.1231C453 67.9721 453.146 67.7117 453.245 67.3263C453.292 67.1492 453.427 66.9617 453.573 66.8523C454.62 66.1127 455.219 65.0502 455.584 63.8731C455.865 62.92 455.589 61.9408 455.453 60.9825ZM447.38 65.2429C447.099 65.5815 446.589 65.6961 446.469 66.2169C446.432 66.3471 446.084 66.4044 445.974 66.6231C445.677 66.8523 445.375 67.0606 445.094 67.3054C444.495 67.8315 443.906 68.3731 443.313 68.9148C442.99 69.2169 442.667 69.5242 442.339 69.8211C441.959 70.17 441.573 70.519 441.182 70.8627C440.448 71.5033 439.724 72.1544 438.974 72.7742C438.5 73.17 437.781 73.2742 437.594 73.9929C436.755 74.0346 436.485 74.8263 435.932 75.2533C435.714 75.42 435.542 75.6492 435.339 75.8315C434.797 76.3211 434.12 76.7221 433.735 77.3106C433.193 78.1283 432.479 78.6648 431.693 79.17C431.563 79.2533 431.474 79.4148 431.391 79.5554C431.162 79.9513 431.052 80.4408 430.401 80.4044C430.266 80.394 430.078 80.769 429.959 80.9877C429.557 81.7794 428.875 82.2742 428.162 82.7533C427.771 83.0138 427.432 83.3575 427.037 83.6908C427.406 84.1283 426.849 84.2846 426.573 84.5346C426.438 84.6648 426.245 84.7481 426.068 84.8106C425.485 85.0242 425.459 85.6856 425.047 86.0346C424.281 86.6804 423.547 87.3679 422.755 87.9929C422.354 88.3054 422.156 88.9096 421.505 88.8679C421.266 89.6544 420.453 89.8888 419.953 90.4304C419.302 91.1388 418.479 91.6908 417.771 92.3471C417.141 92.9252 416.584 93.5763 415.964 94.1648C415.511 94.5971 415.016 94.9773 414.542 95.394C414.261 95.6388 413.995 95.9044 413.709 96.1492C413.547 96.2898 413.354 96.3992 413.172 96.5294C413.229 96.5554 413.344 96.6023 413.459 96.6544C412.932 96.5815 412.745 97.4252 412.146 97.1336C412.125 97.1283 412.016 97.2169 412.011 97.2638C411.985 97.894 411.375 98.0658 411.073 98.4773C410.995 98.5815 410.901 98.7586 410.818 98.7533C410.182 98.7117 410.167 99.2013 409.953 99.519C409.735 99.7377 409.526 99.9617 409.313 100.186C409.24 100.259 409.177 100.342 409.094 100.404C408.547 100.842 407.88 101.118 407.63 101.925C407.563 102.16 406.807 102.29 406.37 102.29C405.755 102.29 405.141 102.055 404.526 102.045C403.828 102.035 403.13 102.201 402.427 102.201C401.86 102.201 401.297 102.009 400.729 101.993C400.333 101.988 399.833 102.342 399.568 102.196C398.761 101.748 397.953 102.206 397.146 102.009C396.469 101.837 395.599 101.712 395.026 101.993C394.323 102.342 393.891 101.821 393.339 101.868C392.328 101.956 391.328 101.686 390.318 101.863C389.625 101.977 388.917 102.055 388.271 101.613C388.172 101.545 387.953 101.691 387.787 101.701C387.636 101.717 387.485 101.68 387.333 101.66C387.292 101.654 387.235 101.592 387.229 101.592C386.735 102.118 386.125 101.748 385.63 101.691C384.854 101.602 383.953 101.988 383.344 101.269C383.229 101.378 383.13 101.566 383.042 101.566C382.219 101.503 381.406 101.394 380.583 101.321C380.417 101.311 380.235 101.441 380.063 101.441C379.615 101.425 379.193 101.337 378.708 101.384C378.031 101.456 377.313 101.071 376.599 100.983C376.203 100.936 375.776 101.17 375.365 101.149C374.688 101.113 374.021 100.956 373.344 100.884C373.026 100.852 372.698 100.915 372.375 100.884C372.104 100.863 371.844 100.774 371.485 100.696C371.443 100.717 371.188 100.92 371.125 100.873C370.599 100.493 370.011 100.769 369.469 100.675C368.531 100.514 367.557 100.16 366.651 100.279C365.979 100.363 365.438 100.154 364.834 100.118C364.313 100.087 363.787 100.128 363.271 100.071C363.042 100.045 362.834 99.8731 362.61 99.769C362.526 99.7273 362.438 99.644 362.36 99.644C361.271 99.7325 360.453 99.1388 359.599 98.6127C358.651 98.0398 357.896 97.295 357.375 96.3106C357.354 96.2742 357.328 96.2221 357.297 96.2169C356.078 96.0294 355.761 94.769 354.875 94.1648C354.307 93.7742 353.948 93.0763 353.459 92.5554C353.162 92.2377 352.745 92.0242 352.469 91.6856C352.141 91.2846 351.943 90.7898 351.63 90.3731C351.474 90.17 351.162 90.0867 350.99 89.8836C350.656 89.4981 350.37 89.0658 350.052 88.6596C349.943 88.5086 349.792 88.3888 349.677 88.2377C349.495 87.9981 349.323 87.7481 349.084 87.3992C349.073 87.3992 348.906 87.4513 348.693 87.5086C347.896 86.4669 347.084 85.42 346.281 84.3679C345.906 84.2533 345.63 84.0294 345.761 83.5033C344.709 83.2586 344.302 82.2846 343.636 81.644C343.432 81.4096 343.214 81.1752 343.037 80.9252C342.88 80.6961 342.761 80.4408 342.63 80.1961C342.599 80.1388 342.599 80.0554 342.552 80.019C342.151 79.7169 341.745 79.4252 341.339 79.1283C341.292 79.0971 341.229 79.0502 341.209 79.0033C340.797 77.7638 339.703 77.1179 338.844 76.2638C338.625 76.045 338.61 75.644 338.453 75.3575C338.198 74.8992 337.834 74.6127 337.281 74.4773C337.005 74.4096 336.693 73.9981 336.625 73.6961C336.479 73.0971 335.901 72.9669 335.599 72.5658C335.542 72.4877 335.375 72.4408 335.375 72.3783C335.37 71.6283 334.646 71.4877 334.271 71.0502C334.12 70.8679 333.99 70.6648 333.849 70.4721C333.776 70.3783 333.703 70.2742 333.615 70.1908C333.406 69.9877 333.151 69.8211 332.985 69.5867C332.427 68.8054 331.932 67.9721 331.354 67.2117C331.005 66.7586 330.521 66.4044 330.136 65.9773C329.307 65.0554 328.479 64.1283 327.688 63.1752C327.281 62.6856 326.948 62.1336 326.552 61.5658C326.594 61.545 326.636 61.5242 326.677 61.5033C325.057 60.5138 323.531 59.3315 322.198 58.1856C321.537 58.4513 320.672 58.295 319.901 58.3002C319.365 58.3054 318.823 58.2533 318.287 58.1804C318.094 58.1544 317.922 57.9825 317.714 57.8679C317.531 58.3731 317.182 58.269 316.781 58.0398C316.422 57.8315 316.026 57.5815 315.766 58.2742C315.365 57.6648 314.932 57.9565 314.469 58.0242C314.016 58.0867 313.537 57.9408 313.068 57.9304C311.797 57.8992 310.526 57.9148 309.255 57.8731C308.115 57.8367 306.969 57.6544 305.844 57.7325C305.281 57.769 304.776 57.3627 304.12 57.7481C303.693 57.9981 302.927 57.6596 302.313 57.6075C301.651 57.5502 300.953 57.3575 300.339 57.5086C299.396 57.7377 298.709 57.3106 297.896 56.8783C297.974 57.2169 298.037 57.4669 298.068 57.6179C297.261 57.5502 296.474 57.4617 295.688 57.42C295.209 57.394 294.714 57.4929 294.235 57.4461C293.932 57.4096 293.646 57.2065 293.297 57.045C292.714 57.6283 291.391 57.6179 290.417 56.8315C290.531 57.0658 290.589 57.1856 290.672 57.3419C290.229 57.2898 289.828 57.2377 289.271 57.17C289.406 56.9877 289.568 56.7742 289.729 56.5658C289.75 56.5815 289.771 56.5919 289.792 56.6023C290.136 56.1752 290.485 55.7429 290.839 55.3158C291.339 54.7065 291.839 54.0815 292.37 53.4981C292.594 53.2429 292.912 53.0815 293.193 52.8836C293.229 52.8575 293.318 52.8627 293.318 52.8523C293.432 52.0658 294.391 51.8836 294.552 51.0711C294.615 50.7481 295.162 50.5346 295.453 50.2377C295.969 49.7065 296.459 49.144 296.974 48.6075C297.271 48.295 297.589 48.0033 297.854 47.6856C298.104 47.3575 298.344 47.0242 298.604 46.7065C299.261 45.9096 299.912 45.1075 300.604 44.3367C300.979 43.92 301.448 43.5815 301.834 43.1752C302.057 42.9408 302.182 42.6127 302.406 42.3679C302.589 42.1648 302.834 42.0033 303.073 41.8523C303.74 41.4304 303.922 40.6492 304.412 40.1075C305.094 39.3575 305.802 38.6283 306.531 37.9252C306.667 37.7898 306.938 37.7898 307.141 37.7325C306.974 37.1804 309.448 34.4304 310.422 34.0658C310.24 33.8315 310.516 33.0867 310.886 32.9148C311.61 32.5763 312.047 31.9929 312.5 31.3471C312.865 30.8211 313.464 30.4513 313.964 30.019C314.052 29.9408 314.24 29.9148 314.276 29.8263C314.589 28.9461 315.313 28.4981 316.068 28.0711C316.177 28.0086 316.203 27.8158 316.281 27.6961C316.459 27.4044 316.62 27.1023 316.839 26.8471C317.49 26.0919 318.188 25.3731 318.849 24.6231C319.391 23.9981 319.938 23.3731 320.427 22.7065C320.724 22.3002 320.912 21.8158 321.156 21.3679C321.516 21.519 321.943 21.2377 322.031 20.7846C322.089 20.4721 323.167 19.3471 323.37 19.17C324.198 18.4721 325.13 18.8419 325.979 18.9408C327.401 19.1023 328.828 19.1961 330.255 19.2742C330.766 19.3054 331.281 19.3263 331.787 19.2846C332.677 19.2221 333.511 19.5815 334.459 19.3888C335.307 19.2169 336.255 19.5502 337.162 19.644C337.682 19.7013 338.214 19.7117 338.735 19.7533C340.219 19.8731 341.703 20.0033 343.188 20.1075C343.63 20.144 344.084 20.0919 344.526 20.1283C344.761 20.144 344.979 20.3002 345.214 20.3211C345.542 20.3367 345.88 20.2533 346.219 20.2638C346.901 20.2898 347.688 20.1492 348.235 20.4408C348.922 20.8054 349.542 20.3263 350.224 20.6231C350.849 20.894 351.667 20.7065 352.391 20.7846C353.052 20.8523 353.709 21.019 354.37 21.1127C354.469 21.1283 354.584 20.9825 354.703 20.9565C354.974 20.8992 355.287 20.769 355.521 20.8471C356.203 21.0606 356.834 21.3575 357.589 20.9981C357.87 20.8679 358.318 21.1492 358.688 21.1648C360.422 21.2221 362.156 21.2377 363.891 21.3002C364.781 21.3367 365.75 21.6961 366.542 21.4408C367.464 21.1492 368.328 22.0398 369.172 21.3523C369.266 21.2742 369.583 21.5398 369.797 21.545C371.11 21.5815 372.422 21.5606 373.735 21.6231C374.615 21.6648 375.505 21.7533 376.36 21.9565C376.677 22.0346 376.901 22.4929 377.162 22.7846C377.266 22.8992 377.349 23.0346 377.432 23.17C377.735 23.6544 378.026 24.144 378.328 24.6336C378.438 24.8002 378.573 24.9669 378.703 25.1179C378.771 25.1961 378.922 25.2273 378.943 25.3054C379.146 26.0867 379.677 26.6544 380.146 27.2742C380.724 28.0242 381.485 28.7533 381.714 29.6179C382.026 30.7898 382.823 31.5815 383.432 32.5138C383.672 32.8888 383.672 33.5658 384.344 33.5971C383.901 34.1908 384.646 34.2013 384.813 34.4773C385.458 35.5658 386.136 36.6336 386.87 37.6596C387.261 38.2065 387.927 38.5815 388.214 39.1648C388.521 39.795 389.167 40.0658 389.464 40.6492C390.068 41.8211 390.953 42.7638 391.823 43.7429C392.334 44.3211 392.709 45.0242 393.156 45.6596C393.292 45.8471 393.485 45.9981 393.615 46.1856C393.854 46.5138 394.057 46.8627 394.287 47.1908C394.557 47.5711 394.818 47.9565 395.12 48.3106C395.87 49.1961 396.636 50.0711 397.406 50.9408C397.755 51.3419 398.141 51.7065 398.474 52.1231C398.688 52.3888 398.823 52.7169 399.063 53.1231C399.427 53.1856 399.708 53.4721 399.693 54.0242C399.688 54.17 399.802 54.3523 399.917 54.4461C400.599 55.0294 401.339 55.5606 401.99 56.1752C402.771 56.9148 403.5 57.7117 404.229 58.5033C405.005 59.3471 405.729 60.2429 406.526 61.0606C406.912 61.4617 407.412 61.7429 407.943 61.9513C408.016 62.1492 408.037 62.394 408.167 62.5346C408.422 62.8054 408.719 63.0502 409.042 63.2429C409.396 63.4565 409.787 63.6388 410.229 63.4044C410.297 63.3627 410.427 63.3888 410.516 63.4252C411.677 63.9148 412.839 64.2898 414.141 64.019C414.641 63.9148 415.224 63.8888 415.682 64.3054C415.745 64.3627 415.943 64.3575 416.031 64.3002C416.787 63.8315 417.625 64.019 418.417 64.0398C419.073 64.0606 419.776 64.5033 420.349 64.3523C420.906 64.2065 421.344 64.4252 421.834 64.4096C422.979 64.3731 424.13 64.4513 425.276 64.4877C425.839 64.5033 426.401 64.4981 426.959 64.5502C427.406 64.5919 427.849 64.7429 428.297 64.7794C428.584 64.8054 428.875 64.7065 429.172 64.6856C429.495 64.6596 429.828 64.6388 430.151 64.6648C430.667 64.7013 431.177 64.8002 431.693 64.8419C432.406 64.9044 433.12 64.9408 433.834 64.9773C434.037 64.9877 434.24 64.9408 434.443 64.9513C434.875 64.9721 435.318 64.9929 435.755 65.0502C436.094 65.0971 436.469 65.3783 436.63 64.8419C437.245 64.9461 437.839 65.045 438.432 65.1336C438.557 65.1492 438.714 65.1596 438.813 65.0971C439.49 64.67 440.177 64.8836 440.87 65.0502C440.995 65.0763 441.162 65.1752 441.235 65.1231C442.037 64.5711 442.953 65.0554 443.807 64.8315C444.307 64.7013 444.901 64.8158 445.432 64.92C445.807 64.9929 446.047 64.7013 446.406 64.6752C446.86 64.644 447.209 64.9617 447.677 64.8836C447.594 65.0138 447.479 65.1231 447.38 65.2429Z" fill="white"/>
</g>
<path d="M48.3646 128.411L52.474 128.245L53.9844 128.328L55.9115 128.161L57.6719 127.489L58.4271 125.729L58.3385 124.052L58.4271 122.208L58.2552 119.109L58.4271 117.515L58.3385 115.588L59.0938 114.078L61.0208 113.156L62.8646 112.989L64.625 113.328L73.2604 112.656L81.224 109.469L82.4792 108.463L83.651 107.125L84.7448 106.036L85.8333 104.776L87.5938 102.094L89.0156 98.8279L89.2708 96.9841L89.7708 95.6404L89.9375 88.7654L89.6042 87.3435L89.3542 85.4998L88.349 82.3956L86.7552 79.5466L84.7448 76.781L80.9688 73.5154L78.2031 71.6716L74.8542 70.6612L73.4271 70.0779H71.75L70.0729 69.4893L67.5625 69.406L64.8802 69.4893L63.0365 69.7393L57.9219 69.656L56.2448 69.406L51.0469 69.7393L49.2031 69.656L47.6979 69.406L45.9375 69.7393L44.1771 70.6612L43.4219 72.005L43.5052 82.1456L43.1719 85.4998L43.3385 87.0935L43.2552 108.802L43.4219 110.39L43.3385 125.896L44.2604 127.489L46.8594 128.328L48.3646 128.411ZM60.9375 99.7498L59.2604 98.7393L58.5104 97.3175L58.2552 90.5258L58.4271 88.7654V85.3331L59.2604 83.7393L61.0208 82.9008L69.7396 83.1508L71.4167 83.906L72.7552 84.8279L73.849 85.9164L74.6875 87.5935L74.9375 89.1039L75.1042 91.4477L74.9375 93.7133L74.349 95.2237L73.5938 96.5623L72.5052 97.906L71.1667 98.9112L69.8229 99.3279L67.224 99.6612L62.9531 99.5779L60.9375 99.7498Z" fill="white"/>
<path d="M115.583 128.411L127.573 128.245L129.328 127.489L130.25 125.729V117.265L129.328 115.588L127.573 114.833L125.641 115L124.052 114.75L119.776 114.667L117.01 115L115.333 114.833L113.49 114.917L111.896 114.667L110.052 114.833L108.292 113.995L107.62 112.489V107.208L108.375 105.448L109.885 104.526L112.401 104.443L115.083 104.693L118.266 104.526L121.703 104.609L123.38 104.443L125.307 104.526L126.984 103.854L127.573 102.177L127.823 94.6353L126.984 92.2863L125.057 91.1978H120.109L118.349 91.3644L114.828 91.1144L109.969 91.2811L108.208 90.5259L107.536 87.9321V85.3332L108.292 83.7394L110.135 83.0675L111.729 83.1509L113.323 82.8175L125.307 82.9842L126.901 82.9009L128.661 81.8957L129.5 80.3853L129.417 78.7082L129.5 77.0311L129.328 72.005L128.578 70.4113L126.901 69.7394H125.141L123.63 69.4061L116.844 69.4894L115 69.6561L113.323 69.4894L111.896 69.5728L110.219 69.4061L103.349 69.5728L101.672 69.3228L100.078 69.6561L98.5677 69.4894L96.8958 69.6561L95.2187 69.5728L93.4583 70.2446L92.5365 72.005L92.7031 75.1873L92.4531 78.6248L92.7031 80.4686L92.5365 88.6821L92.7865 90.4425L92.6198 92.0363L92.5365 98.9113L92.7865 100.417L92.7031 113.995L92.5365 115.588L92.7865 117.265L92.5365 123.047L92.7031 124.89L93.375 127.156L95.8854 128.245L101.922 128.328L103.766 128.161L105.276 128.245L108.714 127.995L110.302 128.328L112.234 128.411L113.906 128.245L115.583 128.411Z" fill="white"/>
<path d="M178.026 126.734L180.286 128.078L182.635 128.328L184.479 127.745L185.318 126.068L185.484 95.4739L185.234 94.0468V85.7499L185.484 83.7395L185.234 72.0885L184.396 70.4114L182.719 69.4895L172.323 69.5728L170.734 70.4947L169.813 72.2551L169.729 74.0155L169.979 75.3593L169.729 78.8801L169.896 80.7239L169.729 95.7239L169.224 97.151L167.969 96.5624L162.016 90.6093L159.667 88.7655L143.156 72.0885L141.901 71.0833L139.974 70.078L137.458 69.4895L135.531 70.328L134.776 71.9218V97.3176L134.693 98.7395L134.859 102.177L134.609 103.604L134.776 117.349L134.609 118.943L134.776 125.984L135.531 127.573L137.292 128.161L140.724 128.328L142.568 128.161L145.839 128.411L147.599 128.328L149.276 127.49L150.115 124.891L150.198 103.687L150.365 102.01L150.953 100.588L152.042 101.005L153.13 102.432L159.083 108.13L160.172 109.385L161.599 110.307L174.589 123.219L176.766 125.646L178.026 126.734Z" fill="white"/>
<path d="M192.019 125.812L193.024 127.406L194.618 128.328L196.29 128.245L199.644 128.411L201.404 128.245L204.925 128.328L206.686 127.323L207.357 125.729L207.524 124.141L207.357 122.297V107.458L208.113 105.698L209.873 104.609L219.758 104.526L221.519 104.776H223.029L224.623 105.698L225.462 107.292L225.545 125.812L226.467 127.156L228.899 128.245H233.253L234.93 128.078L238.368 128.328L239.962 127.24L240.967 125.812L240.8 118.187L241.05 115.505L240.8 114.167L240.883 72.0885L240.128 70.328L238.451 69.6562L228.811 69.5728L226.383 70.1614L225.545 72.1718L225.462 75.3593L225.628 76.7812L225.462 80.2187L225.712 81.8124L225.628 88.3489L224.706 90.026L223.029 90.9478L221.436 90.6978L218.17 91.0312L216.41 90.8645L214.899 91.0312L209.956 90.9478L208.363 90.1926L207.524 88.5989L207.441 86.7551V84.9947L207.357 83.4895L207.441 76.9478L207.607 75.1041L207.441 72.0051L206.686 70.4114L204.925 69.4895L203.081 69.6562L194.785 69.4895L192.941 70.328L192.102 72.0051L191.936 73.8489L192.102 80.3853L191.936 82.0624L192.269 85.4999L192.102 88.6822L192.186 90.6978L192.019 92.3697V117.432L192.269 118.943L192.019 125.812Z" fill="white"/>
<path d="M290.835 128.328L294.018 128.078L295.611 128.245L298.21 128.161L300.554 127.745L300.809 125.729L300.221 123.802L298.965 120.703L296.7 116.344L295.528 113.245L293.851 110.224L290.663 102.599L289.83 101.338L288.992 99.7499L288.486 97.9062L287.731 96.6458L287.231 95.3072L285.471 92.203L284.882 90.4426L279.351 78.7916L278.846 77.1197L277.924 75.6093L277.424 74.0989L275.83 71.1666L274.408 69.6562L271.637 68.8176L268.955 69.7395L267.45 71.1666L266.695 72.5937L266.106 74.2655L265.356 75.4426L262.002 83.151L261.08 84.4114L260.658 86.0833L259.736 87.677L259.236 89.1874L250.684 107.125L250.184 108.969L249.346 110.224L248.757 111.901L247.247 114.583L245.992 117.937L245.07 119.109L244.653 120.62L242.976 123.969L242.471 125.646L242.893 127.745L244.57 128.245L247.835 128.078L249.512 128.245L254.205 128.078L256.132 127.49L257.726 125.984L259.236 123.219L260.83 121.625L262.585 120.703L264.179 120.953L267.7 120.62L269.21 120.87L277.424 120.786L278.934 120.953L280.778 120.703L282.622 121.625L284.21 122.963L284.965 124.557L285.471 126.068L287.148 127.323L289.075 128.161L290.835 128.328ZM271.809 107.458L270.132 107.125L268.205 107.292L266.861 106.703L266.778 105.115L270.715 96.0624L271.637 95.3072L272.814 95.9739L276.752 105.198L276.419 106.703L275.158 107.375L271.809 107.458Z" fill="white"/>
<path d="M30.8333 62.1232L32.8385 61.4461L34.6823 59.0086L35.7865 56.6805L36.2761 54.9201L37.875 52.2378L38.3854 50.5607L39.224 48.8003L39.7136 47.368L40.6354 45.8524L43.9115 38.243L44.5 36.3784L45.9948 33.6961L53.3021 16.4461L54.1406 14.9357L55.5521 11.9045L55.9844 10.3315L57.5781 7.38363L58.1511 5.13363L57.7396 3.37321L56.2292 3.02425L54.4688 2.86279L52.9531 2.61279L51.3802 2.77946L49.6979 2.86279L46.5052 2.53467L44.6667 3.618L43.2344 5.02946L35.4375 23.4878L34.9479 25.2482L34.1875 26.6597L33.8438 28.1753L33.0208 29.6857L31.3438 34.3732L30.5052 35.8888L29.5833 35.7222L27.4792 31.1805L27.151 29.6076L25.7188 26.743L21.5208 15.8524L19.3542 11.4149L17 5.02946L15.5885 3.618L13.6458 2.77946L8.875 2.61279L7.19792 2.86279H4.00521L2.67708 3.45654L2 5.13363L4.68229 12.2534L5.52083 13.5034L5.94792 15.0972L6.60417 16.7743L7.52604 18.0243L8.11979 19.7847L15.6719 36.7274L16.1615 38.4045L18.2708 42.7638L18.8438 44.5243L20.276 47.368L21.1927 48.8836L21.6042 50.5607L24.9583 58.5191L25.7188 59.7691L27.3958 61.2014L29.2396 61.8732L30.8333 62.1232Z" stroke="white" stroke-width="3.66705"/>
<path d="M233.327 2L231.316 2.67187L229.473 5.10417L228.384 7.44792L227.879 9.20833L226.285 11.8906L225.785 13.5677L224.947 15.3281L224.441 16.75L223.52 18.2604L220.254 25.8906L219.665 27.7344L218.155 30.4167L210.863 47.6823L210.025 49.1875L208.603 52.2083L208.181 53.7969L206.592 56.7344L206.004 58.9948L206.421 60.7552L207.931 61.0938L209.691 61.2604L211.202 61.5104L212.79 61.3438L214.467 61.2604L217.655 61.5938L219.499 60.5052L220.921 59.0781L228.717 40.6406L229.223 38.8802L229.973 37.4531L230.311 35.9479L231.15 34.4375L232.827 29.7448L233.66 28.2344L234.587 28.401L236.681 32.9271L237.014 34.5208L238.441 37.3698L242.629 48.2656L244.811 52.7083L247.155 59.0781L248.582 60.5052L250.509 61.3438L255.285 61.5104L256.962 61.2604H260.15L261.488 60.6719L262.16 58.9948L259.478 51.8698L258.639 50.6146L258.223 49.0208L257.551 47.3438L256.629 46.0885L256.04 44.3281L248.499 27.3958L247.993 25.7188L245.9 21.3646L245.311 19.6042L243.889 16.75L242.967 15.2448L242.546 13.5677L239.197 5.60417L238.441 4.34896L236.764 2.92187L234.921 2.25L233.327 2Z" fill="#EEBA2B"/>
</svg>
