<svg width="367" height="339" viewBox="0 0 367 339" fill="none" xmlns="http://www.w3.org/2000/svg">
<path d="M200.649 22.0264C189.802 22.0264 180.978 30.8508 180.978 41.6973C180.978 52.5442 189.802 61.3694 200.649 61.3694C211.495 61.3694 220.32 52.5442 220.32 41.6973C220.32 30.8508 211.495 22.0264 200.649 22.0264ZM200.648 55.8921C192.809 55.8921 186.454 49.5368 186.454 41.6977C186.454 33.8582 192.809 27.5033 200.648 27.5033C208.488 27.5033 214.843 33.8582 214.843 41.6977C214.843 49.5368 208.488 55.8921 200.648 55.8921Z" fill="#FFF6C3"/>
<path d="M239.412 38.5716L242.346 36.3224L241.015 29.9977L237.357 28.8548C236.192 25.5118 234.608 22.4043 232.663 19.5912L234.072 16.1934L229.758 11.3817L226.02 12.2207C223.386 9.95678 220.46 8.05191 217.323 6.56051L216.842 2.89852L210.7 0.888946L207.893 3.47453C204.534 2.83616 201.051 2.64492 197.523 2.93367L195.274 0L188.949 1.33077L187.806 4.98973C184.463 6.15458 181.355 7.73859 178.542 9.68316L175.145 8.27377L170.333 12.5889L171.172 16.3264C168.908 18.9608 167.003 21.8861 165.511 25.0235L161.85 25.5039L159.84 31.6467L162.425 34.453C161.787 37.8127 161.596 41.2947 161.885 44.8237L158.951 47.0729L160.282 53.3975L163.941 54.5405C165.105 57.8831 166.69 60.9906 168.634 63.8041L167.225 67.2015L171.54 72.0136L175.278 71.1742C177.912 73.4385 180.837 75.3434 183.975 76.8348L184.455 80.4968L190.598 82.5063L193.404 79.9207C196.763 80.5587 200.246 80.7504 203.774 80.4612L206.024 83.3953L212.349 82.0645L213.491 78.4055C216.835 77.2407 219.942 75.6567 222.755 73.7121L226.153 75.1211L230.965 70.8061L230.126 67.0688C232.389 64.4345 234.295 61.5088 235.786 58.3718L239.448 57.8914L241.457 51.7485L238.872 48.9422C239.51 45.5826 239.702 42.1005 239.412 38.5716ZM200.649 62.8358C188.993 62.8358 179.511 53.3533 179.511 41.6973C179.511 30.042 188.993 20.5595 200.649 20.5595C212.305 20.5595 221.787 30.042 221.787 41.6973C221.787 53.3533 212.305 62.8358 200.649 62.8358Z" fill="#FFF6C3"/>
<path d="M90.475 90.6135C77.1193 90.6135 66.2539 101.479 66.2539 114.835C66.2539 128.19 77.1193 139.056 90.475 139.056C103.83 139.056 114.696 128.19 114.696 114.835C114.696 101.479 103.83 90.6135 90.475 90.6135ZM90.4747 132.312C80.8221 132.312 72.997 124.487 72.997 114.835C72.997 105.182 80.8221 97.3573 90.4747 97.3573C100.127 97.3573 107.952 105.182 107.952 114.835C107.952 124.487 100.127 132.312 90.4747 132.312Z" fill="#FFF2B3"/>
<path d="M138.205 110.985L141.817 108.216L140.178 100.428L135.674 99.0213C134.239 94.905 132.289 91.079 129.894 87.615L131.629 83.4315L126.316 77.5067L121.714 78.54C118.471 75.7522 114.869 73.4066 111.006 71.5702L110.414 67.0616L102.85 64.5867L99.3951 67.7702C95.2588 66.9845 90.9709 66.7494 86.626 67.1047L83.8564 63.4922L76.0686 65.131L74.6615 69.6358C70.5456 71.0705 66.7192 73.0208 63.2553 75.4151L59.0721 73.6803L53.1469 78.9932L54.1802 83.5951C51.3925 86.8387 49.0469 90.441 47.21 94.3037L42.7018 94.8952L40.2274 102.459L43.4109 105.914C42.6247 110.051 42.3896 114.339 42.7453 118.684L39.1328 121.453L40.7716 129.241L45.2764 130.648C46.7108 134.764 48.6614 138.59 51.0553 142.054L49.3205 146.238L54.6334 152.163L59.2358 151.129C62.4794 153.917 66.0816 156.262 69.9439 158.099L70.5354 162.607L78.0994 165.082L81.5546 161.898C85.6913 162.684 89.9792 162.919 94.3237 162.564L97.0937 166.177L104.881 164.537L106.288 160.033C110.405 158.598 114.231 156.648 117.694 154.254L121.878 155.989L127.803 150.676L126.77 146.074C129.557 142.831 131.903 139.228 133.74 135.366L138.248 134.774L140.722 127.21L137.539 123.755C138.325 119.618 138.56 115.33 138.205 110.985ZM90.4754 140.862C76.1234 140.862 64.4485 129.186 64.4485 114.834C64.4485 100.483 76.1234 88.8075 90.4754 88.8075C104.827 88.8075 116.502 100.483 116.502 114.834C116.502 129.186 104.827 140.862 90.4754 140.862Z" fill="#FFF6C3"/>
<path d="M302.405 41.6978C276.133 41.6978 254.759 63.0717 254.759 89.3448C254.759 115.617 276.133 136.991 302.405 136.991C328.678 136.991 350.052 115.617 350.052 89.3448C350.052 63.0717 328.678 41.6978 302.405 41.6978ZM302.405 102.782C294.984 102.782 288.968 96.7658 288.968 89.3444C288.968 81.9233 294.984 75.907 302.405 75.907C309.827 75.907 315.843 81.9233 315.843 89.3444C315.843 96.7658 309.827 102.782 302.405 102.782Z" fill="#FFF6C3"/>
<path d="M361.963 84.5416L366.471 81.0856L364.426 71.368L358.805 69.612C357.015 64.476 354.58 59.7014 351.593 55.3791L353.758 50.1588L347.128 42.7661L341.386 44.0552C337.339 40.5766 332.844 37.6497 328.024 35.3582L327.286 29.732L317.847 26.6445L313.536 30.6171C308.374 29.6364 303.024 29.3427 297.602 29.7864L294.146 25.2786L284.429 27.3237L282.673 32.945C277.537 34.7349 272.762 37.1686 268.44 40.1559L263.22 37.991L255.826 44.6211L257.116 50.3637C253.637 54.4108 250.71 58.9058 248.419 63.7254L242.793 64.4636L239.705 73.9018L243.677 78.2135C242.697 83.3752 242.403 88.7255 242.847 94.1472L238.339 97.6032L240.384 107.321L246.005 109.076C247.795 114.212 250.229 118.987 253.216 123.31L251.052 128.53L257.681 135.923L263.424 134.634C267.471 138.112 271.966 141.039 276.786 143.331L277.524 148.956L286.962 152.044L291.274 148.072C296.436 149.052 301.786 149.346 307.208 148.902L310.664 153.41L320.381 151.365L322.137 145.744C327.273 143.954 332.048 141.52 336.37 138.533L341.59 140.698L348.983 134.068L347.694 128.325C351.172 124.278 354.1 119.783 356.391 114.963L362.017 114.225L365.105 104.787L361.132 100.475C362.113 95.3136 362.407 89.9633 361.963 84.5416ZM302.405 140.074C274.433 140.074 251.676 117.316 251.676 89.3446C251.676 61.3723 274.433 38.615 302.405 38.615C330.377 38.615 353.135 61.3723 353.135 89.3446C353.135 117.316 330.377 140.074 302.405 140.074Z" fill="#FFF6C3"/>
<path d="M54.7321 178.737H70.467L107.898 293.903H17.3008L54.7321 178.737Z" fill="#FF5B50"/>
<path d="M54.7389 178.737L17.3076 293.903L44.2851 293.884L59.1519 178.737H54.7389Z" fill="#FF5B50" fill-opacity="0.45098"/>
<path d="M100.656 271.621H24.542L31.8562 249.117H93.3415L100.656 271.621Z" fill="white"/>
<path d="M86.1173 226.89H39.0811L46.3952 204.385H78.8032L86.1173 226.89Z" fill="white"/>
<path d="M123.063 298.276H2.13543C0.955843 298.276 0 297.32 0 296.141V296.038C0 294.859 0.955843 293.903 2.13543 293.903H123.063C124.243 293.903 125.198 294.859 125.198 296.038V296.141C125.198 297.32 124.243 298.276 123.063 298.276Z" fill="#FF9D96"/>
<path d="M231.99 278.638C231.99 278.638 230.235 288.622 239.009 294.764H161.385C161.385 294.764 171.01 289.5 169.281 278.638H231.99Z" fill="#282F44"/>
<path d="M247.499 298.123H153.798C152.92 298.123 152.202 297.405 152.202 296.527V296.072C152.202 295.194 152.92 294.477 153.798 294.477H247.499C248.376 294.477 249.094 295.194 249.094 296.072V296.527C249.094 297.405 248.376 298.123 247.499 298.123Z" fill="#646F87"/>
<path d="M325.806 281.625H75.4902C71.4109 281.625 68.0732 278.288 68.0732 274.208V97.4982C68.0732 93.5724 71.2851 90.3606 75.2109 90.3606H326.085C330.011 90.3606 333.223 93.5724 333.223 97.4982V274.208C333.223 278.288 329.885 281.625 325.806 281.625Z" fill="#3D4B69"/>
<path d="M68.0732 253.244V97.2824C68.0732 93.4753 71.1879 90.3606 74.9951 90.3606H326.301C330.108 90.3606 333.223 93.4753 333.223 97.2824V253.244H68.0732Z" fill="#282F44"/>
<path d="M78.4414 241.883V100.728H322.856V241.883H78.4414Z" fill="#FFF6C3"/>
<path d="M78.4414 180.722L158.436 100.728H219.053L78.4414 241.338V180.722Z" fill="#FFD12D" fill-opacity="0.360784"/>
<path d="M78.4414 143.974L121.688 100.728H141.334L78.4414 163.62V143.974Z" fill="#FFD12D" fill-opacity="0.360784"/>
<path d="M252.033 90.3606H75.2109H74.9951C71.1883 90.3606 68.0732 93.4753 68.0732 97.2824V97.4982V253.244V274.208C68.0732 278.288 71.4109 281.625 75.4902 281.625H143.055L252.033 90.3606Z" fill="#3D4B69" fill-opacity="0.301961"/>
<path d="M286.591 219.026H302.326L339.758 334.192H249.16L286.591 219.026Z" fill="#FF5B50"/>
<path d="M332.516 311.911H256.402L263.716 289.407H325.202L332.516 311.911Z" fill="white"/>
<path d="M317.977 267.179H270.94L278.255 244.675H310.663L317.977 267.179Z" fill="white"/>
<path d="M354.923 338.566H233.995C232.816 338.566 231.859 337.61 231.859 336.431V336.327C231.859 335.148 232.816 334.192 233.995 334.192H354.923C356.102 334.192 357.058 335.148 357.058 336.327V336.431C357.058 337.61 356.102 338.566 354.923 338.566Z" fill="#FF9D96"/>
<path d="M286.591 219.026L249.16 334.192L276.138 334.173L291.004 219.026H286.591Z" fill="#FF5B50" fill-opacity="0.45098"/>
<path d="M74.1553 230.45C74.7974 230.597 74.1553 229.611 74.1553 230.45Z" fill="#3D4B69" fill-opacity="0.101961"/>
<path d="M65.8145 255.062C67.877 254.631 65.7204 256.725 65.8145 255.062Z" fill="#3D4B69" fill-opacity="0.101961"/>
<path d="M68.7379 260.076C70.8499 261.712 64.3256 261.065 68.7379 260.076Z" fill="#3D4B69" fill-opacity="0.101961"/>
<path d="M214.825 254.119C213.785 254.119 212.282 252.913 214.825 254.119Z" fill="#3D4B69" fill-opacity="0.101961"/>
<path d="M66.96 282.035C68.0005 285.118 67.0941 282.574 66.96 282.035Z" fill="#3D4B69" fill-opacity="0.101961"/>
<path d="M206.457 254.283C207.257 254.946 206.617 255.584 206.457 254.283Z" fill="#3D4B69" fill-opacity="0.101961"/>
<path d="M109.358 235.502C109.653 236.269 110.381 234.855 109.653 234.875C109.338 234.775 109.373 235.171 109.358 235.502Z" fill="#3D4B69" fill-opacity="0.101961"/>
<path d="M268.81 112.115C270.917 112.115 268.711 113.853 268.81 112.115Z" fill="#3D4B69" fill-opacity="0.101961"/>
<path d="M316.327 117.162C316.327 118.841 316.231 117.075 316.327 117.162Z" fill="#3D4B69" fill-opacity="0.101961"/>
<path d="M271.314 128.592C272.446 128.785 272.043 127.98 271.314 128.592Z" fill="#3D4B69" fill-opacity="0.101961"/>
<path d="M317.576 111.373C318.728 112.982 315.572 111.373 317.576 111.373Z" fill="#3D4B69" fill-opacity="0.101961"/>
<path d="M315.493 114.045C314.269 113.948 312.295 114.29 315.493 114.045Z" fill="#3D4B69" fill-opacity="0.101961"/>
<path d="M317.368 110.633C317.82 110.65 317.658 112.298 317.368 110.633Z" fill="#3D4B69" fill-opacity="0.101961"/>
<path d="M316.537 118.832C319.032 118.832 318.589 117.344 316.537 118.832Z" fill="#3D4B69" fill-opacity="0.101961"/>
<path d="M240.889 253.338C243.269 253.085 240.889 254.934 240.889 253.338Z" fill="#3D4B69" fill-opacity="0.101961"/>
<path d="M271.315 253.807C272.046 253.687 270.701 253.057 270.687 253.492C270.662 253.776 270.895 253.862 271.315 253.807Z" fill="#3D4B69" fill-opacity="0.101961"/>
<path d="M282.148 254.278C283.401 254.492 281.621 259.404 282.148 254.278Z" fill="#3D4B69" fill-opacity="0.101961"/>
<path d="M273.813 255.531C277.01 255.102 273.304 254.279 273.813 255.531Z" fill="#3D4B69" fill-opacity="0.101961"/>
<path d="M238.799 262.744C239.271 262.8 237.904 258.571 238.799 262.744Z" fill="#3D4B69" fill-opacity="0.101961"/>
<path d="M252.349 267.445C255.068 267.751 252.343 267.57 252.349 267.445Z" fill="#3D4B69" fill-opacity="0.101961"/>
<path d="M271.315 279.987C273.976 278.126 270.787 278.518 271.315 279.987Z" fill="#3D4B69" fill-opacity="0.101961"/>
<path d="M315.702 112.874C316.593 110.337 315.996 114.325 315.702 112.874Z" fill="#3D4B69" fill-opacity="0.101961"/>
<path d="M254.014 254.749C254.495 255.769 254.435 255.623 254.014 254.749Z" fill="#3D4B69" fill-opacity="0.101961"/>
<path d="M285.484 263.683C285.837 263.683 285.784 264.817 285.484 263.683Z" fill="#3D4B69" fill-opacity="0.101961"/>
<path d="M278.813 268.854C280.566 269.33 278.905 268.538 278.813 268.854Z" fill="#3D4B69" fill-opacity="0.101961"/>
<path d="M276.793 274.735C277.389 275.256 276.793 273.058 276.793 274.735Z" fill="#3D4B69" fill-opacity="0.101961"/>
<path d="M301.528 114.881C301.497 115.076 301.439 114.669 301.528 114.881Z" fill="#3D4B69" fill-opacity="0.101961"/>
<path d="M277.263 280.993C279.904 280.993 277.102 282.533 277.263 280.993Z" fill="#3D4B69" fill-opacity="0.101961"/>
<path d="M281.174 117.595C282.619 117.656 280.811 118.426 281.174 117.595Z" fill="#3D4B69" fill-opacity="0.101961"/>
<path d="M274.443 126.36C274.882 126.456 275.761 125.245 274.757 125.319C274.232 125.104 274.512 125.967 274.443 126.36Z" fill="#3D4B69" fill-opacity="0.101961"/>
<path d="M273.818 251.15C273.261 249.69 272.111 251.772 273.818 251.15Z" fill="#3D4B69" fill-opacity="0.101961"/>
<path d="M270.532 126.779C272.986 126.61 268.623 124.808 270.532 126.779Z" fill="#3D4B69" fill-opacity="0.101961"/>
<path d="M255.813 251.776C257.83 251.143 255.903 250.876 255.813 251.776Z" fill="#3D4B69" fill-opacity="0.101961"/>
<path d="M247.518 261.792C249.958 265.463 248.793 261.396 247.518 261.792Z" fill="#3D4B69" fill-opacity="0.101961"/>
<path d="M310.295 110.708C310.344 111.536 310.329 108.794 310.295 110.708Z" fill="#3D4B69" fill-opacity="0.101961"/>
<path d="M308.884 109.877C308.884 111.644 307.858 108.955 308.884 109.877Z" fill="#3D4B69" fill-opacity="0.101961"/>
<path d="M304.972 112.38C304.994 112.182 303.884 113.635 304.972 112.38Z" fill="#3D4B69" fill-opacity="0.101961"/>
<path d="M273.975 278.698C274.615 280.701 273.957 279.198 273.975 278.698Z" fill="#3D4B69" fill-opacity="0.101961"/>
<path d="M272.722 123.231C272.356 120.131 270.344 125.736 272.722 123.231Z" fill="#3D4B69" fill-opacity="0.101961"/>
<path d="M261.606 268.267C263.497 267.643 261.606 271.7 261.606 268.267Z" fill="#3D4B69" fill-opacity="0.101961"/>
<path d="M250.649 250.733C250.68 249.282 250.622 250.685 250.649 250.733Z" fill="#3D4B69" fill-opacity="0.101961"/>
<path d="M236.871 260.542C236.582 258.63 235.854 260.542 236.871 260.542Z" fill="#3D4B69" fill-opacity="0.101961"/>
<path d="M333.512 202.974L331.238 203.397L312.244 206.939L292.837 210.558L273.843 214.1L253.197 217.951L234.203 221.493L214.797 225.112L195.802 228.653L177.775 232.015L158.781 235.558L139.375 239.176L120.381 242.718L99.7343 246.568L80.7399 250.111L68.3623 252.419V210.539L333.512 153.952L333.512 202.974Z" fill="#FFD12D" fill-opacity="0.721569"/>
<path d="M248.35 176.837L212.971 228.437L232.377 224.818L267.757 173.219L248.35 176.837Z" fill="#282F44"/>
<path d="M211.329 183.741L175.949 235.341L193.976 231.979L229.356 180.379L211.329 183.741Z" fill="#282F44"/>
<path d="M286.751 169.676L251.371 221.276L272.017 217.426L307.397 165.826L286.751 169.676Z" fill="#282F44"/>
<path d="M95.756 205.437L67.306 246.931L67.252 255.755L79.7826 253.418L115.162 201.818L95.756 205.437Z" fill="#282F44"/>
<path d="M67.3418 222.571L76.6493 208.997L67.414 210.719L67.3418 222.571Z" fill="#282F44"/>
<path d="M326.392 162.284L291.012 213.884L310.418 210.265L334.629 174.954V160.748L326.392 162.284Z" fill="#282F44"/>
<path d="M133.289 198.294L97.9092 249.894L118.555 246.044L153.935 194.444L133.289 198.294Z" fill="#282F44"/>
<path d="M172.929 190.902L137.549 242.502L156.955 238.883L192.335 187.283L172.929 190.902Z" fill="#282F44"/>
<path d="M114.904 201.486L79.5244 253.086L98.5188 249.544L133.899 197.944L114.904 201.486Z" fill="#FFDA57"/>
<path d="M76.6493 208.997L67.3419 222.571L67.1934 246.948L95.6434 205.455L76.6493 208.997Z" fill="#FFDA57"/>
<path d="M192.335 187.283L156.955 238.883L175.949 235.341L211.329 183.741L192.335 187.283Z" fill="#FFDA57"/>
<path d="M153.934 194.444L118.555 246.044L137.549 242.502L172.929 190.902L153.934 194.444Z" fill="#FFDA57"/>
<path d="M267.757 173.218L232.377 224.818L251.371 221.276L286.751 169.676L267.757 173.218Z" fill="#FFDA57"/>
<path d="M229.356 180.379L193.977 231.979L212.971 228.437L248.351 176.837L229.356 180.379Z" fill="#FFDA57"/>
<path d="M334.629 174.954L310.418 210.265L329.412 206.723L334.629 199.114V174.954Z" fill="#FFDA57"/>
<path d="M307.398 165.826L272.018 217.426L291.012 213.884L326.392 162.284L307.398 165.826Z" fill="#FFDA57"/>
<path d="M55.7783 206.601C56.634 206.732 56.4806 206.129 55.7783 206.601Z" fill="#3D4B69" fill-opacity="0.101961"/>
<path d="M188.525 193.417C188.882 191.238 187.605 192.995 188.525 193.417Z" fill="#3D4B69" fill-opacity="0.101961"/>
<path d="M166.65 197.652C168.043 193.64 166.219 197.733 166.65 197.652Z" fill="#3D4B69" fill-opacity="0.101961"/>
<path d="M77.2437 206.586C80.1361 206.096 77.1669 206.814 77.2437 206.586Z" fill="#3D4B69" fill-opacity="0.101961"/>
<path d="M175.881 194.395C175.832 196.119 174.519 194.395 175.881 194.395Z" fill="#3D4B69" fill-opacity="0.101961"/>
<path d="M171.73 194.815C172.77 194.074 171.922 192.914 171.73 194.815Z" fill="#3D4B69" fill-opacity="0.101961"/>
<path d="M175.586 198.57C176.847 199.172 175.837 196.918 175.586 198.57Z" fill="#3D4B69" fill-opacity="0.101961"/>
<path d="M87.9764 216.933C89.6043 216.933 87.8702 215.694 87.9764 216.933Z" fill="#3D4B69" fill-opacity="0.101961"/>
<path d="M276.069 157.469C276.264 160.13 274.95 157.614 276.069 157.469Z" fill="#3D4B69" fill-opacity="0.101961"/>
<path d="M231.981 195.021C233.154 195.021 232.177 197.138 231.981 195.021Z" fill="#3D4B69" fill-opacity="0.101961"/>
<path d="M325.131 207.566L334.668 197.653L334.624 205.686L325.131 207.566Z" fill="#282F44"/>
<path d="M169.874 207.151L142.786 160.234C142.36 159.495 142.36 158.586 142.786 157.848L169.874 110.93C170.3 110.192 171.088 109.738 171.94 109.738H226.116C226.968 109.738 227.756 110.192 228.182 110.93L255.27 157.848C255.697 158.586 255.697 159.495 255.27 160.234L228.182 207.151C227.756 207.89 226.968 208.344 226.116 208.344H171.94C171.088 208.344 170.3 207.89 169.874 207.151Z" fill="#1F1D21" fill-opacity="0.301961"/>
<path d="M174.049 202.723L146.961 155.805C146.535 155.067 146.535 154.158 146.961 153.419L174.049 106.502C174.476 105.764 175.263 105.309 176.115 105.309H230.291C231.144 105.309 231.931 105.764 232.358 106.502L259.445 153.419C259.872 154.158 259.872 155.067 259.445 155.805L232.358 202.723C231.931 203.461 231.144 203.916 230.291 203.916H176.115C175.263 203.916 174.476 203.461 174.049 202.723Z" fill="#F4F6F6"/>
<path d="M229.742 111.416L253.882 153.227C254.377 154.084 254.377 155.141 253.882 155.998L229.742 197.808C229.248 198.666 228.333 199.194 227.343 199.194H179.063C178.073 199.194 177.158 198.666 176.663 197.808L152.524 155.998C152.029 155.141 152.029 154.084 152.524 153.227L176.663 111.416C177.158 110.559 178.073 110.031 179.063 110.031H227.343C228.333 110.031 229.248 110.559 229.742 111.416Z" fill="#C40008"/>
<path d="M253.884 155.998L253.668 156.37L228.651 113.041C228.104 112.097 227.094 111.514 226.001 111.514H176.609L176.664 111.418C177.16 110.558 178.074 110.03 179.065 110.03H227.343C228.334 110.03 229.248 110.558 229.743 111.418L253.884 153.228C254.379 154.084 254.379 155.141 253.884 155.998Z" fill="white" fill-opacity="0.501961"/>
<path d="M188.979 194.923C187.635 194.923 186.619 194.541 185.93 193.776C185.242 193.012 184.897 191.916 184.897 190.489V189.481H187.517V190.69C187.517 191.832 187.996 192.403 188.954 192.403C189.424 192.403 189.781 192.265 190.024 191.988C190.268 191.711 190.39 191.261 190.39 190.64C190.39 189.901 190.222 189.25 189.886 188.687C189.55 188.124 188.928 187.448 188.022 186.659C186.879 185.651 186.082 184.74 185.628 183.925C185.174 183.111 184.948 182.191 184.948 181.166C184.948 179.772 185.3 178.693 186.006 177.929C186.711 177.165 187.736 176.782 189.079 176.782C190.406 176.782 191.41 177.165 192.091 177.929C192.771 178.693 193.111 179.789 193.111 181.217V181.948H190.491V181.04C190.491 180.436 190.373 179.995 190.138 179.718C189.903 179.441 189.558 179.302 189.105 179.302C188.181 179.302 187.719 179.865 187.719 180.99C187.719 181.628 187.891 182.225 188.236 182.779C188.58 183.333 189.206 184.005 190.113 184.794C191.272 185.802 192.069 186.718 192.506 187.541C192.943 188.364 193.161 189.33 193.161 190.438C193.161 191.883 192.804 192.991 192.091 193.764C191.377 194.536 190.34 194.923 188.979 194.923Z" fill="#F4F6F6"/>
<path d="M196.915 179.554H194.018V177.035H202.584V179.554H199.687V194.671H196.915V179.554Z" fill="#F4F6F6"/>
<path d="M207.824 194.923C206.463 194.923 205.422 194.536 204.699 193.764C203.977 192.991 203.616 191.899 203.616 190.489V181.217C203.616 179.806 203.977 178.714 204.699 177.941C205.422 177.169 206.463 176.782 207.824 176.782C209.184 176.782 210.226 177.169 210.948 177.941C211.67 178.714 212.031 179.806 212.031 181.217V190.489C212.031 191.899 211.67 192.991 210.948 193.764C210.226 194.536 209.184 194.923 207.824 194.923ZM207.824 192.403C208.781 192.403 209.26 191.824 209.26 190.665V181.04C209.26 179.881 208.781 179.302 207.824 179.302C206.866 179.302 206.388 179.881 206.388 181.04V190.665C206.388 191.824 206.866 192.403 207.824 192.403Z" fill="#F4F6F6"/>
<path d="M213.896 177.035H217.978C219.356 177.035 220.389 177.404 221.077 178.143C221.766 178.882 222.11 179.966 222.11 181.393V183.132C222.11 184.559 221.766 185.643 221.077 186.382C220.389 187.121 219.356 187.49 217.978 187.49H216.668V194.671H213.896V177.035ZM217.978 184.971C218.432 184.971 218.772 184.845 218.998 184.593C219.225 184.341 219.339 183.913 219.339 183.308V181.217C219.339 180.612 219.225 180.184 218.998 179.932C218.772 179.68 218.432 179.554 217.978 179.554H216.668V184.971H217.978Z" fill="#F4F6F6"/>
<path d="M188.979 194.923C187.635 194.923 186.619 194.541 185.93 193.776C185.242 193.012 184.897 191.916 184.897 190.489V189.481H187.517V190.69C187.517 191.832 187.996 192.403 188.954 192.403C189.424 192.403 189.781 192.265 190.024 191.988C190.268 191.711 190.39 191.261 190.39 190.64C190.39 189.901 190.222 189.25 189.886 188.687C189.55 188.124 188.928 187.448 188.022 186.659C186.879 185.651 186.082 184.74 185.628 183.925C185.174 183.111 184.948 182.191 184.948 181.166C184.948 179.772 185.3 178.693 186.006 177.929C186.711 177.165 187.736 176.782 189.079 176.782C190.406 176.782 191.41 177.165 192.091 177.929C192.771 178.693 193.111 179.789 193.111 181.217V181.948H190.491V181.04C190.491 180.436 190.373 179.995 190.138 179.718C189.903 179.441 189.558 179.302 189.105 179.302C188.181 179.302 187.719 179.865 187.719 180.99C187.719 181.628 187.891 182.225 188.236 182.779C188.58 183.333 189.206 184.005 190.113 184.794C191.272 185.802 192.069 186.718 192.506 187.541C192.943 188.364 193.161 189.33 193.161 190.438C193.161 191.883 192.804 192.991 192.091 193.764C191.377 194.536 190.34 194.923 188.979 194.923Z" fill="#F4F6F6"/>
<path d="M196.915 179.554H194.018V177.035H202.584V179.554H199.687V194.671H196.915V179.554Z" fill="#F4F6F6"/>
<path d="M207.824 194.923C206.463 194.923 205.422 194.536 204.699 193.764C203.977 192.991 203.616 191.899 203.616 190.489V181.217C203.616 179.806 203.977 178.714 204.699 177.941C205.422 177.169 206.463 176.782 207.824 176.782C209.184 176.782 210.226 177.169 210.948 177.941C211.67 178.714 212.031 179.806 212.031 181.217V190.489C212.031 191.899 211.67 192.991 210.948 193.764C210.226 194.536 209.184 194.923 207.824 194.923ZM207.824 192.403C208.781 192.403 209.26 191.824 209.26 190.665V181.04C209.26 179.881 208.781 179.302 207.824 179.302C206.866 179.302 206.388 179.881 206.388 181.04V190.665C206.388 191.824 206.866 192.403 207.824 192.403Z" fill="#F4F6F6"/>
<path d="M213.896 177.035H217.978C219.356 177.035 220.389 177.404 221.077 178.143C221.766 178.882 222.11 179.966 222.11 181.393V183.132C222.11 184.559 221.766 185.643 221.077 186.382C220.389 187.121 219.356 187.49 217.978 187.49H216.668V194.671H213.896V177.035ZM217.978 184.971C218.432 184.971 218.772 184.845 218.998 184.593C219.225 184.341 219.339 183.913 219.339 183.308V181.217C219.339 180.612 219.225 180.184 218.998 179.932C218.772 179.68 218.432 179.554 217.978 179.554H216.668V184.971H217.978Z" fill="#F4F6F6"/>
<path d="M227.954 143.015L227.69 142.816C224.542 140.446 220.068 141.941 217.697 145.089L215.649 147.809V124.184C215.649 122.227 214.117 120.547 212.16 120.512C210.166 120.475 208.539 122.081 208.539 124.066V142.65C208.539 142.907 208.33 143.115 208.073 143.115C207.816 143.115 207.607 142.907 207.607 142.65V118.979C207.607 117.021 206.076 115.342 204.119 115.306C202.125 115.27 200.497 116.875 200.497 118.861V142.65C200.497 142.907 200.289 143.115 200.032 143.115H199.82C199.563 143.115 199.355 142.907 199.355 142.65V123.423C199.355 121.465 197.823 119.786 195.866 119.75C193.872 119.714 192.244 121.319 192.244 123.305V142.65C192.244 142.907 192.036 143.115 191.779 143.115H191.736C191.479 143.115 191.271 142.907 191.271 142.65V130.575C191.271 128.617 189.74 126.938 187.783 126.902C185.789 126.866 184.161 128.471 184.161 130.457V150.433V154.412V155.653C184.161 164.083 190.995 170.917 199.425 170.917H204.109C210.748 170.917 216.394 166.678 218.494 160.759C219.561 157.752 221.16 154.96 223.079 152.412L228.301 145.478C228.885 144.702 228.73 143.599 227.954 143.015Z" fill="#F4F6F6"/>
</svg>
