<svg width="145" height="568" viewBox="0 0 145 568" fill="none" xmlns="http://www.w3.org/2000/svg">
<path fill-rule="evenodd" clip-rule="evenodd" d="M0.447266 0.264648H144.069V567.194H0.447266V0.264648Z" fill="#FFDA96"/>
<mask id="mask0_208_1080" style="mask-type:luminance" maskUnits="userSpaceOnUse" x="0" y="0" width="145" height="568">
<path d="M0.447266 0.264648H144.069V567.194H0.447266V0.264648Z" fill="white"/>
</mask>
<g mask="url(#mask0_208_1080)">
<path d="M250.086 103.396H-163.946V498.837H250.086V103.396Z" fill="#FFDA96"/>
<path d="M101.221 465.779H109.037V465.471H101.221V465.779Z" fill="#EDEDEB"/>
<path d="M136.775 421.16C136.528 418.365 136.637 414.286 139.161 413.142C143.106 411.354 145.446 407.157 145.314 402.408C145.182 397.662 149.335 393.04 152.448 397.49C155.563 401.941 155.147 394.068 159.3 392.157C163.453 390.245 166.973 394.885 165.835 399.125C164.698 403.367 168.795 406.015 173.702 402.408C178.609 398.803 184.007 405.365 182.97 410.498C181.931 415.634 182.781 416.204 185.885 414.492C188.517 413.042 192.889 416.31 192.983 421.16H136.775Z" fill="#E0E1E2"/>
<path d="M162.626 421.16H70.2794C68.98 415.207 72.3392 408.065 75.9974 407.058C80.4928 405.823 85.0116 394.954 85.2247 388.035C85.4379 381.115 93.5299 359.833 106.117 372.975C118.704 386.118 114.879 374.911 123.985 371.218C133.09 367.526 138.834 378.15 134.839 386.118C134.839 386.118 143.985 382.968 147.753 394.704C151.521 406.44 147.753 413.73 147.753 413.73C147.753 413.73 159.316 413.267 162.626 421.16Z" fill="#E0E1E2"/>
<path d="M156.028 123.321C156.028 120.026 154.084 117.353 151.685 117.353C151.251 117.353 150.833 117.444 150.438 117.606C150.501 117.008 150.535 116.396 150.535 115.773C150.535 108.795 146.418 103.137 141.339 103.137C140.76 103.137 140.194 103.213 139.645 103.354C138.231 100.177 135.69 98.0469 132.781 98.0469C128.377 98.0469 124.805 102.908 124.74 108.938L124.606 108.928C120.514 108.928 117.197 113.487 117.197 119.108C117.197 124.73 120.514 129.288 124.606 129.288H151.812L151.807 129.28C154.149 129.189 156.028 126.559 156.028 123.321Z" fill="#F3F4F4"/>
<path d="M67.7842 125.885C67.7842 123.835 66.5759 122.175 65.0845 122.175C64.8147 122.175 64.555 122.23 64.3097 122.332C64.349 121.96 64.3698 121.579 64.3698 121.193C64.3698 116.854 61.8099 113.335 58.6525 113.335C58.2927 113.335 57.9405 113.384 57.5996 113.471C56.7205 111.495 55.1406 110.172 53.3314 110.172C50.5939 110.172 48.3733 113.195 48.3325 116.943L48.249 116.937C45.7054 116.937 43.644 119.77 43.644 123.266C43.644 126.761 45.7054 129.594 48.249 129.594H65.1643L65.1608 129.59C66.6167 129.532 67.7842 127.898 67.7842 125.885Z" fill="#F3F4F4"/>
<path d="M153.567 226.976C153.704 226.295 153.786 225.516 153.823 224.656C154.031 219.845 157.373 220.608 160.217 219.955C162.439 219.445 156.556 211.732 161.035 209.246C161.867 208.784 162.772 208.261 163.196 207.175C163.759 205.74 163.19 203.85 162.221 202.907C161.252 201.965 160.008 201.765 158.821 201.736C158.09 200.516 158.684 198.678 159.391 197.432C160.098 196.185 160.964 194.767 160.696 193.231C160.291 190.91 157.931 190.826 156.226 191.277C155.596 189.875 155.608 188.122 155.302 186.528C154.996 184.935 154.074 183.262 152.884 183.462C151.762 183.65 151.077 185.39 149.976 185.746C148.7 186.159 147.594 184.608 146.592 183.442C145.59 182.279 143.837 181.552 143.147 183.085C142.734 184.003 142.981 185.283 142.553 186.187C141.808 187.755 140.043 186.782 138.948 185.671C137.852 184.561 136.107 183.553 135.336 185.097C135.1 185.568 135.048 186.164 134.911 186.705C134.393 188.761 132.776 189.784 131.516 191.103C130.257 192.42 129.26 195.043 130.325 196.65C130.851 197.443 131.776 197.765 132.037 198.776C132.364 200.04 131.423 201.173 130.68 202.042C129.442 203.488 129.218 207.817 130.855 209C131.541 209.498 132.549 209.65 132.717 210.691C132.868 211.622 132.181 212.347 131.724 213.064C130.469 215.036 131 218.587 132.719 219.718C133.112 219.976 133.595 220.189 133.741 220.753C133.845 221.157 133.73 221.597 133.646 222.01C133.487 222.791 133.434 223.612 133.489 224.419C133.509 224.696 133.549 224.994 133.703 225.176C133.841 225.339 134.038 225.365 134.221 225.376C134.801 225.411 135.308 225.369 135.763 225.327C137.163 225.196 138.079 225.065 139.166 227.197C139.305 227.469 139.451 227.748 139.659 227.915C139.854 228.072 140.086 228.113 140.311 228.139C141.936 228.323 142.997 226.929 144.482 226.67C146.542 226.309 146.978 227.768 148.792 228.94C151.648 230.785 153.031 229.648 153.567 226.976Z" fill="#EDEDEB"/>
<path d="M126.351 222.935C126.488 222.254 126.569 221.475 126.606 220.615C126.814 215.805 130.157 216.566 133.001 215.915C135.222 215.404 129.34 207.692 133.819 205.205C134.65 204.743 135.555 204.22 135.981 203.134C136.543 201.699 135.974 199.807 135.006 198.866C134.035 197.925 132.791 197.726 131.604 197.695C130.873 196.474 131.468 194.638 132.175 193.391C132.882 192.145 133.748 190.726 133.48 189.189C133.075 186.869 130.715 186.785 129.009 187.236C128.379 185.834 128.392 184.081 128.086 182.487C127.779 180.894 126.858 179.221 125.667 179.421C124.546 179.609 123.86 181.348 122.76 181.706C121.483 182.118 120.377 180.566 119.376 179.402C118.373 178.238 116.621 177.511 115.931 179.044C115.518 179.964 115.766 181.242 115.336 182.146C114.592 183.714 112.827 182.742 111.732 181.63C110.636 180.519 108.891 179.513 108.119 181.056C107.883 181.528 107.831 182.123 107.695 182.664C107.176 184.72 105.56 185.744 104.3 187.062C103.041 188.38 102.043 191.001 103.109 192.609C103.635 193.402 104.56 193.725 104.82 194.736C105.146 196 104.207 197.131 103.464 198.001C102.226 199.447 102.002 203.776 103.638 204.959C104.325 205.457 105.333 205.609 105.501 206.651C105.652 207.58 104.964 208.306 104.507 209.024C103.252 210.997 103.784 214.546 105.503 215.677C105.896 215.936 106.378 216.148 106.524 216.713C106.628 217.116 106.514 217.556 106.43 217.969C106.271 218.75 106.216 219.571 106.272 220.378C106.291 220.655 106.333 220.953 106.486 221.135C106.625 221.298 106.822 221.324 107.004 221.335C107.585 221.371 108.091 221.328 108.547 221.286C109.946 221.155 110.862 221.025 111.951 223.156C112.088 223.428 112.234 223.707 112.443 223.874C112.638 224.031 112.869 224.072 113.095 224.098C114.719 224.282 115.781 222.888 117.266 222.629C119.325 222.268 119.761 223.727 121.577 224.899C124.432 226.744 125.815 225.607 126.351 222.935Z" fill="#EDEDEB"/>
<path d="M123.728 199.119C123.865 198.439 123.946 197.66 123.984 196.799C124.191 191.989 127.534 192.751 130.378 192.099C132.6 191.589 126.717 183.877 131.196 181.389C132.029 180.927 132.932 180.404 133.359 179.319C133.921 177.883 133.351 175.993 132.382 175.051C131.413 174.109 130.168 173.91 128.982 173.879C128.251 172.659 128.845 170.823 129.552 169.575C130.259 168.33 131.125 166.912 130.857 165.374C130.452 163.054 128.093 162.971 126.387 163.42C125.757 162.02 125.769 160.265 125.464 158.672C125.157 157.08 124.235 155.407 123.044 155.606C121.923 155.793 121.238 157.533 120.137 157.89C118.861 158.304 117.755 156.751 116.752 155.586C115.751 154.422 113.998 153.696 113.309 155.229C112.895 156.148 113.143 157.427 112.714 158.331C111.969 159.899 110.204 158.926 109.108 157.814C108.013 156.704 106.268 155.697 105.497 157.24C105.261 157.712 105.208 158.307 105.072 158.849C104.553 160.904 102.937 161.928 101.677 163.247C100.418 164.565 99.4206 167.186 100.486 168.795C101.012 169.588 101.936 169.909 102.198 170.921C102.524 172.184 101.584 173.316 100.841 174.186C99.6032 175.632 99.3791 179.961 101.016 181.145C101.702 181.641 102.71 181.793 102.879 182.835C103.029 183.766 102.342 184.491 101.885 185.209C100.63 187.181 101.161 190.73 102.88 191.862C103.273 192.12 103.756 192.332 103.902 192.897C104.006 193.301 103.892 193.741 103.807 194.153C103.648 194.934 103.594 195.755 103.65 196.564C103.67 196.839 103.71 197.138 103.863 197.32C104.003 197.484 104.199 197.508 104.382 197.52C104.963 197.556 105.469 197.513 105.924 197.47C107.324 197.339 108.24 197.21 109.328 199.341C109.466 199.612 109.611 199.891 109.819 200.06C110.015 200.216 110.246 200.256 110.472 200.282C112.097 200.466 113.158 199.072 114.643 198.813C116.703 198.452 117.139 199.911 118.953 201.084C121.809 202.928 123.192 201.792 123.728 199.119Z" fill="#EDEDEB"/>
<path d="M105.8 210.981C105.936 210.301 106.018 209.521 106.055 208.662C106.262 203.851 109.605 204.613 112.449 203.961C114.671 203.451 108.788 195.738 113.268 193.251C114.1 192.789 115.004 192.267 115.43 191.181C115.993 189.745 115.422 187.855 114.454 186.914C113.485 185.972 112.24 185.772 111.053 185.741C110.322 184.521 110.916 182.685 111.623 181.437C112.33 180.192 113.197 178.774 112.928 177.236C112.524 174.916 110.163 174.833 108.458 175.283C107.828 173.882 107.841 172.128 107.535 170.535C107.229 168.941 106.306 167.269 105.116 167.467C103.994 167.656 103.309 169.396 102.209 169.752C100.932 170.164 99.8261 168.613 98.8242 167.449C97.8226 166.284 96.0696 165.558 95.3799 167.092C94.9664 168.01 95.2143 169.29 94.7849 170.193C94.0404 171.761 92.2761 170.788 91.1804 169.677C90.0844 168.566 88.339 167.559 87.5676 169.102C87.3321 169.574 87.28 170.17 87.1431 170.711C86.6246 172.766 85.008 173.79 83.7495 175.108C82.4894 176.427 81.4916 179.048 82.5578 180.657C83.0832 181.45 84.0084 181.771 84.2688 182.783C84.5961 184.046 83.6558 185.178 82.9131 186.048C81.6749 187.494 81.4504 191.823 83.0866 193.007C83.7737 193.503 84.7817 193.655 84.9495 194.697C85.1006 195.628 84.4128 196.354 83.9559 197.071C82.7007 199.043 83.2321 202.592 84.9514 203.724C85.3441 203.982 85.8271 204.195 85.9726 204.759C86.0769 205.163 85.9639 205.602 85.8793 206.016C85.719 206.796 85.6661 207.618 85.7221 208.425C85.741 208.701 85.7821 209 85.9352 209.182C86.0735 209.346 86.2704 209.371 86.4537 209.382C87.0335 209.417 87.5408 209.374 87.9955 209.332C89.3946 209.201 90.3111 209.072 91.3996 211.203C91.5379 211.475 91.6827 211.754 91.8913 211.922C92.0867 212.077 92.3184 212.118 92.5433 212.144C94.1681 212.328 95.2298 210.935 96.7141 210.675C98.7739 210.314 99.2108 211.774 101.025 212.946C103.88 214.79 105.264 213.654 105.8 210.981Z" fill="#EDEDEB"/>
<path d="M87.6803 205.503C87.8167 204.823 87.8976 204.043 87.9354 203.184C88.1433 198.372 91.486 199.135 94.3301 198.482C96.5517 197.972 90.6688 190.261 95.1479 187.773C95.9805 187.31 96.8854 186.788 97.3095 185.702C97.8722 184.266 97.303 182.377 96.3339 181.435C95.3656 180.494 94.1195 180.294 92.9335 180.262C92.2025 179.042 92.797 177.206 93.5038 175.96C94.2113 174.713 95.0769 173.295 94.8093 171.757C94.4045 169.437 92.0446 169.354 90.3389 169.805C89.7085 168.403 89.7209 166.649 89.4155 165.056C89.1097 163.463 88.1871 161.79 86.997 161.989C85.8748 162.177 85.1897 163.917 84.0902 164.273C82.8127 164.687 81.7068 163.134 80.704 161.971C79.7025 160.805 77.9503 160.079 77.2598 161.613C76.8471 162.531 77.0942 163.811 76.6653 164.714C75.9211 166.282 74.1561 165.309 73.0611 164.197C71.9651 163.087 70.2189 162.081 69.4487 163.623C69.2121 164.095 69.1606 164.691 69.0242 165.233C68.5064 167.287 66.8888 168.311 65.629 169.63C64.3705 170.948 63.3723 173.569 64.4378 175.178C64.9639 175.971 65.8887 176.292 66.1507 177.304C66.4761 178.568 65.5365 179.699 64.793 180.569C63.5549 182.016 63.3311 186.344 64.9676 187.528C65.6544 188.025 66.6613 188.176 66.8302 189.218C66.9814 190.149 66.2935 190.875 65.8369 191.592C64.5817 193.564 65.1131 197.113 66.8321 198.245C67.2251 198.503 67.7078 198.716 67.8537 199.28C67.9576 199.684 67.8435 200.124 67.76 200.537C67.6001 201.317 67.546 202.139 67.6016 202.947C67.6205 203.222 67.662 203.521 67.8159 203.703C67.9542 203.867 68.1511 203.892 68.3344 203.903C68.9142 203.938 69.4215 203.895 69.8765 203.853C71.2753 203.723 72.1914 203.593 73.2796 205.724C73.4179 205.996 73.5638 206.275 73.7721 206.443C73.9675 206.598 74.1984 206.641 74.4241 206.665C76.0485 206.849 77.1105 205.456 78.5947 205.197C80.6546 204.836 81.0907 206.295 82.9053 207.467C85.7607 209.311 87.1444 208.175 87.6803 205.503Z" fill="#EDEDEB"/>
<path d="M87.4435 232.135C87.5516 231.599 87.6151 230.985 87.6439 230.308C87.8075 226.521 90.4404 227.121 92.679 226.607C94.4289 226.205 89.7967 220.134 93.3237 218.174C93.9791 217.811 94.6912 217.4 95.0264 216.545C95.4686 215.413 95.0211 213.926 94.2577 213.185C93.4953 212.443 92.5146 212.285 91.5803 212.262C91.005 211.3 91.4721 209.854 92.0289 208.873C92.5863 207.891 93.2678 206.774 93.0565 205.565C92.7383 203.738 90.8799 203.671 89.5367 204.027C89.0404 202.922 89.0502 201.542 88.8091 200.287C88.5691 199.032 87.8426 197.715 86.9049 197.873C86.022 198.02 85.4827 199.39 84.6169 199.671C83.6107 199.997 82.7406 198.775 81.9511 197.857C81.1623 196.941 79.7824 196.369 79.2393 197.575C78.9139 198.299 79.109 199.306 78.7707 200.019C78.1845 201.252 76.7947 200.486 75.9318 199.611C75.0693 198.737 73.6955 197.945 73.0877 199.159C72.9018 199.531 72.861 199.999 72.7533 200.425C72.3462 202.045 71.0729 202.851 70.0815 203.888C69.0894 204.926 68.3037 206.99 69.1427 208.257C69.5569 208.882 70.2853 209.135 70.4905 209.93C70.7475 210.926 70.0075 211.818 69.4224 212.501C68.4477 213.642 68.2707 217.05 69.5596 217.982C70.1 218.373 70.8941 218.493 71.0261 219.313C71.1447 220.046 70.6034 220.617 70.244 221.181C69.2557 222.734 69.6737 225.53 71.0279 226.42C71.3374 226.624 71.7177 226.791 71.8319 227.236C71.9135 227.554 71.8246 227.9 71.7581 228.224C71.6323 228.839 71.59 229.487 71.6338 230.123C71.6493 230.339 71.6818 230.575 71.8023 230.717C71.9119 230.847 72.0666 230.867 72.2102 230.875C74.0716 230.99 74.9688 230.085 76.1042 232.31C76.2138 232.523 76.3283 232.743 76.492 232.875C76.6454 232.998 76.828 233.031 77.006 233.05C78.2846 233.195 79.1207 232.098 80.2897 231.894C81.9115 231.61 82.2558 232.759 83.6837 233.682C85.9321 235.133 87.021 234.239 87.4435 232.135Z" fill="#EDEDEB"/>
<path d="M77.2911 222.935C77.4279 222.254 77.5088 221.475 77.5455 220.615C77.7545 215.805 81.0971 216.566 83.9408 215.915C86.1624 215.404 80.2788 207.692 84.7591 205.205C85.5917 204.743 86.4954 204.22 86.9202 203.134C87.4834 201.699 86.9142 199.807 85.9451 198.866C84.9757 197.925 83.7307 197.726 82.5436 197.695C81.8134 196.474 82.4079 194.638 83.1146 193.391C83.8221 192.145 84.688 190.726 84.42 189.189C84.0156 186.869 81.6553 186.785 79.9496 187.236C79.3196 185.834 79.3313 184.081 79.0256 182.487C78.7198 180.894 77.7984 179.221 76.607 179.421C75.4857 179.609 74.8008 181.348 73.7002 181.706C72.4235 182.118 71.3176 180.566 70.3152 179.402C69.3137 178.238 67.5611 177.511 66.8706 179.044C66.4582 179.964 66.7054 181.242 66.2753 182.146C65.5318 183.714 63.7672 182.742 62.6711 181.63C61.5762 180.519 59.8301 179.513 59.0594 181.056C58.8232 181.528 58.7718 182.123 58.635 182.664C58.1165 184.72 56.4996 185.744 55.2399 187.062C53.9805 188.38 52.9834 191.001 54.0489 192.609C54.5746 193.402 55.4987 193.725 55.7607 194.736C56.0872 195.999 55.1476 197.131 54.4042 198.001C53.166 199.447 52.9419 203.776 54.5776 204.959C55.2651 205.457 56.272 205.609 56.4413 206.651C56.5914 207.58 55.9046 208.306 55.4469 209.024C54.1929 210.997 54.724 214.546 56.4433 215.677C56.836 215.936 57.319 216.148 57.4637 216.713C57.5688 217.116 57.4543 217.556 57.37 217.969C57.2109 218.75 57.1572 219.571 57.2128 220.378C57.2316 220.655 57.2729 220.953 57.4259 221.135C57.565 221.298 57.7619 221.324 57.9444 221.335C60.3074 221.48 61.4485 220.331 62.8904 223.156C63.0291 223.428 63.1738 223.707 63.3821 223.874C63.5783 224.031 63.8095 224.072 64.0348 224.098C65.6596 224.282 66.7213 222.888 68.2059 222.629C70.2657 222.268 70.7019 223.727 72.5161 224.899C75.3708 226.744 76.7544 225.607 77.2911 222.935Z" fill="#EDEDEB"/>
<path d="M105.8 181.688C105.936 181.008 106.018 180.227 106.055 179.368C106.262 174.556 109.605 175.32 112.449 174.666C114.671 174.156 108.788 166.445 113.268 163.957C114.1 163.495 115.004 162.973 115.43 161.887C115.993 160.451 115.422 158.561 114.454 157.619C113.485 156.678 112.24 156.478 111.053 156.447C110.322 155.226 110.916 153.39 111.623 152.144C112.33 150.897 113.197 149.479 112.928 147.942C112.524 145.621 110.163 145.539 108.458 145.989C107.828 144.587 107.841 142.833 107.535 141.241C107.229 139.647 106.306 137.974 105.116 138.175C103.994 138.361 103.309 140.101 102.209 140.457C100.932 140.871 99.8261 139.318 98.8242 138.155C97.8226 136.989 96.0696 136.263 95.3799 137.796C94.9664 138.716 95.2143 139.996 94.7849 140.898C94.0404 142.466 92.2761 141.494 91.1804 140.382C90.0844 139.271 88.339 138.266 87.5676 139.807C87.3321 140.281 87.28 140.875 87.1431 141.417C86.6246 143.473 85.008 144.496 83.7495 145.814C82.4894 147.132 81.4916 149.753 82.5578 151.362C83.0832 152.155 84.0084 152.478 84.2688 153.488C84.5961 154.752 83.6558 155.885 82.9131 156.753C81.6749 158.2 81.4504 162.528 83.0866 163.712C83.7737 164.209 84.7817 164.362 84.9495 165.402C85.1006 166.334 84.4128 167.059 83.9559 167.777C82.7007 169.748 83.2321 173.297 84.9514 174.429C85.3441 174.689 85.8271 174.9 85.9726 175.465C86.0769 175.868 85.9639 176.31 85.8793 176.721C85.719 177.501 85.6661 178.323 85.7221 179.131C85.741 179.407 85.7821 179.707 85.9352 179.887C86.0735 180.051 86.2704 180.076 86.4537 180.088C87.0347 180.123 87.5408 180.081 87.9966 180.037C89.3946 179.908 90.3111 179.777 91.3996 181.908C91.5379 182.18 91.6827 182.46 91.8913 182.627C92.0867 182.783 92.3184 182.825 92.5433 182.85C94.1681 183.034 95.2298 181.64 96.7141 181.381C98.7739 181.02 99.2108 182.48 101.025 183.651C103.88 185.495 105.264 184.36 105.8 181.688Z" fill="#EDEDEB"/>
<path d="M129.077 183.323C129.214 182.642 129.294 181.863 129.333 181.004C129.54 176.192 132.883 176.954 135.727 176.302C137.948 175.792 132.066 168.081 136.545 165.592C137.377 165.131 138.282 164.608 138.707 163.522C139.269 162.086 138.7 160.196 137.732 159.255C136.762 158.312 135.517 158.114 134.331 158.084C133.6 156.862 134.194 155.026 134.901 153.78C135.608 152.533 136.474 151.115 136.206 149.578C135.801 147.257 133.441 147.173 131.736 147.625C131.105 146.223 131.118 144.47 130.812 142.875C130.506 141.283 129.584 139.61 128.394 139.809C127.272 139.996 126.587 141.737 125.487 142.093C124.209 142.507 123.104 140.954 122.102 139.79C121.1 138.627 119.348 137.899 118.657 139.433C118.244 140.351 118.491 141.631 118.062 142.535C117.318 144.102 115.553 143.128 114.458 142.019C113.362 140.907 111.617 139.901 110.845 141.443C110.61 141.915 110.558 142.511 110.421 143.053C109.903 145.107 108.286 146.131 107.026 147.45C105.767 148.768 104.769 151.389 105.836 152.998C106.361 153.791 107.286 154.112 107.547 155.124C107.874 156.388 106.933 157.519 106.19 158.388C104.952 159.836 104.728 164.163 106.364 165.348C107.051 165.845 108.059 165.997 108.227 167.039C108.378 167.969 107.69 168.693 107.234 169.412C105.979 171.384 106.51 174.933 108.229 176.065C108.622 176.324 109.105 176.537 109.25 177.1C109.354 177.504 109.24 177.944 109.157 178.356C108.997 179.138 108.944 179.959 108.998 180.767C109.018 181.042 109.06 181.343 109.213 181.523C109.351 181.687 109.548 181.712 109.732 181.723C110.311 181.759 110.819 181.717 111.273 181.673C112.672 181.544 113.589 181.413 114.676 183.544C114.815 183.815 114.961 184.096 115.169 184.263C115.364 184.418 115.596 184.461 115.821 184.485C117.446 184.671 118.507 183.277 119.992 183.016C122.052 182.656 122.489 184.114 124.303 185.287C127.157 187.131 128.541 185.995 129.077 183.323Z" fill="#EDEDEB"/>
<path d="M143.216 196.412C143.353 195.732 143.434 194.952 143.471 194.093C143.679 189.282 147.022 190.044 149.866 189.391C152.088 188.88 146.205 181.17 150.684 178.681C151.517 178.22 152.42 177.698 152.845 176.612C153.408 175.175 152.839 173.285 151.87 172.344C150.902 171.402 149.656 171.203 148.469 171.173C147.739 169.952 148.333 168.115 149.039 166.869C149.747 165.622 150.613 164.204 150.345 162.667C149.94 160.346 147.58 160.263 145.875 160.714C145.244 159.312 145.257 157.559 144.952 155.965C144.646 154.372 143.723 152.699 142.533 152.898C141.411 153.085 140.726 154.826 139.626 155.182C138.348 155.596 137.243 154.044 136.241 152.879C135.238 151.716 133.486 150.988 132.796 152.522C132.383 153.44 132.63 154.72 132.202 155.624C131.457 157.191 129.692 156.218 128.597 155.108C127.501 153.996 125.755 152.99 124.984 154.532C124.748 155.004 124.697 155.599 124.56 156.142C124.041 158.196 122.425 159.22 121.165 160.539C119.906 161.857 118.908 164.478 119.974 166.087C120.5 166.88 121.425 167.201 121.685 168.213C122.012 169.476 121.072 170.609 120.329 171.478C119.091 172.924 118.867 177.254 120.503 178.437C121.19 178.934 122.197 179.087 122.366 180.127C122.517 181.058 121.83 181.783 121.373 182.501C120.117 184.473 120.649 188.022 122.368 189.155C122.761 189.413 123.244 189.624 123.389 190.189C123.494 190.593 123.379 191.033 123.296 191.445C123.136 192.226 123.082 193.047 123.138 193.856C123.156 194.131 123.198 194.43 123.352 194.612C123.49 194.776 123.687 194.8 123.87 194.813C124.45 194.848 124.957 194.805 125.412 194.762C126.811 194.633 127.728 194.502 128.816 196.633C128.955 196.904 129.099 197.184 129.308 197.352C129.503 197.508 129.734 197.55 129.96 197.574C131.585 197.758 132.646 196.366 134.131 196.105C136.191 195.745 136.627 197.205 138.441 198.376C141.297 200.22 142.68 199.085 143.216 196.412Z" fill="#EDEDEB"/>
<path d="M138.929 212.956C138.929 212.956 133.017 224.443 130.977 228.085C128.938 231.727 118.744 254.42 117.357 269.429C117.208 271.031 117.062 272.41 116.919 273.616C121.305 313.386 120.617 386.148 120.462 398.606H106.57C106.442 384.56 105.262 256.154 104.826 252.232C104.365 248.085 98.5574 232.286 89.5863 225.796C80.6153 219.305 72.8623 197.828 72.8623 197.828H75.7215C75.7215 197.828 81.0223 210.994 88.567 218.279C89.6627 219.337 90.7972 220.216 91.9606 221.043C91.6911 209.177 94.9608 197.828 94.9608 197.828L96.5047 199.788C94.4207 211.516 94.6947 219.027 95.3252 223.342C97.8578 225.085 100.484 227.104 103.126 230.514C110.952 216.534 115.352 184.556 115.352 184.556L117.357 186.06C117.357 186.06 116.705 194.745 114.769 205.672C113.302 213.948 108.988 229.53 106.98 236.606C108.975 240.414 110.957 245.335 112.891 251.852C113.11 251.389 113.357 250.968 113.646 250.609C118.744 244.276 128.327 214.357 128.327 214.357C130.644 207.4 127.103 189.142 127.103 189.142H129.778L130.977 205.111L137.706 195.025L138.929 196.427L131.793 209.034L128.123 225.006L137.706 210.433L138.929 212.956Z" fill="#E8E7E8"/>
<path d="M-129.237 418.763H201.263C205.193 418.763 208.38 423.142 208.38 428.542V443.27H-136.353V428.542C-136.353 423.142 -133.167 418.763 -129.237 418.763Z" fill="#E0E1E2"/>
<path d="M210.337 484.04C210.337 491.766 132.29 498.028 36.013 498.028C-60.2637 498.028 -138.311 491.766 -138.311 484.04C-138.311 476.314 -60.2637 470.05 36.013 470.05C132.29 470.05 210.337 476.314 210.337 484.04Z" fill="#F3F4F4"/>
<path d="M62.1807 360.4H-55.2236C-59.1123 360.4 -62.2637 356.356 -62.2637 351.365V140.306C-62.2637 135.316 -59.1123 131.271 -55.2236 131.271H62.1807C66.0683 131.271 69.2204 135.316 69.2204 140.306V351.365C69.2204 356.356 66.0683 360.4 62.1807 360.4Z" fill="#D7D8D9"/>
<path d="M50.7929 361.049H-54.7179C-55.0547 361.049 -55.3842 361.02 -55.7082 360.962C-59.1271 360.344 -61.7581 356.574 -61.7581 352.014V140.955C-61.7581 135.966 -58.6067 131.92 -54.7179 131.92H62.6859C66.5739 131.92 69.726 135.966 69.726 140.955V306.883H58.3848L56.5336 320.088H69.726V330.77H55.0365L53.1853 343.977H69.726V352.014C69.726 352.934 69.6187 353.822 69.4203 354.657H51.6882L50.7929 361.049ZM-11.7833 316.941V321.284H19.8903V316.941H-11.7833ZM-7.16167 278.815V283.158H15.2687V278.815H-7.16167ZM-31.5865 251.942C-35.6457 251.942 -38.9358 256.166 -38.9358 261.374C-38.9358 266.583 -35.6457 270.807 -31.5865 270.807H39.5533C43.6125 270.807 46.9022 266.583 46.9022 261.374C46.9022 256.166 43.6125 251.942 39.5533 251.942H-31.5865ZM-31.5865 225.193C-35.6457 225.193 -38.9358 229.414 -38.9358 234.624C-38.9358 239.833 -35.6457 244.055 -31.5865 244.055H39.5533C43.6125 244.055 46.9022 239.833 46.9022 234.624C46.9022 229.414 43.6125 225.193 39.5533 225.193H-31.5865ZM-13.6746 193.359C-13.6746 200.421 -11.157 206.721 -7.21911 210.874C-4.17129 214.094 -0.269295 216.022 3.98343 216.022C8.24522 216.022 12.1472 214.082 15.195 210.874C19.1329 206.709 21.6417 200.409 21.6417 193.359C21.6417 180.852 13.7388 170.709 3.98343 170.709C-5.76284 170.709 -13.6746 180.852 -13.6746 193.359Z" fill="#FEFEFE" stroke="#FFF3AD" stroke-width="0.288" stroke-miterlimit="22.9256"/>
<path d="M-8.39722 283.343H16.553V278.693H-8.39722V283.343Z" fill="#FEFEFE"/>
<path d="M39.0477 303.292H-32.0921C-36.1513 303.292 -39.4414 299.324 -39.4414 294.427C-39.4414 289.533 -36.1513 285.563 -32.0921 285.563H39.0477C43.1069 285.563 46.3966 289.533 46.3966 294.427C46.3966 299.324 43.1069 303.292 39.0477 303.292Z" fill="#C40008"/>
<path d="M-11.7832 321.414H19.9984V316.765H-11.7832V321.414Z" fill="#FEFEFE"/>
<path d="M39.0477 243.148H-32.0921C-36.1513 243.148 -39.4414 238.628 -39.4414 233.051C-39.4414 227.473 -36.1513 222.953 -32.0921 222.953H39.0477C43.1069 222.953 46.3966 227.473 46.3966 233.051C46.3966 238.628 43.1069 243.148 39.0477 243.148Z" fill="#FEFEFE"/>
<path d="M39.0477 270.04H-32.0921C-36.1513 270.04 -39.4414 265.517 -39.4414 259.94C-39.4414 254.364 -36.1513 249.842 -32.0921 249.842H39.0477C43.1069 249.842 46.3966 254.364 46.3966 259.94C46.3966 265.517 43.1069 270.04 39.0477 270.04Z" fill="#FEFEFE"/>
<path d="M127.413 149.761H101.584C97.1907 149.761 93.6304 154.654 93.6304 160.689V191.576C93.6304 197.613 97.1907 202.506 101.584 202.506H111.799L114.498 212.258L117.197 202.506H127.414C131.806 202.506 135.366 197.613 135.366 191.576V160.689C135.366 154.654 131.806 149.761 127.413 149.761Z" fill="#4B7ABC"/>
<path d="M114.498 212.258L113.887 210.049L111.984 203.173L111.799 202.506H101.584C99.6391 202.506 97.857 201.546 96.4759 199.953C96.0254 199.434 95.6172 198.849 95.2604 198.206C95.1085 197.934 94.9656 197.649 94.8326 197.355C94.266 196.11 93.8775 194.697 93.7158 193.182C93.6591 192.659 93.6304 192.122 93.6304 191.576V160.689C93.6304 154.654 97.1907 149.761 101.584 149.761H127.413C131.806 149.761 135.366 154.654 135.366 160.689V191.576C135.366 195.998 133.457 199.805 130.708 201.526C130.133 201.885 129.523 202.155 128.885 202.318C128.408 202.441 127.916 202.506 127.414 202.506H117.197L114.498 212.258Z" fill="#F8E8C7"/>
<path d="M127.318 176.001C127.318 185.729 121.578 193.615 114.498 193.615C107.418 193.615 101.679 185.729 101.679 176.001C101.679 166.272 107.418 158.385 114.498 158.385C121.578 158.385 127.318 166.272 127.318 176.001Z" fill="#FFDA96"/>
<path d="M113.152 183.869C112.807 183.869 112.478 183.66 112.254 183.297L107.225 175.154C106.804 174.472 106.865 173.452 107.36 172.873C107.856 172.296 108.599 172.377 109.021 173.06L113.152 179.749L119.976 168.703C120.396 168.021 121.141 167.938 121.635 168.516C122.132 169.095 122.193 170.117 121.772 170.798L114.05 183.297C113.827 183.66 113.499 183.869 113.152 183.869Z" fill="#FEFEFE"/>
<path d="M31.9957 484.67H37.9334L25.7965 390.541H19.8589L31.9957 484.67Z" fill="#313F44"/>
<path d="M37.9333 484.67H31.9957L26.9924 445.868H32.93L37.9333 484.67ZM31.8653 437.606H25.928L25.2859 432.628C26.6246 429.897 28.2215 426.655 29.9926 423.087L31.8653 437.606ZM23.0212 415.068L20.3616 394.437H26.2992L27.1677 401.178C25.6797 406.06 24.2843 410.752 23.0212 415.068Z" fill="#6A767A"/>
<path d="M-19.6533 445.868H159.404V437.606H-19.6533V445.868Z" fill="#313F44"/>
<path d="M159.404 445.868H112.757L113.823 437.606H159.404V445.868ZM106.821 445.868H68.5087C68.7029 443.12 68.8965 440.36 69.0877 437.606H107.886L106.821 445.868ZM57.0552 445.868H-17.7488L-16.6845 437.606H16.6324C16.4121 438.413 16.2961 438.845 16.2961 438.845L20.9864 441.448C20.9864 441.448 21.6645 440.043 22.8512 437.606H56.3163C56.5646 440.421 56.813 443.188 57.0552 445.868Z" fill="#949CA0"/>
<path d="M107.754 484.67H101.818L113.954 390.541H119.892L107.754 484.67Z" fill="#313F44"/>
<path d="M107.754 484.67H101.818L113.453 394.437H119.389L118.852 398.606L113.823 437.606L112.757 445.868L107.754 484.67Z" fill="#6A767A"/>
<path d="M31.0869 386.883H36.9951L46.885 311.341H40.9772L31.0869 386.883Z" fill="#313F44"/>
<path d="M32.3502 384.657H31.3782L33.6043 367.65H38.089C36.1532 373.114 34.2203 378.877 32.3502 384.657ZM41.3644 353.51H35.4555L36.9525 342.075H42.8614L41.3644 353.51ZM44.7116 327.935H38.8038L40.3008 316.499H46.2093L44.7116 327.935Z" fill="#6A767A"/>
<path d="M89.7461 386.883H95.6543L105.543 311.341H99.6352L89.7461 386.883Z" fill="#313F44"/>
<path d="M90.6865 384.657H90.0376L90.0501 384.557C90.264 384.591 90.4764 384.625 90.6865 384.657Z" fill="#6A767A"/>
<path d="M20.8821 316.499H176.039L177.889 302.36H22.7337L20.8821 316.499Z" fill="#313F44"/>
<path d="M17.5342 342.076H172.69L174.541 327.936H19.3854L17.5342 342.076Z" fill="#313F44"/>
<path d="M14.1865 367.651H169.343L171.193 353.51H16.037L14.1865 367.651Z" fill="#313F44"/>
<path d="M-29.9307 394.437H167.806V384.657H-29.9307V394.437Z" fill="#313F44"/>
<path d="M176.039 316.499H126.936C127.756 312.199 128.722 307.209 129.618 302.36H177.889L176.039 316.499ZM95.0409 316.499H20.8821L22.7337 302.36H77.8252C80.0808 304.153 82.6373 305.872 84.2897 306.008C84.323 306.012 84.3562 306.014 84.3914 306.014C85.5555 306.014 87.6981 304.475 90.0977 302.36H94.1905C94.4169 306.829 94.7578 311.714 95.0409 316.499Z" fill="#949CA0"/>
<path d="M172.69 342.076H127.594C126.299 337.308 124.728 330.805 124.938 327.975C124.939 327.962 124.939 327.949 124.941 327.936H174.541L172.69 342.076ZM92.342 342.076H90.908L91.0358 341.479L88.6781 339.77L88.3319 341.241C82.5031 337.822 70.8195 331.716 61.6507 331.716C59.0837 331.716 56.7139 332.194 54.7251 333.344C52.9328 334.382 50.8076 337.509 48.4881 342.076H17.5342L19.3854 327.936H95.2326L94.925 333.09C94.3667 334.675 93.6932 337.018 93.1361 339.089C92.8239 340.228 92.5469 341.283 92.342 342.076Z" fill="#949CA0"/>
<path d="M169.343 367.651H127.738C127.975 365.8 128.078 363.896 128.078 361.986C128.078 359.123 127.848 356.244 127.493 353.51H171.193L169.343 367.651ZM38.089 367.651H14.1865L16.037 353.51H43.3981C41.6565 357.829 39.8718 362.613 38.089 367.651Z" fill="#949CA0"/>
<path d="M167.806 394.437H119.256V384.657H115.165H167.806V394.437Z" fill="#949CA0"/>
<path d="M119.256 394.437H72.01C72.2651 390.562 72.4829 387.243 72.6511 384.657H90.6866C92.8409 384.989 94.8145 385.192 96.5146 385.313C98.4459 385.503 99.9797 385.553 101.045 385.553C102.081 385.553 102.674 385.505 102.759 385.5C104.216 385.666 105.65 385.749 107.045 385.749C109.972 385.749 112.726 385.384 115.165 384.657H119.256V394.437Z" fill="#ABB1B4"/>
<path d="M52.9269 394.437H44.5322C46.2878 391.073 48.0298 387.78 49.7117 384.657H52.3804C52.5195 387.637 52.7047 390.927 52.9269 394.437Z" fill="#ABB1B4"/>
<path d="M29.2446 394.437H-29.9307V384.657H32.3503C31.2909 387.928 30.2523 391.205 29.2446 394.437Z" fill="#ABB1B4"/>
<path d="M103.971 283.866C101.451 287.698 98.8801 291.224 96.073 294.664C94.6678 296.371 93.2248 298.051 91.6359 299.66C90.8414 300.467 90.0134 301.263 89.0855 302.048C88.6161 302.435 88.1179 302.818 87.5506 303.197C86.9734 303.571 86.3412 303.959 85.4163 304.279C84.9299 304.428 84.3687 304.579 83.564 304.535C83.3527 304.517 83.1138 304.483 82.9301 304.442L82.6021 304.342C82.3881 304.271 82.1606 304.198 81.9611 304.114C81.2146 303.776 80.5739 303.379 80.0425 302.971C78.9597 302.143 78.1063 301.265 77.2964 300.38C75.6916 298.615 74.3559 296.731 73.0573 294.835C70.4978 290.996 68.2724 287.006 66.2171 282.701C65.5371 281.278 65.8267 279.369 66.8619 278.435C67.7142 277.668 68.8076 277.8 69.5453 278.666L69.5948 278.722C72.2688 281.861 74.9973 285.054 77.7004 287.954C79.0418 289.412 80.4254 290.775 81.7354 291.907C82.387 292.459 83.0428 292.937 83.5685 293.217C83.8353 293.378 84.036 293.43 84.1479 293.457L84.1638 293.435L84.1657 293.433C84.0939 293.41 83.9661 293.385 83.8671 293.383C83.5129 293.356 83.3988 293.398 83.3462 293.399C83.2899 293.393 83.4842 293.278 83.7042 293.08C83.9325 292.885 84.2049 292.63 84.4892 292.343C85.0655 291.773 85.6831 291.096 86.2992 290.372C87.5291 288.911 88.7842 287.317 90.0186 285.671C92.4833 282.387 94.9789 278.889 97.3687 275.501L97.4144 275.435C99.1409 272.988 101.984 272.926 103.764 275.298C105.506 277.617 105.582 281.412 103.971 283.866Z" fill="#FBB779"/>
<path d="M101.687 272.802V290.506C101.687 290.506 98.9637 293.619 95.6184 297.052C93.9467 298.771 92.1208 300.562 90.4125 302.082C87.814 304.404 85.4772 306.108 84.2896 306.009C80.7475 305.713 73.061 298.165 73.061 298.165L78.1139 286.601C78.1139 286.601 83.9219 291.482 84.2896 291.816C84.6581 292.137 96.8411 272.913 101.687 272.802Z" fill="#FFF6C3"/>
<path d="M90.4126 302.082C90.8144 292.016 94.2363 288.092 94.2968 288.022C94.2968 288.024 94.2961 288.026 94.2961 288.026C93.9019 290.58 93.8776 294.316 94.0296 298.66C92.8277 299.854 91.5922 301.033 90.4126 302.082Z" fill="#FFF3AD"/>
<path d="M106.605 226.25C100.401 233.207 101.13 253.218 108.105 266.353C108.105 266.353 122.994 268.067 131.262 262.979C139.531 257.893 130.39 225.489 121.649 222.938C112.908 220.387 106.605 226.25 106.605 226.25Z" fill="#313F44"/>
<path d="M106.967 247.05C104.693 241.657 102.435 227.123 111.891 222.633C123.695 217.025 128.987 227.368 130.006 237.619C131.026 247.87 126.822 255.622 119.021 254.851C111.218 254.081 108.538 250.78 106.967 247.05Z" fill="#313F44"/>
<path d="M94.2959 288.026C93.1401 295.519 95.164 313.187 95.497 326.501L123.295 330.904C123.302 326.725 123.864 320.67 125.675 311.049C126.718 305.415 128.203 298.552 130.244 290.128C130.544 288.875 130.856 287.6 131.185 286.28C132.648 280.393 130.124 274.452 125.759 273.516C124.595 273.26 123.353 273.036 122.084 272.867C117.135 272.173 113.067 271.656 108.642 271.885C107.175 271.952 105.65 272.102 104.187 272.272C98.9295 272.878 95.3734 281.002 94.2959 288.026Z" fill="#313F44"/>
<path d="M121.944 251.998C120.544 257.855 118.685 268.636 121.343 272.807C121.343 272.807 117.279 271.664 108.296 278.416C105.971 273.27 107.903 271.826 107.903 271.826C112.872 270.602 113.205 265.696 112.793 261.036L121.944 251.998Z" fill="#FBB578"/>
<path d="M112.907 264.327C112.911 264.248 112.913 264.169 112.916 264.09C112.914 264.169 112.911 264.248 112.909 264.327C112.909 264.327 112.908 264.327 112.907 264.327ZM112.797 261.032C112.797 261.031 112.797 261.031 112.797 261.031L113.529 260.31L112.797 261.032Z" fill="#2E373B"/>
<path d="M112.909 264.327C112.911 264.248 112.914 264.169 112.916 264.09C112.944 263.086 112.89 262.055 112.797 261.032L113.529 260.309L118.214 255.687C118.312 256.31 118.235 257.579 118.015 258.889C117.572 261.513 114.785 264.096 112.909 264.327Z" fill="#CC9360"/>
<path d="M123.799 238.322C123.895 248.098 124.087 252.232 120.783 257.595C115.812 265.661 107.054 263.686 104.834 254.146C102.836 245.56 103.015 231.016 109.736 226.43C116.357 221.913 123.704 228.546 123.799 238.322Z" fill="#FAB27A"/>
<path d="M117.768 229.179C115.795 232.575 120.289 243.275 123.826 245.098C130.707 241.982 123.655 219.044 117.768 229.179Z" fill="#313F44"/>
<path d="M109.345 224.627C106.727 226.208 104.272 232.964 103.952 235.488C107.841 235.89 117.864 229.71 117.864 229.71C117.864 229.71 124.927 231.498 121.127 227.114C117.327 222.728 109.345 224.627 109.345 224.627Z" fill="#313F44"/>
<path d="M111.969 242.3C112.012 243.092 111.743 243.766 111.365 243.805C110.988 243.843 110.647 243.232 110.604 242.44C110.561 241.648 110.832 240.975 111.209 240.935C111.586 240.896 111.926 241.507 111.969 242.3Z" fill="#313F44"/>
<path d="M105.452 242.97C105.495 243.763 105.224 244.436 104.848 244.475C104.471 244.514 104.13 243.904 104.087 243.112C104.044 242.319 104.314 241.645 104.691 241.606C105.068 241.568 105.409 242.178 105.452 242.97Z" fill="#313F44"/>
<path d="M104.86 241.633L103.445 241.226C103.445 241.226 104.236 242.64 104.86 241.633Z" fill="#313F44"/>
<path d="M108.215 243.96C108.215 243.96 107.423 247.471 106.436 249.228C107.25 250.126 108.52 249.547 108.52 249.547L108.215 243.96Z" fill="#F68D4A"/>
<path d="M111.834 252.326C111.572 252.409 111.291 252.47 110.99 252.501C110.897 252.511 110.814 252.414 110.808 252.286C110.8 252.157 110.879 252.045 110.964 252.036C113.503 251.773 114.544 249.224 114.554 249.199C114.6 249.086 114.702 249.044 114.785 249.107C114.867 249.169 114.897 249.311 114.852 249.423C114.811 249.526 113.934 251.658 111.834 252.326Z" fill="#313F44"/>
<path d="M126.204 247.046C125.805 248.997 124.787 250.513 123.72 251.303C122.115 252.492 120.913 250.654 121.023 248.284C121.123 246.152 122.078 242.963 123.85 242.751C125.596 242.541 126.662 244.816 126.204 247.046Z" fill="#FAB27A"/>
<path d="M115.163 239.975C115.023 240.02 114.873 239.938 114.796 239.761C113.984 237.913 111.967 237.693 111.947 237.692C111.761 237.674 111.619 237.45 111.633 237.193C111.645 236.936 111.807 236.742 111.996 236.761C112.093 236.771 114.386 237.021 115.377 239.28C115.474 239.5 115.422 239.786 115.262 239.919L115.163 239.975Z" fill="#313F44"/>
<path d="M103.945 238.804C103.831 238.84 103.708 238.797 103.622 238.672C103.492 238.487 103.497 238.191 103.632 238.013C104.989 236.227 106.52 236.692 106.584 236.713C106.767 236.771 106.88 237.022 106.838 237.272C106.796 237.521 106.614 237.679 106.432 237.621C106.381 237.607 105.186 237.261 104.102 238.687L103.945 238.804Z" fill="#313F44"/>
<path d="M111.378 240.962L109.963 240.556C109.963 240.556 110.754 241.968 111.378 240.962Z" fill="#313F44"/>
<path d="M86.1109 277.05L86.7848 279.945C87.0373 281.034 87.6575 281.887 88.4497 282.235L92.1514 283.863C93.6314 284.516 95.2494 284.141 96.4929 282.861L97.2617 282.068C96.3845 277.164 92.8049 272.75 92.8049 272.75L91.8861 271.338C91.0678 270.079 89.746 269.935 88.8514 271.004L86.7889 273.47C86.0769 274.321 85.8074 275.746 86.1109 277.05Z" fill="#FBB578"/>
<path d="M61.2191 279.701L61.8926 282.596C62.1451 283.684 62.7665 284.536 63.5583 284.886L67.2592 286.515C68.7393 287.167 70.3576 286.793 71.6007 285.512L72.3706 284.719C71.4923 279.813 67.913 275.402 67.913 275.402L66.9938 273.987C66.1759 272.731 64.855 272.585 63.9585 273.656L61.8968 276.121C61.1858 276.972 60.9152 278.398 61.2191 279.701Z" fill="#FBB578"/>
<path d="M114.721 294.029C113.987 288.955 116.644 284.789 118.012 283.03C117.806 283.811 117.611 284.632 117.431 285.49C117.059 287.277 116.754 289.226 116.57 291.32C115.959 292.265 115.337 293.188 114.721 294.029Z" fill="#2E373B"/>
<path d="M16.2959 438.844L20.9863 441.447C20.9863 441.447 60.8682 358.793 64.5582 361.9C77.9286 373.152 105.413 393.264 118.42 381.085C131.426 368.918 123.707 336.797 123.707 336.797C123.707 336.797 98.4106 324.596 95.2857 332.139C94.6776 333.597 93.8201 336.55 93.136 339.089C92.4821 341.477 91.9786 343.497 91.9786 343.497L91.9635 343.48C91.1982 342.982 66.4011 326.592 54.725 333.344C42.8622 340.214 16.2959 438.844 16.2959 438.844Z" fill="#FBB578"/>
<path d="M102.77 385.498C102.77 385.498 90.2247 386.623 73.0441 378.602C73.0441 378.602 68.8092 444.425 65.9662 480.145L60.204 479.032C60.204 479.032 50.4146 381.52 52.3516 369.63C54.2883 357.742 64.7598 356.962 64.7598 356.962C64.7598 356.962 84.8075 377.175 102.77 385.498Z" fill="#FBB578"/>
<path d="M102.77 385.498C102.735 385.489 102.519 385.491 102.146 385.493C99.4747 385.51 88.6853 385.527 77.6804 381.236L79.3125 371.872C85.6368 377.593 94.4396 381.083 102.77 385.498Z" fill="#4B7ABC"/>
<path d="M101.555 385.496C98.294 385.496 88.9506 385.282 79.1541 381.786L79.6719 379.073C83.2647 381.587 86.0744 382.987 86.2543 383.078L86.263 383.081C92.3329 384.814 101.104 385.354 102.564 385.476C102.611 385.482 102.657 385.487 102.705 385.493C102.667 385.492 102.614 385.491 102.547 385.491C102.445 385.491 102.311 385.492 102.146 385.493C101.981 385.494 101.783 385.496 101.555 385.496ZM80.797 373.187C80.7744 373.168 80.7517 373.148 80.7294 373.128L80.1171 372.576C80.3439 372.769 80.574 372.959 80.8065 373.147L80.797 373.187Z" fill="#FFF3AD"/>
<path d="M78.2529 370.897L76.749 381.319L79.0379 382.39L80.7969 373.189L78.2529 370.897Z" fill="#4B7ABC"/>
<path d="M79.0379 382.39L76.749 381.319L77.3224 377.345C78.1289 377.969 78.9177 378.545 79.6717 379.073L79.1539 381.786L79.0379 382.39ZM80.7293 373.128C80.2519 372.713 79.7798 372.293 79.3123 371.871C78.9536 371.546 78.601 371.223 78.2521 370.904L78.2529 370.897L80.7293 373.128Z" fill="#FFF6C3"/>
<path d="M54.3836 414.659C53.8601 408.008 53.3846 401.539 53.0044 395.649C53.3846 401.531 53.86 407.988 54.3854 414.629C54.3843 414.638 54.3843 414.648 54.3836 414.659Z" fill="#CECFCF"/>
<path d="M52.1814 379.619C52.0355 374.867 52.0699 371.354 52.3484 369.634C52.9411 365.999 54.33 363.403 55.9745 361.55C54.3319 363.403 52.943 365.999 52.3515 369.631C52.0707 371.352 52.0366 374.867 52.1814 379.619Z" fill="#CC9360"/>
<path d="M54.3853 414.629C53.8599 407.988 53.3845 401.531 53.0043 395.649C52.6093 389.532 52.3179 384.039 52.1815 379.619C52.0367 374.866 52.0708 371.352 52.3516 369.631C52.9431 365.999 54.332 363.403 55.9746 361.55C59.7095 357.341 64.7571 356.964 64.7571 356.964C64.7571 356.964 70.0987 363.39 78.2523 370.903L77.3225 377.344C72.1718 373.358 66.3098 367.443 64.1943 360.07C64.1943 360.07 59.338 361.036 56.2373 366.393C53.1362 371.751 53.5243 385.182 54.4318 411.085C54.4651 412.128 54.4518 413.314 54.3853 414.629Z" fill="#CC9360"/>
<path d="M102.564 385.476C101.104 385.354 92.3329 384.814 86.2629 383.081L86.2543 383.078C86.0744 382.987 83.2647 381.587 79.6719 379.073L79.8869 377.948L83.0428 378.809L83.174 378.197C89.1827 382.293 96.0984 384.705 102.564 385.476ZM80.797 373.189L80.7294 373.128C80.7517 373.148 80.7743 373.168 80.797 373.187V373.189Z" fill="#E7DAC2"/>
<path d="M79.693 379.03C78.939 378.502 78.1503 377.925 77.3438 377.301L78.2735 370.86C78.6223 371.18 78.9749 371.502 79.3336 371.827C79.8011 372.25 80.2732 372.67 80.7506 373.085L80.8183 373.145L79.7085 377.851L79.9081 377.905L79.693 379.03Z" fill="#E5D6B8" stroke="#E5D6B8" stroke-width="0.288" stroke-miterlimit="22.9256"/>
<path d="M14.2212 430.469C14.1014 430.47 13.8947 430.495 13.8542 430.637C13.7231 431.092 14.4937 432.513 15.3717 433.745C15.3754 432.924 15.3082 431.518 14.852 430.838C14.7273 430.653 14.5825 430.538 14.4136 430.492L14.2212 430.469ZM12.4335 432.397C12.2925 432.416 12.1875 432.485 12.1126 432.613C11.9104 432.954 11.9652 433.113 11.9841 433.164C12.1946 433.762 13.6959 434.054 14.9628 434.11C14.2401 433.351 13.0908 432.315 12.4335 432.397ZM11.6084 433.415C11.5211 433.169 11.4825 432.769 11.7872 432.251C11.9357 432.001 12.1406 431.856 12.3968 431.826C12.8806 431.765 13.511 432.138 14.0908 432.606C13.6501 431.805 13.3122 430.961 13.4649 430.427C13.5647 430.08 13.8176 429.899 14.2174 429.895C14.5924 429.889 14.9087 430.076 15.1597 430.45C15.9462 431.624 15.7791 434.305 15.7712 434.429L15.7406 434.555L15.7066 434.612L15.6401 434.671H15.6389L15.5652 434.691C15.2198 434.697 14.0466 434.693 13.0579 434.426C12.3806 434.24 11.7902 433.931 11.6084 433.415Z" fill="#313F44"/>
<path d="M56.0178 469.189C55.9108 469.262 55.7313 469.405 55.7384 469.557C55.7634 470.046 56.9037 470.874 58.0821 471.467C57.8278 470.724 57.3277 469.495 56.7041 469.151C56.5986 469.093 56.4943 469.064 56.3911 469.064C56.2668 469.064 56.1436 469.105 56.0178 469.189ZM55.0075 471.986C54.885 472.085 54.8121 472.211 54.7845 472.369C54.7089 472.798 54.8087 472.908 54.8408 472.945C55.2169 473.358 56.6641 472.735 57.8259 472.038C56.9358 471.781 55.5748 471.525 55.0075 471.986ZM54.5804 473.393C54.4254 473.221 54.2648 472.881 54.3778 472.234C54.433 471.921 54.5739 471.671 54.795 471.491C55.2123 471.154 55.8971 471.119 56.568 471.196C55.9206 470.733 55.3507 470.168 55.322 469.597C55.3042 469.225 55.4758 468.915 55.8356 468.672C56.1716 468.448 56.5159 468.429 56.8595 468.617C57.9381 469.214 58.6252 471.738 58.6566 471.851L58.6676 471.986V471.988L58.6578 472.049L58.6566 472.05L58.6101 472.151L58.5595 472.204L58.5587 472.204L58.5515 472.209C58.1316 472.493 56.3586 473.643 55.2546 473.643C54.9768 473.643 54.7414 473.57 54.5804 473.393Z" fill="#313F44"/>
<path d="M23.9485 438.664C24.2036 437.851 16.7976 433.923 16.7976 433.923C16.7976 433.923 10.2953 437.305 5.52854 435.97C0.762174 434.635 1.97619 439.703 6.78073 442.748C11.5875 445.794 15.254 448.117 18.6688 450.281C22.0836 452.445 21.2907 447.095 23.9485 438.664Z" fill="#313F44"/>
<path d="M67.3645 470.848C67.341 469.962 59.4252 470.787 59.4252 470.787C59.4252 470.787 54.6105 477.679 49.8895 479.288C45.1685 480.897 47.8485 484.756 53.1399 484.669C58.4308 484.582 62.4696 484.516 66.2299 484.454C69.9897 484.392 67.6007 480.03 67.3645 470.848Z" fill="#313F44"/>
<path d="M123.707 336.797C123.707 336.797 98.4108 324.596 95.2859 332.139C94.6778 333.597 93.8203 336.548 93.1362 339.089C92.4823 341.477 91.9788 343.497 91.9788 343.497L91.9637 343.48L89.8903 342.173L81.4136 376.928C94.8865 387.196 113.938 388.388 121.74 381.085C134.746 368.918 123.707 336.797 123.707 336.797Z" fill="#4B7ABC"/>
<path d="M107.045 385.749C105.651 385.749 104.216 385.666 102.759 385.499C102.742 385.497 102.722 385.494 102.705 385.493C96.1983 384.741 89.2266 382.324 83.1741 378.197L90.7686 342.726L91.9637 343.48L91.9788 343.497C91.9788 343.497 92.4823 341.477 93.1362 339.089C93.6933 337.018 94.3668 334.674 94.925 333.089V333.095L123.256 337.822C124.564 343.698 125.531 347.692 125.531 347.692H126.531C127.374 351.937 128.079 356.983 128.078 361.986C128.078 363.896 127.975 365.8 127.738 367.65C127.064 372.913 125.306 377.75 121.74 381.085C118.434 384.18 113.11 385.749 107.045 385.749ZM93.1362 339.089C92.4823 341.477 91.9788 343.497 91.9788 343.497L106.575 352.007C106.575 352.007 99.0836 343.326 93.1362 339.089Z" fill="#FFDA96"/>
<path d="M106.575 352.007L91.9788 343.498C91.9788 343.498 92.4822 341.478 93.1361 339.089C99.0836 343.326 106.575 352.007 106.575 352.007Z" fill="#FFDA96" stroke="#FFDA96" stroke-width="0.288" stroke-miterlimit="22.9256"/>
<path d="M94.9248 333.095L95.4358 324.515L123.707 329.679L124.081 337.96L94.9248 333.095Z" fill="#4B7ABC"/>
<path d="M123.256 337.822L94.9248 333.095L95.4358 324.515L121.409 329.258C121.503 329.703 121.595 330.144 121.687 330.581L115.722 329.396H115.714L115.308 335.424L123.004 336.681C123.089 337.068 123.173 337.45 123.256 337.822ZM97.9196 332.569L113.897 335.188L114.31 329.111L98.3694 325.923L97.9196 332.569ZM95.2857 332.138L96.5092 332.336L96.9669 325.652L95.4921 325.354L95.2857 332.138Z" fill="#FFDA96"/>
<path d="M95.4923 325.354L96.967 325.652L96.5094 332.336L95.2859 332.138L95.4923 325.354Z" fill="#313F44"/>
<path d="M98.3697 325.923L114.31 329.112L113.897 335.189L97.9199 332.57L98.3697 325.923Z" fill="#313F44"/>
<path d="M123.707 336.795L115.308 335.424L115.714 329.396H115.722L123.301 330.903L123.707 336.795Z" fill="#313F44"/>
<path d="M96.5094 332.336L95.2859 332.138L95.4923 325.354L96.967 325.652L96.5094 332.336Z" fill="#2E373B"/>
<path d="M113.897 335.189L97.9199 332.57L98.3697 325.923L114.31 329.112L113.897 335.189Z" fill="#2E373B"/>
<path d="M123.004 336.681L115.308 335.424L115.714 329.396H115.722L121.687 330.581C122.142 332.739 122.587 334.794 123.004 336.681Z" fill="#2E373B"/>
<path d="M102.164 333.38L102.105 333.991L106.645 334.817H106.646L106.815 334.834C107.455 334.834 108.009 334.185 108.096 333.292L108.498 329.115L108.509 328.881C108.509 328.001 108.037 327.241 107.386 327.123L102.847 326.296L102.675 326.28C102.035 326.28 101.483 326.93 101.396 327.822L100.994 331.999L100.982 332.235C100.982 333.113 101.455 333.873 102.105 333.991L102.164 333.38L102.222 332.767C102.025 332.732 101.881 332.498 101.881 332.235L101.885 332.162V332.16L102.287 327.985C102.312 327.713 102.484 327.515 102.675 327.515L102.729 327.52L107.269 328.347C107.467 328.381 107.61 328.615 107.61 328.881L107.607 328.954L107.205 333.129C107.18 333.399 107.008 333.598 106.815 333.598L106.762 333.593L102.223 332.767H102.222L102.164 333.38Z" fill="#FEFEFE"/>
<path d="M105.353 331.166L106.953 331.514C107.198 331.567 107.429 331.336 107.468 331C107.506 330.663 107.339 330.347 107.093 330.294L105.493 329.946C105.247 329.892 105.017 330.123 104.979 330.459C104.94 330.796 105.107 331.113 105.353 331.166Z" fill="#FEFEFE"/>
<path d="M88.6782 339.77L91.0359 341.479L83.0429 378.808L79.6875 377.894L88.6782 339.77Z" fill="#4B7ABC"/>
<path d="M83.0429 378.808L79.887 377.948L79.6875 377.894L88.6782 339.77L91.0359 341.479L90.9081 342.076L90.7687 342.726L83.1741 378.196L83.0429 378.808Z" fill="#FFF6C3"/>
<path d="M86.7928 302.082H66.9838C66.2215 302.082 65.5488 301.226 65.4823 300.174L62.724 264.049C62.6582 262.996 63.2232 262.143 63.9863 262.143H83.7952C84.5587 262.143 85.2299 262.996 85.2964 264.049L88.0547 300.174C88.1212 301.226 87.5558 302.082 86.7928 302.082Z" fill="#313F44"/>
<path d="M86.7929 302.082H85.9648C86.7278 302.082 87.2937 301.226 87.2271 300.174L84.4696 264.049C84.4019 262.996 83.7307 262.143 82.9672 262.143H63.9864H83.7953C84.5588 262.143 85.23 262.996 85.2965 264.049L88.0548 300.174C88.0586 300.231 88.0605 300.287 88.0605 300.345C88.0586 301.318 87.5147 302.082 86.7929 302.082Z" fill="#A9B0B3"/>
<path d="M85.9648 302.082H66.9839C66.2216 302.082 65.5489 301.226 65.4824 300.174L62.7241 264.049C62.7207 263.992 62.7195 263.935 62.7195 263.879C62.7206 262.905 63.2653 262.143 63.9864 262.143H82.9672C83.7307 262.143 84.4019 262.996 84.4696 264.049L87.2271 300.174C87.2937 301.226 86.7278 302.082 85.9648 302.082ZM66.3841 262.143L67.0119 263.925C67.2421 264.58 67.7285 265.012 68.2403 265.012H78.702C79.2126 265.012 79.645 264.58 79.7935 263.925L80.196 262.143H66.3841Z" fill="#BAC0C2"/>
<path d="M78.7021 265.012H68.2404C67.7286 265.012 67.2422 264.58 67.012 263.925L66.3843 262.143H80.1962L79.7936 263.925C79.6451 264.58 79.2128 265.012 78.7021 265.012Z" fill="#84898A"/>
<path d="M129.208 347.692H125.531C125.531 347.692 120.938 328.741 118.258 312.681C117.457 307.95 116.838 303.465 116.54 299.796C116.1 294.348 116.594 289.505 117.431 285.49C119.086 277.595 122.088 272.865 122.088 272.865L121.341 272.801C128.301 272.703 132.059 276.015 132.526 281.968C133.004 287.912 125.298 323.254 124.938 327.975C124.588 332.706 129.208 347.692 129.208 347.692Z" fill="#FFF6C3"/>
<path d="M105.456 272.133C105.456 272.133 98.0981 288.067 96.126 294.846C94.1553 301.626 95.2858 321.008 95.2858 321.008C95.2858 321.008 91.5191 297.676 93.9433 286.11C96.3671 274.545 100.554 272.168 105.456 272.133Z" fill="#FFF6C3"/>
<path d="M130.674 286.497C128.426 291.127 126.079 295.288 123.253 299.362C121.832 301.387 120.334 303.355 118.436 305.212C117.473 306.132 116.436 307.064 114.963 307.804C114.221 308.163 113.345 308.489 112.251 308.535C111.689 308.54 111.102 308.49 110.47 308.267C110.179 308.179 109.811 307.996 109.578 307.869L109.109 307.573C107.877 306.761 106.913 305.849 106.032 304.901C105.153 303.953 104.365 302.978 103.625 301.986C102.141 300.001 100.843 297.925 99.6084 295.819C97.1502 291.582 95.0401 287.195 93.1212 282.5C92.5154 281.02 92.8983 279.145 93.9766 278.312C94.8825 277.613 95.9914 277.875 96.6815 278.857L96.7288 278.924C99.2694 282.542 101.912 286.182 104.546 289.542C105.865 291.224 107.215 292.825 108.559 294.245C109.871 295.659 111.322 296.902 112.333 297.4L112.511 297.487L112.293 297.371C112.118 297.31 112.004 297.274 111.911 297.274C111.758 297.253 111.801 297.247 111.934 297.14C112.213 296.93 112.766 296.437 113.305 295.814C114.41 294.556 115.583 292.857 116.715 291.095C118.958 287.541 121.2 283.485 123.219 279.614L123.289 279.48C124.734 276.711 127.539 276.076 129.554 278.06C131.526 280.004 132.006 283.745 130.674 286.497Z" fill="#FBB779"/>
<path d="M118.258 312.681C117.884 310.469 117.55 308.314 117.268 306.269C117.683 305.923 118.065 305.566 118.436 305.211C120.334 303.355 121.832 301.387 123.253 299.362C125.453 296.19 127.363 292.965 129.161 289.508C129.497 290.457 129.694 291.073 129.694 291.073C129.694 291.073 123.221 306.244 118.258 312.681ZM116.57 291.32C116.754 289.226 117.059 287.276 117.431 285.49C119.489 283.167 121.521 280.857 122.555 279.684C122.792 279.412 123.047 279.288 123.313 279.288C123.339 279.288 123.365 279.29 123.391 279.292C123.356 279.354 123.323 279.415 123.289 279.48L123.22 279.614C121.2 283.485 118.958 287.541 116.715 291.095C116.666 291.17 116.618 291.244 116.57 291.32Z" fill="#FFF3AD"/>
<path d="M117.268 306.269C116.948 303.937 116.698 301.75 116.54 299.796C116.295 296.772 116.34 293.932 116.57 291.32C116.618 291.244 116.666 291.17 116.715 291.095C118.958 287.541 121.2 283.485 123.219 279.614L123.289 279.48C123.323 279.416 123.356 279.354 123.391 279.292C125.393 279.466 128.045 286.344 129.161 289.509C127.363 292.965 125.453 296.19 123.253 299.362C121.832 301.387 120.334 303.355 118.436 305.212C118.065 305.566 117.683 305.923 117.268 306.269Z" fill="#CA9362"/>
<path d="M130.158 277.034C133.546 279.543 132.52 286.273 128.078 294.256C123.636 302.238 115.599 313.018 111.377 311.049C107.156 309.081 102.378 301.368 102.378 301.368L105.456 289.409C105.456 289.409 111.512 295.722 112.773 295.396C114.033 295.071 120.196 284.113 121.975 280.713C123.755 277.313 126.482 274.312 130.158 277.034Z" fill="#FFF6C3"/>
<path d="M66.9723 277.74L66.8438 280.11C66.7746 281.379 66.0758 282.411 65.1596 282.598L62.8159 283.076L63.3696 274.379L65.3289 274.857C66.3366 275.091 67.0486 276.341 66.9723 277.74Z" fill="#FAB27A"/>
<path d="M5.15005 222.136C18.0859 222.136 28.5726 209.5 28.5726 193.914C28.5726 178.327 18.0859 165.691 5.15005 165.691C-7.78583 165.691 -18.2725 178.327 -18.2725 193.914C-18.2725 209.5 -7.78583 222.136 5.15005 222.136Z" fill="#FEFEFE"/>
<path d="M-1.78153 298.424L-0.899397 298.572C-0.884279 298.715 -0.850579 298.813 -0.798044 298.867C-0.723965 298.943 -0.608692 298.982 -0.451464 298.982C-0.250015 298.982 -0.0992121 298.941 0.00207923 298.857C0.0693548 298.802 0.121081 298.712 0.155475 298.588C0.178908 298.501 0.191056 298.337 0.191056 298.1L0.19482 297.513C-0.0376206 297.951 -0.329757 298.169 -0.681631 298.169C-1.07357 298.169 -1.38427 297.94 -1.61293 297.485C-1.79284 297.125 -1.88281 296.675 -1.88281 296.14C-1.88281 295.466 -1.76453 294.952 -1.52944 294.597C-1.29435 294.242 -1.00143 294.064 -0.65107 294.064C-0.290503 294.064 0.00736467 294.282 0.241695 294.719V294.149H0.960913V297.753C0.960913 298.227 0.932944 298.582 0.875874 298.816C0.819559 299.051 0.739799 299.234 0.636996 299.368C0.534948 299.501 0.398144 299.607 0.226932 299.682C0.0549631 299.758 -0.160836 299.795 -0.422379 299.795C-0.91712 299.795 -1.26748 299.678 -1.47422 299.444C-1.68134 299.209 -1.78419 298.914 -1.78419 298.554C-1.78419 298.519 -1.78342 298.475 -1.78153 298.424ZM-1.09022 296.078C-1.09022 296.504 -1.03048 296.815 -0.91143 297.012C-0.791619 297.21 -0.643508 297.309 -0.468516 297.309C-0.281052 297.309 -0.121939 297.207 0.00732037 297.004C0.137714 296.802 0.20235 296.503 0.20235 296.105C0.20235 295.689 0.140377 295.381 0.016031 295.179C-0.107938 294.978 -0.265192 294.877 -0.455303 294.877C-0.639744 294.877 -0.791619 294.977 -0.91143 295.174C-1.03048 295.372 -1.09022 295.673 -1.09022 296.078Z" fill="#FEFEFE"/>
<path d="M1.72437 293.607V292.624H2.4943V293.607H1.72437ZM1.72437 298.169V294.149H2.4943V298.169H1.72437Z" fill="#FEFEFE"/>
<path d="M5.93854 298.169H5.16831V296.12C5.16831 295.686 5.15166 295.406 5.11878 295.28C5.08514 295.152 5.03189 295.054 4.95667 294.983C4.88184 294.912 4.79185 294.877 4.68716 294.877C4.55223 294.877 4.4313 294.928 4.32434 295.028C4.21662 295.129 4.14367 295.263 4.10436 295.428C4.0643 295.595 4.04464 295.902 4.04464 296.351V298.169H3.27441V294.149H3.98832V294.739C4.24381 294.289 4.5651 294.064 4.95402 294.064C5.12447 294.064 5.28097 294.107 5.42232 294.191C5.56481 294.276 5.67139 294.383 5.74358 294.513C5.81691 294.645 5.86716 294.793 5.8955 294.96C5.92423 295.126 5.93854 295.364 5.93854 295.674V298.169Z" fill="#FEFEFE"/>
<path fill-rule="evenodd" clip-rule="evenodd" d="M72.2269 282.115L72.3709 282.099L72.4431 282.11L72.5614 282.104L72.668 282.079L72.679 281.952L72.6521 281.833L72.5954 281.639L72.4926 281.367L72.4393 281.175L72.3633 280.986L72.2185 280.511L72.1804 280.432L72.1433 280.333L72.1203 280.218L72.0859 280.14L72.0632 280.056L71.9827 279.864L71.9566 279.754L71.7053 279.027L71.683 278.923L71.6414 278.829L71.618 278.734L71.5458 278.552L71.4815 278.458L71.3565 278.406L71.2344 278.463L71.166 278.552L71.1312 278.64L71.1044 278.745L71.07 278.818L70.9192 279.298L70.8768 279.377L70.8575 279.482L70.8156 279.582L70.7926 279.674L70.4056 280.793L70.3821 280.908L70.3443 280.986L70.3171 281.091L70.2498 281.258L70.1916 281.467L70.1501 281.54L70.1315 281.634L70.0556 281.843L70.0325 281.948L70.0514 282.079L70.1278 282.11L70.2755 282.099L70.3515 282.11L70.565 282.099L70.6523 282.062L70.7245 281.969L70.7926 281.796L70.8648 281.698L70.9449 281.639L71.0171 281.656L71.177 281.634L71.2457 281.65L71.618 281.646L71.6868 281.656L71.7699 281.639L71.8539 281.698L71.926 281.781L71.9604 281.88L71.9827 281.974L72.0591 282.053L72.1472 282.104L72.2269 282.115ZM71.3633 280.813L71.2873 280.793L71.2004 280.803L71.1392 280.767L71.135 280.668L71.3141 280.103L71.3565 280.056L71.409 280.098L71.5881 280.673L71.5723 280.767L71.5156 280.809L71.3633 280.813ZM72.8422 281.917L72.869 282.053L72.9416 282.104L73.0179 282.115L73.1775 282.099L73.3249 282.11L73.47 282.099L73.5422 282.115L73.6257 282.104L74.3789 282.11L74.4511 282.057L74.4931 281.895L74.4893 281.472L74.4549 281.316L74.3862 281.252L74.3067 281.264L74.2338 281.284L74.1541 281.269L73.9979 281.274L73.9232 281.252L73.854 281.269L73.7058 281.258L73.6257 281.269L73.5497 281.227L73.5191 281.122L73.5228 279.351L73.5153 279.225L73.5228 279.016L73.5116 278.719L73.5153 278.62L73.4775 278.505L73.4016 278.442H73.2538L73.1775 278.463L73.0247 278.442L72.9525 278.458L72.8728 278.499L72.8384 278.615V279.346L72.8312 279.445L72.8384 279.549L72.8275 279.743L72.8312 279.858L72.8384 279.958L72.8422 281.917ZM75.732 282.12L76.2763 282.11L76.356 282.062L76.3976 281.952V281.426L76.356 281.322L76.2763 281.274L76.1893 281.284L76.1164 281.269L75.9225 281.264L75.7974 281.284L75.7215 281.274L75.6375 281.28L75.5653 281.264L75.4814 281.274L75.4017 281.222L75.3711 281.128V280.798L75.4055 280.689L75.4739 280.632L75.5884 280.626L75.7097 280.641L75.8538 280.632L76.0098 280.637L76.0858 280.626L76.1738 280.632L76.2494 280.589L76.2763 280.485L76.2872 280.015L76.2494 279.868L76.1617 279.8H75.938L75.8586 279.811L75.6987 279.796L75.4776 279.806L75.3979 279.758L75.3673 279.597V279.435L75.4017 279.335L75.4853 279.293L75.5578 279.298L75.6299 279.278L76.1738 279.288L76.2457 279.283L76.3254 279.221L76.3632 279.126L76.3598 279.021L76.3632 278.917L76.356 278.604L76.3216 278.505L76.2457 278.463H76.1656L76.0979 278.442L75.7898 278.447L75.706 278.458L75.6299 278.447L75.5653 278.452L75.4886 278.442L75.1768 278.452L75.1008 278.437L75.0294 278.458L74.9606 278.447L74.8847 278.458L74.8083 278.452L74.7285 278.494L74.687 278.604L74.6941 278.802L74.6832 279.016L74.6941 279.131L74.687 279.644L74.698 279.754L74.6904 279.853L74.687 280.28L74.698 280.375L74.6941 281.222L74.687 281.322L74.698 281.426L74.687 281.786L74.6941 281.901L74.7248 282.042L74.8389 282.11L75.1125 282.115L75.1965 282.104L75.2653 282.11L75.4213 282.095L75.4924 282.115L75.5805 282.12L75.6561 282.11L75.732 282.12Z" fill="#373435"/>
<path d="M70.2214 286.285L70.4082 286.274L70.4766 286.279L70.5643 286.269L70.6436 286.227L70.678 286.117L70.6743 286.013L70.678 285.898L70.6705 285.705L70.678 285.606L70.6743 285.485L70.7087 285.391L70.7956 285.333L70.8795 285.323L70.9593 285.344L71.3512 285.302L71.7125 285.103L71.7692 285.041L71.8229 284.958L71.872 284.89L71.9215 284.811L72.0012 284.644L72.0659 284.44L72.0772 284.325L72.1003 284.242L72.1078 283.813L72.0927 283.724L72.081 283.609L72.0356 283.416L71.9634 283.238L71.872 283.066L71.7008 282.862L71.5757 282.747L71.4234 282.684L71.3587 282.648H71.2827L71.2068 282.611L71.0923 282.606L70.9709 282.611L70.8871 282.627L70.655 282.622L70.579 282.606L70.3432 282.627L70.2601 282.622L70.1916 282.606L70.1115 282.627L70.0317 282.684L69.9973 282.768L70.0011 283.4L69.9856 283.609L69.9932 283.708L69.9894 285.062L69.9973 285.161L69.9932 286.127L70.0355 286.227L70.1531 286.279L70.2214 286.285ZM70.7918 284.497L70.7158 284.435L70.6818 284.346L70.6705 283.923L70.678 283.813V283.598L70.7158 283.499L70.7956 283.448L71.1913 283.463L71.2672 283.51L71.3281 283.568L71.378 283.635L71.4158 283.74L71.4271 283.834L71.4347 283.98L71.4271 284.121L71.4003 284.215L71.3663 284.299L71.3168 284.383L71.2559 284.445L71.195 284.472L71.0775 284.492L70.8832 284.487L70.7918 284.497Z" fill="#373435"/>
<path d="M73.2713 286.285L73.8155 286.274L73.8953 286.227L73.9369 286.117V285.59L73.8953 285.485L73.8155 285.438L73.7279 285.448L73.6557 285.433L73.4618 285.427L73.3359 285.448L73.2599 285.438L73.176 285.443L73.1038 285.427L73.0207 285.438L72.941 285.386L72.9103 285.292V284.963L72.9447 284.853L73.0132 284.795L73.1269 284.79L73.2482 284.806L73.3933 284.795L73.5487 284.8L73.6251 284.79L73.7124 284.795L73.7887 284.753L73.8155 284.649L73.8269 284.179L73.7887 284.033L73.701 283.965H73.4765L73.3967 283.975L73.2373 283.959L73.0169 283.97L72.9371 283.923L72.9062 283.761V283.598L72.941 283.499L73.0241 283.458L73.0967 283.463L73.1688 283.442L73.7124 283.453L73.7846 283.448L73.8647 283.384L73.9028 283.29L73.8991 283.186L73.9028 283.081L73.8953 282.768L73.8609 282.668L73.7846 282.627H73.7048L73.6363 282.606L73.3284 282.611L73.2452 282.622L73.1688 282.611L73.1038 282.616L73.0279 282.606L72.7164 282.616L72.6405 282.601L72.5683 282.622L72.4999 282.611L72.4235 282.622L72.3475 282.616L72.2678 282.658L72.2255 282.768L72.233 282.966L72.2217 283.18L72.233 283.296L72.2255 283.808L72.2372 283.917L72.2293 284.017L72.2255 284.445L72.2372 284.539L72.233 285.386L72.2255 285.485L72.2372 285.59L72.2255 285.95L72.233 286.065L72.2637 286.206L72.3778 286.274L72.6518 286.279L72.7349 286.269L72.8034 286.274L72.9595 286.258L73.0316 286.279L73.1193 286.285L73.1953 286.274L73.2713 286.285Z" fill="#373435"/>
<path d="M76.1044 286.18L76.2068 286.263L76.3138 286.279L76.3973 286.243L76.4351 286.138L76.4426 284.231L76.4313 284.142V283.625L76.4426 283.5L76.4313 282.773L76.3935 282.668L76.3176 282.611L75.8455 282.617L75.7733 282.674L75.7317 282.784L75.728 282.893L75.7396 282.977L75.728 283.196L75.7355 283.311L75.728 284.247L75.7049 284.336L75.6482 284.299L75.3784 283.928L75.2718 283.813L74.5223 282.773L74.4656 282.711L74.3779 282.648L74.2641 282.611L74.1765 282.663L74.1421 282.763V284.346L74.1383 284.435L74.1458 284.649L74.1345 284.738L74.1421 285.595L74.1345 285.694L74.1421 286.133L74.1765 286.232L74.2565 286.269L74.4123 286.279L74.4954 286.269L74.6439 286.285L74.7237 286.279L74.7997 286.227L74.8382 286.065L74.842 284.743L74.8496 284.639L74.876 284.55L74.9256 284.576L74.9751 284.665L75.2449 285.02L75.2944 285.098L75.359 285.156L75.9487 285.961L76.0469 286.113L76.1044 286.18Z" fill="#373435"/>
<path d="M76.7389 286.122L76.785 286.222L76.8572 286.279L76.9332 286.274L77.0855 286.285L77.1653 286.274L77.3248 286.279L77.4045 286.217L77.4351 286.117L77.443 286.018L77.4351 285.903V284.978L77.4691 284.869L77.5489 284.8L77.9979 284.795L78.0777 284.811H78.146L78.2182 284.869L78.2567 284.968L78.2606 286.122L78.3021 286.206L78.4125 286.274H78.6102L78.6861 286.263L78.8422 286.279L78.9144 286.212L78.9598 286.122L78.9522 285.647L78.9639 285.48L78.9522 285.396L78.9559 282.773L78.922 282.663L78.846 282.622L78.4087 282.617L78.2984 282.654L78.2606 282.778L78.2567 282.977L78.2643 283.066L78.2567 283.28L78.2681 283.379L78.2643 283.787L78.2224 283.891L78.146 283.949L78.0738 283.933L77.9257 283.954L77.8456 283.944L77.7771 283.954L77.553 283.949L77.4808 283.902L77.443 283.803L77.4393 283.687V283.578L77.4351 283.484L77.4393 283.076L77.4468 282.961L77.4393 282.768L77.4045 282.668L77.3248 282.611L77.2408 282.622L76.8652 282.611L76.7812 282.663L76.7431 282.768L76.7351 282.883L76.7431 283.29L76.7351 283.395L76.7506 283.609L76.7431 283.808L76.7468 283.933L76.7389 284.038V285.601L76.7506 285.694L76.7389 286.122Z" fill="#373435"/>
<path d="M81.2225 286.279L81.3672 286.263L81.4394 286.274L81.557 286.269L81.6639 286.243L81.6753 286.117L81.6484 285.997L81.5914 285.804L81.4886 285.532L81.4357 285.339L81.3594 285.151L81.215 284.676L81.1768 284.597L81.139 284.497L81.1159 284.383L81.0819 284.304L81.0588 284.221L80.9791 284.027L80.9522 283.918L80.7017 283.191L80.6786 283.087L80.637 282.993L80.614 282.899L80.5418 282.716L80.4771 282.622L80.3514 282.569L80.23 282.627L80.1616 282.716L80.1275 282.804L80.1007 282.909L80.0663 282.982L79.9141 283.463L79.8724 283.541L79.8535 283.646L79.812 283.745L79.7889 283.839L79.4008 284.958L79.3785 285.073L79.3399 285.151L79.3131 285.255L79.2447 285.422L79.188 285.631L79.1464 285.705L79.1271 285.799L79.0512 286.008L79.0281 286.113L79.0474 286.243L79.1234 286.274L79.2715 286.263L79.3479 286.274L79.5606 286.263L79.6483 286.227L79.7205 286.133L79.7889 285.961L79.8611 285.861L79.9408 285.804L80.013 285.819L80.1729 285.799L80.2414 285.814L80.614 285.81L80.6824 285.819L80.7663 285.804L80.8499 285.861L80.922 285.945L80.9561 286.044L80.9791 286.138L81.0551 286.217L81.1428 286.269L81.2225 286.279ZM80.3593 284.978L80.2829 284.958L80.196 284.968L80.1348 284.931L80.131 284.832L80.3097 284.268L80.3514 284.221L80.405 284.263L80.5834 284.837L80.5687 284.931L80.5112 284.973L80.3593 284.978Z" fill="#373435"/>
<path d="M69.4259 282.152L69.517 282.11L69.6005 281.958L69.6512 281.812L69.6727 281.703L69.7456 281.536L69.7688 281.432L69.8069 281.322L69.8288 281.232L69.8711 281.137L70.0193 280.663L70.0462 280.547L70.1142 280.38L70.4456 279.305L70.4834 279.21L70.5473 279.021L70.567 278.923L70.6395 278.739L70.6656 278.599L70.6471 278.489L70.5779 278.468L70.4989 278.457L70.4297 278.442L70.358 278.452L70.2819 278.457L70.1376 278.437L70.0537 278.505L69.9887 278.593L69.6353 279.743L69.6126 279.853L69.5782 279.941L69.5627 280.036L69.5257 280.13L69.4497 280.422L69.4112 280.516L69.3696 280.506L69.2739 280.223L69.2593 280.125L69.1939 279.946L69.0038 279.267L68.9051 278.99L68.7985 278.593L68.7343 278.505L68.6462 278.452L68.43 278.442L68.354 278.457H68.2089L68.1488 278.494L68.1182 278.599L68.2395 279.043L68.2781 279.121L68.297 279.22L68.3272 279.325L68.3688 279.403L68.3956 279.512L68.738 280.569L68.7607 280.673L68.8564 280.945L68.882 281.055L68.9471 281.232L68.989 281.326L69.0075 281.432L69.1595 281.927L69.1939 282.005L69.2702 282.094L69.3537 282.137L69.4259 282.152Z" fill="#373435"/>
<path d="M78.6136 278.404L78.5225 278.446L78.4386 278.598L78.3895 278.744L78.3664 278.853L78.2942 279.02L78.2712 279.125L78.2334 279.235L78.2103 279.323L78.1688 279.418L78.0206 279.893L77.9938 280.008L77.9253 280.175L77.5943 281.251L77.5565 281.346L77.4919 281.534L77.4725 281.633L77.4004 281.816L77.3735 281.957L77.3928 282.067L77.4612 282.087L77.541 282.098L77.6094 282.114L77.6816 282.103L77.7579 282.098L77.9023 282.119L77.9862 282.051L78.0505 281.963L78.4042 280.813L78.4273 280.703L78.4617 280.614L78.4764 280.52L78.5146 280.426L78.5905 280.133L78.6283 280.039L78.6707 280.05L78.7659 280.333L78.7807 280.432L78.8456 280.609L79.0358 281.288L79.1348 281.565L79.241 281.963L79.3056 282.051L79.3929 282.103L79.6099 282.114L79.6858 282.098H79.8302L79.8911 282.062L79.9217 281.957L79.8004 281.513L79.7618 281.435L79.7429 281.336L79.7127 281.231L79.6703 281.152L79.6443 281.043L79.3015 279.987L79.2792 279.883L79.1839 279.611L79.1571 279.501L79.0925 279.323L79.0509 279.229L79.032 279.125L78.8797 278.628L78.8456 278.55L78.7697 278.462L78.6858 278.419L78.6136 278.404Z" fill="#C40008"/>
<path d="M5.34705 172.007C2.33552 172.007 -0.128391 176.22 -0.128391 181.411C-0.128391 186.602 2.33552 190.815 5.34705 190.815C8.3582 190.815 10.8221 186.602 10.8221 181.411C10.8221 176.22 8.3582 172.007 5.34705 172.007ZM-0.374798 190.815C-3.27672 191.004 -5.60376 194.276 -5.60376 198.339V202.1H16.2979V198.339C16.2979 194.276 13.998 191.004 11.0688 190.815C9.59028 193.11 7.5645 194.577 5.34705 194.577C3.12923 194.577 1.10338 193.11 -0.374798 190.815Z" fill="#C40008"/>
</g>
</svg>
